<?xml version="1.0" encoding="utf-8" standalone="no"?>
<!DOCTYPE svg PUBLIC "-//W3C//DTD SVG 1.1//EN"
  "http://www.w3.org/Graphics/SVG/1.1/DTD/svg11.dtd">
<!-- Created with matplotlib (https://matplotlib.org/) -->
<svg height="576pt" version="1.1" viewBox="0 0 864 576" width="864pt" xmlns="http://www.w3.org/2000/svg" xmlns:xlink="http://www.w3.org/1999/xlink">
 <defs>
  <style type="text/css">
*{stroke-linecap:butt;stroke-linejoin:round;}
  </style>
 </defs>
 <g id="figure_1">
  <g id="patch_1">
   <path d="M 0 576 
L 864 576 
L 864 0 
L 0 0 
z
" style="fill:#ffffff;"/>
  </g>
  <g id="axes_1">
   <g id="patch_2">
    <path d="M 108 504 
L 777.6 504 
L 777.6 69.12 
L 108 69.12 
z
" style="fill:#ffffff;"/>
   </g>
   <g id="patch_3">
    <path clip-path="url(#p030d6acd0b)" d="M 138.436364 504 
L 138.436364 501.446539 
L 139.653818 501.446539 
L 139.653818 498.853793 
L 140.871273 498.853793 
L 140.871273 496.811024 
L 142.088727 496.811024 
L 142.088727 494.964675 
L 143.306182 494.964675 
L 143.306182 493.196894 
L 144.523636 493.196894 
L 144.523636 491.154125 
L 145.741091 491.154125 
L 145.741091 489.032788 
L 146.958545 489.032788 
L 146.958545 486.872167 
L 148.176 486.872167 
L 148.176 484.868682 
L 149.393455 484.868682 
L 149.393455 482.354505 
L 150.610909 482.354505 
L 150.610909 479.918895 
L 151.828364 479.918895 
L 151.828364 477.758274 
L 153.045818 477.758274 
L 153.045818 475.244097 
L 154.263273 475.244097 
L 154.263273 472.297795 
L 155.480727 472.297795 
L 155.480727 470.176458 
L 156.698182 470.176458 
L 156.698182 467.897985 
L 157.915636 467.897985 
L 157.915636 465.30524 
L 159.133091 465.30524 
L 159.133091 463.183903 
L 160.350545 463.183903 
L 160.350545 461.141134 
L 161.568 461.141134 
L 161.568 459.334069 
L 162.785455 459.334069 
L 162.785455 457.2913 
L 164.002909 457.2913 
L 164.002909 455.248531 
L 165.220364 455.248531 
L 165.220364 453.362898 
L 166.437818 453.362898 
L 166.437818 451.04514 
L 167.655273 451.04514 
L 167.655273 449.080939 
L 168.872727 449.080939 
L 168.872727 446.881034 
L 170.090182 446.881034 
L 170.090182 445.034685 
L 171.307636 445.034685 
L 171.307636 442.756212 
L 172.525091 442.756212 
L 172.525091 440.792011 
L 173.742545 440.792011 
L 173.742545 438.749242 
L 174.96 438.749242 
L 174.96 436.863609 
L 176.177455 436.863609 
L 176.177455 435.370816 
L 177.394909 435.370816 
L 177.394909 433.681603 
L 178.612364 433.681603 
L 178.612364 431.560266 
L 179.829818 431.560266 
L 179.829818 429.163941 
L 181.047273 429.163941 
L 181.047273 426.689048 
L 182.264727 426.689048 
L 182.264727 425.078403 
L 183.482182 425.078403 
L 183.482182 422.79993 
L 184.699636 422.79993 
L 184.699636 420.914297 
L 185.917091 420.914297 
L 185.917091 418.557255 
L 187.134545 418.557255 
L 187.134545 416.593054 
L 188.352 416.593054 
L 188.352 414.668137 
L 189.569455 414.668137 
L 189.569455 412.428948 
L 190.786909 412.428948 
L 190.786909 410.621883 
L 192.004364 410.621883 
L 192.004364 408.73625 
L 193.221818 408.73625 
L 193.221818 406.418493 
L 194.439273 406.418493 
L 194.439273 404.964984 
L 195.656727 404.964984 
L 195.656727 403.118635 
L 196.874182 403.118635 
L 196.874182 401.31157 
L 198.091636 401.31157 
L 198.091636 399.308085 
L 199.309091 399.308085 
L 199.309091 397.893861 
L 200.526545 397.893861 
L 200.526545 396.086796 
L 201.744 396.086796 
L 201.744 394.122595 
L 202.961455 394.122595 
L 202.961455 392.079825 
L 204.178909 392.079825 
L 204.178909 390.037056 
L 205.396364 390.037056 
L 205.396364 388.190707 
L 206.613818 388.190707 
L 206.613818 386.619347 
L 207.831273 386.619347 
L 207.831273 384.930134 
L 209.048727 384.930134 
L 209.048727 383.398057 
L 210.266182 383.398057 
L 210.266182 381.826696 
L 211.483636 381.826696 
L 211.483636 380.373187 
L 212.701091 380.373187 
L 212.701091 378.526838 
L 213.918545 378.526838 
L 213.918545 376.798341 
L 215.136 376.798341 
L 215.136 375.187697 
L 216.353455 375.187697 
L 216.353455 373.26278 
L 217.570909 373.26278 
L 217.570909 371.612851 
L 218.788364 371.612851 
L 218.788364 370.198626 
L 220.005818 370.198626 
L 220.005818 368.155857 
L 221.223273 368.155857 
L 221.223273 366.113088 
L 222.440727 366.113088 
L 222.440727 364.502443 
L 223.658182 364.502443 
L 223.658182 362.577526 
L 224.875636 362.577526 
L 224.875636 360.456189 
L 226.093091 360.456189 
L 226.093091 358.845544 
L 227.310545 358.845544 
L 227.310545 357.156331 
L 228.528 357.156331 
L 228.528 355.506402 
L 229.745455 355.506402 
L 229.745455 353.660053 
L 230.962909 353.660053 
L 230.962909 352.010125 
L 232.180364 352.010125 
L 232.180364 350.556616 
L 233.397818 350.556616 
L 233.397818 348.867403 
L 234.615273 348.867403 
L 234.615273 346.196089 
L 235.832727 346.196089 
L 235.832727 344.506877 
L 237.050182 344.506877 
L 237.050182 343.131936 
L 238.267636 343.131936 
L 238.267636 341.442723 
L 239.485091 341.442723 
L 239.485091 339.832078 
L 240.702545 339.832078 
L 240.702545 337.985729 
L 241.92 337.985729 
L 241.92 336.53222 
L 243.137455 336.53222 
L 243.137455 334.76444 
L 244.354909 334.76444 
L 244.354909 333.114511 
L 245.572364 333.114511 
L 245.572364 331.818138 
L 246.789818 331.818138 
L 246.789818 330.286061 
L 248.007273 330.286061 
L 248.007273 328.636132 
L 249.224727 328.636132 
L 249.224727 327.14334 
L 250.442182 327.14334 
L 250.442182 325.061286 
L 251.659636 325.061286 
L 251.659636 323.293506 
L 252.877091 323.293506 
L 252.877091 321.800713 
L 254.094545 321.800713 
L 254.094545 320.70076 
L 255.312 320.70076 
L 255.312 318.972263 
L 256.529455 318.972263 
L 256.529455 317.243766 
L 257.746909 317.243766 
L 257.746909 315.475985 
L 258.964364 315.475985 
L 258.964364 313.511784 
L 260.181818 313.511784 
L 260.181818 311.979708 
L 261.399273 311.979708 
L 261.399273 310.486915 
L 262.616727 310.486915 
L 262.616727 309.151258 
L 263.834182 309.151258 
L 263.834182 307.737033 
L 265.051636 307.737033 
L 265.051636 306.519229 
L 266.269091 306.519229 
L 266.269091 304.594312 
L 267.486545 304.594312 
L 267.486545 302.472975 
L 268.704 302.472975 
L 268.704 300.940898 
L 269.921455 300.940898 
L 269.921455 299.290969 
L 271.138909 299.290969 
L 271.138909 297.876744 
L 272.356364 297.876744 
L 272.356364 296.383951 
L 273.573818 296.383951 
L 273.573818 295.009011 
L 274.791273 295.009011 
L 274.791273 293.555502 
L 276.008727 293.555502 
L 276.008727 291.630585 
L 277.226182 291.630585 
L 277.226182 290.294928 
L 278.443636 290.294928 
L 278.443636 288.527147 
L 279.661091 288.527147 
L 279.661091 287.191491 
L 280.878545 287.191491 
L 280.878545 285.934402 
L 282.096 285.934402 
L 282.096 284.205905 
L 283.313455 284.205905 
L 283.313455 282.516692 
L 284.530909 282.516692 
L 284.530909 281.41674 
L 285.748364 281.41674 
L 285.748364 279.884663 
L 286.965818 279.884663 
L 286.965818 278.116882 
L 288.183273 278.116882 
L 288.183273 276.545521 
L 289.400727 276.545521 
L 289.400727 275.209864 
L 290.618182 275.209864 
L 290.618182 273.677788 
L 291.835636 273.677788 
L 291.835636 272.145711 
L 293.053091 272.145711 
L 293.053091 270.77077 
L 294.270545 270.77077 
L 294.270545 269.160125 
L 295.488 269.160125 
L 295.488 267.785184 
L 296.705455 267.785184 
L 296.705455 266.253108 
L 297.922909 266.253108 
L 297.922909 264.838883 
L 299.140364 264.838883 
L 299.140364 262.913966 
L 300.357818 262.913966 
L 300.357818 261.578309 
L 301.575273 261.578309 
L 301.575273 260.1248 
L 302.792727 260.1248 
L 302.792727 258.671292 
L 304.010182 258.671292 
L 304.010182 256.982079 
L 305.227636 256.982079 
L 305.227636 255.764274 
L 306.445091 255.764274 
L 306.445091 254.153629 
L 307.662545 254.153629 
L 307.662545 252.542985 
L 308.88 252.542985 
L 308.88 250.853772 
L 310.097455 250.853772 
L 310.097455 249.478831 
L 311.314909 249.478831 
L 311.314909 247.986038 
L 312.532364 247.986038 
L 312.532364 246.768233 
L 313.749818 246.768233 
L 313.749818 245.471861 
L 314.967273 245.471861 
L 314.967273 243.979068 
L 316.184727 243.979068 
L 316.184727 242.839831 
L 317.402182 242.839831 
L 317.402182 241.229187 
L 318.619636 241.229187 
L 318.619636 239.736394 
L 319.837091 239.736394 
L 319.837091 238.557873 
L 321.054545 238.557873 
L 321.054545 237.104364 
L 322.272 237.104364 
L 322.272 235.258015 
L 323.489455 235.258015 
L 323.489455 234.079495 
L 324.706909 234.079495 
L 324.706909 232.704554 
L 325.924364 232.704554 
L 325.924364 231.447465 
L 327.141818 231.447465 
L 327.141818 229.993957 
L 328.359273 229.993957 
L 328.359273 228.6583 
L 329.576727 228.6583 
L 329.576727 227.401211 
L 330.794182 227.401211 
L 330.794182 225.711998 
L 332.011636 225.711998 
L 332.011636 224.494194 
L 333.229091 224.494194 
L 333.229091 223.079969 
L 334.446545 223.079969 
L 334.446545 221.508608 
L 335.664 221.508608 
L 335.664 219.897963 
L 336.881455 219.897963 
L 336.881455 218.523023 
L 338.098909 218.523023 
L 338.098909 217.148082 
L 339.316364 217.148082 
L 339.316364 215.812425 
L 340.533818 215.812425 
L 340.533818 214.319633 
L 341.751273 214.319633 
L 341.751273 212.944692 
L 342.968727 212.944692 
L 342.968727 211.491183 
L 344.186182 211.491183 
L 344.186182 210.469799 
L 345.403636 210.469799 
L 345.403636 209.448414 
L 346.621091 209.448414 
L 346.621091 208.62345 
L 347.838545 208.62345 
L 347.838545 207.523497 
L 349.056 207.523497 
L 349.056 206.462828 
L 350.273455 206.462828 
L 350.273455 205.00932 
L 351.490909 205.00932 
L 351.490909 203.673663 
L 352.708364 203.673663 
L 352.708364 202.534426 
L 353.925818 202.534426 
L 353.925818 201.159486 
L 355.143273 201.159486 
L 355.143273 200.216669 
L 356.360727 200.216669 
L 356.360727 199.352421 
L 357.578182 199.352421 
L 357.578182 197.898912 
L 358.795636 197.898912 
L 358.795636 196.838243 
L 360.013091 196.838243 
L 360.013091 195.895427 
L 361.230545 195.895427 
L 361.230545 194.520486 
L 362.448 194.520486 
L 362.448 193.616954 
L 363.665455 193.616954 
L 363.665455 192.674137 
L 364.882909 192.674137 
L 364.882909 191.652753 
L 366.100364 191.652753 
L 366.100364 190.277812 
L 367.317818 190.277812 
L 367.317818 189.295711 
L 368.535273 189.295711 
L 368.535273 187.606499 
L 369.752727 187.606499 
L 369.752727 186.54583 
L 370.970182 186.54583 
L 370.970182 185.76015 
L 372.187636 185.76015 
L 372.187636 184.738765 
L 373.405091 184.738765 
L 373.405091 183.756665 
L 374.622545 183.756665 
L 374.622545 182.263872 
L 375.84 182.263872 
L 375.84 181.085351 
L 377.057455 181.085351 
L 377.057455 180.024683 
L 378.274909 180.024683 
L 378.274909 179.003298 
L 379.492364 179.003298 
L 379.492364 178.060482 
L 380.709818 178.060482 
L 380.709818 177.117665 
L 381.927273 177.117665 
L 381.927273 176.253417 
L 383.144727 176.253417 
L 383.144727 175.074896 
L 384.362182 175.074896 
L 384.362182 174.3285 
L 385.579636 174.3285 
L 385.579636 172.914275 
L 386.797091 172.914275 
L 386.797091 171.814322 
L 388.014545 171.814322 
L 388.014545 171.185778 
L 389.232 171.185778 
L 389.232 170.439382 
L 390.449455 170.439382 
L 390.449455 169.496565 
L 391.666909 169.496565 
L 391.666909 168.750169 
L 392.884364 168.750169 
L 392.884364 167.846636 
L 394.101818 167.846636 
L 394.101818 167.021672 
L 395.319273 167.021672 
L 395.319273 166.196707 
L 396.536727 166.196707 
L 396.536727 165.411027 
L 397.754182 165.411027 
L 397.754182 164.389642 
L 398.971636 164.389642 
L 398.971636 163.407542 
L 400.189091 163.407542 
L 400.189091 162.504009 
L 401.406545 162.504009 
L 401.406545 161.561193 
L 402.624 161.561193 
L 402.624 161.011217 
L 403.841455 161.011217 
L 403.841455 160.26482 
L 405.058909 160.26482 
L 405.058909 159.047016 
L 406.276364 159.047016 
L 406.276364 158.143483 
L 407.493818 158.143483 
L 407.493818 157.161383 
L 408.711273 157.161383 
L 408.711273 156.45427 
L 409.928727 156.45427 
L 409.928727 155.707874 
L 411.146182 155.707874 
L 411.146182 154.765057 
L 412.363636 154.765057 
L 412.363636 153.625821 
L 413.581091 153.625821 
L 413.581091 152.918708 
L 414.798545 152.918708 
L 414.798545 152.05446 
L 416.016 152.05446 
L 416.016 151.26878 
L 417.233455 151.26878 
L 417.233455 150.483099 
L 418.450909 150.483099 
L 418.450909 149.500999 
L 419.668364 149.500999 
L 419.668364 148.951022 
L 420.885818 148.951022 
L 420.885818 148.24391 
L 422.103273 148.24391 
L 422.103273 147.693934 
L 423.320727 147.693934 
L 423.320727 147.183241 
L 424.538182 147.183241 
L 424.538182 146.358277 
L 425.755636 146.358277 
L 425.755636 145.926153 
L 426.973091 145.926153 
L 426.973091 145.376176 
L 428.190545 145.376176 
L 428.190545 144.669064 
L 429.408 144.669064 
L 429.408 143.883384 
L 430.625455 143.883384 
L 430.625455 143.490543 
L 431.842909 143.490543 
L 431.842909 142.822715 
L 433.060364 142.822715 
L 433.060364 142.272739 
L 434.277818 142.272739 
L 434.277818 141.683479 
L 435.495273 141.683479 
L 435.495273 141.054934 
L 436.712727 141.054934 
L 436.712727 140.190686 
L 437.930182 140.190686 
L 437.930182 139.522857 
L 439.147636 139.522857 
L 439.147636 138.933597 
L 440.365091 138.933597 
L 440.365091 138.305053 
L 441.582545 138.305053 
L 441.582545 137.440804 
L 442.8 137.440804 
L 442.8 136.890828 
L 444.017455 136.890828 
L 444.017455 136.223 
L 445.234909 136.223 
L 445.234909 135.594455 
L 446.452364 135.594455 
L 446.452364 134.926627 
L 447.669818 134.926627 
L 447.669818 134.415935 
L 448.887273 134.415935 
L 448.887273 133.944526 
L 450.104727 133.944526 
L 450.104727 133.39455 
L 451.322182 133.39455 
L 451.322182 132.530302 
L 452.539636 132.530302 
L 452.539636 132.255314 
L 453.757091 132.255314 
L 453.757091 131.705337 
L 454.974545 131.705337 
L 454.974545 130.958941 
L 456.192 130.958941 
L 456.192 130.330397 
L 457.409455 130.330397 
L 457.409455 129.701852 
L 458.626909 129.701852 
L 458.626909 129.269728 
L 459.844364 129.269728 
L 459.844364 128.955456 
L 461.061818 128.955456 
L 461.061818 128.287628 
L 462.279273 128.287628 
L 462.279273 127.934071 
L 463.496727 127.934071 
L 463.496727 127.384095 
L 464.714182 127.384095 
L 464.714182 126.912687 
L 465.931636 126.912687 
L 465.931636 126.480563 
L 467.149091 126.480563 
L 467.149091 125.694882 
L 468.366545 125.694882 
L 468.366545 125.18419 
L 469.584 125.18419 
L 469.584 124.79135 
L 470.801455 124.79135 
L 470.801455 124.280657 
L 472.018909 124.280657 
L 472.018909 124.005669 
L 473.236364 124.005669 
L 473.236364 123.612829 
L 474.453818 123.612829 
L 474.453818 123.259273 
L 475.671273 123.259273 
L 475.671273 122.748581 
L 476.888727 122.748581 
L 476.888727 122.316456 
L 478.106182 122.316456 
L 478.106182 121.845048 
L 479.323636 121.845048 
L 479.323636 121.412924 
L 480.541091 121.412924 
L 480.541091 121.059368 
L 481.758545 121.059368 
L 481.758545 120.430823 
L 482.976 120.430823 
L 482.976 120.116551 
L 484.193455 120.116551 
L 484.193455 119.841563 
L 485.410909 119.841563 
L 485.410909 119.448723 
L 486.628364 119.448723 
L 486.628364 119.134451 
L 487.845818 119.134451 
L 487.845818 118.54519 
L 489.063273 118.54519 
L 489.063273 117.995214 
L 490.280727 117.995214 
L 490.280727 117.641658 
L 491.498182 117.641658 
L 491.498182 117.36667 
L 492.715636 117.36667 
L 492.715636 117.17025 
L 493.933091 117.17025 
L 493.933091 116.738125 
L 495.150545 116.738125 
L 495.150545 116.306001 
L 496.368 116.306001 
L 496.368 116.031013 
L 497.585455 116.031013 
L 497.585455 115.795309 
L 498.802909 115.795309 
L 498.802909 115.284617 
L 500.020364 115.284617 
L 500.020364 115.009629 
L 501.237818 115.009629 
L 501.237818 114.73464 
L 502.455273 114.73464 
L 502.455273 114.302516 
L 503.672727 114.302516 
L 503.672727 113.713256 
L 504.890182 113.713256 
L 504.890182 113.241848 
L 506.107636 113.241848 
L 506.107636 112.96686 
L 507.325091 112.96686 
L 507.325091 112.456167 
L 508.542545 112.456167 
L 508.542545 112.141895 
L 509.76 112.141895 
L 509.76 111.631203 
L 510.977455 111.631203 
L 510.977455 111.395499 
L 512.194909 111.395499 
L 512.194909 111.277647 
L 513.412364 111.277647 
L 513.412364 111.002659 
L 514.629818 111.002659 
L 514.629818 110.766954 
L 515.847273 110.766954 
L 515.847273 110.570534 
L 517.064727 110.570534 
L 517.064727 110.177694 
L 518.282182 110.177694 
L 518.282182 109.784854 
L 519.499636 109.784854 
L 519.499636 109.470582 
L 520.717091 109.470582 
L 520.717091 109.15631 
L 521.934545 109.15631 
L 521.934545 108.881321 
L 523.152 108.881321 
L 523.152 108.606333 
L 524.369455 108.606333 
L 524.369455 108.449197 
L 525.586909 108.449197 
L 525.586909 108.252777 
L 526.804364 108.252777 
L 526.804364 107.977789 
L 528.021818 107.977789 
L 528.021818 107.742085 
L 529.239273 107.742085 
L 529.239273 107.467097 
L 530.456727 107.467097 
L 530.456727 107.11354 
L 531.674182 107.11354 
L 531.674182 106.91712 
L 532.891636 106.91712 
L 532.891636 106.681416 
L 534.109091 106.681416 
L 534.109091 106.484996 
L 535.326545 106.484996 
L 535.326545 106.170724 
L 536.544 106.170724 
L 536.544 105.974304 
L 537.761455 105.974304 
L 537.761455 105.7386 
L 538.978909 105.7386 
L 538.978909 105.620748 
L 540.196364 105.620748 
L 540.196364 105.267192 
L 541.413818 105.267192 
L 541.413818 104.952919 
L 542.631273 104.952919 
L 542.631273 104.835067 
L 543.848727 104.835067 
L 543.848727 104.520795 
L 545.066182 104.520795 
L 545.066182 104.245807 
L 546.283636 104.245807 
L 546.283636 103.931535 
L 547.501091 103.931535 
L 547.501091 103.695831 
L 548.718545 103.695831 
L 548.718545 103.381559 
L 549.936 103.381559 
L 549.936 103.185138 
L 551.153455 103.185138 
L 551.153455 103.028002 
L 552.370909 103.028002 
L 552.370909 102.91015 
L 553.588364 102.91015 
L 553.588364 102.635162 
L 554.805818 102.635162 
L 554.805818 102.32089 
L 556.023273 102.32089 
L 556.023273 102.163754 
L 557.240727 102.163754 
L 557.240727 101.849482 
L 558.458182 101.849482 
L 558.458182 101.456642 
L 559.675636 101.456642 
L 559.675636 101.024517 
L 560.893091 101.024517 
L 560.893091 100.828097 
L 562.110545 100.828097 
L 562.110545 100.592393 
L 563.328 100.592393 
L 563.328 100.395973 
L 565.762909 100.356689 
L 565.762909 100.278121 
L 566.980364 100.278121 
L 566.980364 100.003133 
L 568.197818 100.003133 
L 568.197818 99.728145 
L 570.632727 99.649577 
L 570.632727 99.413872 
L 571.850182 99.413872 
L 571.850182 99.29602 
L 573.067636 99.29602 
L 573.067636 99.138884 
L 574.285091 99.138884 
L 574.285091 98.667476 
L 575.502545 98.667476 
L 575.502545 98.392488 
L 576.72 98.392488 
L 576.72 98.156784 
L 577.937455 98.156784 
L 577.937455 97.685376 
L 580.372364 97.606807 
L 580.372364 97.292535 
L 581.589818 97.292535 
L 581.589818 97.135399 
L 584.024727 97.056831 
L 584.024727 97.017547 
L 586.459636 96.938979 
L 586.459636 96.821127 
L 587.677091 96.821127 
L 587.677091 96.703275 
L 588.894545 96.703275 
L 588.894545 96.467571 
L 590.112 96.467571 
L 590.112 96.310435 
L 591.329455 96.310435 
L 591.329455 96.192583 
L 592.546909 96.192583 
L 592.546909 95.996163 
L 593.764364 95.996163 
L 593.764364 95.760459 
L 596.199273 95.760459 
L 596.199273 95.603322 
L 597.416727 95.603322 
L 597.416727 95.367618 
L 598.634182 95.367618 
L 598.634182 95.210482 
L 601.069091 95.171198 
L 601.069091 95.053346 
L 602.286545 95.053346 
L 602.286545 94.89621 
L 603.504 94.89621 
L 603.504 94.621222 
L 604.721455 94.621222 
L 604.721455 94.50337 
L 605.938909 94.50337 
L 605.938909 94.30695 
L 607.156364 94.30695 
L 607.156364 94.11053 
L 609.591273 94.031962 
L 609.591273 93.835542 
L 612.026182 93.796258 
L 612.026182 93.639121 
L 614.461091 93.560553 
L 614.461091 93.481985 
L 615.678545 93.481985 
L 615.678545 93.364133 
L 616.896 93.364133 
L 616.896 93.246281 
L 618.113455 93.246281 
L 618.113455 93.089145 
L 620.548364 93.049861 
L 620.548364 92.814157 
L 621.765818 92.814157 
L 621.765818 92.696305 
L 625.418182 92.617737 
L 625.418182 92.539169 
L 627.853091 92.460601 
L 627.853091 92.303465 
L 631.505455 92.264181 
L 631.505455 92.146329 
L 632.722909 92.146329 
L 632.722909 91.989193 
L 633.940364 91.989193 
L 633.940364 91.87134 
L 636.375273 91.832056 
L 636.375273 91.596352 
L 640.027636 91.517784 
L 640.027636 91.439216 
L 644.897455 91.360648 
L 644.897455 91.321364 
L 646.114909 91.321364 
L 646.114909 91.164228 
L 648.549818 91.08566 
L 648.549818 90.967808 
L 650.984727 90.88924 
L 650.984727 90.849956 
L 655.854545 90.771388 
L 655.854545 90.732104 
L 659.506909 90.69282 
L 659.506909 90.614252 
L 665.594182 90.535684 
L 665.594182 90.4964 
L 671.681455 90.4964 
L 671.681455 90.378548 
L 681.421091 90.29998 
L 681.421091 90.221412 
L 687.508364 90.142844 
L 687.508364 90.10356 
L 714.292364 90.024992 
L 714.292364 89.985708 
L 732.554182 89.907139 
L 732.554182 89.867855 
L 747.163636 89.828571 
L 747.163636 504 
L 747.163636 504 
" style="fill:none;stroke:#1f77b4;stroke-linejoin:miter;"/>
   </g>
   <g id="matplotlib.axis_1">
    <g id="xtick_1">
     <g id="line2d_1">
      <path clip-path="url(#p030d6acd0b)" d="M 138.419192 504 
L 138.419192 69.12 
" style="fill:none;stroke:#808080;stroke-dasharray:9.6,2.4,1.5,2.4;stroke-dashoffset:0;stroke-opacity:0.6;stroke-width:1.5;"/>
     </g>
     <g id="line2d_2">
      <defs>
       <path d="M 0 0 
L 0 3.5 
" id="mdb5f00a9e1" style="stroke:#000000;stroke-width:0.8;"/>
      </defs>
      <g>
       <use style="stroke:#000000;stroke-width:0.8;" x="138.419192" xlink:href="#mdb5f00a9e1" y="504"/>
      </g>
     </g>
     <g id="text_1">
      <!-- 0 -->
      <defs>
       <path d="M 31.78125 66.40625 
Q 24.171875 66.40625 20.328125 58.90625 
Q 16.5 51.421875 16.5 36.375 
Q 16.5 21.390625 20.328125 13.890625 
Q 24.171875 6.390625 31.78125 6.390625 
Q 39.453125 6.390625 43.28125 13.890625 
Q 47.125 21.390625 47.125 36.375 
Q 47.125 51.421875 43.28125 58.90625 
Q 39.453125 66.40625 31.78125 66.40625 
z
M 31.78125 74.21875 
Q 44.046875 74.21875 50.515625 64.515625 
Q 56.984375 54.828125 56.984375 36.375 
Q 56.984375 17.96875 50.515625 8.265625 
Q 44.046875 -1.421875 31.78125 -1.421875 
Q 19.53125 -1.421875 13.0625 8.265625 
Q 6.59375 17.96875 6.59375 36.375 
Q 6.59375 54.828125 13.0625 64.515625 
Q 19.53125 74.21875 31.78125 74.21875 
z
" id="DejaVuSans-48"/>
      </defs>
      <g transform="translate(135.237942 518.598438)scale(0.1 -0.1)">
       <use xlink:href="#DejaVuSans-48"/>
      </g>
     </g>
    </g>
    <g id="xtick_2">
     <g id="line2d_3">
      <path clip-path="url(#p030d6acd0b)" d="M 229.904633 504 
L 229.904633 69.12 
" style="fill:none;stroke:#808080;stroke-dasharray:9.6,2.4,1.5,2.4;stroke-dashoffset:0;stroke-opacity:0.6;stroke-width:1.5;"/>
     </g>
     <g id="line2d_4">
      <g>
       <use style="stroke:#000000;stroke-width:0.8;" x="229.904633" xlink:href="#mdb5f00a9e1" y="504"/>
      </g>
     </g>
     <g id="text_2">
      <!-- 10 -->
      <defs>
       <path d="M 12.40625 8.296875 
L 28.515625 8.296875 
L 28.515625 63.921875 
L 10.984375 60.40625 
L 10.984375 69.390625 
L 28.421875 72.90625 
L 38.28125 72.90625 
L 38.28125 8.296875 
L 54.390625 8.296875 
L 54.390625 0 
L 12.40625 0 
z
" id="DejaVuSans-49"/>
      </defs>
      <g transform="translate(223.542133 518.598438)scale(0.1 -0.1)">
       <use xlink:href="#DejaVuSans-49"/>
       <use x="63.623047" xlink:href="#DejaVuSans-48"/>
      </g>
     </g>
    </g>
    <g id="xtick_3">
     <g id="line2d_5">
      <path clip-path="url(#p030d6acd0b)" d="M 321.390075 504 
L 321.390075 69.12 
" style="fill:none;stroke:#808080;stroke-dasharray:9.6,2.4,1.5,2.4;stroke-dashoffset:0;stroke-opacity:0.6;stroke-width:1.5;"/>
     </g>
     <g id="line2d_6">
      <g>
       <use style="stroke:#000000;stroke-width:0.8;" x="321.390075" xlink:href="#mdb5f00a9e1" y="504"/>
      </g>
     </g>
     <g id="text_3">
      <!-- 20 -->
      <defs>
       <path d="M 19.1875 8.296875 
L 53.609375 8.296875 
L 53.609375 0 
L 7.328125 0 
L 7.328125 8.296875 
Q 12.9375 14.109375 22.625 23.890625 
Q 32.328125 33.6875 34.8125 36.53125 
Q 39.546875 41.84375 41.421875 45.53125 
Q 43.3125 49.21875 43.3125 52.78125 
Q 43.3125 58.59375 39.234375 62.25 
Q 35.15625 65.921875 28.609375 65.921875 
Q 23.96875 65.921875 18.8125 64.3125 
Q 13.671875 62.703125 7.8125 59.421875 
L 7.8125 69.390625 
Q 13.765625 71.78125 18.9375 73 
Q 24.125 74.21875 28.421875 74.21875 
Q 39.75 74.21875 46.484375 68.546875 
Q 53.21875 62.890625 53.21875 53.421875 
Q 53.21875 48.921875 51.53125 44.890625 
Q 49.859375 40.875 45.40625 35.40625 
Q 44.1875 33.984375 37.640625 27.21875 
Q 31.109375 20.453125 19.1875 8.296875 
z
" id="DejaVuSans-50"/>
      </defs>
      <g transform="translate(315.027575 518.598438)scale(0.1 -0.1)">
       <use xlink:href="#DejaVuSans-50"/>
       <use x="63.623047" xlink:href="#DejaVuSans-48"/>
      </g>
     </g>
    </g>
    <g id="xtick_4">
     <g id="line2d_7">
      <path clip-path="url(#p030d6acd0b)" d="M 412.875517 504 
L 412.875517 69.12 
" style="fill:none;stroke:#808080;stroke-dasharray:9.6,2.4,1.5,2.4;stroke-dashoffset:0;stroke-opacity:0.6;stroke-width:1.5;"/>
     </g>
     <g id="line2d_8">
      <g>
       <use style="stroke:#000000;stroke-width:0.8;" x="412.875517" xlink:href="#mdb5f00a9e1" y="504"/>
      </g>
     </g>
     <g id="text_4">
      <!-- 30 -->
      <defs>
       <path d="M 40.578125 39.3125 
Q 47.65625 37.796875 51.625 33 
Q 55.609375 28.21875 55.609375 21.1875 
Q 55.609375 10.40625 48.1875 4.484375 
Q 40.765625 -1.421875 27.09375 -1.421875 
Q 22.515625 -1.421875 17.65625 -0.515625 
Q 12.796875 0.390625 7.625 2.203125 
L 7.625 11.71875 
Q 11.71875 9.328125 16.59375 8.109375 
Q 21.484375 6.890625 26.8125 6.890625 
Q 36.078125 6.890625 40.9375 10.546875 
Q 45.796875 14.203125 45.796875 21.1875 
Q 45.796875 27.640625 41.28125 31.265625 
Q 36.765625 34.90625 28.71875 34.90625 
L 20.21875 34.90625 
L 20.21875 43.015625 
L 29.109375 43.015625 
Q 36.375 43.015625 40.234375 45.921875 
Q 44.09375 48.828125 44.09375 54.296875 
Q 44.09375 59.90625 40.109375 62.90625 
Q 36.140625 65.921875 28.71875 65.921875 
Q 24.65625 65.921875 20.015625 65.03125 
Q 15.375 64.15625 9.8125 62.3125 
L 9.8125 71.09375 
Q 15.4375 72.65625 20.34375 73.4375 
Q 25.25 74.21875 29.59375 74.21875 
Q 40.828125 74.21875 47.359375 69.109375 
Q 53.90625 64.015625 53.90625 55.328125 
Q 53.90625 49.265625 50.4375 45.09375 
Q 46.96875 40.921875 40.578125 39.3125 
z
" id="DejaVuSans-51"/>
      </defs>
      <g transform="translate(406.513017 518.598438)scale(0.1 -0.1)">
       <use xlink:href="#DejaVuSans-51"/>
       <use x="63.623047" xlink:href="#DejaVuSans-48"/>
      </g>
     </g>
    </g>
    <g id="xtick_5">
     <g id="line2d_9">
      <path clip-path="url(#p030d6acd0b)" d="M 504.360958 504 
L 504.360958 69.12 
" style="fill:none;stroke:#808080;stroke-dasharray:9.6,2.4,1.5,2.4;stroke-dashoffset:0;stroke-opacity:0.6;stroke-width:1.5;"/>
     </g>
     <g id="line2d_10">
      <g>
       <use style="stroke:#000000;stroke-width:0.8;" x="504.360958" xlink:href="#mdb5f00a9e1" y="504"/>
      </g>
     </g>
     <g id="text_5">
      <!-- 40 -->
      <defs>
       <path d="M 37.796875 64.3125 
L 12.890625 25.390625 
L 37.796875 25.390625 
z
M 35.203125 72.90625 
L 47.609375 72.90625 
L 47.609375 25.390625 
L 58.015625 25.390625 
L 58.015625 17.1875 
L 47.609375 17.1875 
L 47.609375 0 
L 37.796875 0 
L 37.796875 17.1875 
L 4.890625 17.1875 
L 4.890625 26.703125 
z
" id="DejaVuSans-52"/>
      </defs>
      <g transform="translate(497.998458 518.598438)scale(0.1 -0.1)">
       <use xlink:href="#DejaVuSans-52"/>
       <use x="63.623047" xlink:href="#DejaVuSans-48"/>
      </g>
     </g>
    </g>
    <g id="xtick_6">
     <g id="line2d_11">
      <path clip-path="url(#p030d6acd0b)" d="M 595.8464 504 
L 595.8464 69.12 
" style="fill:none;stroke:#808080;stroke-dasharray:9.6,2.4,1.5,2.4;stroke-dashoffset:0;stroke-opacity:0.6;stroke-width:1.5;"/>
     </g>
     <g id="line2d_12">
      <g>
       <use style="stroke:#000000;stroke-width:0.8;" x="595.8464" xlink:href="#mdb5f00a9e1" y="504"/>
      </g>
     </g>
     <g id="text_6">
      <!-- 50 -->
      <defs>
       <path d="M 10.796875 72.90625 
L 49.515625 72.90625 
L 49.515625 64.59375 
L 19.828125 64.59375 
L 19.828125 46.734375 
Q 21.96875 47.46875 24.109375 47.828125 
Q 26.265625 48.1875 28.421875 48.1875 
Q 40.625 48.1875 47.75 41.5 
Q 54.890625 34.8125 54.890625 23.390625 
Q 54.890625 11.625 47.5625 5.09375 
Q 40.234375 -1.421875 26.90625 -1.421875 
Q 22.3125 -1.421875 17.546875 -0.640625 
Q 12.796875 0.140625 7.71875 1.703125 
L 7.71875 11.625 
Q 12.109375 9.234375 16.796875 8.0625 
Q 21.484375 6.890625 26.703125 6.890625 
Q 35.15625 6.890625 40.078125 11.328125 
Q 45.015625 15.765625 45.015625 23.390625 
Q 45.015625 31 40.078125 35.4375 
Q 35.15625 39.890625 26.703125 39.890625 
Q 22.75 39.890625 18.8125 39.015625 
Q 14.890625 38.140625 10.796875 36.28125 
z
" id="DejaVuSans-53"/>
      </defs>
      <g transform="translate(589.4839 518.598438)scale(0.1 -0.1)">
       <use xlink:href="#DejaVuSans-53"/>
       <use x="63.623047" xlink:href="#DejaVuSans-48"/>
      </g>
     </g>
    </g>
    <g id="xtick_7">
     <g id="line2d_13">
      <path clip-path="url(#p030d6acd0b)" d="M 687.331842 504 
L 687.331842 69.12 
" style="fill:none;stroke:#808080;stroke-dasharray:9.6,2.4,1.5,2.4;stroke-dashoffset:0;stroke-opacity:0.6;stroke-width:1.5;"/>
     </g>
     <g id="line2d_14">
      <g>
       <use style="stroke:#000000;stroke-width:0.8;" x="687.331842" xlink:href="#mdb5f00a9e1" y="504"/>
      </g>
     </g>
     <g id="text_7">
      <!-- 60 -->
      <defs>
       <path d="M 33.015625 40.375 
Q 26.375 40.375 22.484375 35.828125 
Q 18.609375 31.296875 18.609375 23.390625 
Q 18.609375 15.53125 22.484375 10.953125 
Q 26.375 6.390625 33.015625 6.390625 
Q 39.65625 6.390625 43.53125 10.953125 
Q 47.40625 15.53125 47.40625 23.390625 
Q 47.40625 31.296875 43.53125 35.828125 
Q 39.65625 40.375 33.015625 40.375 
z
M 52.59375 71.296875 
L 52.59375 62.3125 
Q 48.875 64.0625 45.09375 64.984375 
Q 41.3125 65.921875 37.59375 65.921875 
Q 27.828125 65.921875 22.671875 59.328125 
Q 17.53125 52.734375 16.796875 39.40625 
Q 19.671875 43.65625 24.015625 45.921875 
Q 28.375 48.1875 33.59375 48.1875 
Q 44.578125 48.1875 50.953125 41.515625 
Q 57.328125 34.859375 57.328125 23.390625 
Q 57.328125 12.15625 50.6875 5.359375 
Q 44.046875 -1.421875 33.015625 -1.421875 
Q 20.359375 -1.421875 13.671875 8.265625 
Q 6.984375 17.96875 6.984375 36.375 
Q 6.984375 53.65625 15.1875 63.9375 
Q 23.390625 74.21875 37.203125 74.21875 
Q 40.921875 74.21875 44.703125 73.484375 
Q 48.484375 72.75 52.59375 71.296875 
z
" id="DejaVuSans-54"/>
      </defs>
      <g transform="translate(680.969342 518.598438)scale(0.1 -0.1)">
       <use xlink:href="#DejaVuSans-54"/>
       <use x="63.623047" xlink:href="#DejaVuSans-48"/>
      </g>
     </g>
    </g>
    <g id="xtick_8">
     <g id="line2d_15">
      <path clip-path="url(#p030d6acd0b)" d="M 120.122104 504 
L 120.122104 69.12 
" style="fill:none;stroke:#f5f5dc;stroke-linecap:square;stroke-opacity:0.8;"/>
     </g>
     <g id="line2d_16">
      <defs>
       <path d="M 0 0 
L 0 2 
" id="md8b1360c17" style="stroke:#000000;stroke-width:0.6;"/>
      </defs>
      <g>
       <use style="stroke:#000000;stroke-width:0.6;" x="120.122104" xlink:href="#md8b1360c17" y="504"/>
      </g>
     </g>
    </g>
    <g id="xtick_9">
     <g id="line2d_17">
      <path clip-path="url(#p030d6acd0b)" d="M 156.71628 504 
L 156.71628 69.12 
" style="fill:none;stroke:#f5f5dc;stroke-linecap:square;stroke-opacity:0.8;"/>
     </g>
     <g id="line2d_18">
      <g>
       <use style="stroke:#000000;stroke-width:0.6;" x="156.71628" xlink:href="#md8b1360c17" y="504"/>
      </g>
     </g>
    </g>
    <g id="xtick_10">
     <g id="line2d_19">
      <path clip-path="url(#p030d6acd0b)" d="M 175.013368 504 
L 175.013368 69.12 
" style="fill:none;stroke:#f5f5dc;stroke-linecap:square;stroke-opacity:0.8;"/>
     </g>
     <g id="line2d_20">
      <g>
       <use style="stroke:#000000;stroke-width:0.6;" x="175.013368" xlink:href="#md8b1360c17" y="504"/>
      </g>
     </g>
    </g>
    <g id="xtick_11">
     <g id="line2d_21">
      <path clip-path="url(#p030d6acd0b)" d="M 193.310457 504 
L 193.310457 69.12 
" style="fill:none;stroke:#f5f5dc;stroke-linecap:square;stroke-opacity:0.8;"/>
     </g>
     <g id="line2d_22">
      <g>
       <use style="stroke:#000000;stroke-width:0.6;" x="193.310457" xlink:href="#md8b1360c17" y="504"/>
      </g>
     </g>
    </g>
    <g id="xtick_12">
     <g id="line2d_23">
      <path clip-path="url(#p030d6acd0b)" d="M 211.607545 504 
L 211.607545 69.12 
" style="fill:none;stroke:#f5f5dc;stroke-linecap:square;stroke-opacity:0.8;"/>
     </g>
     <g id="line2d_24">
      <g>
       <use style="stroke:#000000;stroke-width:0.6;" x="211.607545" xlink:href="#md8b1360c17" y="504"/>
      </g>
     </g>
    </g>
    <g id="xtick_13">
     <g id="line2d_25">
      <path clip-path="url(#p030d6acd0b)" d="M 248.201722 504 
L 248.201722 69.12 
" style="fill:none;stroke:#f5f5dc;stroke-linecap:square;stroke-opacity:0.8;"/>
     </g>
     <g id="line2d_26">
      <g>
       <use style="stroke:#000000;stroke-width:0.6;" x="248.201722" xlink:href="#md8b1360c17" y="504"/>
      </g>
     </g>
    </g>
    <g id="xtick_14">
     <g id="line2d_27">
      <path clip-path="url(#p030d6acd0b)" d="M 266.49881 504 
L 266.49881 69.12 
" style="fill:none;stroke:#f5f5dc;stroke-linecap:square;stroke-opacity:0.8;"/>
     </g>
     <g id="line2d_28">
      <g>
       <use style="stroke:#000000;stroke-width:0.6;" x="266.49881" xlink:href="#md8b1360c17" y="504"/>
      </g>
     </g>
    </g>
    <g id="xtick_15">
     <g id="line2d_29">
      <path clip-path="url(#p030d6acd0b)" d="M 284.795898 504 
L 284.795898 69.12 
" style="fill:none;stroke:#f5f5dc;stroke-linecap:square;stroke-opacity:0.8;"/>
     </g>
     <g id="line2d_30">
      <g>
       <use style="stroke:#000000;stroke-width:0.6;" x="284.795898" xlink:href="#md8b1360c17" y="504"/>
      </g>
     </g>
    </g>
    <g id="xtick_16">
     <g id="line2d_31">
      <path clip-path="url(#p030d6acd0b)" d="M 303.092987 504 
L 303.092987 69.12 
" style="fill:none;stroke:#f5f5dc;stroke-linecap:square;stroke-opacity:0.8;"/>
     </g>
     <g id="line2d_32">
      <g>
       <use style="stroke:#000000;stroke-width:0.6;" x="303.092987" xlink:href="#md8b1360c17" y="504"/>
      </g>
     </g>
    </g>
    <g id="xtick_17">
     <g id="line2d_33">
      <path clip-path="url(#p030d6acd0b)" d="M 339.687163 504 
L 339.687163 69.12 
" style="fill:none;stroke:#f5f5dc;stroke-linecap:square;stroke-opacity:0.8;"/>
     </g>
     <g id="line2d_34">
      <g>
       <use style="stroke:#000000;stroke-width:0.6;" x="339.687163" xlink:href="#md8b1360c17" y="504"/>
      </g>
     </g>
    </g>
    <g id="xtick_18">
     <g id="line2d_35">
      <path clip-path="url(#p030d6acd0b)" d="M 357.984252 504 
L 357.984252 69.12 
" style="fill:none;stroke:#f5f5dc;stroke-linecap:square;stroke-opacity:0.8;"/>
     </g>
     <g id="line2d_36">
      <g>
       <use style="stroke:#000000;stroke-width:0.6;" x="357.984252" xlink:href="#md8b1360c17" y="504"/>
      </g>
     </g>
    </g>
    <g id="xtick_19">
     <g id="line2d_37">
      <path clip-path="url(#p030d6acd0b)" d="M 376.28134 504 
L 376.28134 69.12 
" style="fill:none;stroke:#f5f5dc;stroke-linecap:square;stroke-opacity:0.8;"/>
     </g>
     <g id="line2d_38">
      <g>
       <use style="stroke:#000000;stroke-width:0.6;" x="376.28134" xlink:href="#md8b1360c17" y="504"/>
      </g>
     </g>
    </g>
    <g id="xtick_20">
     <g id="line2d_39">
      <path clip-path="url(#p030d6acd0b)" d="M 394.578428 504 
L 394.578428 69.12 
" style="fill:none;stroke:#f5f5dc;stroke-linecap:square;stroke-opacity:0.8;"/>
     </g>
     <g id="line2d_40">
      <g>
       <use style="stroke:#000000;stroke-width:0.6;" x="394.578428" xlink:href="#md8b1360c17" y="504"/>
      </g>
     </g>
    </g>
    <g id="xtick_21">
     <g id="line2d_41">
      <path clip-path="url(#p030d6acd0b)" d="M 431.172605 504 
L 431.172605 69.12 
" style="fill:none;stroke:#f5f5dc;stroke-linecap:square;stroke-opacity:0.8;"/>
     </g>
     <g id="line2d_42">
      <g>
       <use style="stroke:#000000;stroke-width:0.6;" x="431.172605" xlink:href="#md8b1360c17" y="504"/>
      </g>
     </g>
    </g>
    <g id="xtick_22">
     <g id="line2d_43">
      <path clip-path="url(#p030d6acd0b)" d="M 449.469693 504 
L 449.469693 69.12 
" style="fill:none;stroke:#f5f5dc;stroke-linecap:square;stroke-opacity:0.8;"/>
     </g>
     <g id="line2d_44">
      <g>
       <use style="stroke:#000000;stroke-width:0.6;" x="449.469693" xlink:href="#md8b1360c17" y="504"/>
      </g>
     </g>
    </g>
    <g id="xtick_23">
     <g id="line2d_45">
      <path clip-path="url(#p030d6acd0b)" d="M 467.766782 504 
L 467.766782 69.12 
" style="fill:none;stroke:#f5f5dc;stroke-linecap:square;stroke-opacity:0.8;"/>
     </g>
     <g id="line2d_46">
      <g>
       <use style="stroke:#000000;stroke-width:0.6;" x="467.766782" xlink:href="#md8b1360c17" y="504"/>
      </g>
     </g>
    </g>
    <g id="xtick_24">
     <g id="line2d_47">
      <path clip-path="url(#p030d6acd0b)" d="M 486.06387 504 
L 486.06387 69.12 
" style="fill:none;stroke:#f5f5dc;stroke-linecap:square;stroke-opacity:0.8;"/>
     </g>
     <g id="line2d_48">
      <g>
       <use style="stroke:#000000;stroke-width:0.6;" x="486.06387" xlink:href="#md8b1360c17" y="504"/>
      </g>
     </g>
    </g>
    <g id="xtick_25">
     <g id="line2d_49">
      <path clip-path="url(#p030d6acd0b)" d="M 522.658047 504 
L 522.658047 69.12 
" style="fill:none;stroke:#f5f5dc;stroke-linecap:square;stroke-opacity:0.8;"/>
     </g>
     <g id="line2d_50">
      <g>
       <use style="stroke:#000000;stroke-width:0.6;" x="522.658047" xlink:href="#md8b1360c17" y="504"/>
      </g>
     </g>
    </g>
    <g id="xtick_26">
     <g id="line2d_51">
      <path clip-path="url(#p030d6acd0b)" d="M 540.955135 504 
L 540.955135 69.12 
" style="fill:none;stroke:#f5f5dc;stroke-linecap:square;stroke-opacity:0.8;"/>
     </g>
     <g id="line2d_52">
      <g>
       <use style="stroke:#000000;stroke-width:0.6;" x="540.955135" xlink:href="#md8b1360c17" y="504"/>
      </g>
     </g>
    </g>
    <g id="xtick_27">
     <g id="line2d_53">
      <path clip-path="url(#p030d6acd0b)" d="M 559.252223 504 
L 559.252223 69.12 
" style="fill:none;stroke:#f5f5dc;stroke-linecap:square;stroke-opacity:0.8;"/>
     </g>
     <g id="line2d_54">
      <g>
       <use style="stroke:#000000;stroke-width:0.6;" x="559.252223" xlink:href="#md8b1360c17" y="504"/>
      </g>
     </g>
    </g>
    <g id="xtick_28">
     <g id="line2d_55">
      <path clip-path="url(#p030d6acd0b)" d="M 577.549312 504 
L 577.549312 69.12 
" style="fill:none;stroke:#f5f5dc;stroke-linecap:square;stroke-opacity:0.8;"/>
     </g>
     <g id="line2d_56">
      <g>
       <use style="stroke:#000000;stroke-width:0.6;" x="577.549312" xlink:href="#md8b1360c17" y="504"/>
      </g>
     </g>
    </g>
    <g id="xtick_29">
     <g id="line2d_57">
      <path clip-path="url(#p030d6acd0b)" d="M 614.143488 504 
L 614.143488 69.12 
" style="fill:none;stroke:#f5f5dc;stroke-linecap:square;stroke-opacity:0.8;"/>
     </g>
     <g id="line2d_58">
      <g>
       <use style="stroke:#000000;stroke-width:0.6;" x="614.143488" xlink:href="#md8b1360c17" y="504"/>
      </g>
     </g>
    </g>
    <g id="xtick_30">
     <g id="line2d_59">
      <path clip-path="url(#p030d6acd0b)" d="M 632.440577 504 
L 632.440577 69.12 
" style="fill:none;stroke:#f5f5dc;stroke-linecap:square;stroke-opacity:0.8;"/>
     </g>
     <g id="line2d_60">
      <g>
       <use style="stroke:#000000;stroke-width:0.6;" x="632.440577" xlink:href="#md8b1360c17" y="504"/>
      </g>
     </g>
    </g>
    <g id="xtick_31">
     <g id="line2d_61">
      <path clip-path="url(#p030d6acd0b)" d="M 650.737665 504 
L 650.737665 69.12 
" style="fill:none;stroke:#f5f5dc;stroke-linecap:square;stroke-opacity:0.8;"/>
     </g>
     <g id="line2d_62">
      <g>
       <use style="stroke:#000000;stroke-width:0.6;" x="650.737665" xlink:href="#md8b1360c17" y="504"/>
      </g>
     </g>
    </g>
    <g id="xtick_32">
     <g id="line2d_63">
      <path clip-path="url(#p030d6acd0b)" d="M 669.034753 504 
L 669.034753 69.12 
" style="fill:none;stroke:#f5f5dc;stroke-linecap:square;stroke-opacity:0.8;"/>
     </g>
     <g id="line2d_64">
      <g>
       <use style="stroke:#000000;stroke-width:0.6;" x="669.034753" xlink:href="#md8b1360c17" y="504"/>
      </g>
     </g>
    </g>
    <g id="xtick_33">
     <g id="line2d_65">
      <path clip-path="url(#p030d6acd0b)" d="M 705.62893 504 
L 705.62893 69.12 
" style="fill:none;stroke:#f5f5dc;stroke-linecap:square;stroke-opacity:0.8;"/>
     </g>
     <g id="line2d_66">
      <g>
       <use style="stroke:#000000;stroke-width:0.6;" x="705.62893" xlink:href="#md8b1360c17" y="504"/>
      </g>
     </g>
    </g>
    <g id="xtick_34">
     <g id="line2d_67">
      <path clip-path="url(#p030d6acd0b)" d="M 723.926018 504 
L 723.926018 69.12 
" style="fill:none;stroke:#f5f5dc;stroke-linecap:square;stroke-opacity:0.8;"/>
     </g>
     <g id="line2d_68">
      <g>
       <use style="stroke:#000000;stroke-width:0.6;" x="723.926018" xlink:href="#md8b1360c17" y="504"/>
      </g>
     </g>
    </g>
    <g id="xtick_35">
     <g id="line2d_69">
      <path clip-path="url(#p030d6acd0b)" d="M 742.223107 504 
L 742.223107 69.12 
" style="fill:none;stroke:#f5f5dc;stroke-linecap:square;stroke-opacity:0.8;"/>
     </g>
     <g id="line2d_70">
      <g>
       <use style="stroke:#000000;stroke-width:0.6;" x="742.223107" xlink:href="#md8b1360c17" y="504"/>
      </g>
     </g>
    </g>
    <g id="xtick_36">
     <g id="line2d_71">
      <path clip-path="url(#p030d6acd0b)" d="M 760.520195 504 
L 760.520195 69.12 
" style="fill:none;stroke:#f5f5dc;stroke-linecap:square;stroke-opacity:0.8;"/>
     </g>
     <g id="line2d_72">
      <g>
       <use style="stroke:#000000;stroke-width:0.6;" x="760.520195" xlink:href="#md8b1360c17" y="504"/>
      </g>
     </g>
    </g>
    <g id="text_8">
     <!-- Error (mmHg) -->
     <defs>
      <path d="M 9.8125 72.90625 
L 55.90625 72.90625 
L 55.90625 64.59375 
L 19.671875 64.59375 
L 19.671875 43.015625 
L 54.390625 43.015625 
L 54.390625 34.71875 
L 19.671875 34.71875 
L 19.671875 8.296875 
L 56.78125 8.296875 
L 56.78125 0 
L 9.8125 0 
z
" id="DejaVuSans-69"/>
      <path d="M 41.109375 46.296875 
Q 39.59375 47.171875 37.8125 47.578125 
Q 36.03125 48 33.890625 48 
Q 26.265625 48 22.1875 43.046875 
Q 18.109375 38.09375 18.109375 28.8125 
L 18.109375 0 
L 9.078125 0 
L 9.078125 54.6875 
L 18.109375 54.6875 
L 18.109375 46.1875 
Q 20.953125 51.171875 25.484375 53.578125 
Q 30.03125 56 36.53125 56 
Q 37.453125 56 38.578125 55.875 
Q 39.703125 55.765625 41.0625 55.515625 
z
" id="DejaVuSans-114"/>
      <path d="M 30.609375 48.390625 
Q 23.390625 48.390625 19.1875 42.75 
Q 14.984375 37.109375 14.984375 27.296875 
Q 14.984375 17.484375 19.15625 11.84375 
Q 23.34375 6.203125 30.609375 6.203125 
Q 37.796875 6.203125 41.984375 11.859375 
Q 46.1875 17.53125 46.1875 27.296875 
Q 46.1875 37.015625 41.984375 42.703125 
Q 37.796875 48.390625 30.609375 48.390625 
z
M 30.609375 56 
Q 42.328125 56 49.015625 48.375 
Q 55.71875 40.765625 55.71875 27.296875 
Q 55.71875 13.875 49.015625 6.21875 
Q 42.328125 -1.421875 30.609375 -1.421875 
Q 18.84375 -1.421875 12.171875 6.21875 
Q 5.515625 13.875 5.515625 27.296875 
Q 5.515625 40.765625 12.171875 48.375 
Q 18.84375 56 30.609375 56 
z
" id="DejaVuSans-111"/>
      <path id="DejaVuSans-32"/>
      <path d="M 31 75.875 
Q 24.46875 64.65625 21.28125 53.65625 
Q 18.109375 42.671875 18.109375 31.390625 
Q 18.109375 20.125 21.3125 9.0625 
Q 24.515625 -2 31 -13.1875 
L 23.1875 -13.1875 
Q 15.875 -1.703125 12.234375 9.375 
Q 8.59375 20.453125 8.59375 31.390625 
Q 8.59375 42.28125 12.203125 53.3125 
Q 15.828125 64.359375 23.1875 75.875 
z
" id="DejaVuSans-40"/>
      <path d="M 52 44.1875 
Q 55.375 50.25 60.0625 53.125 
Q 64.75 56 71.09375 56 
Q 79.640625 56 84.28125 50.015625 
Q 88.921875 44.046875 88.921875 33.015625 
L 88.921875 0 
L 79.890625 0 
L 79.890625 32.71875 
Q 79.890625 40.578125 77.09375 44.375 
Q 74.3125 48.1875 68.609375 48.1875 
Q 61.625 48.1875 57.5625 43.546875 
Q 53.515625 38.921875 53.515625 30.90625 
L 53.515625 0 
L 44.484375 0 
L 44.484375 32.71875 
Q 44.484375 40.625 41.703125 44.40625 
Q 38.921875 48.1875 33.109375 48.1875 
Q 26.21875 48.1875 22.15625 43.53125 
Q 18.109375 38.875 18.109375 30.90625 
L 18.109375 0 
L 9.078125 0 
L 9.078125 54.6875 
L 18.109375 54.6875 
L 18.109375 46.1875 
Q 21.1875 51.21875 25.484375 53.609375 
Q 29.78125 56 35.6875 56 
Q 41.65625 56 45.828125 52.96875 
Q 50 49.953125 52 44.1875 
z
" id="DejaVuSans-109"/>
      <path d="M 9.8125 72.90625 
L 19.671875 72.90625 
L 19.671875 43.015625 
L 55.515625 43.015625 
L 55.515625 72.90625 
L 65.375 72.90625 
L 65.375 0 
L 55.515625 0 
L 55.515625 34.71875 
L 19.671875 34.71875 
L 19.671875 0 
L 9.8125 0 
z
" id="DejaVuSans-72"/>
      <path d="M 45.40625 27.984375 
Q 45.40625 37.75 41.375 43.109375 
Q 37.359375 48.484375 30.078125 48.484375 
Q 22.859375 48.484375 18.828125 43.109375 
Q 14.796875 37.75 14.796875 27.984375 
Q 14.796875 18.265625 18.828125 12.890625 
Q 22.859375 7.515625 30.078125 7.515625 
Q 37.359375 7.515625 41.375 12.890625 
Q 45.40625 18.265625 45.40625 27.984375 
z
M 54.390625 6.78125 
Q 54.390625 -7.171875 48.1875 -13.984375 
Q 42 -20.796875 29.203125 -20.796875 
Q 24.46875 -20.796875 20.265625 -20.09375 
Q 16.0625 -19.390625 12.109375 -17.921875 
L 12.109375 -9.1875 
Q 16.0625 -11.328125 19.921875 -12.34375 
Q 23.78125 -13.375 27.78125 -13.375 
Q 36.625 -13.375 41.015625 -8.765625 
Q 45.40625 -4.15625 45.40625 5.171875 
L 45.40625 9.625 
Q 42.625 4.78125 38.28125 2.390625 
Q 33.9375 0 27.875 0 
Q 17.828125 0 11.671875 7.65625 
Q 5.515625 15.328125 5.515625 27.984375 
Q 5.515625 40.671875 11.671875 48.328125 
Q 17.828125 56 27.875 56 
Q 33.9375 56 38.28125 53.609375 
Q 42.625 51.21875 45.40625 46.390625 
L 45.40625 54.6875 
L 54.390625 54.6875 
z
" id="DejaVuSans-103"/>
      <path d="M 8.015625 75.875 
L 15.828125 75.875 
Q 23.140625 64.359375 26.78125 53.3125 
Q 30.421875 42.28125 30.421875 31.390625 
Q 30.421875 20.453125 26.78125 9.375 
Q 23.140625 -1.703125 15.828125 -13.1875 
L 8.015625 -13.1875 
Q 14.5 -2 17.703125 9.0625 
Q 20.90625 20.125 20.90625 31.390625 
Q 20.90625 42.671875 17.703125 53.65625 
Q 14.5 64.65625 8.015625 75.875 
z
" id="DejaVuSans-41"/>
     </defs>
     <g transform="translate(408.251563 532.276562)scale(0.1 -0.1)">
      <use xlink:href="#DejaVuSans-69"/>
      <use x="63.183594" xlink:href="#DejaVuSans-114"/>
      <use x="104.28125" xlink:href="#DejaVuSans-114"/>
      <use x="145.363281" xlink:href="#DejaVuSans-111"/>
      <use x="206.544922" xlink:href="#DejaVuSans-114"/>
      <use x="247.658203" xlink:href="#DejaVuSans-32"/>
      <use x="279.445312" xlink:href="#DejaVuSans-40"/>
      <use x="318.458984" xlink:href="#DejaVuSans-109"/>
      <use x="415.871094" xlink:href="#DejaVuSans-109"/>
      <use x="513.283203" xlink:href="#DejaVuSans-72"/>
      <use x="588.478516" xlink:href="#DejaVuSans-103"/>
      <use x="651.955078" xlink:href="#DejaVuSans-41"/>
     </g>
    </g>
   </g>
   <g id="matplotlib.axis_2">
    <g id="ytick_1">
     <g id="line2d_73">
      <path clip-path="url(#p030d6acd0b)" d="M 108 504 
L 777.6 504 
" style="fill:none;stroke:#808080;stroke-dasharray:9.6,2.4,1.5,2.4;stroke-dashoffset:0;stroke-opacity:0.6;stroke-width:1.5;"/>
     </g>
     <g id="line2d_74">
      <defs>
       <path d="M 0 0 
L -3.5 0 
" id="m891b46d3a4" style="stroke:#000000;stroke-width:0.8;"/>
      </defs>
      <g>
       <use style="stroke:#000000;stroke-width:0.8;" x="108" xlink:href="#m891b46d3a4" y="504"/>
      </g>
     </g>
     <g id="text_9">
      <!-- 0.0 -->
      <defs>
       <path d="M 10.6875 12.40625 
L 21 12.40625 
L 21 0 
L 10.6875 0 
z
" id="DejaVuSans-46"/>
      </defs>
      <g transform="translate(85.096875 507.799219)scale(0.1 -0.1)">
       <use xlink:href="#DejaVuSans-48"/>
       <use x="63.623047" xlink:href="#DejaVuSans-46"/>
       <use x="95.410156" xlink:href="#DejaVuSans-48"/>
      </g>
     </g>
    </g>
    <g id="ytick_2">
     <g id="line2d_75">
      <path clip-path="url(#p030d6acd0b)" d="M 108 421.165714 
L 777.6 421.165714 
" style="fill:none;stroke:#808080;stroke-dasharray:9.6,2.4,1.5,2.4;stroke-dashoffset:0;stroke-opacity:0.6;stroke-width:1.5;"/>
     </g>
     <g id="line2d_76">
      <g>
       <use style="stroke:#000000;stroke-width:0.8;" x="108" xlink:href="#m891b46d3a4" y="421.165714"/>
      </g>
     </g>
     <g id="text_10">
      <!-- 0.2 -->
      <g transform="translate(85.096875 424.964933)scale(0.1 -0.1)">
       <use xlink:href="#DejaVuSans-48"/>
       <use x="63.623047" xlink:href="#DejaVuSans-46"/>
       <use x="95.410156" xlink:href="#DejaVuSans-50"/>
      </g>
     </g>
    </g>
    <g id="ytick_3">
     <g id="line2d_77">
      <path clip-path="url(#p030d6acd0b)" d="M 108 338.331429 
L 777.6 338.331429 
" style="fill:none;stroke:#808080;stroke-dasharray:9.6,2.4,1.5,2.4;stroke-dashoffset:0;stroke-opacity:0.6;stroke-width:1.5;"/>
     </g>
     <g id="line2d_78">
      <g>
       <use style="stroke:#000000;stroke-width:0.8;" x="108" xlink:href="#m891b46d3a4" y="338.331429"/>
      </g>
     </g>
     <g id="text_11">
      <!-- 0.4 -->
      <g transform="translate(85.096875 342.130647)scale(0.1 -0.1)">
       <use xlink:href="#DejaVuSans-48"/>
       <use x="63.623047" xlink:href="#DejaVuSans-46"/>
       <use x="95.410156" xlink:href="#DejaVuSans-52"/>
      </g>
     </g>
    </g>
    <g id="ytick_4">
     <g id="line2d_79">
      <path clip-path="url(#p030d6acd0b)" d="M 108 255.497143 
L 777.6 255.497143 
" style="fill:none;stroke:#808080;stroke-dasharray:9.6,2.4,1.5,2.4;stroke-dashoffset:0;stroke-opacity:0.6;stroke-width:1.5;"/>
     </g>
     <g id="line2d_80">
      <g>
       <use style="stroke:#000000;stroke-width:0.8;" x="108" xlink:href="#m891b46d3a4" y="255.497143"/>
      </g>
     </g>
     <g id="text_12">
      <!-- 0.6 -->
      <g transform="translate(85.096875 259.296362)scale(0.1 -0.1)">
       <use xlink:href="#DejaVuSans-48"/>
       <use x="63.623047" xlink:href="#DejaVuSans-46"/>
       <use x="95.410156" xlink:href="#DejaVuSans-54"/>
      </g>
     </g>
    </g>
    <g id="ytick_5">
     <g id="line2d_81">
      <path clip-path="url(#p030d6acd0b)" d="M 108 172.662857 
L 777.6 172.662857 
" style="fill:none;stroke:#808080;stroke-dasharray:9.6,2.4,1.5,2.4;stroke-dashoffset:0;stroke-opacity:0.6;stroke-width:1.5;"/>
     </g>
     <g id="line2d_82">
      <g>
       <use style="stroke:#000000;stroke-width:0.8;" x="108" xlink:href="#m891b46d3a4" y="172.662857"/>
      </g>
     </g>
     <g id="text_13">
      <!-- 0.8 -->
      <defs>
       <path d="M 31.78125 34.625 
Q 24.75 34.625 20.71875 30.859375 
Q 16.703125 27.09375 16.703125 20.515625 
Q 16.703125 13.921875 20.71875 10.15625 
Q 24.75 6.390625 31.78125 6.390625 
Q 38.8125 6.390625 42.859375 10.171875 
Q 46.921875 13.96875 46.921875 20.515625 
Q 46.921875 27.09375 42.890625 30.859375 
Q 38.875 34.625 31.78125 34.625 
z
M 21.921875 38.8125 
Q 15.578125 40.375 12.03125 44.71875 
Q 8.5 49.078125 8.5 55.328125 
Q 8.5 64.0625 14.71875 69.140625 
Q 20.953125 74.21875 31.78125 74.21875 
Q 42.671875 74.21875 48.875 69.140625 
Q 55.078125 64.0625 55.078125 55.328125 
Q 55.078125 49.078125 51.53125 44.71875 
Q 48 40.375 41.703125 38.8125 
Q 48.828125 37.15625 52.796875 32.3125 
Q 56.78125 27.484375 56.78125 20.515625 
Q 56.78125 9.90625 50.3125 4.234375 
Q 43.84375 -1.421875 31.78125 -1.421875 
Q 19.734375 -1.421875 13.25 4.234375 
Q 6.78125 9.90625 6.78125 20.515625 
Q 6.78125 27.484375 10.78125 32.3125 
Q 14.796875 37.15625 21.921875 38.8125 
z
M 18.3125 54.390625 
Q 18.3125 48.734375 21.84375 45.5625 
Q 25.390625 42.390625 31.78125 42.390625 
Q 38.140625 42.390625 41.71875 45.5625 
Q 45.3125 48.734375 45.3125 54.390625 
Q 45.3125 60.0625 41.71875 63.234375 
Q 38.140625 66.40625 31.78125 66.40625 
Q 25.390625 66.40625 21.84375 63.234375 
Q 18.3125 60.0625 18.3125 54.390625 
z
" id="DejaVuSans-56"/>
      </defs>
      <g transform="translate(85.096875 176.462076)scale(0.1 -0.1)">
       <use xlink:href="#DejaVuSans-48"/>
       <use x="63.623047" xlink:href="#DejaVuSans-46"/>
       <use x="95.410156" xlink:href="#DejaVuSans-56"/>
      </g>
     </g>
    </g>
    <g id="ytick_6">
     <g id="line2d_83">
      <path clip-path="url(#p030d6acd0b)" d="M 108 89.828571 
L 777.6 89.828571 
" style="fill:none;stroke:#808080;stroke-dasharray:9.6,2.4,1.5,2.4;stroke-dashoffset:0;stroke-opacity:0.6;stroke-width:1.5;"/>
     </g>
     <g id="line2d_84">
      <g>
       <use style="stroke:#000000;stroke-width:0.8;" x="108" xlink:href="#m891b46d3a4" y="89.828571"/>
      </g>
     </g>
     <g id="text_14">
      <!-- 1.0 -->
      <g transform="translate(85.096875 93.62779)scale(0.1 -0.1)">
       <use xlink:href="#DejaVuSans-49"/>
       <use x="63.623047" xlink:href="#DejaVuSans-46"/>
       <use x="95.410156" xlink:href="#DejaVuSans-48"/>
      </g>
     </g>
    </g>
    <g id="ytick_7">
     <g id="line2d_85">
      <path clip-path="url(#p030d6acd0b)" d="M 108 483.291429 
L 777.6 483.291429 
" style="fill:none;stroke:#f5f5dc;stroke-linecap:square;stroke-opacity:0.8;"/>
     </g>
     <g id="line2d_86">
      <defs>
       <path d="M 0 0 
L -2 0 
" id="m5346f6fec8" style="stroke:#000000;stroke-width:0.6;"/>
      </defs>
      <g>
       <use style="stroke:#000000;stroke-width:0.6;" x="108" xlink:href="#m5346f6fec8" y="483.291429"/>
      </g>
     </g>
    </g>
    <g id="ytick_8">
     <g id="line2d_87">
      <path clip-path="url(#p030d6acd0b)" d="M 108 462.582857 
L 777.6 462.582857 
" style="fill:none;stroke:#f5f5dc;stroke-linecap:square;stroke-opacity:0.8;"/>
     </g>
     <g id="line2d_88">
      <g>
       <use style="stroke:#000000;stroke-width:0.6;" x="108" xlink:href="#m5346f6fec8" y="462.582857"/>
      </g>
     </g>
    </g>
    <g id="ytick_9">
     <g id="line2d_89">
      <path clip-path="url(#p030d6acd0b)" d="M 108 441.874286 
L 777.6 441.874286 
" style="fill:none;stroke:#f5f5dc;stroke-linecap:square;stroke-opacity:0.8;"/>
     </g>
     <g id="line2d_90">
      <g>
       <use style="stroke:#000000;stroke-width:0.6;" x="108" xlink:href="#m5346f6fec8" y="441.874286"/>
      </g>
     </g>
    </g>
    <g id="ytick_10">
     <g id="line2d_91">
      <path clip-path="url(#p030d6acd0b)" d="M 108 400.457143 
L 777.6 400.457143 
" style="fill:none;stroke:#f5f5dc;stroke-linecap:square;stroke-opacity:0.8;"/>
     </g>
     <g id="line2d_92">
      <g>
       <use style="stroke:#000000;stroke-width:0.6;" x="108" xlink:href="#m5346f6fec8" y="400.457143"/>
      </g>
     </g>
    </g>
    <g id="ytick_11">
     <g id="line2d_93">
      <path clip-path="url(#p030d6acd0b)" d="M 108 379.748571 
L 777.6 379.748571 
" style="fill:none;stroke:#f5f5dc;stroke-linecap:square;stroke-opacity:0.8;"/>
     </g>
     <g id="line2d_94">
      <g>
       <use style="stroke:#000000;stroke-width:0.6;" x="108" xlink:href="#m5346f6fec8" y="379.748571"/>
      </g>
     </g>
    </g>
    <g id="ytick_12">
     <g id="line2d_95">
      <path clip-path="url(#p030d6acd0b)" d="M 108 359.04 
L 777.6 359.04 
" style="fill:none;stroke:#f5f5dc;stroke-linecap:square;stroke-opacity:0.8;"/>
     </g>
     <g id="line2d_96">
      <g>
       <use style="stroke:#000000;stroke-width:0.6;" x="108" xlink:href="#m5346f6fec8" y="359.04"/>
      </g>
     </g>
    </g>
    <g id="ytick_13">
     <g id="line2d_97">
      <path clip-path="url(#p030d6acd0b)" d="M 108 317.622857 
L 777.6 317.622857 
" style="fill:none;stroke:#f5f5dc;stroke-linecap:square;stroke-opacity:0.8;"/>
     </g>
     <g id="line2d_98">
      <g>
       <use style="stroke:#000000;stroke-width:0.6;" x="108" xlink:href="#m5346f6fec8" y="317.622857"/>
      </g>
     </g>
    </g>
    <g id="ytick_14">
     <g id="line2d_99">
      <path clip-path="url(#p030d6acd0b)" d="M 108 296.914286 
L 777.6 296.914286 
" style="fill:none;stroke:#f5f5dc;stroke-linecap:square;stroke-opacity:0.8;"/>
     </g>
     <g id="line2d_100">
      <g>
       <use style="stroke:#000000;stroke-width:0.6;" x="108" xlink:href="#m5346f6fec8" y="296.914286"/>
      </g>
     </g>
    </g>
    <g id="ytick_15">
     <g id="line2d_101">
      <path clip-path="url(#p030d6acd0b)" d="M 108 276.205714 
L 777.6 276.205714 
" style="fill:none;stroke:#f5f5dc;stroke-linecap:square;stroke-opacity:0.8;"/>
     </g>
     <g id="line2d_102">
      <g>
       <use style="stroke:#000000;stroke-width:0.6;" x="108" xlink:href="#m5346f6fec8" y="276.205714"/>
      </g>
     </g>
    </g>
    <g id="ytick_16">
     <g id="line2d_103">
      <path clip-path="url(#p030d6acd0b)" d="M 108 234.788571 
L 777.6 234.788571 
" style="fill:none;stroke:#f5f5dc;stroke-linecap:square;stroke-opacity:0.8;"/>
     </g>
     <g id="line2d_104">
      <g>
       <use style="stroke:#000000;stroke-width:0.6;" x="108" xlink:href="#m5346f6fec8" y="234.788571"/>
      </g>
     </g>
    </g>
    <g id="ytick_17">
     <g id="line2d_105">
      <path clip-path="url(#p030d6acd0b)" d="M 108 214.08 
L 777.6 214.08 
" style="fill:none;stroke:#f5f5dc;stroke-linecap:square;stroke-opacity:0.8;"/>
     </g>
     <g id="line2d_106">
      <g>
       <use style="stroke:#000000;stroke-width:0.6;" x="108" xlink:href="#m5346f6fec8" y="214.08"/>
      </g>
     </g>
    </g>
    <g id="ytick_18">
     <g id="line2d_107">
      <path clip-path="url(#p030d6acd0b)" d="M 108 193.371429 
L 777.6 193.371429 
" style="fill:none;stroke:#f5f5dc;stroke-linecap:square;stroke-opacity:0.8;"/>
     </g>
     <g id="line2d_108">
      <g>
       <use style="stroke:#000000;stroke-width:0.6;" x="108" xlink:href="#m5346f6fec8" y="193.371429"/>
      </g>
     </g>
    </g>
    <g id="ytick_19">
     <g id="line2d_109">
      <path clip-path="url(#p030d6acd0b)" d="M 108 151.954286 
L 777.6 151.954286 
" style="fill:none;stroke:#f5f5dc;stroke-linecap:square;stroke-opacity:0.8;"/>
     </g>
     <g id="line2d_110">
      <g>
       <use style="stroke:#000000;stroke-width:0.6;" x="108" xlink:href="#m5346f6fec8" y="151.954286"/>
      </g>
     </g>
    </g>
    <g id="ytick_20">
     <g id="line2d_111">
      <path clip-path="url(#p030d6acd0b)" d="M 108 131.245714 
L 777.6 131.245714 
" style="fill:none;stroke:#f5f5dc;stroke-linecap:square;stroke-opacity:0.8;"/>
     </g>
     <g id="line2d_112">
      <g>
       <use style="stroke:#000000;stroke-width:0.6;" x="108" xlink:href="#m5346f6fec8" y="131.245714"/>
      </g>
     </g>
    </g>
    <g id="ytick_21">
     <g id="line2d_113">
      <path clip-path="url(#p030d6acd0b)" d="M 108 110.537143 
L 777.6 110.537143 
" style="fill:none;stroke:#f5f5dc;stroke-linecap:square;stroke-opacity:0.8;"/>
     </g>
     <g id="line2d_114">
      <g>
       <use style="stroke:#000000;stroke-width:0.6;" x="108" xlink:href="#m5346f6fec8" y="110.537143"/>
      </g>
     </g>
    </g>
    <g id="text_15">
     <!-- Imperical CDF -->
     <defs>
      <path d="M 9.8125 72.90625 
L 19.671875 72.90625 
L 19.671875 0 
L 9.8125 0 
z
" id="DejaVuSans-73"/>
      <path d="M 18.109375 8.203125 
L 18.109375 -20.796875 
L 9.078125 -20.796875 
L 9.078125 54.6875 
L 18.109375 54.6875 
L 18.109375 46.390625 
Q 20.953125 51.265625 25.265625 53.625 
Q 29.59375 56 35.59375 56 
Q 45.5625 56 51.78125 48.09375 
Q 58.015625 40.1875 58.015625 27.296875 
Q 58.015625 14.40625 51.78125 6.484375 
Q 45.5625 -1.421875 35.59375 -1.421875 
Q 29.59375 -1.421875 25.265625 0.953125 
Q 20.953125 3.328125 18.109375 8.203125 
z
M 48.6875 27.296875 
Q 48.6875 37.203125 44.609375 42.84375 
Q 40.53125 48.484375 33.40625 48.484375 
Q 26.265625 48.484375 22.1875 42.84375 
Q 18.109375 37.203125 18.109375 27.296875 
Q 18.109375 17.390625 22.1875 11.75 
Q 26.265625 6.109375 33.40625 6.109375 
Q 40.53125 6.109375 44.609375 11.75 
Q 48.6875 17.390625 48.6875 27.296875 
z
" id="DejaVuSans-112"/>
      <path d="M 56.203125 29.59375 
L 56.203125 25.203125 
L 14.890625 25.203125 
Q 15.484375 15.921875 20.484375 11.0625 
Q 25.484375 6.203125 34.421875 6.203125 
Q 39.59375 6.203125 44.453125 7.46875 
Q 49.3125 8.734375 54.109375 11.28125 
L 54.109375 2.78125 
Q 49.265625 0.734375 44.1875 -0.34375 
Q 39.109375 -1.421875 33.890625 -1.421875 
Q 20.796875 -1.421875 13.15625 6.1875 
Q 5.515625 13.8125 5.515625 26.8125 
Q 5.515625 40.234375 12.765625 48.109375 
Q 20.015625 56 32.328125 56 
Q 43.359375 56 49.78125 48.890625 
Q 56.203125 41.796875 56.203125 29.59375 
z
M 47.21875 32.234375 
Q 47.125 39.59375 43.09375 43.984375 
Q 39.0625 48.390625 32.421875 48.390625 
Q 24.90625 48.390625 20.390625 44.140625 
Q 15.875 39.890625 15.1875 32.171875 
z
" id="DejaVuSans-101"/>
      <path d="M 9.421875 54.6875 
L 18.40625 54.6875 
L 18.40625 0 
L 9.421875 0 
z
M 9.421875 75.984375 
L 18.40625 75.984375 
L 18.40625 64.59375 
L 9.421875 64.59375 
z
" id="DejaVuSans-105"/>
      <path d="M 48.78125 52.59375 
L 48.78125 44.1875 
Q 44.96875 46.296875 41.140625 47.34375 
Q 37.3125 48.390625 33.40625 48.390625 
Q 24.65625 48.390625 19.8125 42.84375 
Q 14.984375 37.3125 14.984375 27.296875 
Q 14.984375 17.28125 19.8125 11.734375 
Q 24.65625 6.203125 33.40625 6.203125 
Q 37.3125 6.203125 41.140625 7.25 
Q 44.96875 8.296875 48.78125 10.40625 
L 48.78125 2.09375 
Q 45.015625 0.34375 40.984375 -0.53125 
Q 36.96875 -1.421875 32.421875 -1.421875 
Q 20.0625 -1.421875 12.78125 6.34375 
Q 5.515625 14.109375 5.515625 27.296875 
Q 5.515625 40.671875 12.859375 48.328125 
Q 20.21875 56 33.015625 56 
Q 37.15625 56 41.109375 55.140625 
Q 45.0625 54.296875 48.78125 52.59375 
z
" id="DejaVuSans-99"/>
      <path d="M 34.28125 27.484375 
Q 23.390625 27.484375 19.1875 25 
Q 14.984375 22.515625 14.984375 16.5 
Q 14.984375 11.71875 18.140625 8.90625 
Q 21.296875 6.109375 26.703125 6.109375 
Q 34.1875 6.109375 38.703125 11.40625 
Q 43.21875 16.703125 43.21875 25.484375 
L 43.21875 27.484375 
z
M 52.203125 31.203125 
L 52.203125 0 
L 43.21875 0 
L 43.21875 8.296875 
Q 40.140625 3.328125 35.546875 0.953125 
Q 30.953125 -1.421875 24.3125 -1.421875 
Q 15.921875 -1.421875 10.953125 3.296875 
Q 6 8.015625 6 15.921875 
Q 6 25.140625 12.171875 29.828125 
Q 18.359375 34.515625 30.609375 34.515625 
L 43.21875 34.515625 
L 43.21875 35.40625 
Q 43.21875 41.609375 39.140625 45 
Q 35.0625 48.390625 27.6875 48.390625 
Q 23 48.390625 18.546875 47.265625 
Q 14.109375 46.140625 10.015625 43.890625 
L 10.015625 52.203125 
Q 14.9375 54.109375 19.578125 55.046875 
Q 24.21875 56 28.609375 56 
Q 40.484375 56 46.34375 49.84375 
Q 52.203125 43.703125 52.203125 31.203125 
z
" id="DejaVuSans-97"/>
      <path d="M 9.421875 75.984375 
L 18.40625 75.984375 
L 18.40625 0 
L 9.421875 0 
z
" id="DejaVuSans-108"/>
      <path d="M 64.40625 67.28125 
L 64.40625 56.890625 
Q 59.421875 61.53125 53.78125 63.8125 
Q 48.140625 66.109375 41.796875 66.109375 
Q 29.296875 66.109375 22.65625 58.46875 
Q 16.015625 50.828125 16.015625 36.375 
Q 16.015625 21.96875 22.65625 14.328125 
Q 29.296875 6.6875 41.796875 6.6875 
Q 48.140625 6.6875 53.78125 8.984375 
Q 59.421875 11.28125 64.40625 15.921875 
L 64.40625 5.609375 
Q 59.234375 2.09375 53.4375 0.328125 
Q 47.65625 -1.421875 41.21875 -1.421875 
Q 24.65625 -1.421875 15.125 8.703125 
Q 5.609375 18.84375 5.609375 36.375 
Q 5.609375 53.953125 15.125 64.078125 
Q 24.65625 74.21875 41.21875 74.21875 
Q 47.75 74.21875 53.53125 72.484375 
Q 59.328125 70.75 64.40625 67.28125 
z
" id="DejaVuSans-67"/>
      <path d="M 19.671875 64.796875 
L 19.671875 8.109375 
L 31.59375 8.109375 
Q 46.6875 8.109375 53.6875 14.9375 
Q 60.6875 21.78125 60.6875 36.53125 
Q 60.6875 51.171875 53.6875 57.984375 
Q 46.6875 64.796875 31.59375 64.796875 
z
M 9.8125 72.90625 
L 30.078125 72.90625 
Q 51.265625 72.90625 61.171875 64.09375 
Q 71.09375 55.28125 71.09375 36.53125 
Q 71.09375 17.671875 61.125 8.828125 
Q 51.171875 0 30.078125 0 
L 9.8125 0 
z
" id="DejaVuSans-68"/>
      <path d="M 9.8125 72.90625 
L 51.703125 72.90625 
L 51.703125 64.59375 
L 19.671875 64.59375 
L 19.671875 43.109375 
L 48.578125 43.109375 
L 48.578125 34.8125 
L 19.671875 34.8125 
L 19.671875 0 
L 9.8125 0 
z
" id="DejaVuSans-70"/>
     </defs>
     <g transform="translate(79.017187 321.609219)rotate(-90)scale(0.1 -0.1)">
      <use xlink:href="#DejaVuSans-73"/>
      <use x="29.492188" xlink:href="#DejaVuSans-109"/>
      <use x="126.904297" xlink:href="#DejaVuSans-112"/>
      <use x="190.380859" xlink:href="#DejaVuSans-101"/>
      <use x="251.904297" xlink:href="#DejaVuSans-114"/>
      <use x="293.017578" xlink:href="#DejaVuSans-105"/>
      <use x="320.800781" xlink:href="#DejaVuSans-99"/>
      <use x="375.78125" xlink:href="#DejaVuSans-97"/>
      <use x="437.060547" xlink:href="#DejaVuSans-108"/>
      <use x="464.84375" xlink:href="#DejaVuSans-32"/>
      <use x="496.630859" xlink:href="#DejaVuSans-67"/>
      <use x="566.455078" xlink:href="#DejaVuSans-68"/>
      <use x="643.457031" xlink:href="#DejaVuSans-70"/>
     </g>
    </g>
   </g>
   <g id="patch_4">
    <path d="M 108 504 
L 108 69.12 
" style="fill:none;stroke:#000000;stroke-linecap:square;stroke-linejoin:miter;stroke-width:0.8;"/>
   </g>
   <g id="patch_5">
    <path d="M 777.6 504 
L 777.6 69.12 
" style="fill:none;stroke:#000000;stroke-linecap:square;stroke-linejoin:miter;stroke-width:0.8;"/>
   </g>
   <g id="patch_6">
    <path d="M 108 504 
L 777.6 504 
" style="fill:none;stroke:#000000;stroke-linecap:square;stroke-linejoin:miter;stroke-width:0.8;"/>
   </g>
   <g id="patch_7">
    <path d="M 108 69.12 
L 777.6 69.12 
" style="fill:none;stroke:#000000;stroke-linecap:square;stroke-linejoin:miter;stroke-width:0.8;"/>
   </g>
   <g id="text_16">
    <!-- CDF of SBP Estimation Error Using SVM -->
    <defs>
     <path d="M 37.109375 75.984375 
L 37.109375 68.5 
L 28.515625 68.5 
Q 23.6875 68.5 21.796875 66.546875 
Q 19.921875 64.59375 19.921875 59.515625 
L 19.921875 54.6875 
L 34.71875 54.6875 
L 34.71875 47.703125 
L 19.921875 47.703125 
L 19.921875 0 
L 10.890625 0 
L 10.890625 47.703125 
L 2.296875 47.703125 
L 2.296875 54.6875 
L 10.890625 54.6875 
L 10.890625 58.5 
Q 10.890625 67.625 15.140625 71.796875 
Q 19.390625 75.984375 28.609375 75.984375 
z
" id="DejaVuSans-102"/>
     <path d="M 53.515625 70.515625 
L 53.515625 60.890625 
Q 47.90625 63.578125 42.921875 64.890625 
Q 37.9375 66.21875 33.296875 66.21875 
Q 25.25 66.21875 20.875 63.09375 
Q 16.5 59.96875 16.5 54.203125 
Q 16.5 49.359375 19.40625 46.890625 
Q 22.3125 44.4375 30.421875 42.921875 
L 36.375 41.703125 
Q 47.40625 39.59375 52.65625 34.296875 
Q 57.90625 29 57.90625 20.125 
Q 57.90625 9.515625 50.796875 4.046875 
Q 43.703125 -1.421875 29.984375 -1.421875 
Q 24.8125 -1.421875 18.96875 -0.25 
Q 13.140625 0.921875 6.890625 3.21875 
L 6.890625 13.375 
Q 12.890625 10.015625 18.65625 8.296875 
Q 24.421875 6.59375 29.984375 6.59375 
Q 38.421875 6.59375 43.015625 9.90625 
Q 47.609375 13.234375 47.609375 19.390625 
Q 47.609375 24.75 44.3125 27.78125 
Q 41.015625 30.8125 33.5 32.328125 
L 27.484375 33.5 
Q 16.453125 35.6875 11.515625 40.375 
Q 6.59375 45.0625 6.59375 53.421875 
Q 6.59375 63.09375 13.40625 68.65625 
Q 20.21875 74.21875 32.171875 74.21875 
Q 37.3125 74.21875 42.625 73.28125 
Q 47.953125 72.359375 53.515625 70.515625 
z
" id="DejaVuSans-83"/>
     <path d="M 19.671875 34.8125 
L 19.671875 8.109375 
L 35.5 8.109375 
Q 43.453125 8.109375 47.28125 11.40625 
Q 51.125 14.703125 51.125 21.484375 
Q 51.125 28.328125 47.28125 31.5625 
Q 43.453125 34.8125 35.5 34.8125 
z
M 19.671875 64.796875 
L 19.671875 42.828125 
L 34.28125 42.828125 
Q 41.5 42.828125 45.03125 45.53125 
Q 48.578125 48.25 48.578125 53.8125 
Q 48.578125 59.328125 45.03125 62.0625 
Q 41.5 64.796875 34.28125 64.796875 
z
M 9.8125 72.90625 
L 35.015625 72.90625 
Q 46.296875 72.90625 52.390625 68.21875 
Q 58.5 63.53125 58.5 54.890625 
Q 58.5 48.1875 55.375 44.234375 
Q 52.25 40.28125 46.1875 39.3125 
Q 53.46875 37.75 57.5 32.78125 
Q 61.53125 27.828125 61.53125 20.40625 
Q 61.53125 10.640625 54.890625 5.3125 
Q 48.25 0 35.984375 0 
L 9.8125 0 
z
" id="DejaVuSans-66"/>
     <path d="M 19.671875 64.796875 
L 19.671875 37.40625 
L 32.078125 37.40625 
Q 38.96875 37.40625 42.71875 40.96875 
Q 46.484375 44.53125 46.484375 51.125 
Q 46.484375 57.671875 42.71875 61.234375 
Q 38.96875 64.796875 32.078125 64.796875 
z
M 9.8125 72.90625 
L 32.078125 72.90625 
Q 44.34375 72.90625 50.609375 67.359375 
Q 56.890625 61.8125 56.890625 51.125 
Q 56.890625 40.328125 50.609375 34.8125 
Q 44.34375 29.296875 32.078125 29.296875 
L 19.671875 29.296875 
L 19.671875 0 
L 9.8125 0 
z
" id="DejaVuSans-80"/>
     <path d="M 44.28125 53.078125 
L 44.28125 44.578125 
Q 40.484375 46.53125 36.375 47.5 
Q 32.28125 48.484375 27.875 48.484375 
Q 21.1875 48.484375 17.84375 46.4375 
Q 14.5 44.390625 14.5 40.28125 
Q 14.5 37.15625 16.890625 35.375 
Q 19.28125 33.59375 26.515625 31.984375 
L 29.59375 31.296875 
Q 39.15625 29.25 43.1875 25.515625 
Q 47.21875 21.78125 47.21875 15.09375 
Q 47.21875 7.46875 41.1875 3.015625 
Q 35.15625 -1.421875 24.609375 -1.421875 
Q 20.21875 -1.421875 15.453125 -0.5625 
Q 10.6875 0.296875 5.421875 2 
L 5.421875 11.28125 
Q 10.40625 8.6875 15.234375 7.390625 
Q 20.0625 6.109375 24.8125 6.109375 
Q 31.15625 6.109375 34.5625 8.28125 
Q 37.984375 10.453125 37.984375 14.40625 
Q 37.984375 18.0625 35.515625 20.015625 
Q 33.0625 21.96875 24.703125 23.78125 
L 21.578125 24.515625 
Q 13.234375 26.265625 9.515625 29.90625 
Q 5.8125 33.546875 5.8125 39.890625 
Q 5.8125 47.609375 11.28125 51.796875 
Q 16.75 56 26.8125 56 
Q 31.78125 56 36.171875 55.265625 
Q 40.578125 54.546875 44.28125 53.078125 
z
" id="DejaVuSans-115"/>
     <path d="M 18.3125 70.21875 
L 18.3125 54.6875 
L 36.8125 54.6875 
L 36.8125 47.703125 
L 18.3125 47.703125 
L 18.3125 18.015625 
Q 18.3125 11.328125 20.140625 9.421875 
Q 21.96875 7.515625 27.59375 7.515625 
L 36.8125 7.515625 
L 36.8125 0 
L 27.59375 0 
Q 17.1875 0 13.234375 3.875 
Q 9.28125 7.765625 9.28125 18.015625 
L 9.28125 47.703125 
L 2.6875 47.703125 
L 2.6875 54.6875 
L 9.28125 54.6875 
L 9.28125 70.21875 
z
" id="DejaVuSans-116"/>
     <path d="M 54.890625 33.015625 
L 54.890625 0 
L 45.90625 0 
L 45.90625 32.71875 
Q 45.90625 40.484375 42.875 44.328125 
Q 39.84375 48.1875 33.796875 48.1875 
Q 26.515625 48.1875 22.3125 43.546875 
Q 18.109375 38.921875 18.109375 30.90625 
L 18.109375 0 
L 9.078125 0 
L 9.078125 54.6875 
L 18.109375 54.6875 
L 18.109375 46.1875 
Q 21.34375 51.125 25.703125 53.5625 
Q 30.078125 56 35.796875 56 
Q 45.21875 56 50.046875 50.171875 
Q 54.890625 44.34375 54.890625 33.015625 
z
" id="DejaVuSans-110"/>
     <path d="M 8.6875 72.90625 
L 18.609375 72.90625 
L 18.609375 28.609375 
Q 18.609375 16.890625 22.84375 11.734375 
Q 27.09375 6.59375 36.625 6.59375 
Q 46.09375 6.59375 50.34375 11.734375 
Q 54.59375 16.890625 54.59375 28.609375 
L 54.59375 72.90625 
L 64.5 72.90625 
L 64.5 27.390625 
Q 64.5 13.140625 57.4375 5.859375 
Q 50.390625 -1.421875 36.625 -1.421875 
Q 22.796875 -1.421875 15.734375 5.859375 
Q 8.6875 13.140625 8.6875 27.390625 
z
" id="DejaVuSans-85"/>
     <path d="M 28.609375 0 
L 0.78125 72.90625 
L 11.078125 72.90625 
L 34.1875 11.53125 
L 57.328125 72.90625 
L 67.578125 72.90625 
L 39.796875 0 
z
" id="DejaVuSans-86"/>
     <path d="M 9.8125 72.90625 
L 24.515625 72.90625 
L 43.109375 23.296875 
L 61.8125 72.90625 
L 76.515625 72.90625 
L 76.515625 0 
L 66.890625 0 
L 66.890625 64.015625 
L 48.09375 14.015625 
L 38.1875 14.015625 
L 19.390625 64.015625 
L 19.390625 0 
L 9.8125 0 
z
" id="DejaVuSans-77"/>
    </defs>
    <g transform="translate(325.07625 63.12)scale(0.12 -0.12)">
     <use xlink:href="#DejaVuSans-67"/>
     <use x="69.824219" xlink:href="#DejaVuSans-68"/>
     <use x="146.826172" xlink:href="#DejaVuSans-70"/>
     <use x="204.345703" xlink:href="#DejaVuSans-32"/>
     <use x="236.132812" xlink:href="#DejaVuSans-111"/>
     <use x="297.314453" xlink:href="#DejaVuSans-102"/>
     <use x="332.519531" xlink:href="#DejaVuSans-32"/>
     <use x="364.306641" xlink:href="#DejaVuSans-83"/>
     <use x="427.783203" xlink:href="#DejaVuSans-66"/>
     <use x="496.386719" xlink:href="#DejaVuSans-80"/>
     <use x="556.689453" xlink:href="#DejaVuSans-32"/>
     <use x="588.476562" xlink:href="#DejaVuSans-69"/>
     <use x="651.660156" xlink:href="#DejaVuSans-115"/>
     <use x="703.759766" xlink:href="#DejaVuSans-116"/>
     <use x="742.96875" xlink:href="#DejaVuSans-105"/>
     <use x="770.751953" xlink:href="#DejaVuSans-109"/>
     <use x="868.164062" xlink:href="#DejaVuSans-97"/>
     <use x="929.443359" xlink:href="#DejaVuSans-116"/>
     <use x="968.652344" xlink:href="#DejaVuSans-105"/>
     <use x="996.435547" xlink:href="#DejaVuSans-111"/>
     <use x="1057.617188" xlink:href="#DejaVuSans-110"/>
     <use x="1120.996094" xlink:href="#DejaVuSans-32"/>
     <use x="1152.783203" xlink:href="#DejaVuSans-69"/>
     <use x="1215.966797" xlink:href="#DejaVuSans-114"/>
     <use x="1257.064453" xlink:href="#DejaVuSans-114"/>
     <use x="1298.146484" xlink:href="#DejaVuSans-111"/>
     <use x="1359.328125" xlink:href="#DejaVuSans-114"/>
     <use x="1400.441406" xlink:href="#DejaVuSans-32"/>
     <use x="1432.228516" xlink:href="#DejaVuSans-85"/>
     <use x="1505.421875" xlink:href="#DejaVuSans-115"/>
     <use x="1557.521484" xlink:href="#DejaVuSans-105"/>
     <use x="1585.304688" xlink:href="#DejaVuSans-110"/>
     <use x="1648.683594" xlink:href="#DejaVuSans-103"/>
     <use x="1712.160156" xlink:href="#DejaVuSans-32"/>
     <use x="1743.947266" xlink:href="#DejaVuSans-83"/>
     <use x="1807.423828" xlink:href="#DejaVuSans-86"/>
     <use x="1875.832031" xlink:href="#DejaVuSans-77"/>
    </g>
   </g>
  </g>
 </g>
 <defs>
  <clipPath id="p030d6acd0b">
   <rect height="434.88" width="669.6" x="108" y="69.12"/>
  </clipPath>
 </defs>
</svg>
