<?xml version="1.0" encoding="utf-8" standalone="no"?>
<!DOCTYPE svg PUBLIC "-//W3C//DTD SVG 1.1//EN"
  "http://www.w3.org/Graphics/SVG/1.1/DTD/svg11.dtd">
<!-- Created with matplotlib (https://matplotlib.org/) -->
<svg height="576pt" version="1.1" viewBox="0 0 864 576" width="864pt" xmlns="http://www.w3.org/2000/svg" xmlns:xlink="http://www.w3.org/1999/xlink">
 <defs>
  <style type="text/css">
*{stroke-linecap:butt;stroke-linejoin:round;}
  </style>
 </defs>
 <g id="figure_1">
  <g id="patch_1">
   <path d="M 0 576 
L 864 576 
L 864 0 
L 0 0 
z
" style="fill:#ffffff;"/>
  </g>
  <g id="axes_1">
   <g id="patch_2">
    <path d="M 108 504 
L 777.6 504 
L 777.6 69.12 
L 108 69.12 
z
" style="fill:#ffffff;"/>
   </g>
   <g id="patch_3">
    <path clip-path="url(#p9889731188)" d="M 138.436364 504 
L 138.436364 501.996515 
L 139.653818 501.996515 
L 139.653818 500.110882 
L 140.871273 500.110882 
L 140.871273 498.421669 
L 142.088727 498.421669 
L 142.088727 496.3789 
L 143.306182 496.3789 
L 143.306182 494.925391 
L 144.523636 494.925391 
L 144.523636 493.589735 
L 145.741091 493.589735 
L 145.741091 491.704102 
L 146.958545 491.704102 
L 146.958545 489.857753 
L 148.176 489.857753 
L 148.176 488.286392 
L 149.393455 488.286392 
L 149.393455 486.675747 
L 150.610909 486.675747 
L 150.610909 485.065102 
L 151.828364 485.065102 
L 151.828364 483.218753 
L 153.045818 483.218753 
L 153.045818 481.1367 
L 154.263273 481.1367 
L 154.263273 479.408203 
L 155.480727 479.408203 
L 155.480727 477.71899 
L 156.698182 477.71899 
L 156.698182 476.108345 
L 157.915636 476.108345 
L 157.915636 474.536985 
L 159.133091 474.536985 
L 159.133091 472.612068 
L 160.350545 472.612068 
L 160.350545 471.512115 
L 161.568 471.512115 
L 161.568 469.90147 
L 162.785455 469.90147 
L 162.785455 468.251541 
L 164.002909 468.251541 
L 164.002909 466.523044 
L 165.220364 466.523044 
L 165.220364 464.794547 
L 166.437818 464.794547 
L 166.437818 463.341039 
L 167.655273 463.341039 
L 167.655273 461.337554 
L 168.872727 461.337554 
L 168.872727 459.334069 
L 170.090182 459.334069 
L 170.090182 458.037696 
L 171.307636 458.037696 
L 171.307636 456.269915 
L 172.525091 456.269915 
L 172.525091 454.46285 
L 173.742545 454.46285 
L 173.742545 452.812921 
L 174.96 452.812921 
L 174.96 451.04514 
L 176.177455 451.04514 
L 176.177455 449.630916 
L 177.394909 449.630916 
L 177.394909 447.980987 
L 178.612364 447.980987 
L 178.612364 446.095354 
L 179.829818 446.095354 
L 179.829818 444.170437 
L 181.047273 444.170437 
L 181.047273 442.127668 
L 182.264727 442.127668 
L 182.264727 439.967047 
L 183.482182 439.967047 
L 183.482182 438.356402 
L 184.699636 438.356402 
L 184.699636 436.785041 
L 185.917091 436.785041 
L 185.917091 435.135112 
L 187.134545 435.135112 
L 187.134545 433.249479 
L 188.352 433.249479 
L 188.352 431.285278 
L 189.569455 431.285278 
L 189.569455 429.478213 
L 190.786909 429.478213 
L 190.786909 427.317592 
L 192.004364 427.317592 
L 192.004364 425.039119 
L 193.221818 425.039119 
L 193.221818 423.703462 
L 194.439273 423.703462 
L 194.439273 421.660693 
L 195.656727 421.660693 
L 195.656727 420.325036 
L 196.874182 420.325036 
L 196.874182 418.675107 
L 198.091636 418.675107 
L 198.091636 417.025179 
L 199.309091 417.025179 
L 199.309091 415.17883 
L 200.526545 415.17883 
L 200.526545 413.646753 
L 201.744 413.646753 
L 201.744 411.682552 
L 202.961455 411.682552 
L 202.961455 409.875487 
L 204.178909 409.875487 
L 204.178909 407.714866 
L 205.396364 407.714866 
L 205.396364 406.104221 
L 206.613818 406.104221 
L 206.613818 403.629328 
L 207.831273 403.629328 
L 207.831273 401.468706 
L 209.048727 401.468706 
L 209.048727 398.993813 
L 210.266182 398.993813 
L 210.266182 397.186748 
L 211.483636 397.186748 
L 211.483636 395.458251 
L 212.701091 395.458251 
L 212.701091 393.769038 
L 213.918545 393.769038 
L 213.918545 392.001257 
L 215.136 392.001257 
L 215.136 390.587033 
L 216.353455 390.587033 
L 216.353455 388.937104 
L 217.570909 388.937104 
L 217.570909 387.601447 
L 218.788364 387.601447 
L 218.788364 386.030086 
L 220.005818 386.030086 
L 220.005818 383.830181 
L 221.223273 383.830181 
L 221.223273 382.298104 
L 222.440727 382.298104 
L 222.440727 380.333903 
L 223.658182 380.333903 
L 223.658182 378.25185 
L 224.875636 378.25185 
L 224.875636 376.523353 
L 226.093091 376.523353 
L 226.093091 374.991277 
L 227.310545 374.991277 
L 227.310545 373.616336 
L 228.528 373.616336 
L 228.528 372.319963 
L 229.745455 372.319963 
L 229.745455 370.43433 
L 230.962909 370.43433 
L 230.962909 368.587981 
L 232.180364 368.587981 
L 232.180364 367.095188 
L 233.397818 367.095188 
L 233.397818 365.916668 
L 234.615273 365.916668 
L 234.615273 363.991751 
L 235.832727 363.991751 
L 235.832727 362.577526 
L 237.050182 362.577526 
L 237.050182 361.163301 
L 238.267636 361.163301 
L 238.267636 359.316952 
L 239.485091 359.316952 
L 239.485091 357.82416 
L 240.702545 357.82416 
L 240.702545 356.252799 
L 241.92 356.252799 
L 241.92 354.917142 
L 243.137455 354.917142 
L 243.137455 353.031509 
L 244.354909 353.031509 
L 244.354909 351.106592 
L 245.572364 351.106592 
L 245.572364 348.945971 
L 246.789818 348.945971 
L 246.789818 347.256758 
L 248.007273 347.256758 
L 248.007273 345.881817 
L 249.224727 345.881817 
L 249.224727 344.231888 
L 250.442182 344.231888 
L 250.442182 342.542676 
L 251.659636 342.542676 
L 251.659636 341.364155 
L 252.877091 341.364155 
L 252.877091 339.910646 
L 254.094545 339.910646 
L 254.094545 338.221433 
L 255.312 338.221433 
L 255.312 336.453652 
L 256.529455 336.453652 
L 256.529455 334.882292 
L 257.746909 334.882292 
L 257.746909 333.468067 
L 258.964364 333.468067 
L 258.964364 332.210978 
L 260.181818 332.210978 
L 260.181818 330.718185 
L 261.399273 330.718185 
L 261.399273 329.264677 
L 262.616727 329.264677 
L 262.616727 327.811168 
L 263.834182 327.811168 
L 263.834182 325.846967 
L 265.051636 325.846967 
L 265.051636 324.51131 
L 266.269091 324.51131 
L 266.269091 323.018517 
L 267.486545 323.018517 
L 267.486545 321.486441 
L 268.704 321.486441 
L 268.704 319.875796 
L 269.921455 319.875796 
L 269.921455 318.343719 
L 271.138909 318.343719 
L 271.138909 316.968778 
L 272.356364 316.968778 
L 272.356364 315.475985 
L 273.573818 315.475985 
L 273.573818 314.101045 
L 274.791273 314.101045 
L 274.791273 312.765388 
L 276.008727 312.765388 
L 276.008727 311.744003 
L 277.226182 311.744003 
L 277.226182 310.486915 
L 278.443636 310.486915 
L 278.443636 309.504814 
L 279.661091 309.504814 
L 279.661091 308.129874 
L 280.878545 308.129874 
L 280.878545 306.558513 
L 282.096 306.558513 
L 282.096 304.987152 
L 283.313455 304.987152 
L 283.313455 303.180087 
L 284.530909 303.180087 
L 284.530909 301.922998 
L 285.748364 301.922998 
L 285.748364 300.46949 
L 286.965818 300.46949 
L 286.965818 298.976697 
L 288.183273 298.976697 
L 288.183273 297.562472 
L 289.400727 297.562472 
L 289.400727 296.069679 
L 290.618182 296.069679 
L 290.618182 294.891159 
L 291.835636 294.891159 
L 291.835636 293.516218 
L 293.053091 293.516218 
L 293.053091 292.023425 
L 294.270545 292.023425 
L 294.270545 290.530632 
L 295.488 290.530632 
L 295.488 289.23426 
L 296.705455 289.23426 
L 296.705455 287.898603 
L 297.922909 287.898603 
L 297.922909 286.248674 
L 299.140364 286.248674 
L 299.140364 284.795165 
L 300.357818 284.795165 
L 300.357818 283.302373 
L 301.575273 283.302373 
L 301.575273 281.338172 
L 302.792727 281.338172 
L 302.792727 280.198935 
L 304.010182 280.198935 
L 304.010182 278.78471 
L 305.227636 278.78471 
L 305.227636 277.291917 
L 306.445091 277.291917 
L 306.445091 276.074113 
L 307.662545 276.074113 
L 307.662545 274.502752 
L 308.88 274.502752 
L 308.88 272.617119 
L 310.097455 272.617119 
L 310.097455 270.810054 
L 311.314909 270.810054 
L 311.314909 270.024374 
L 312.532364 270.024374 
L 312.532364 268.610149 
L 313.749818 268.610149 
L 313.749818 267.510196 
L 314.967273 267.510196 
L 314.967273 266.528096 
L 316.184727 266.528096 
L 316.184727 265.074587 
L 317.402182 265.074587 
L 317.402182 263.778214 
L 318.619636 263.778214 
L 318.619636 262.56041 
L 319.837091 262.56041 
L 319.837091 261.264037 
L 321.054545 261.264037 
L 321.054545 259.92838 
L 322.272 259.92838 
L 322.272 258.278452 
L 323.489455 258.278452 
L 323.489455 256.903511 
L 324.706909 256.903511 
L 324.706909 255.72499 
L 325.924364 255.72499 
L 325.924364 254.467902 
L 327.141818 254.467902 
L 327.141818 252.975109 
L 328.359273 252.975109 
L 328.359273 251.796588 
L 329.576727 251.796588 
L 329.576727 250.893056 
L 330.794182 250.893056 
L 330.794182 249.635967 
L 332.011636 249.635967 
L 332.011636 248.143174 
L 333.229091 248.143174 
L 333.229091 246.768233 
L 334.446545 246.768233 
L 334.446545 245.314725 
L 335.664 245.314725 
L 335.664 243.861216 
L 336.881455 243.861216 
L 336.881455 242.643411 
L 338.098909 242.643411 
L 338.098909 241.386323 
L 339.316364 241.386323 
L 339.316364 239.814962 
L 340.533818 239.814962 
L 340.533818 238.440021 
L 341.751273 238.440021 
L 341.751273 237.340069 
L 342.968727 237.340069 
L 342.968727 235.847276 
L 344.186182 235.847276 
L 344.186182 234.747323 
L 345.403636 234.747323 
L 345.403636 233.883075 
L 346.621091 233.883075 
L 346.621091 232.743838 
L 347.838545 232.743838 
L 347.838545 231.526034 
L 349.056 231.526034 
L 349.056 230.308229 
L 350.273455 230.308229 
L 350.273455 228.776152 
L 351.490909 228.776152 
L 351.490909 227.558347 
L 352.708364 227.558347 
L 352.708364 226.379827 
L 353.925818 226.379827 
L 353.925818 224.926318 
L 355.143273 224.926318 
L 355.143273 223.904934 
L 356.360727 223.904934 
L 356.360727 222.726413 
L 357.578182 222.726413 
L 357.578182 221.62646 
L 358.795636 221.62646 
L 358.795636 220.565792 
L 360.013091 220.565792 
L 360.013091 219.465839 
L 361.230545 219.465839 
L 361.230545 218.444455 
L 362.448 218.444455 
L 362.448 217.580206 
L 363.665455 217.580206 
L 363.665455 216.362402 
L 364.882909 216.362402 
L 364.882909 215.301733 
L 366.100364 215.301733 
L 366.100364 213.80894 
L 367.317818 213.80894 
L 367.317818 212.82684 
L 368.535273 212.82684 
L 368.535273 212.001875 
L 369.752727 212.001875 
L 369.752727 211.294763 
L 370.970182 211.294763 
L 370.970182 210.351946 
L 372.187636 210.351946 
L 372.187636 208.898438 
L 373.405091 208.898438 
L 373.405091 207.405645 
L 374.622545 207.405645 
L 374.622545 206.38426 
L 375.84 206.38426 
L 375.84 205.245024 
L 377.057455 205.245024 
L 377.057455 203.673663 
L 378.274909 203.673663 
L 378.274909 202.259438 
L 379.492364 202.259438 
L 379.492364 200.688077 
L 380.709818 200.688077 
L 380.709818 199.156001 
L 381.927273 199.156001 
L 381.927273 197.78106 
L 383.144727 197.78106 
L 383.144727 196.720391 
L 384.362182 196.720391 
L 384.362182 195.581155 
L 385.579636 195.581155 
L 385.579636 194.481202 
L 386.797091 194.481202 
L 386.797091 193.420534 
L 388.014545 193.420534 
L 388.014545 192.320581 
L 389.232 192.320581 
L 389.232 191.102776 
L 390.449455 191.102776 
L 390.449455 189.96354 
L 391.666909 189.96354 
L 391.666909 188.785019 
L 392.884364 188.785019 
L 392.884364 187.920771 
L 394.101818 187.920771 
L 394.101818 187.056522 
L 395.319273 187.056522 
L 395.319273 186.035138 
L 396.536727 186.035138 
L 396.536727 185.210173 
L 397.754182 185.210173 
L 397.754182 184.345925 
L 398.971636 184.345925 
L 398.971636 183.638812 
L 400.189091 183.638812 
L 400.189091 182.381724 
L 401.406545 182.381724 
L 401.406545 181.596043 
L 402.624 181.596043 
L 402.624 180.456807 
L 403.841455 180.456807 
L 403.841455 179.828262 
L 405.058909 179.828262 
L 405.058909 178.885446 
L 406.276364 178.885446 
L 406.276364 177.94263 
L 407.493818 177.94263 
L 407.493818 176.606973 
L 408.711273 176.606973 
L 408.711273 175.664156 
L 409.928727 175.664156 
L 409.928727 174.839192 
L 411.146182 174.839192 
L 411.146182 174.13208 
L 412.363636 174.13208 
L 412.363636 173.071411 
L 413.581091 173.071411 
L 413.581091 172.050026 
L 414.798545 172.050026 
L 414.798545 171.382198 
L 416.016 171.382198 
L 416.016 170.282245 
L 417.233455 170.282245 
L 417.233455 169.300145 
L 418.450909 169.300145 
L 418.450909 168.435897 
L 419.668364 168.435897 
L 419.668364 166.825252 
L 420.885818 166.825252 
L 420.885818 166.078855 
L 422.103273 166.078855 
L 422.103273 165.175323 
L 423.320727 165.175323 
L 423.320727 164.389642 
L 424.538182 164.389642 
L 424.538182 163.446826 
L 425.755636 163.446826 
L 425.755636 162.425441 
L 426.973091 162.425441 
L 426.973091 161.404057 
L 428.190545 161.404057 
L 428.190545 160.382672 
L 429.408 160.382672 
L 429.408 159.518424 
L 430.625455 159.518424 
L 430.625455 159.0863 
L 431.842909 159.0863 
L 431.842909 157.986347 
L 433.060364 157.986347 
L 433.060364 157.279235 
L 434.277818 157.279235 
L 434.277818 156.25785 
L 435.495273 156.25785 
L 435.495273 155.511454 
L 436.712727 155.511454 
L 436.712727 154.765057 
L 437.930182 154.765057 
L 437.930182 154.215081 
L 439.147636 154.215081 
L 439.147636 153.429401 
L 440.365091 153.429401 
L 440.365091 152.722288 
L 441.582545 152.722288 
L 441.582545 152.368732 
L 442.8 152.368732 
L 442.8 151.622336 
L 444.017455 151.622336 
L 444.017455 150.993791 
L 445.234909 150.993791 
L 445.234909 150.011691 
L 446.452364 150.011691 
L 446.452364 149.186726 
L 447.669818 149.186726 
L 447.669818 148.283194 
L 448.887273 148.283194 
L 448.887273 147.615366 
L 450.104727 147.615366 
L 450.104727 146.358277 
L 451.322182 146.358277 
L 451.322182 145.729733 
L 452.539636 145.729733 
L 452.539636 144.983336 
L 453.757091 144.983336 
L 453.757091 144.23694 
L 454.974545 144.23694 
L 454.974545 143.569112 
L 456.192 143.569112 
L 456.192 142.940567 
L 457.409455 142.940567 
L 457.409455 142.351307 
L 458.626909 142.351307 
L 458.626909 141.487058 
L 459.844364 141.487058 
L 459.844364 140.583526 
L 461.061818 140.583526 
L 461.061818 140.151402 
L 462.279273 140.151402 
L 462.279273 139.365721 
L 463.496727 139.365721 
L 463.496727 138.619325 
L 464.714182 138.619325 
L 464.714182 137.833645 
L 465.931636 137.833645 
L 465.931636 137.00868 
L 467.149091 137.00868 
L 467.149091 136.733692 
L 468.366545 136.733692 
L 468.366545 136.105148 
L 469.584 136.105148 
L 469.584 135.437319 
L 470.801455 135.437319 
L 470.801455 134.651639 
L 472.018909 134.651639 
L 472.018909 134.023095 
L 473.236364 134.023095 
L 473.236364 133.080278 
L 474.453818 133.080278 
L 474.453818 132.333882 
L 475.671273 132.333882 
L 475.671273 131.705337 
L 476.888727 131.705337 
L 476.888727 131.037509 
L 478.106182 131.037509 
L 478.106182 130.408965 
L 479.323636 130.408965 
L 479.323636 129.898272 
L 480.541091 129.898272 
L 480.541091 129.151876 
L 481.758545 129.151876 
L 481.758545 128.6019 
L 482.976 128.6019 
L 482.976 127.934071 
L 484.193455 127.934071 
L 484.193455 127.384095 
L 485.410909 127.384095 
L 485.410909 126.834119 
L 486.628364 126.834119 
L 486.628364 126.16629 
L 487.845818 126.16629 
L 487.845818 125.734166 
L 489.063273 125.734166 
L 489.063273 124.98777 
L 490.280727 124.98777 
L 490.280727 124.39851 
L 491.498182 124.39851 
L 491.498182 123.966385 
L 492.715636 123.966385 
L 492.715636 123.219989 
L 493.933091 123.219989 
L 493.933091 122.709297 
L 495.150545 122.709297 
L 495.150545 122.15932 
L 496.368 122.15932 
L 496.368 121.491492 
L 497.585455 121.491492 
L 497.585455 120.9808 
L 498.802909 120.9808 
L 498.802909 120.666528 
L 500.020364 120.666528 
L 500.020364 120.234403 
L 501.237818 120.234403 
L 501.237818 119.841563 
L 502.455273 119.841563 
L 502.455273 119.330871 
L 503.672727 119.330871 
L 503.672727 118.820179 
L 504.890182 118.820179 
L 504.890182 118.466622 
L 506.107636 118.466622 
L 506.107636 118.15235 
L 507.325091 118.15235 
L 507.325091 117.877362 
L 508.542545 117.877362 
L 508.542545 117.523806 
L 509.76 117.523806 
L 509.76 117.209534 
L 510.977455 117.209534 
L 510.977455 116.816694 
L 512.194909 116.816694 
L 512.194909 116.502421 
L 513.412364 116.502421 
L 513.412364 116.031013 
L 514.629818 116.031013 
L 514.629818 115.481037 
L 515.847273 115.481037 
L 515.847273 115.088197 
L 517.064727 115.088197 
L 517.064727 114.459652 
L 518.282182 114.459652 
L 518.282182 114.066812 
L 519.499636 114.066812 
L 519.499636 113.75254 
L 520.717091 113.75254 
L 520.717091 113.595404 
L 521.934545 113.595404 
L 521.934545 113.398984 
L 523.152 113.398984 
L 523.152 113.123996 
L 524.369455 113.123996 
L 524.369455 112.731155 
L 525.586909 112.731155 
L 525.586909 112.299031 
L 526.804364 112.299031 
L 526.804364 111.945475 
L 528.021818 111.945475 
L 528.021818 111.591919 
L 529.239273 111.591919 
L 529.239273 111.120511 
L 530.456727 111.120511 
L 530.456727 110.491966 
L 531.674182 110.491966 
L 531.674182 110.177694 
L 532.891636 110.177694 
L 532.891636 109.981274 
L 534.109091 109.981274 
L 534.109091 109.54915 
L 535.326545 109.54915 
L 535.326545 109.234878 
L 536.544 109.234878 
L 536.544 108.920605 
L 537.761455 108.920605 
L 537.761455 108.527765 
L 538.978909 108.527765 
L 538.978909 108.331345 
L 540.196364 108.331345 
L 540.196364 108.017073 
L 541.413818 108.017073 
L 541.413818 107.624233 
L 542.631273 107.624233 
L 542.631273 107.152824 
L 543.848727 107.152824 
L 543.848727 106.91712 
L 545.066182 106.91712 
L 545.066182 106.759984 
L 546.283636 106.759984 
L 546.283636 106.406428 
L 547.501091 106.406428 
L 547.501091 106.13144 
L 548.718545 106.13144 
L 548.718545 105.856452 
L 549.936 105.856452 
L 549.936 105.54218 
L 551.153455 105.54218 
L 551.153455 105.385044 
L 552.370909 105.385044 
L 552.370909 105.110055 
L 553.588364 105.110055 
L 553.588364 104.874351 
L 554.805818 104.874351 
L 554.805818 104.599363 
L 556.023273 104.599363 
L 556.023273 104.442227 
L 557.240727 104.442227 
L 557.240727 104.167239 
L 558.458182 104.167239 
L 558.458182 104.010103 
L 559.675636 104.010103 
L 559.675636 103.813683 
L 560.893091 103.813683 
L 560.893091 103.067286 
L 562.110545 103.067286 
L 562.110545 102.753014 
L 563.328 102.753014 
L 563.328 102.438742 
L 564.545455 102.438742 
L 564.545455 102.203038 
L 565.762909 102.203038 
L 565.762909 101.92805 
L 566.980364 101.92805 
L 566.980364 101.574494 
L 568.197818 101.574494 
L 568.197818 101.260221 
L 569.415273 101.260221 
L 569.415273 101.024517 
L 570.632727 101.024517 
L 570.632727 100.670961 
L 571.850182 100.670961 
L 571.850182 100.120985 
L 573.067636 100.120985 
L 573.067636 99.963849 
L 574.285091 99.963849 
L 574.285091 99.806713 
L 575.502545 99.806713 
L 575.502545 99.610293 
L 576.72 99.610293 
L 576.72 99.453156 
L 577.937455 99.453156 
L 577.937455 99.29602 
L 579.154909 99.29602 
L 579.154909 99.138884 
L 580.372364 99.138884 
L 580.372364 98.942464 
L 581.589818 98.942464 
L 581.589818 98.70676 
L 582.807273 98.70676 
L 582.807273 98.471056 
L 584.024727 98.471056 
L 584.024727 98.274636 
L 585.242182 98.274636 
L 585.242182 98.156784 
L 586.459636 98.156784 
L 586.459636 97.999648 
L 588.894545 97.92108 
L 588.894545 97.646092 
L 590.112 97.646092 
L 590.112 97.371103 
L 591.329455 97.371103 
L 591.329455 97.213967 
L 592.546909 97.213967 
L 592.546909 96.899695 
L 593.764364 96.899695 
L 593.764364 96.742559 
L 594.981818 96.742559 
L 594.981818 96.467571 
L 597.416727 96.428287 
L 597.416727 96.192583 
L 598.634182 96.192583 
L 598.634182 96.035447 
L 599.851636 96.035447 
L 599.851636 95.917595 
L 601.069091 95.917595 
L 601.069091 95.68189 
L 602.286545 95.68189 
L 602.286545 95.524754 
L 603.504 95.524754 
L 603.504 95.406902 
L 605.938909 95.328334 
L 605.938909 95.131914 
L 607.156364 95.131914 
L 607.156364 94.935494 
L 609.591273 94.89621 
L 609.591273 94.69979 
L 610.808727 94.69979 
L 610.808727 94.542654 
L 612.026182 94.542654 
L 612.026182 94.267666 
L 614.461091 94.189098 
L 614.461091 94.11053 
L 615.678545 94.11053 
L 615.678545 93.953394 
L 618.113455 93.874826 
L 618.113455 93.717689 
L 620.548364 93.678405 
L 620.548364 93.442701 
L 622.983273 93.403417 
L 622.983273 93.285565 
L 625.418182 93.246281 
L 625.418182 92.971293 
L 627.853091 92.932009 
L 627.853091 92.696305 
L 630.288 92.657021 
L 630.288 92.539169 
L 632.722909 92.499885 
L 632.722909 92.303465 
L 633.940364 92.303465 
L 633.940364 92.146329 
L 636.375273 92.067761 
L 636.375273 91.989193 
L 638.810182 91.910625 
L 638.810182 91.832056 
L 640.027636 91.832056 
L 640.027636 91.67492 
L 643.68 91.596352 
L 643.68 91.4785 
L 646.114909 91.399932 
L 646.114909 91.321364 
L 649.767273 91.321364 
L 649.767273 91.203512 
L 652.202182 91.124944 
L 652.202182 91.046376 
L 657.072 90.967808 
L 657.072 90.928524 
L 659.506909 90.849956 
L 659.506909 90.653536 
L 663.159273 90.614252 
L 663.159273 90.535684 
L 666.811636 90.457116 
L 666.811636 90.417832 
L 675.333818 90.339264 
L 675.333818 90.29998 
L 681.421091 90.221412 
L 681.421091 90.182128 
L 689.943273 90.142844 
L 689.943273 90.064276 
L 719.162182 89.985708 
L 719.162182 89.946423 
L 745.946182 89.867855 
L 745.946182 89.828571 
L 747.163636 89.828571 
L 747.163636 504 
L 747.163636 504 
" style="fill:none;stroke:#1f77b4;stroke-linejoin:miter;"/>
   </g>
   <g id="matplotlib.axis_1">
    <g id="xtick_1">
     <g id="line2d_1">
      <path clip-path="url(#p9889731188)" d="M 138.399027 504 
L 138.399027 69.12 
" style="fill:none;stroke:#808080;stroke-dasharray:9.6,2.4,1.5,2.4;stroke-dashoffset:0;stroke-opacity:0.6;stroke-width:1.5;"/>
     </g>
     <g id="line2d_2">
      <defs>
       <path d="M 0 0 
L 0 3.5 
" id="mc5e2590cbd" style="stroke:#000000;stroke-width:0.8;"/>
      </defs>
      <g>
       <use style="stroke:#000000;stroke-width:0.8;" x="138.399027" xlink:href="#mc5e2590cbd" y="504"/>
      </g>
     </g>
     <g id="text_1">
      <!-- 0 -->
      <defs>
       <path d="M 31.78125 66.40625 
Q 24.171875 66.40625 20.328125 58.90625 
Q 16.5 51.421875 16.5 36.375 
Q 16.5 21.390625 20.328125 13.890625 
Q 24.171875 6.390625 31.78125 6.390625 
Q 39.453125 6.390625 43.28125 13.890625 
Q 47.125 21.390625 47.125 36.375 
Q 47.125 51.421875 43.28125 58.90625 
Q 39.453125 66.40625 31.78125 66.40625 
z
M 31.78125 74.21875 
Q 44.046875 74.21875 50.515625 64.515625 
Q 56.984375 54.828125 56.984375 36.375 
Q 56.984375 17.96875 50.515625 8.265625 
Q 44.046875 -1.421875 31.78125 -1.421875 
Q 19.53125 -1.421875 13.0625 8.265625 
Q 6.59375 17.96875 6.59375 36.375 
Q 6.59375 54.828125 13.0625 64.515625 
Q 19.53125 74.21875 31.78125 74.21875 
z
" id="DejaVuSans-48"/>
      </defs>
      <g transform="translate(135.217777 518.598438)scale(0.1 -0.1)">
       <use xlink:href="#DejaVuSans-48"/>
      </g>
     </g>
    </g>
    <g id="xtick_2">
     <g id="line2d_3">
      <path clip-path="url(#p9889731188)" d="M 240.34524 504 
L 240.34524 69.12 
" style="fill:none;stroke:#808080;stroke-dasharray:9.6,2.4,1.5,2.4;stroke-dashoffset:0;stroke-opacity:0.6;stroke-width:1.5;"/>
     </g>
     <g id="line2d_4">
      <g>
       <use style="stroke:#000000;stroke-width:0.8;" x="240.34524" xlink:href="#mc5e2590cbd" y="504"/>
      </g>
     </g>
     <g id="text_2">
      <!-- 10 -->
      <defs>
       <path d="M 12.40625 8.296875 
L 28.515625 8.296875 
L 28.515625 63.921875 
L 10.984375 60.40625 
L 10.984375 69.390625 
L 28.421875 72.90625 
L 38.28125 72.90625 
L 38.28125 8.296875 
L 54.390625 8.296875 
L 54.390625 0 
L 12.40625 0 
z
" id="DejaVuSans-49"/>
      </defs>
      <g transform="translate(233.98274 518.598438)scale(0.1 -0.1)">
       <use xlink:href="#DejaVuSans-49"/>
       <use x="63.623047" xlink:href="#DejaVuSans-48"/>
      </g>
     </g>
    </g>
    <g id="xtick_3">
     <g id="line2d_5">
      <path clip-path="url(#p9889731188)" d="M 342.291453 504 
L 342.291453 69.12 
" style="fill:none;stroke:#808080;stroke-dasharray:9.6,2.4,1.5,2.4;stroke-dashoffset:0;stroke-opacity:0.6;stroke-width:1.5;"/>
     </g>
     <g id="line2d_6">
      <g>
       <use style="stroke:#000000;stroke-width:0.8;" x="342.291453" xlink:href="#mc5e2590cbd" y="504"/>
      </g>
     </g>
     <g id="text_3">
      <!-- 20 -->
      <defs>
       <path d="M 19.1875 8.296875 
L 53.609375 8.296875 
L 53.609375 0 
L 7.328125 0 
L 7.328125 8.296875 
Q 12.9375 14.109375 22.625 23.890625 
Q 32.328125 33.6875 34.8125 36.53125 
Q 39.546875 41.84375 41.421875 45.53125 
Q 43.3125 49.21875 43.3125 52.78125 
Q 43.3125 58.59375 39.234375 62.25 
Q 35.15625 65.921875 28.609375 65.921875 
Q 23.96875 65.921875 18.8125 64.3125 
Q 13.671875 62.703125 7.8125 59.421875 
L 7.8125 69.390625 
Q 13.765625 71.78125 18.9375 73 
Q 24.125 74.21875 28.421875 74.21875 
Q 39.75 74.21875 46.484375 68.546875 
Q 53.21875 62.890625 53.21875 53.421875 
Q 53.21875 48.921875 51.53125 44.890625 
Q 49.859375 40.875 45.40625 35.40625 
Q 44.1875 33.984375 37.640625 27.21875 
Q 31.109375 20.453125 19.1875 8.296875 
z
" id="DejaVuSans-50"/>
      </defs>
      <g transform="translate(335.928953 518.598438)scale(0.1 -0.1)">
       <use xlink:href="#DejaVuSans-50"/>
       <use x="63.623047" xlink:href="#DejaVuSans-48"/>
      </g>
     </g>
    </g>
    <g id="xtick_4">
     <g id="line2d_7">
      <path clip-path="url(#p9889731188)" d="M 444.237666 504 
L 444.237666 69.12 
" style="fill:none;stroke:#808080;stroke-dasharray:9.6,2.4,1.5,2.4;stroke-dashoffset:0;stroke-opacity:0.6;stroke-width:1.5;"/>
     </g>
     <g id="line2d_8">
      <g>
       <use style="stroke:#000000;stroke-width:0.8;" x="444.237666" xlink:href="#mc5e2590cbd" y="504"/>
      </g>
     </g>
     <g id="text_4">
      <!-- 30 -->
      <defs>
       <path d="M 40.578125 39.3125 
Q 47.65625 37.796875 51.625 33 
Q 55.609375 28.21875 55.609375 21.1875 
Q 55.609375 10.40625 48.1875 4.484375 
Q 40.765625 -1.421875 27.09375 -1.421875 
Q 22.515625 -1.421875 17.65625 -0.515625 
Q 12.796875 0.390625 7.625 2.203125 
L 7.625 11.71875 
Q 11.71875 9.328125 16.59375 8.109375 
Q 21.484375 6.890625 26.8125 6.890625 
Q 36.078125 6.890625 40.9375 10.546875 
Q 45.796875 14.203125 45.796875 21.1875 
Q 45.796875 27.640625 41.28125 31.265625 
Q 36.765625 34.90625 28.71875 34.90625 
L 20.21875 34.90625 
L 20.21875 43.015625 
L 29.109375 43.015625 
Q 36.375 43.015625 40.234375 45.921875 
Q 44.09375 48.828125 44.09375 54.296875 
Q 44.09375 59.90625 40.109375 62.90625 
Q 36.140625 65.921875 28.71875 65.921875 
Q 24.65625 65.921875 20.015625 65.03125 
Q 15.375 64.15625 9.8125 62.3125 
L 9.8125 71.09375 
Q 15.4375 72.65625 20.34375 73.4375 
Q 25.25 74.21875 29.59375 74.21875 
Q 40.828125 74.21875 47.359375 69.109375 
Q 53.90625 64.015625 53.90625 55.328125 
Q 53.90625 49.265625 50.4375 45.09375 
Q 46.96875 40.921875 40.578125 39.3125 
z
" id="DejaVuSans-51"/>
      </defs>
      <g transform="translate(437.875166 518.598438)scale(0.1 -0.1)">
       <use xlink:href="#DejaVuSans-51"/>
       <use x="63.623047" xlink:href="#DejaVuSans-48"/>
      </g>
     </g>
    </g>
    <g id="xtick_5">
     <g id="line2d_9">
      <path clip-path="url(#p9889731188)" d="M 546.183878 504 
L 546.183878 69.12 
" style="fill:none;stroke:#808080;stroke-dasharray:9.6,2.4,1.5,2.4;stroke-dashoffset:0;stroke-opacity:0.6;stroke-width:1.5;"/>
     </g>
     <g id="line2d_10">
      <g>
       <use style="stroke:#000000;stroke-width:0.8;" x="546.183878" xlink:href="#mc5e2590cbd" y="504"/>
      </g>
     </g>
     <g id="text_5">
      <!-- 40 -->
      <defs>
       <path d="M 37.796875 64.3125 
L 12.890625 25.390625 
L 37.796875 25.390625 
z
M 35.203125 72.90625 
L 47.609375 72.90625 
L 47.609375 25.390625 
L 58.015625 25.390625 
L 58.015625 17.1875 
L 47.609375 17.1875 
L 47.609375 0 
L 37.796875 0 
L 37.796875 17.1875 
L 4.890625 17.1875 
L 4.890625 26.703125 
z
" id="DejaVuSans-52"/>
      </defs>
      <g transform="translate(539.821378 518.598438)scale(0.1 -0.1)">
       <use xlink:href="#DejaVuSans-52"/>
       <use x="63.623047" xlink:href="#DejaVuSans-48"/>
      </g>
     </g>
    </g>
    <g id="xtick_6">
     <g id="line2d_11">
      <path clip-path="url(#p9889731188)" d="M 648.130091 504 
L 648.130091 69.12 
" style="fill:none;stroke:#808080;stroke-dasharray:9.6,2.4,1.5,2.4;stroke-dashoffset:0;stroke-opacity:0.6;stroke-width:1.5;"/>
     </g>
     <g id="line2d_12">
      <g>
       <use style="stroke:#000000;stroke-width:0.8;" x="648.130091" xlink:href="#mc5e2590cbd" y="504"/>
      </g>
     </g>
     <g id="text_6">
      <!-- 50 -->
      <defs>
       <path d="M 10.796875 72.90625 
L 49.515625 72.90625 
L 49.515625 64.59375 
L 19.828125 64.59375 
L 19.828125 46.734375 
Q 21.96875 47.46875 24.109375 47.828125 
Q 26.265625 48.1875 28.421875 48.1875 
Q 40.625 48.1875 47.75 41.5 
Q 54.890625 34.8125 54.890625 23.390625 
Q 54.890625 11.625 47.5625 5.09375 
Q 40.234375 -1.421875 26.90625 -1.421875 
Q 22.3125 -1.421875 17.546875 -0.640625 
Q 12.796875 0.140625 7.71875 1.703125 
L 7.71875 11.625 
Q 12.109375 9.234375 16.796875 8.0625 
Q 21.484375 6.890625 26.703125 6.890625 
Q 35.15625 6.890625 40.078125 11.328125 
Q 45.015625 15.765625 45.015625 23.390625 
Q 45.015625 31 40.078125 35.4375 
Q 35.15625 39.890625 26.703125 39.890625 
Q 22.75 39.890625 18.8125 39.015625 
Q 14.890625 38.140625 10.796875 36.28125 
z
" id="DejaVuSans-53"/>
      </defs>
      <g transform="translate(641.767591 518.598438)scale(0.1 -0.1)">
       <use xlink:href="#DejaVuSans-53"/>
       <use x="63.623047" xlink:href="#DejaVuSans-48"/>
      </g>
     </g>
    </g>
    <g id="xtick_7">
     <g id="line2d_13">
      <path clip-path="url(#p9889731188)" d="M 750.076304 504 
L 750.076304 69.12 
" style="fill:none;stroke:#808080;stroke-dasharray:9.6,2.4,1.5,2.4;stroke-dashoffset:0;stroke-opacity:0.6;stroke-width:1.5;"/>
     </g>
     <g id="line2d_14">
      <g>
       <use style="stroke:#000000;stroke-width:0.8;" x="750.076304" xlink:href="#mc5e2590cbd" y="504"/>
      </g>
     </g>
     <g id="text_7">
      <!-- 60 -->
      <defs>
       <path d="M 33.015625 40.375 
Q 26.375 40.375 22.484375 35.828125 
Q 18.609375 31.296875 18.609375 23.390625 
Q 18.609375 15.53125 22.484375 10.953125 
Q 26.375 6.390625 33.015625 6.390625 
Q 39.65625 6.390625 43.53125 10.953125 
Q 47.40625 15.53125 47.40625 23.390625 
Q 47.40625 31.296875 43.53125 35.828125 
Q 39.65625 40.375 33.015625 40.375 
z
M 52.59375 71.296875 
L 52.59375 62.3125 
Q 48.875 64.0625 45.09375 64.984375 
Q 41.3125 65.921875 37.59375 65.921875 
Q 27.828125 65.921875 22.671875 59.328125 
Q 17.53125 52.734375 16.796875 39.40625 
Q 19.671875 43.65625 24.015625 45.921875 
Q 28.375 48.1875 33.59375 48.1875 
Q 44.578125 48.1875 50.953125 41.515625 
Q 57.328125 34.859375 57.328125 23.390625 
Q 57.328125 12.15625 50.6875 5.359375 
Q 44.046875 -1.421875 33.015625 -1.421875 
Q 20.359375 -1.421875 13.671875 8.265625 
Q 6.984375 17.96875 6.984375 36.375 
Q 6.984375 53.65625 15.1875 63.9375 
Q 23.390625 74.21875 37.203125 74.21875 
Q 40.921875 74.21875 44.703125 73.484375 
Q 48.484375 72.75 52.59375 71.296875 
z
" id="DejaVuSans-54"/>
      </defs>
      <g transform="translate(743.713804 518.598438)scale(0.1 -0.1)">
       <use xlink:href="#DejaVuSans-54"/>
       <use x="63.623047" xlink:href="#DejaVuSans-48"/>
      </g>
     </g>
    </g>
    <g id="xtick_8">
     <g id="line2d_15">
      <path clip-path="url(#p9889731188)" d="M 118.009785 504 
L 118.009785 69.12 
" style="fill:none;stroke:#f5f5dc;stroke-linecap:square;stroke-opacity:0.8;"/>
     </g>
     <g id="line2d_16">
      <defs>
       <path d="M 0 0 
L 0 2 
" id="m013220dd17" style="stroke:#000000;stroke-width:0.6;"/>
      </defs>
      <g>
       <use style="stroke:#000000;stroke-width:0.6;" x="118.009785" xlink:href="#m013220dd17" y="504"/>
      </g>
     </g>
    </g>
    <g id="xtick_9">
     <g id="line2d_17">
      <path clip-path="url(#p9889731188)" d="M 158.78827 504 
L 158.78827 69.12 
" style="fill:none;stroke:#f5f5dc;stroke-linecap:square;stroke-opacity:0.8;"/>
     </g>
     <g id="line2d_18">
      <g>
       <use style="stroke:#000000;stroke-width:0.6;" x="158.78827" xlink:href="#m013220dd17" y="504"/>
      </g>
     </g>
    </g>
    <g id="xtick_10">
     <g id="line2d_19">
      <path clip-path="url(#p9889731188)" d="M 179.177512 504 
L 179.177512 69.12 
" style="fill:none;stroke:#f5f5dc;stroke-linecap:square;stroke-opacity:0.8;"/>
     </g>
     <g id="line2d_20">
      <g>
       <use style="stroke:#000000;stroke-width:0.6;" x="179.177512" xlink:href="#m013220dd17" y="504"/>
      </g>
     </g>
    </g>
    <g id="xtick_11">
     <g id="line2d_21">
      <path clip-path="url(#p9889731188)" d="M 199.566755 504 
L 199.566755 69.12 
" style="fill:none;stroke:#f5f5dc;stroke-linecap:square;stroke-opacity:0.8;"/>
     </g>
     <g id="line2d_22">
      <g>
       <use style="stroke:#000000;stroke-width:0.6;" x="199.566755" xlink:href="#m013220dd17" y="504"/>
      </g>
     </g>
    </g>
    <g id="xtick_12">
     <g id="line2d_23">
      <path clip-path="url(#p9889731188)" d="M 219.955997 504 
L 219.955997 69.12 
" style="fill:none;stroke:#f5f5dc;stroke-linecap:square;stroke-opacity:0.8;"/>
     </g>
     <g id="line2d_24">
      <g>
       <use style="stroke:#000000;stroke-width:0.6;" x="219.955997" xlink:href="#m013220dd17" y="504"/>
      </g>
     </g>
    </g>
    <g id="xtick_13">
     <g id="line2d_25">
      <path clip-path="url(#p9889731188)" d="M 260.734483 504 
L 260.734483 69.12 
" style="fill:none;stroke:#f5f5dc;stroke-linecap:square;stroke-opacity:0.8;"/>
     </g>
     <g id="line2d_26">
      <g>
       <use style="stroke:#000000;stroke-width:0.6;" x="260.734483" xlink:href="#m013220dd17" y="504"/>
      </g>
     </g>
    </g>
    <g id="xtick_14">
     <g id="line2d_27">
      <path clip-path="url(#p9889731188)" d="M 281.123725 504 
L 281.123725 69.12 
" style="fill:none;stroke:#f5f5dc;stroke-linecap:square;stroke-opacity:0.8;"/>
     </g>
     <g id="line2d_28">
      <g>
       <use style="stroke:#000000;stroke-width:0.6;" x="281.123725" xlink:href="#m013220dd17" y="504"/>
      </g>
     </g>
    </g>
    <g id="xtick_15">
     <g id="line2d_29">
      <path clip-path="url(#p9889731188)" d="M 301.512968 504 
L 301.512968 69.12 
" style="fill:none;stroke:#f5f5dc;stroke-linecap:square;stroke-opacity:0.8;"/>
     </g>
     <g id="line2d_30">
      <g>
       <use style="stroke:#000000;stroke-width:0.6;" x="301.512968" xlink:href="#m013220dd17" y="504"/>
      </g>
     </g>
    </g>
    <g id="xtick_16">
     <g id="line2d_31">
      <path clip-path="url(#p9889731188)" d="M 321.90221 504 
L 321.90221 69.12 
" style="fill:none;stroke:#f5f5dc;stroke-linecap:square;stroke-opacity:0.8;"/>
     </g>
     <g id="line2d_32">
      <g>
       <use style="stroke:#000000;stroke-width:0.6;" x="321.90221" xlink:href="#m013220dd17" y="504"/>
      </g>
     </g>
    </g>
    <g id="xtick_17">
     <g id="line2d_33">
      <path clip-path="url(#p9889731188)" d="M 362.680695 504 
L 362.680695 69.12 
" style="fill:none;stroke:#f5f5dc;stroke-linecap:square;stroke-opacity:0.8;"/>
     </g>
     <g id="line2d_34">
      <g>
       <use style="stroke:#000000;stroke-width:0.6;" x="362.680695" xlink:href="#m013220dd17" y="504"/>
      </g>
     </g>
    </g>
    <g id="xtick_18">
     <g id="line2d_35">
      <path clip-path="url(#p9889731188)" d="M 383.069938 504 
L 383.069938 69.12 
" style="fill:none;stroke:#f5f5dc;stroke-linecap:square;stroke-opacity:0.8;"/>
     </g>
     <g id="line2d_36">
      <g>
       <use style="stroke:#000000;stroke-width:0.6;" x="383.069938" xlink:href="#m013220dd17" y="504"/>
      </g>
     </g>
    </g>
    <g id="xtick_19">
     <g id="line2d_37">
      <path clip-path="url(#p9889731188)" d="M 403.45918 504 
L 403.45918 69.12 
" style="fill:none;stroke:#f5f5dc;stroke-linecap:square;stroke-opacity:0.8;"/>
     </g>
     <g id="line2d_38">
      <g>
       <use style="stroke:#000000;stroke-width:0.6;" x="403.45918" xlink:href="#m013220dd17" y="504"/>
      </g>
     </g>
    </g>
    <g id="xtick_20">
     <g id="line2d_39">
      <path clip-path="url(#p9889731188)" d="M 423.848423 504 
L 423.848423 69.12 
" style="fill:none;stroke:#f5f5dc;stroke-linecap:square;stroke-opacity:0.8;"/>
     </g>
     <g id="line2d_40">
      <g>
       <use style="stroke:#000000;stroke-width:0.6;" x="423.848423" xlink:href="#m013220dd17" y="504"/>
      </g>
     </g>
    </g>
    <g id="xtick_21">
     <g id="line2d_41">
      <path clip-path="url(#p9889731188)" d="M 464.626908 504 
L 464.626908 69.12 
" style="fill:none;stroke:#f5f5dc;stroke-linecap:square;stroke-opacity:0.8;"/>
     </g>
     <g id="line2d_42">
      <g>
       <use style="stroke:#000000;stroke-width:0.6;" x="464.626908" xlink:href="#m013220dd17" y="504"/>
      </g>
     </g>
    </g>
    <g id="xtick_22">
     <g id="line2d_43">
      <path clip-path="url(#p9889731188)" d="M 485.016151 504 
L 485.016151 69.12 
" style="fill:none;stroke:#f5f5dc;stroke-linecap:square;stroke-opacity:0.8;"/>
     </g>
     <g id="line2d_44">
      <g>
       <use style="stroke:#000000;stroke-width:0.6;" x="485.016151" xlink:href="#m013220dd17" y="504"/>
      </g>
     </g>
    </g>
    <g id="xtick_23">
     <g id="line2d_45">
      <path clip-path="url(#p9889731188)" d="M 505.405393 504 
L 505.405393 69.12 
" style="fill:none;stroke:#f5f5dc;stroke-linecap:square;stroke-opacity:0.8;"/>
     </g>
     <g id="line2d_46">
      <g>
       <use style="stroke:#000000;stroke-width:0.6;" x="505.405393" xlink:href="#m013220dd17" y="504"/>
      </g>
     </g>
    </g>
    <g id="xtick_24">
     <g id="line2d_47">
      <path clip-path="url(#p9889731188)" d="M 525.794636 504 
L 525.794636 69.12 
" style="fill:none;stroke:#f5f5dc;stroke-linecap:square;stroke-opacity:0.8;"/>
     </g>
     <g id="line2d_48">
      <g>
       <use style="stroke:#000000;stroke-width:0.6;" x="525.794636" xlink:href="#m013220dd17" y="504"/>
      </g>
     </g>
    </g>
    <g id="xtick_25">
     <g id="line2d_49">
      <path clip-path="url(#p9889731188)" d="M 566.573121 504 
L 566.573121 69.12 
" style="fill:none;stroke:#f5f5dc;stroke-linecap:square;stroke-opacity:0.8;"/>
     </g>
     <g id="line2d_50">
      <g>
       <use style="stroke:#000000;stroke-width:0.6;" x="566.573121" xlink:href="#m013220dd17" y="504"/>
      </g>
     </g>
    </g>
    <g id="xtick_26">
     <g id="line2d_51">
      <path clip-path="url(#p9889731188)" d="M 586.962363 504 
L 586.962363 69.12 
" style="fill:none;stroke:#f5f5dc;stroke-linecap:square;stroke-opacity:0.8;"/>
     </g>
     <g id="line2d_52">
      <g>
       <use style="stroke:#000000;stroke-width:0.6;" x="586.962363" xlink:href="#m013220dd17" y="504"/>
      </g>
     </g>
    </g>
    <g id="xtick_27">
     <g id="line2d_53">
      <path clip-path="url(#p9889731188)" d="M 607.351606 504 
L 607.351606 69.12 
" style="fill:none;stroke:#f5f5dc;stroke-linecap:square;stroke-opacity:0.8;"/>
     </g>
     <g id="line2d_54">
      <g>
       <use style="stroke:#000000;stroke-width:0.6;" x="607.351606" xlink:href="#m013220dd17" y="504"/>
      </g>
     </g>
    </g>
    <g id="xtick_28">
     <g id="line2d_55">
      <path clip-path="url(#p9889731188)" d="M 627.740849 504 
L 627.740849 69.12 
" style="fill:none;stroke:#f5f5dc;stroke-linecap:square;stroke-opacity:0.8;"/>
     </g>
     <g id="line2d_56">
      <g>
       <use style="stroke:#000000;stroke-width:0.6;" x="627.740849" xlink:href="#m013220dd17" y="504"/>
      </g>
     </g>
    </g>
    <g id="xtick_29">
     <g id="line2d_57">
      <path clip-path="url(#p9889731188)" d="M 668.519334 504 
L 668.519334 69.12 
" style="fill:none;stroke:#f5f5dc;stroke-linecap:square;stroke-opacity:0.8;"/>
     </g>
     <g id="line2d_58">
      <g>
       <use style="stroke:#000000;stroke-width:0.6;" x="668.519334" xlink:href="#m013220dd17" y="504"/>
      </g>
     </g>
    </g>
    <g id="xtick_30">
     <g id="line2d_59">
      <path clip-path="url(#p9889731188)" d="M 688.908576 504 
L 688.908576 69.12 
" style="fill:none;stroke:#f5f5dc;stroke-linecap:square;stroke-opacity:0.8;"/>
     </g>
     <g id="line2d_60">
      <g>
       <use style="stroke:#000000;stroke-width:0.6;" x="688.908576" xlink:href="#m013220dd17" y="504"/>
      </g>
     </g>
    </g>
    <g id="xtick_31">
     <g id="line2d_61">
      <path clip-path="url(#p9889731188)" d="M 709.297819 504 
L 709.297819 69.12 
" style="fill:none;stroke:#f5f5dc;stroke-linecap:square;stroke-opacity:0.8;"/>
     </g>
     <g id="line2d_62">
      <g>
       <use style="stroke:#000000;stroke-width:0.6;" x="709.297819" xlink:href="#m013220dd17" y="504"/>
      </g>
     </g>
    </g>
    <g id="xtick_32">
     <g id="line2d_63">
      <path clip-path="url(#p9889731188)" d="M 729.687061 504 
L 729.687061 69.12 
" style="fill:none;stroke:#f5f5dc;stroke-linecap:square;stroke-opacity:0.8;"/>
     </g>
     <g id="line2d_64">
      <g>
       <use style="stroke:#000000;stroke-width:0.6;" x="729.687061" xlink:href="#m013220dd17" y="504"/>
      </g>
     </g>
    </g>
    <g id="xtick_33">
     <g id="line2d_65">
      <path clip-path="url(#p9889731188)" d="M 770.465546 504 
L 770.465546 69.12 
" style="fill:none;stroke:#f5f5dc;stroke-linecap:square;stroke-opacity:0.8;"/>
     </g>
     <g id="line2d_66">
      <g>
       <use style="stroke:#000000;stroke-width:0.6;" x="770.465546" xlink:href="#m013220dd17" y="504"/>
      </g>
     </g>
    </g>
    <g id="text_8">
     <!-- Error (mmHg) -->
     <defs>
      <path d="M 9.8125 72.90625 
L 55.90625 72.90625 
L 55.90625 64.59375 
L 19.671875 64.59375 
L 19.671875 43.015625 
L 54.390625 43.015625 
L 54.390625 34.71875 
L 19.671875 34.71875 
L 19.671875 8.296875 
L 56.78125 8.296875 
L 56.78125 0 
L 9.8125 0 
z
" id="DejaVuSans-69"/>
      <path d="M 41.109375 46.296875 
Q 39.59375 47.171875 37.8125 47.578125 
Q 36.03125 48 33.890625 48 
Q 26.265625 48 22.1875 43.046875 
Q 18.109375 38.09375 18.109375 28.8125 
L 18.109375 0 
L 9.078125 0 
L 9.078125 54.6875 
L 18.109375 54.6875 
L 18.109375 46.1875 
Q 20.953125 51.171875 25.484375 53.578125 
Q 30.03125 56 36.53125 56 
Q 37.453125 56 38.578125 55.875 
Q 39.703125 55.765625 41.0625 55.515625 
z
" id="DejaVuSans-114"/>
      <path d="M 30.609375 48.390625 
Q 23.390625 48.390625 19.1875 42.75 
Q 14.984375 37.109375 14.984375 27.296875 
Q 14.984375 17.484375 19.15625 11.84375 
Q 23.34375 6.203125 30.609375 6.203125 
Q 37.796875 6.203125 41.984375 11.859375 
Q 46.1875 17.53125 46.1875 27.296875 
Q 46.1875 37.015625 41.984375 42.703125 
Q 37.796875 48.390625 30.609375 48.390625 
z
M 30.609375 56 
Q 42.328125 56 49.015625 48.375 
Q 55.71875 40.765625 55.71875 27.296875 
Q 55.71875 13.875 49.015625 6.21875 
Q 42.328125 -1.421875 30.609375 -1.421875 
Q 18.84375 -1.421875 12.171875 6.21875 
Q 5.515625 13.875 5.515625 27.296875 
Q 5.515625 40.765625 12.171875 48.375 
Q 18.84375 56 30.609375 56 
z
" id="DejaVuSans-111"/>
      <path id="DejaVuSans-32"/>
      <path d="M 31 75.875 
Q 24.46875 64.65625 21.28125 53.65625 
Q 18.109375 42.671875 18.109375 31.390625 
Q 18.109375 20.125 21.3125 9.0625 
Q 24.515625 -2 31 -13.1875 
L 23.1875 -13.1875 
Q 15.875 -1.703125 12.234375 9.375 
Q 8.59375 20.453125 8.59375 31.390625 
Q 8.59375 42.28125 12.203125 53.3125 
Q 15.828125 64.359375 23.1875 75.875 
z
" id="DejaVuSans-40"/>
      <path d="M 52 44.1875 
Q 55.375 50.25 60.0625 53.125 
Q 64.75 56 71.09375 56 
Q 79.640625 56 84.28125 50.015625 
Q 88.921875 44.046875 88.921875 33.015625 
L 88.921875 0 
L 79.890625 0 
L 79.890625 32.71875 
Q 79.890625 40.578125 77.09375 44.375 
Q 74.3125 48.1875 68.609375 48.1875 
Q 61.625 48.1875 57.5625 43.546875 
Q 53.515625 38.921875 53.515625 30.90625 
L 53.515625 0 
L 44.484375 0 
L 44.484375 32.71875 
Q 44.484375 40.625 41.703125 44.40625 
Q 38.921875 48.1875 33.109375 48.1875 
Q 26.21875 48.1875 22.15625 43.53125 
Q 18.109375 38.875 18.109375 30.90625 
L 18.109375 0 
L 9.078125 0 
L 9.078125 54.6875 
L 18.109375 54.6875 
L 18.109375 46.1875 
Q 21.1875 51.21875 25.484375 53.609375 
Q 29.78125 56 35.6875 56 
Q 41.65625 56 45.828125 52.96875 
Q 50 49.953125 52 44.1875 
z
" id="DejaVuSans-109"/>
      <path d="M 9.8125 72.90625 
L 19.671875 72.90625 
L 19.671875 43.015625 
L 55.515625 43.015625 
L 55.515625 72.90625 
L 65.375 72.90625 
L 65.375 0 
L 55.515625 0 
L 55.515625 34.71875 
L 19.671875 34.71875 
L 19.671875 0 
L 9.8125 0 
z
" id="DejaVuSans-72"/>
      <path d="M 45.40625 27.984375 
Q 45.40625 37.75 41.375 43.109375 
Q 37.359375 48.484375 30.078125 48.484375 
Q 22.859375 48.484375 18.828125 43.109375 
Q 14.796875 37.75 14.796875 27.984375 
Q 14.796875 18.265625 18.828125 12.890625 
Q 22.859375 7.515625 30.078125 7.515625 
Q 37.359375 7.515625 41.375 12.890625 
Q 45.40625 18.265625 45.40625 27.984375 
z
M 54.390625 6.78125 
Q 54.390625 -7.171875 48.1875 -13.984375 
Q 42 -20.796875 29.203125 -20.796875 
Q 24.46875 -20.796875 20.265625 -20.09375 
Q 16.0625 -19.390625 12.109375 -17.921875 
L 12.109375 -9.1875 
Q 16.0625 -11.328125 19.921875 -12.34375 
Q 23.78125 -13.375 27.78125 -13.375 
Q 36.625 -13.375 41.015625 -8.765625 
Q 45.40625 -4.15625 45.40625 5.171875 
L 45.40625 9.625 
Q 42.625 4.78125 38.28125 2.390625 
Q 33.9375 0 27.875 0 
Q 17.828125 0 11.671875 7.65625 
Q 5.515625 15.328125 5.515625 27.984375 
Q 5.515625 40.671875 11.671875 48.328125 
Q 17.828125 56 27.875 56 
Q 33.9375 56 38.28125 53.609375 
Q 42.625 51.21875 45.40625 46.390625 
L 45.40625 54.6875 
L 54.390625 54.6875 
z
" id="DejaVuSans-103"/>
      <path d="M 8.015625 75.875 
L 15.828125 75.875 
Q 23.140625 64.359375 26.78125 53.3125 
Q 30.421875 42.28125 30.421875 31.390625 
Q 30.421875 20.453125 26.78125 9.375 
Q 23.140625 -1.703125 15.828125 -13.1875 
L 8.015625 -13.1875 
Q 14.5 -2 17.703125 9.0625 
Q 20.90625 20.125 20.90625 31.390625 
Q 20.90625 42.671875 17.703125 53.65625 
Q 14.5 64.65625 8.015625 75.875 
z
" id="DejaVuSans-41"/>
     </defs>
     <g transform="translate(408.251563 532.276562)scale(0.1 -0.1)">
      <use xlink:href="#DejaVuSans-69"/>
      <use x="63.183594" xlink:href="#DejaVuSans-114"/>
      <use x="104.28125" xlink:href="#DejaVuSans-114"/>
      <use x="145.363281" xlink:href="#DejaVuSans-111"/>
      <use x="206.544922" xlink:href="#DejaVuSans-114"/>
      <use x="247.658203" xlink:href="#DejaVuSans-32"/>
      <use x="279.445312" xlink:href="#DejaVuSans-40"/>
      <use x="318.458984" xlink:href="#DejaVuSans-109"/>
      <use x="415.871094" xlink:href="#DejaVuSans-109"/>
      <use x="513.283203" xlink:href="#DejaVuSans-72"/>
      <use x="588.478516" xlink:href="#DejaVuSans-103"/>
      <use x="651.955078" xlink:href="#DejaVuSans-41"/>
     </g>
    </g>
   </g>
   <g id="matplotlib.axis_2">
    <g id="ytick_1">
     <g id="line2d_67">
      <path clip-path="url(#p9889731188)" d="M 108 504 
L 777.6 504 
" style="fill:none;stroke:#808080;stroke-dasharray:9.6,2.4,1.5,2.4;stroke-dashoffset:0;stroke-opacity:0.6;stroke-width:1.5;"/>
     </g>
     <g id="line2d_68">
      <defs>
       <path d="M 0 0 
L -3.5 0 
" id="m3dc799b675" style="stroke:#000000;stroke-width:0.8;"/>
      </defs>
      <g>
       <use style="stroke:#000000;stroke-width:0.8;" x="108" xlink:href="#m3dc799b675" y="504"/>
      </g>
     </g>
     <g id="text_9">
      <!-- 0.0 -->
      <defs>
       <path d="M 10.6875 12.40625 
L 21 12.40625 
L 21 0 
L 10.6875 0 
z
" id="DejaVuSans-46"/>
      </defs>
      <g transform="translate(85.096875 507.799219)scale(0.1 -0.1)">
       <use xlink:href="#DejaVuSans-48"/>
       <use x="63.623047" xlink:href="#DejaVuSans-46"/>
       <use x="95.410156" xlink:href="#DejaVuSans-48"/>
      </g>
     </g>
    </g>
    <g id="ytick_2">
     <g id="line2d_69">
      <path clip-path="url(#p9889731188)" d="M 108 421.165714 
L 777.6 421.165714 
" style="fill:none;stroke:#808080;stroke-dasharray:9.6,2.4,1.5,2.4;stroke-dashoffset:0;stroke-opacity:0.6;stroke-width:1.5;"/>
     </g>
     <g id="line2d_70">
      <g>
       <use style="stroke:#000000;stroke-width:0.8;" x="108" xlink:href="#m3dc799b675" y="421.165714"/>
      </g>
     </g>
     <g id="text_10">
      <!-- 0.2 -->
      <g transform="translate(85.096875 424.964933)scale(0.1 -0.1)">
       <use xlink:href="#DejaVuSans-48"/>
       <use x="63.623047" xlink:href="#DejaVuSans-46"/>
       <use x="95.410156" xlink:href="#DejaVuSans-50"/>
      </g>
     </g>
    </g>
    <g id="ytick_3">
     <g id="line2d_71">
      <path clip-path="url(#p9889731188)" d="M 108 338.331429 
L 777.6 338.331429 
" style="fill:none;stroke:#808080;stroke-dasharray:9.6,2.4,1.5,2.4;stroke-dashoffset:0;stroke-opacity:0.6;stroke-width:1.5;"/>
     </g>
     <g id="line2d_72">
      <g>
       <use style="stroke:#000000;stroke-width:0.8;" x="108" xlink:href="#m3dc799b675" y="338.331429"/>
      </g>
     </g>
     <g id="text_11">
      <!-- 0.4 -->
      <g transform="translate(85.096875 342.130647)scale(0.1 -0.1)">
       <use xlink:href="#DejaVuSans-48"/>
       <use x="63.623047" xlink:href="#DejaVuSans-46"/>
       <use x="95.410156" xlink:href="#DejaVuSans-52"/>
      </g>
     </g>
    </g>
    <g id="ytick_4">
     <g id="line2d_73">
      <path clip-path="url(#p9889731188)" d="M 108 255.497143 
L 777.6 255.497143 
" style="fill:none;stroke:#808080;stroke-dasharray:9.6,2.4,1.5,2.4;stroke-dashoffset:0;stroke-opacity:0.6;stroke-width:1.5;"/>
     </g>
     <g id="line2d_74">
      <g>
       <use style="stroke:#000000;stroke-width:0.8;" x="108" xlink:href="#m3dc799b675" y="255.497143"/>
      </g>
     </g>
     <g id="text_12">
      <!-- 0.6 -->
      <g transform="translate(85.096875 259.296362)scale(0.1 -0.1)">
       <use xlink:href="#DejaVuSans-48"/>
       <use x="63.623047" xlink:href="#DejaVuSans-46"/>
       <use x="95.410156" xlink:href="#DejaVuSans-54"/>
      </g>
     </g>
    </g>
    <g id="ytick_5">
     <g id="line2d_75">
      <path clip-path="url(#p9889731188)" d="M 108 172.662857 
L 777.6 172.662857 
" style="fill:none;stroke:#808080;stroke-dasharray:9.6,2.4,1.5,2.4;stroke-dashoffset:0;stroke-opacity:0.6;stroke-width:1.5;"/>
     </g>
     <g id="line2d_76">
      <g>
       <use style="stroke:#000000;stroke-width:0.8;" x="108" xlink:href="#m3dc799b675" y="172.662857"/>
      </g>
     </g>
     <g id="text_13">
      <!-- 0.8 -->
      <defs>
       <path d="M 31.78125 34.625 
Q 24.75 34.625 20.71875 30.859375 
Q 16.703125 27.09375 16.703125 20.515625 
Q 16.703125 13.921875 20.71875 10.15625 
Q 24.75 6.390625 31.78125 6.390625 
Q 38.8125 6.390625 42.859375 10.171875 
Q 46.921875 13.96875 46.921875 20.515625 
Q 46.921875 27.09375 42.890625 30.859375 
Q 38.875 34.625 31.78125 34.625 
z
M 21.921875 38.8125 
Q 15.578125 40.375 12.03125 44.71875 
Q 8.5 49.078125 8.5 55.328125 
Q 8.5 64.0625 14.71875 69.140625 
Q 20.953125 74.21875 31.78125 74.21875 
Q 42.671875 74.21875 48.875 69.140625 
Q 55.078125 64.0625 55.078125 55.328125 
Q 55.078125 49.078125 51.53125 44.71875 
Q 48 40.375 41.703125 38.8125 
Q 48.828125 37.15625 52.796875 32.3125 
Q 56.78125 27.484375 56.78125 20.515625 
Q 56.78125 9.90625 50.3125 4.234375 
Q 43.84375 -1.421875 31.78125 -1.421875 
Q 19.734375 -1.421875 13.25 4.234375 
Q 6.78125 9.90625 6.78125 20.515625 
Q 6.78125 27.484375 10.78125 32.3125 
Q 14.796875 37.15625 21.921875 38.8125 
z
M 18.3125 54.390625 
Q 18.3125 48.734375 21.84375 45.5625 
Q 25.390625 42.390625 31.78125 42.390625 
Q 38.140625 42.390625 41.71875 45.5625 
Q 45.3125 48.734375 45.3125 54.390625 
Q 45.3125 60.0625 41.71875 63.234375 
Q 38.140625 66.40625 31.78125 66.40625 
Q 25.390625 66.40625 21.84375 63.234375 
Q 18.3125 60.0625 18.3125 54.390625 
z
" id="DejaVuSans-56"/>
      </defs>
      <g transform="translate(85.096875 176.462076)scale(0.1 -0.1)">
       <use xlink:href="#DejaVuSans-48"/>
       <use x="63.623047" xlink:href="#DejaVuSans-46"/>
       <use x="95.410156" xlink:href="#DejaVuSans-56"/>
      </g>
     </g>
    </g>
    <g id="ytick_6">
     <g id="line2d_77">
      <path clip-path="url(#p9889731188)" d="M 108 89.828571 
L 777.6 89.828571 
" style="fill:none;stroke:#808080;stroke-dasharray:9.6,2.4,1.5,2.4;stroke-dashoffset:0;stroke-opacity:0.6;stroke-width:1.5;"/>
     </g>
     <g id="line2d_78">
      <g>
       <use style="stroke:#000000;stroke-width:0.8;" x="108" xlink:href="#m3dc799b675" y="89.828571"/>
      </g>
     </g>
     <g id="text_14">
      <!-- 1.0 -->
      <g transform="translate(85.096875 93.62779)scale(0.1 -0.1)">
       <use xlink:href="#DejaVuSans-49"/>
       <use x="63.623047" xlink:href="#DejaVuSans-46"/>
       <use x="95.410156" xlink:href="#DejaVuSans-48"/>
      </g>
     </g>
    </g>
    <g id="ytick_7">
     <g id="line2d_79">
      <path clip-path="url(#p9889731188)" d="M 108 483.291429 
L 777.6 483.291429 
" style="fill:none;stroke:#f5f5dc;stroke-linecap:square;stroke-opacity:0.8;"/>
     </g>
     <g id="line2d_80">
      <defs>
       <path d="M 0 0 
L -2 0 
" id="m51c72e45bc" style="stroke:#000000;stroke-width:0.6;"/>
      </defs>
      <g>
       <use style="stroke:#000000;stroke-width:0.6;" x="108" xlink:href="#m51c72e45bc" y="483.291429"/>
      </g>
     </g>
    </g>
    <g id="ytick_8">
     <g id="line2d_81">
      <path clip-path="url(#p9889731188)" d="M 108 462.582857 
L 777.6 462.582857 
" style="fill:none;stroke:#f5f5dc;stroke-linecap:square;stroke-opacity:0.8;"/>
     </g>
     <g id="line2d_82">
      <g>
       <use style="stroke:#000000;stroke-width:0.6;" x="108" xlink:href="#m51c72e45bc" y="462.582857"/>
      </g>
     </g>
    </g>
    <g id="ytick_9">
     <g id="line2d_83">
      <path clip-path="url(#p9889731188)" d="M 108 441.874286 
L 777.6 441.874286 
" style="fill:none;stroke:#f5f5dc;stroke-linecap:square;stroke-opacity:0.8;"/>
     </g>
     <g id="line2d_84">
      <g>
       <use style="stroke:#000000;stroke-width:0.6;" x="108" xlink:href="#m51c72e45bc" y="441.874286"/>
      </g>
     </g>
    </g>
    <g id="ytick_10">
     <g id="line2d_85">
      <path clip-path="url(#p9889731188)" d="M 108 400.457143 
L 777.6 400.457143 
" style="fill:none;stroke:#f5f5dc;stroke-linecap:square;stroke-opacity:0.8;"/>
     </g>
     <g id="line2d_86">
      <g>
       <use style="stroke:#000000;stroke-width:0.6;" x="108" xlink:href="#m51c72e45bc" y="400.457143"/>
      </g>
     </g>
    </g>
    <g id="ytick_11">
     <g id="line2d_87">
      <path clip-path="url(#p9889731188)" d="M 108 379.748571 
L 777.6 379.748571 
" style="fill:none;stroke:#f5f5dc;stroke-linecap:square;stroke-opacity:0.8;"/>
     </g>
     <g id="line2d_88">
      <g>
       <use style="stroke:#000000;stroke-width:0.6;" x="108" xlink:href="#m51c72e45bc" y="379.748571"/>
      </g>
     </g>
    </g>
    <g id="ytick_12">
     <g id="line2d_89">
      <path clip-path="url(#p9889731188)" d="M 108 359.04 
L 777.6 359.04 
" style="fill:none;stroke:#f5f5dc;stroke-linecap:square;stroke-opacity:0.8;"/>
     </g>
     <g id="line2d_90">
      <g>
       <use style="stroke:#000000;stroke-width:0.6;" x="108" xlink:href="#m51c72e45bc" y="359.04"/>
      </g>
     </g>
    </g>
    <g id="ytick_13">
     <g id="line2d_91">
      <path clip-path="url(#p9889731188)" d="M 108 317.622857 
L 777.6 317.622857 
" style="fill:none;stroke:#f5f5dc;stroke-linecap:square;stroke-opacity:0.8;"/>
     </g>
     <g id="line2d_92">
      <g>
       <use style="stroke:#000000;stroke-width:0.6;" x="108" xlink:href="#m51c72e45bc" y="317.622857"/>
      </g>
     </g>
    </g>
    <g id="ytick_14">
     <g id="line2d_93">
      <path clip-path="url(#p9889731188)" d="M 108 296.914286 
L 777.6 296.914286 
" style="fill:none;stroke:#f5f5dc;stroke-linecap:square;stroke-opacity:0.8;"/>
     </g>
     <g id="line2d_94">
      <g>
       <use style="stroke:#000000;stroke-width:0.6;" x="108" xlink:href="#m51c72e45bc" y="296.914286"/>
      </g>
     </g>
    </g>
    <g id="ytick_15">
     <g id="line2d_95">
      <path clip-path="url(#p9889731188)" d="M 108 276.205714 
L 777.6 276.205714 
" style="fill:none;stroke:#f5f5dc;stroke-linecap:square;stroke-opacity:0.8;"/>
     </g>
     <g id="line2d_96">
      <g>
       <use style="stroke:#000000;stroke-width:0.6;" x="108" xlink:href="#m51c72e45bc" y="276.205714"/>
      </g>
     </g>
    </g>
    <g id="ytick_16">
     <g id="line2d_97">
      <path clip-path="url(#p9889731188)" d="M 108 234.788571 
L 777.6 234.788571 
" style="fill:none;stroke:#f5f5dc;stroke-linecap:square;stroke-opacity:0.8;"/>
     </g>
     <g id="line2d_98">
      <g>
       <use style="stroke:#000000;stroke-width:0.6;" x="108" xlink:href="#m51c72e45bc" y="234.788571"/>
      </g>
     </g>
    </g>
    <g id="ytick_17">
     <g id="line2d_99">
      <path clip-path="url(#p9889731188)" d="M 108 214.08 
L 777.6 214.08 
" style="fill:none;stroke:#f5f5dc;stroke-linecap:square;stroke-opacity:0.8;"/>
     </g>
     <g id="line2d_100">
      <g>
       <use style="stroke:#000000;stroke-width:0.6;" x="108" xlink:href="#m51c72e45bc" y="214.08"/>
      </g>
     </g>
    </g>
    <g id="ytick_18">
     <g id="line2d_101">
      <path clip-path="url(#p9889731188)" d="M 108 193.371429 
L 777.6 193.371429 
" style="fill:none;stroke:#f5f5dc;stroke-linecap:square;stroke-opacity:0.8;"/>
     </g>
     <g id="line2d_102">
      <g>
       <use style="stroke:#000000;stroke-width:0.6;" x="108" xlink:href="#m51c72e45bc" y="193.371429"/>
      </g>
     </g>
    </g>
    <g id="ytick_19">
     <g id="line2d_103">
      <path clip-path="url(#p9889731188)" d="M 108 151.954286 
L 777.6 151.954286 
" style="fill:none;stroke:#f5f5dc;stroke-linecap:square;stroke-opacity:0.8;"/>
     </g>
     <g id="line2d_104">
      <g>
       <use style="stroke:#000000;stroke-width:0.6;" x="108" xlink:href="#m51c72e45bc" y="151.954286"/>
      </g>
     </g>
    </g>
    <g id="ytick_20">
     <g id="line2d_105">
      <path clip-path="url(#p9889731188)" d="M 108 131.245714 
L 777.6 131.245714 
" style="fill:none;stroke:#f5f5dc;stroke-linecap:square;stroke-opacity:0.8;"/>
     </g>
     <g id="line2d_106">
      <g>
       <use style="stroke:#000000;stroke-width:0.6;" x="108" xlink:href="#m51c72e45bc" y="131.245714"/>
      </g>
     </g>
    </g>
    <g id="ytick_21">
     <g id="line2d_107">
      <path clip-path="url(#p9889731188)" d="M 108 110.537143 
L 777.6 110.537143 
" style="fill:none;stroke:#f5f5dc;stroke-linecap:square;stroke-opacity:0.8;"/>
     </g>
     <g id="line2d_108">
      <g>
       <use style="stroke:#000000;stroke-width:0.6;" x="108" xlink:href="#m51c72e45bc" y="110.537143"/>
      </g>
     </g>
    </g>
    <g id="text_15">
     <!-- Imperical CDF -->
     <defs>
      <path d="M 9.8125 72.90625 
L 19.671875 72.90625 
L 19.671875 0 
L 9.8125 0 
z
" id="DejaVuSans-73"/>
      <path d="M 18.109375 8.203125 
L 18.109375 -20.796875 
L 9.078125 -20.796875 
L 9.078125 54.6875 
L 18.109375 54.6875 
L 18.109375 46.390625 
Q 20.953125 51.265625 25.265625 53.625 
Q 29.59375 56 35.59375 56 
Q 45.5625 56 51.78125 48.09375 
Q 58.015625 40.1875 58.015625 27.296875 
Q 58.015625 14.40625 51.78125 6.484375 
Q 45.5625 -1.421875 35.59375 -1.421875 
Q 29.59375 -1.421875 25.265625 0.953125 
Q 20.953125 3.328125 18.109375 8.203125 
z
M 48.6875 27.296875 
Q 48.6875 37.203125 44.609375 42.84375 
Q 40.53125 48.484375 33.40625 48.484375 
Q 26.265625 48.484375 22.1875 42.84375 
Q 18.109375 37.203125 18.109375 27.296875 
Q 18.109375 17.390625 22.1875 11.75 
Q 26.265625 6.109375 33.40625 6.109375 
Q 40.53125 6.109375 44.609375 11.75 
Q 48.6875 17.390625 48.6875 27.296875 
z
" id="DejaVuSans-112"/>
      <path d="M 56.203125 29.59375 
L 56.203125 25.203125 
L 14.890625 25.203125 
Q 15.484375 15.921875 20.484375 11.0625 
Q 25.484375 6.203125 34.421875 6.203125 
Q 39.59375 6.203125 44.453125 7.46875 
Q 49.3125 8.734375 54.109375 11.28125 
L 54.109375 2.78125 
Q 49.265625 0.734375 44.1875 -0.34375 
Q 39.109375 -1.421875 33.890625 -1.421875 
Q 20.796875 -1.421875 13.15625 6.1875 
Q 5.515625 13.8125 5.515625 26.8125 
Q 5.515625 40.234375 12.765625 48.109375 
Q 20.015625 56 32.328125 56 
Q 43.359375 56 49.78125 48.890625 
Q 56.203125 41.796875 56.203125 29.59375 
z
M 47.21875 32.234375 
Q 47.125 39.59375 43.09375 43.984375 
Q 39.0625 48.390625 32.421875 48.390625 
Q 24.90625 48.390625 20.390625 44.140625 
Q 15.875 39.890625 15.1875 32.171875 
z
" id="DejaVuSans-101"/>
      <path d="M 9.421875 54.6875 
L 18.40625 54.6875 
L 18.40625 0 
L 9.421875 0 
z
M 9.421875 75.984375 
L 18.40625 75.984375 
L 18.40625 64.59375 
L 9.421875 64.59375 
z
" id="DejaVuSans-105"/>
      <path d="M 48.78125 52.59375 
L 48.78125 44.1875 
Q 44.96875 46.296875 41.140625 47.34375 
Q 37.3125 48.390625 33.40625 48.390625 
Q 24.65625 48.390625 19.8125 42.84375 
Q 14.984375 37.3125 14.984375 27.296875 
Q 14.984375 17.28125 19.8125 11.734375 
Q 24.65625 6.203125 33.40625 6.203125 
Q 37.3125 6.203125 41.140625 7.25 
Q 44.96875 8.296875 48.78125 10.40625 
L 48.78125 2.09375 
Q 45.015625 0.34375 40.984375 -0.53125 
Q 36.96875 -1.421875 32.421875 -1.421875 
Q 20.0625 -1.421875 12.78125 6.34375 
Q 5.515625 14.109375 5.515625 27.296875 
Q 5.515625 40.671875 12.859375 48.328125 
Q 20.21875 56 33.015625 56 
Q 37.15625 56 41.109375 55.140625 
Q 45.0625 54.296875 48.78125 52.59375 
z
" id="DejaVuSans-99"/>
      <path d="M 34.28125 27.484375 
Q 23.390625 27.484375 19.1875 25 
Q 14.984375 22.515625 14.984375 16.5 
Q 14.984375 11.71875 18.140625 8.90625 
Q 21.296875 6.109375 26.703125 6.109375 
Q 34.1875 6.109375 38.703125 11.40625 
Q 43.21875 16.703125 43.21875 25.484375 
L 43.21875 27.484375 
z
M 52.203125 31.203125 
L 52.203125 0 
L 43.21875 0 
L 43.21875 8.296875 
Q 40.140625 3.328125 35.546875 0.953125 
Q 30.953125 -1.421875 24.3125 -1.421875 
Q 15.921875 -1.421875 10.953125 3.296875 
Q 6 8.015625 6 15.921875 
Q 6 25.140625 12.171875 29.828125 
Q 18.359375 34.515625 30.609375 34.515625 
L 43.21875 34.515625 
L 43.21875 35.40625 
Q 43.21875 41.609375 39.140625 45 
Q 35.0625 48.390625 27.6875 48.390625 
Q 23 48.390625 18.546875 47.265625 
Q 14.109375 46.140625 10.015625 43.890625 
L 10.015625 52.203125 
Q 14.9375 54.109375 19.578125 55.046875 
Q 24.21875 56 28.609375 56 
Q 40.484375 56 46.34375 49.84375 
Q 52.203125 43.703125 52.203125 31.203125 
z
" id="DejaVuSans-97"/>
      <path d="M 9.421875 75.984375 
L 18.40625 75.984375 
L 18.40625 0 
L 9.421875 0 
z
" id="DejaVuSans-108"/>
      <path d="M 64.40625 67.28125 
L 64.40625 56.890625 
Q 59.421875 61.53125 53.78125 63.8125 
Q 48.140625 66.109375 41.796875 66.109375 
Q 29.296875 66.109375 22.65625 58.46875 
Q 16.015625 50.828125 16.015625 36.375 
Q 16.015625 21.96875 22.65625 14.328125 
Q 29.296875 6.6875 41.796875 6.6875 
Q 48.140625 6.6875 53.78125 8.984375 
Q 59.421875 11.28125 64.40625 15.921875 
L 64.40625 5.609375 
Q 59.234375 2.09375 53.4375 0.328125 
Q 47.65625 -1.421875 41.21875 -1.421875 
Q 24.65625 -1.421875 15.125 8.703125 
Q 5.609375 18.84375 5.609375 36.375 
Q 5.609375 53.953125 15.125 64.078125 
Q 24.65625 74.21875 41.21875 74.21875 
Q 47.75 74.21875 53.53125 72.484375 
Q 59.328125 70.75 64.40625 67.28125 
z
" id="DejaVuSans-67"/>
      <path d="M 19.671875 64.796875 
L 19.671875 8.109375 
L 31.59375 8.109375 
Q 46.6875 8.109375 53.6875 14.9375 
Q 60.6875 21.78125 60.6875 36.53125 
Q 60.6875 51.171875 53.6875 57.984375 
Q 46.6875 64.796875 31.59375 64.796875 
z
M 9.8125 72.90625 
L 30.078125 72.90625 
Q 51.265625 72.90625 61.171875 64.09375 
Q 71.09375 55.28125 71.09375 36.53125 
Q 71.09375 17.671875 61.125 8.828125 
Q 51.171875 0 30.078125 0 
L 9.8125 0 
z
" id="DejaVuSans-68"/>
      <path d="M 9.8125 72.90625 
L 51.703125 72.90625 
L 51.703125 64.59375 
L 19.671875 64.59375 
L 19.671875 43.109375 
L 48.578125 43.109375 
L 48.578125 34.8125 
L 19.671875 34.8125 
L 19.671875 0 
L 9.8125 0 
z
" id="DejaVuSans-70"/>
     </defs>
     <g transform="translate(79.017187 321.609219)rotate(-90)scale(0.1 -0.1)">
      <use xlink:href="#DejaVuSans-73"/>
      <use x="29.492188" xlink:href="#DejaVuSans-109"/>
      <use x="126.904297" xlink:href="#DejaVuSans-112"/>
      <use x="190.380859" xlink:href="#DejaVuSans-101"/>
      <use x="251.904297" xlink:href="#DejaVuSans-114"/>
      <use x="293.017578" xlink:href="#DejaVuSans-105"/>
      <use x="320.800781" xlink:href="#DejaVuSans-99"/>
      <use x="375.78125" xlink:href="#DejaVuSans-97"/>
      <use x="437.060547" xlink:href="#DejaVuSans-108"/>
      <use x="464.84375" xlink:href="#DejaVuSans-32"/>
      <use x="496.630859" xlink:href="#DejaVuSans-67"/>
      <use x="566.455078" xlink:href="#DejaVuSans-68"/>
      <use x="643.457031" xlink:href="#DejaVuSans-70"/>
     </g>
    </g>
   </g>
   <g id="patch_4">
    <path d="M 108 504 
L 108 69.12 
" style="fill:none;stroke:#000000;stroke-linecap:square;stroke-linejoin:miter;stroke-width:0.8;"/>
   </g>
   <g id="patch_5">
    <path d="M 777.6 504 
L 777.6 69.12 
" style="fill:none;stroke:#000000;stroke-linecap:square;stroke-linejoin:miter;stroke-width:0.8;"/>
   </g>
   <g id="patch_6">
    <path d="M 108 504 
L 777.6 504 
" style="fill:none;stroke:#000000;stroke-linecap:square;stroke-linejoin:miter;stroke-width:0.8;"/>
   </g>
   <g id="patch_7">
    <path d="M 108 69.12 
L 777.6 69.12 
" style="fill:none;stroke:#000000;stroke-linecap:square;stroke-linejoin:miter;stroke-width:0.8;"/>
   </g>
   <g id="text_16">
    <!-- CDF of SBP Estimation Error Using LR -->
    <defs>
     <path d="M 37.109375 75.984375 
L 37.109375 68.5 
L 28.515625 68.5 
Q 23.6875 68.5 21.796875 66.546875 
Q 19.921875 64.59375 19.921875 59.515625 
L 19.921875 54.6875 
L 34.71875 54.6875 
L 34.71875 47.703125 
L 19.921875 47.703125 
L 19.921875 0 
L 10.890625 0 
L 10.890625 47.703125 
L 2.296875 47.703125 
L 2.296875 54.6875 
L 10.890625 54.6875 
L 10.890625 58.5 
Q 10.890625 67.625 15.140625 71.796875 
Q 19.390625 75.984375 28.609375 75.984375 
z
" id="DejaVuSans-102"/>
     <path d="M 53.515625 70.515625 
L 53.515625 60.890625 
Q 47.90625 63.578125 42.921875 64.890625 
Q 37.9375 66.21875 33.296875 66.21875 
Q 25.25 66.21875 20.875 63.09375 
Q 16.5 59.96875 16.5 54.203125 
Q 16.5 49.359375 19.40625 46.890625 
Q 22.3125 44.4375 30.421875 42.921875 
L 36.375 41.703125 
Q 47.40625 39.59375 52.65625 34.296875 
Q 57.90625 29 57.90625 20.125 
Q 57.90625 9.515625 50.796875 4.046875 
Q 43.703125 -1.421875 29.984375 -1.421875 
Q 24.8125 -1.421875 18.96875 -0.25 
Q 13.140625 0.921875 6.890625 3.21875 
L 6.890625 13.375 
Q 12.890625 10.015625 18.65625 8.296875 
Q 24.421875 6.59375 29.984375 6.59375 
Q 38.421875 6.59375 43.015625 9.90625 
Q 47.609375 13.234375 47.609375 19.390625 
Q 47.609375 24.75 44.3125 27.78125 
Q 41.015625 30.8125 33.5 32.328125 
L 27.484375 33.5 
Q 16.453125 35.6875 11.515625 40.375 
Q 6.59375 45.0625 6.59375 53.421875 
Q 6.59375 63.09375 13.40625 68.65625 
Q 20.21875 74.21875 32.171875 74.21875 
Q 37.3125 74.21875 42.625 73.28125 
Q 47.953125 72.359375 53.515625 70.515625 
z
" id="DejaVuSans-83"/>
     <path d="M 19.671875 34.8125 
L 19.671875 8.109375 
L 35.5 8.109375 
Q 43.453125 8.109375 47.28125 11.40625 
Q 51.125 14.703125 51.125 21.484375 
Q 51.125 28.328125 47.28125 31.5625 
Q 43.453125 34.8125 35.5 34.8125 
z
M 19.671875 64.796875 
L 19.671875 42.828125 
L 34.28125 42.828125 
Q 41.5 42.828125 45.03125 45.53125 
Q 48.578125 48.25 48.578125 53.8125 
Q 48.578125 59.328125 45.03125 62.0625 
Q 41.5 64.796875 34.28125 64.796875 
z
M 9.8125 72.90625 
L 35.015625 72.90625 
Q 46.296875 72.90625 52.390625 68.21875 
Q 58.5 63.53125 58.5 54.890625 
Q 58.5 48.1875 55.375 44.234375 
Q 52.25 40.28125 46.1875 39.3125 
Q 53.46875 37.75 57.5 32.78125 
Q 61.53125 27.828125 61.53125 20.40625 
Q 61.53125 10.640625 54.890625 5.3125 
Q 48.25 0 35.984375 0 
L 9.8125 0 
z
" id="DejaVuSans-66"/>
     <path d="M 19.671875 64.796875 
L 19.671875 37.40625 
L 32.078125 37.40625 
Q 38.96875 37.40625 42.71875 40.96875 
Q 46.484375 44.53125 46.484375 51.125 
Q 46.484375 57.671875 42.71875 61.234375 
Q 38.96875 64.796875 32.078125 64.796875 
z
M 9.8125 72.90625 
L 32.078125 72.90625 
Q 44.34375 72.90625 50.609375 67.359375 
Q 56.890625 61.8125 56.890625 51.125 
Q 56.890625 40.328125 50.609375 34.8125 
Q 44.34375 29.296875 32.078125 29.296875 
L 19.671875 29.296875 
L 19.671875 0 
L 9.8125 0 
z
" id="DejaVuSans-80"/>
     <path d="M 44.28125 53.078125 
L 44.28125 44.578125 
Q 40.484375 46.53125 36.375 47.5 
Q 32.28125 48.484375 27.875 48.484375 
Q 21.1875 48.484375 17.84375 46.4375 
Q 14.5 44.390625 14.5 40.28125 
Q 14.5 37.15625 16.890625 35.375 
Q 19.28125 33.59375 26.515625 31.984375 
L 29.59375 31.296875 
Q 39.15625 29.25 43.1875 25.515625 
Q 47.21875 21.78125 47.21875 15.09375 
Q 47.21875 7.46875 41.1875 3.015625 
Q 35.15625 -1.421875 24.609375 -1.421875 
Q 20.21875 -1.421875 15.453125 -0.5625 
Q 10.6875 0.296875 5.421875 2 
L 5.421875 11.28125 
Q 10.40625 8.6875 15.234375 7.390625 
Q 20.0625 6.109375 24.8125 6.109375 
Q 31.15625 6.109375 34.5625 8.28125 
Q 37.984375 10.453125 37.984375 14.40625 
Q 37.984375 18.0625 35.515625 20.015625 
Q 33.0625 21.96875 24.703125 23.78125 
L 21.578125 24.515625 
Q 13.234375 26.265625 9.515625 29.90625 
Q 5.8125 33.546875 5.8125 39.890625 
Q 5.8125 47.609375 11.28125 51.796875 
Q 16.75 56 26.8125 56 
Q 31.78125 56 36.171875 55.265625 
Q 40.578125 54.546875 44.28125 53.078125 
z
" id="DejaVuSans-115"/>
     <path d="M 18.3125 70.21875 
L 18.3125 54.6875 
L 36.8125 54.6875 
L 36.8125 47.703125 
L 18.3125 47.703125 
L 18.3125 18.015625 
Q 18.3125 11.328125 20.140625 9.421875 
Q 21.96875 7.515625 27.59375 7.515625 
L 36.8125 7.515625 
L 36.8125 0 
L 27.59375 0 
Q 17.1875 0 13.234375 3.875 
Q 9.28125 7.765625 9.28125 18.015625 
L 9.28125 47.703125 
L 2.6875 47.703125 
L 2.6875 54.6875 
L 9.28125 54.6875 
L 9.28125 70.21875 
z
" id="DejaVuSans-116"/>
     <path d="M 54.890625 33.015625 
L 54.890625 0 
L 45.90625 0 
L 45.90625 32.71875 
Q 45.90625 40.484375 42.875 44.328125 
Q 39.84375 48.1875 33.796875 48.1875 
Q 26.515625 48.1875 22.3125 43.546875 
Q 18.109375 38.921875 18.109375 30.90625 
L 18.109375 0 
L 9.078125 0 
L 9.078125 54.6875 
L 18.109375 54.6875 
L 18.109375 46.1875 
Q 21.34375 51.125 25.703125 53.5625 
Q 30.078125 56 35.796875 56 
Q 45.21875 56 50.046875 50.171875 
Q 54.890625 44.34375 54.890625 33.015625 
z
" id="DejaVuSans-110"/>
     <path d="M 8.6875 72.90625 
L 18.609375 72.90625 
L 18.609375 28.609375 
Q 18.609375 16.890625 22.84375 11.734375 
Q 27.09375 6.59375 36.625 6.59375 
Q 46.09375 6.59375 50.34375 11.734375 
Q 54.59375 16.890625 54.59375 28.609375 
L 54.59375 72.90625 
L 64.5 72.90625 
L 64.5 27.390625 
Q 64.5 13.140625 57.4375 5.859375 
Q 50.390625 -1.421875 36.625 -1.421875 
Q 22.796875 -1.421875 15.734375 5.859375 
Q 8.6875 13.140625 8.6875 27.390625 
z
" id="DejaVuSans-85"/>
     <path d="M 9.8125 72.90625 
L 19.671875 72.90625 
L 19.671875 8.296875 
L 55.171875 8.296875 
L 55.171875 0 
L 9.8125 0 
z
" id="DejaVuSans-76"/>
     <path d="M 44.390625 34.1875 
Q 47.5625 33.109375 50.5625 29.59375 
Q 53.5625 26.078125 56.59375 19.921875 
L 66.609375 0 
L 56 0 
L 46.6875 18.703125 
Q 43.0625 26.03125 39.671875 28.421875 
Q 36.28125 30.8125 30.421875 30.8125 
L 19.671875 30.8125 
L 19.671875 0 
L 9.8125 0 
L 9.8125 72.90625 
L 32.078125 72.90625 
Q 44.578125 72.90625 50.734375 67.671875 
Q 56.890625 62.453125 56.890625 51.90625 
Q 56.890625 45.015625 53.6875 40.46875 
Q 50.484375 35.9375 44.390625 34.1875 
z
M 19.671875 64.796875 
L 19.671875 38.921875 
L 32.078125 38.921875 
Q 39.203125 38.921875 42.84375 42.21875 
Q 46.484375 45.515625 46.484375 51.90625 
Q 46.484375 58.296875 42.84375 61.546875 
Q 39.203125 64.796875 32.078125 64.796875 
z
" id="DejaVuSans-82"/>
    </defs>
    <g transform="translate(330.654375 63.12)scale(0.12 -0.12)">
     <use xlink:href="#DejaVuSans-67"/>
     <use x="69.824219" xlink:href="#DejaVuSans-68"/>
     <use x="146.826172" xlink:href="#DejaVuSans-70"/>
     <use x="204.345703" xlink:href="#DejaVuSans-32"/>
     <use x="236.132812" xlink:href="#DejaVuSans-111"/>
     <use x="297.314453" xlink:href="#DejaVuSans-102"/>
     <use x="332.519531" xlink:href="#DejaVuSans-32"/>
     <use x="364.306641" xlink:href="#DejaVuSans-83"/>
     <use x="427.783203" xlink:href="#DejaVuSans-66"/>
     <use x="496.386719" xlink:href="#DejaVuSans-80"/>
     <use x="556.689453" xlink:href="#DejaVuSans-32"/>
     <use x="588.476562" xlink:href="#DejaVuSans-69"/>
     <use x="651.660156" xlink:href="#DejaVuSans-115"/>
     <use x="703.759766" xlink:href="#DejaVuSans-116"/>
     <use x="742.96875" xlink:href="#DejaVuSans-105"/>
     <use x="770.751953" xlink:href="#DejaVuSans-109"/>
     <use x="868.164062" xlink:href="#DejaVuSans-97"/>
     <use x="929.443359" xlink:href="#DejaVuSans-116"/>
     <use x="968.652344" xlink:href="#DejaVuSans-105"/>
     <use x="996.435547" xlink:href="#DejaVuSans-111"/>
     <use x="1057.617188" xlink:href="#DejaVuSans-110"/>
     <use x="1120.996094" xlink:href="#DejaVuSans-32"/>
     <use x="1152.783203" xlink:href="#DejaVuSans-69"/>
     <use x="1215.966797" xlink:href="#DejaVuSans-114"/>
     <use x="1257.064453" xlink:href="#DejaVuSans-114"/>
     <use x="1298.146484" xlink:href="#DejaVuSans-111"/>
     <use x="1359.328125" xlink:href="#DejaVuSans-114"/>
     <use x="1400.441406" xlink:href="#DejaVuSans-32"/>
     <use x="1432.228516" xlink:href="#DejaVuSans-85"/>
     <use x="1505.421875" xlink:href="#DejaVuSans-115"/>
     <use x="1557.521484" xlink:href="#DejaVuSans-105"/>
     <use x="1585.304688" xlink:href="#DejaVuSans-110"/>
     <use x="1648.683594" xlink:href="#DejaVuSans-103"/>
     <use x="1712.160156" xlink:href="#DejaVuSans-32"/>
     <use x="1743.947266" xlink:href="#DejaVuSans-76"/>
     <use x="1799.660156" xlink:href="#DejaVuSans-82"/>
    </g>
   </g>
  </g>
 </g>
 <defs>
  <clipPath id="p9889731188">
   <rect height="434.88" width="669.6" x="108" y="69.12"/>
  </clipPath>
 </defs>
</svg>
