<?xml version="1.0" encoding="utf-8" standalone="no"?>
<!DOCTYPE svg PUBLIC "-//W3C//DTD SVG 1.1//EN"
  "http://www.w3.org/Graphics/SVG/1.1/DTD/svg11.dtd">
<!-- Created with matplotlib (https://matplotlib.org/) -->
<svg height="864pt" version="1.1" viewBox="0 0 1152 864" width="1152pt" xmlns="http://www.w3.org/2000/svg" xmlns:xlink="http://www.w3.org/1999/xlink">
 <defs>
  <style type="text/css">
*{stroke-linecap:butt;stroke-linejoin:round;}
  </style>
 </defs>
 <g id="figure_1">
  <g id="patch_1">
   <path d="M 0 864 
L 1152 864 
L 1152 0 
L 0 0 
z
" style="fill:#ffffff;"/>
  </g>
  <g id="axes_1">
   <g id="patch_2">
    <path d="M 144 295.538824 
L 1036.8 295.538824 
L 1036.8 103.68 
L 144 103.68 
z
" style="fill:#ffffff;"/>
   </g>
   <g id="matplotlib.axis_1">
    <g id="xtick_1">
     <g id="line2d_1">
      <defs>
       <path d="M 0 0 
L 0 3.5 
" id="m55673a496e" style="stroke:#000000;stroke-width:0.8;"/>
      </defs>
      <g>
       <use style="stroke:#000000;stroke-width:0.8;" x="184.581818" xlink:href="#m55673a496e" y="295.538824"/>
      </g>
     </g>
    </g>
    <g id="xtick_2">
     <g id="line2d_2">
      <g>
       <use style="stroke:#000000;stroke-width:0.8;" x="293.089353" xlink:href="#m55673a496e" y="295.538824"/>
      </g>
     </g>
    </g>
    <g id="xtick_3">
     <g id="line2d_3">
      <g>
       <use style="stroke:#000000;stroke-width:0.8;" x="401.596889" xlink:href="#m55673a496e" y="295.538824"/>
      </g>
     </g>
    </g>
    <g id="xtick_4">
     <g id="line2d_4">
      <g>
       <use style="stroke:#000000;stroke-width:0.8;" x="510.104424" xlink:href="#m55673a496e" y="295.538824"/>
      </g>
     </g>
    </g>
    <g id="xtick_5">
     <g id="line2d_5">
      <g>
       <use style="stroke:#000000;stroke-width:0.8;" x="618.611959" xlink:href="#m55673a496e" y="295.538824"/>
      </g>
     </g>
    </g>
    <g id="xtick_6">
     <g id="line2d_6">
      <g>
       <use style="stroke:#000000;stroke-width:0.8;" x="727.119494" xlink:href="#m55673a496e" y="295.538824"/>
      </g>
     </g>
    </g>
    <g id="xtick_7">
     <g id="line2d_7">
      <g>
       <use style="stroke:#000000;stroke-width:0.8;" x="835.62703" xlink:href="#m55673a496e" y="295.538824"/>
      </g>
     </g>
    </g>
    <g id="xtick_8">
     <g id="line2d_8">
      <g>
       <use style="stroke:#000000;stroke-width:0.8;" x="944.134565" xlink:href="#m55673a496e" y="295.538824"/>
      </g>
     </g>
    </g>
   </g>
   <g id="matplotlib.axis_2">
    <g id="ytick_1">
     <g id="line2d_9">
      <defs>
       <path d="M 0 0 
L -3.5 0 
" id="m4bbf23983a" style="stroke:#000000;stroke-width:0.8;"/>
      </defs>
      <g>
       <use style="stroke:#000000;stroke-width:0.8;" x="144" xlink:href="#m4bbf23983a" y="256.94479"/>
      </g>
     </g>
     <g id="text_1">
      <!-- 0 -->
      <defs>
       <path d="M 31.78125 66.40625 
Q 24.171875 66.40625 20.328125 58.90625 
Q 16.5 51.421875 16.5 36.375 
Q 16.5 21.390625 20.328125 13.890625 
Q 24.171875 6.390625 31.78125 6.390625 
Q 39.453125 6.390625 43.28125 13.890625 
Q 47.125 21.390625 47.125 36.375 
Q 47.125 51.421875 43.28125 58.90625 
Q 39.453125 66.40625 31.78125 66.40625 
z
M 31.78125 74.21875 
Q 44.046875 74.21875 50.515625 64.515625 
Q 56.984375 54.828125 56.984375 36.375 
Q 56.984375 17.96875 50.515625 8.265625 
Q 44.046875 -1.421875 31.78125 -1.421875 
Q 19.53125 -1.421875 13.0625 8.265625 
Q 6.59375 17.96875 6.59375 36.375 
Q 6.59375 54.828125 13.0625 64.515625 
Q 19.53125 74.21875 31.78125 74.21875 
z
" id="DejaVuSans-48"/>
      </defs>
      <g transform="translate(117.9125 268.342447)scale(0.3 -0.3)">
       <use xlink:href="#DejaVuSans-48"/>
      </g>
     </g>
    </g>
    <g id="ytick_2">
     <g id="line2d_10">
      <g>
       <use style="stroke:#000000;stroke-width:0.8;" x="144" xlink:href="#m4bbf23983a" y="142.272887"/>
      </g>
     </g>
     <g id="text_2">
      <!-- 1 -->
      <defs>
       <path d="M 12.40625 8.296875 
L 28.515625 8.296875 
L 28.515625 63.921875 
L 10.984375 60.40625 
L 10.984375 69.390625 
L 28.421875 72.90625 
L 38.28125 72.90625 
L 38.28125 8.296875 
L 54.390625 8.296875 
L 54.390625 0 
L 12.40625 0 
z
" id="DejaVuSans-49"/>
      </defs>
      <g transform="translate(117.9125 153.670543)scale(0.3 -0.3)">
       <use xlink:href="#DejaVuSans-49"/>
      </g>
     </g>
    </g>
    <g id="text_3">
     <!-- ECG -->
     <defs>
      <path d="M 9.8125 72.90625 
L 55.90625 72.90625 
L 55.90625 64.59375 
L 19.671875 64.59375 
L 19.671875 43.015625 
L 54.390625 43.015625 
L 54.390625 34.71875 
L 19.671875 34.71875 
L 19.671875 8.296875 
L 56.78125 8.296875 
L 56.78125 0 
L 9.8125 0 
z
" id="DejaVuSans-69"/>
      <path d="M 64.40625 67.28125 
L 64.40625 56.890625 
Q 59.421875 61.53125 53.78125 63.8125 
Q 48.140625 66.109375 41.796875 66.109375 
Q 29.296875 66.109375 22.65625 58.46875 
Q 16.015625 50.828125 16.015625 36.375 
Q 16.015625 21.96875 22.65625 14.328125 
Q 29.296875 6.6875 41.796875 6.6875 
Q 48.140625 6.6875 53.78125 8.984375 
Q 59.421875 11.28125 64.40625 15.921875 
L 64.40625 5.609375 
Q 59.234375 2.09375 53.4375 0.328125 
Q 47.65625 -1.421875 41.21875 -1.421875 
Q 24.65625 -1.421875 15.125 8.703125 
Q 5.609375 18.84375 5.609375 36.375 
Q 5.609375 53.953125 15.125 64.078125 
Q 24.65625 74.21875 41.21875 74.21875 
Q 47.75 74.21875 53.53125 72.484375 
Q 59.328125 70.75 64.40625 67.28125 
z
" id="DejaVuSans-67"/>
      <path d="M 59.515625 10.40625 
L 59.515625 29.984375 
L 43.40625 29.984375 
L 43.40625 38.09375 
L 69.28125 38.09375 
L 69.28125 6.78125 
Q 63.578125 2.734375 56.6875 0.65625 
Q 49.8125 -1.421875 42 -1.421875 
Q 24.90625 -1.421875 15.25 8.5625 
Q 5.609375 18.5625 5.609375 36.375 
Q 5.609375 54.25 15.25 64.234375 
Q 24.90625 74.21875 42 74.21875 
Q 49.125 74.21875 55.546875 72.453125 
Q 61.96875 70.703125 67.390625 67.28125 
L 67.390625 56.78125 
Q 61.921875 61.421875 55.765625 63.765625 
Q 49.609375 66.109375 42.828125 66.109375 
Q 29.4375 66.109375 22.71875 58.640625 
Q 16.015625 51.171875 16.015625 36.375 
Q 16.015625 21.625 22.71875 14.15625 
Q 29.4375 6.6875 42.828125 6.6875 
Q 48.046875 6.6875 52.140625 7.59375 
Q 56.25 8.5 59.515625 10.40625 
z
" id="DejaVuSans-71"/>
     </defs>
     <g transform="translate(105.59375 241.709412)rotate(-90)scale(0.4 -0.4)">
      <use xlink:href="#DejaVuSans-69"/>
      <use x="63.183594" xlink:href="#DejaVuSans-67"/>
      <use x="133.007812" xlink:href="#DejaVuSans-71"/>
     </g>
    </g>
   </g>
   <g id="line2d_11">
    <path clip-path="url(#p3f367c650b)" d="M 184.581818 260.419693 
L 188.92212 262.717603 
L 193.262421 259.859177 
L 197.602722 262.157202 
L 201.943024 260.419693 
L 206.283325 262.717603 
L 210.623627 262.157202 
L 214.963928 265.57603 
L 219.304229 264.455112 
L 223.644531 267.87394 
L 227.984832 268.434915 
L 232.325134 270.731793 
L 236.665435 269.611449 
L 241.005737 270.731793 
L 245.346038 267.313424 
L 249.686339 265.57603 
L 254.026641 266.192506 
L 258.366942 262.717603 
L 262.707244 263.27812 
L 267.047545 259.859177 
L 271.387846 262.157202 
L 275.728148 259.859177 
L 280.068449 262.717603 
L 284.408751 260.419693 
L 288.749052 263.27812 
L 293.089353 262.157202 
L 297.429655 263.894596 
L 301.769956 261.596685 
L 306.110258 263.27812 
L 310.450559 262.157202 
L 314.79086 264.455112 
L 319.131162 262.157202 
L 323.471463 263.894596 
L 327.811765 262.157202 
L 332.152066 264.455112 
L 336.492368 261.596685 
L 340.832669 263.894596 
L 345.17297 262.157202 
L 349.513272 265.015514 
L 353.853573 265.57603 
L 358.193875 263.27812 
L 362.534176 264.455112 
L 366.874477 262.717603 
L 371.214779 265.57603 
L 375.55508 262.717603 
L 379.895382 265.015514 
L 384.235683 263.27812 
L 388.575984 265.57603 
L 392.916286 260.980209 
L 397.256587 261.596685 
L 401.596889 255.823849 
L 405.93719 257.000837 
L 410.277491 254.702955 
L 414.617793 258.121783 
L 418.958094 257.561301 
L 423.298396 259.859177 
L 427.638697 259.298775 
L 431.978999 262.717603 
L 436.3193 263.27812 
L 440.659601 268.434915 
L 444.999903 265.57603 
L 449.340204 267.87394 
L 453.680506 266.192506 
L 458.020807 267.87394 
L 462.361108 268.434915 
L 466.70141 254.142438 
L 471.041711 223.709432 
L 475.382013 169.79185 
L 479.722314 112.400856 
L 484.062615 182.402319 
L 488.402917 269.611449 
L 492.743218 286.817968 
L 497.08352 283.398452 
L 501.423821 276.505524 
L 510.104424 271.909474 
L 514.444725 273.646753 
L 518.785027 269.611449 
L 523.125328 271.348728 
L 527.46563 268.434915 
L 531.805931 270.731793 
L 536.146232 267.87394 
L 540.486534 269.611449 
L 544.826835 266.753022 
L 549.167137 267.87394 
L 553.507438 265.57603 
L 557.847739 266.192506 
L 562.188041 263.894596 
L 566.528342 265.015514 
L 570.868644 262.717603 
L 575.208945 262.157202 
L 579.549246 263.894596 
L 583.889548 260.980209 
L 588.229849 263.27812 
L 592.570151 260.980209 
L 596.910452 263.27812 
L 601.250754 262.717603 
L 605.591055 267.313424 
L 609.931356 266.753022 
L 614.271658 270.731793 
L 618.611959 271.348728 
L 622.952261 274.207499 
L 627.292562 273.646753 
L 631.632863 274.768244 
L 635.973165 270.731793 
L 640.313466 270.731793 
L 644.653768 266.192506 
L 648.994069 266.753022 
L 653.33437 262.717603 
L 657.674672 263.894596 
L 662.014973 260.980209 
L 666.355275 262.717603 
L 670.695576 260.419693 
L 675.035877 262.717603 
L 679.376179 263.27812 
L 683.71648 261.596685 
L 688.056782 262.717603 
L 692.397083 259.859177 
L 696.737385 261.596685 
L 701.077686 258.682299 
L 705.417987 259.859177 
L 709.758289 257.561301 
L 714.09859 259.859177 
L 718.438892 257.561301 
L 722.779193 259.859177 
L 727.119494 258.121783 
L 731.459796 260.419693 
L 735.800097 259.298775 
L 740.140399 260.980209 
L 744.4807 259.859177 
L 748.821001 261.596685 
L 753.161303 259.859177 
L 757.501604 262.157202 
L 761.841906 260.419693 
L 766.182207 262.717603 
L 770.522509 260.419693 
L 774.86281 263.27812 
L 779.203111 261.596685 
L 783.543413 263.27812 
L 787.883714 260.980209 
L 792.224016 258.121783 
L 796.564317 254.142438 
L 800.904618 252.965446 
L 805.24492 254.702955 
L 809.585221 252.965446 
L 813.925523 257.000837 
L 818.265824 255.823849 
L 822.606125 258.682299 
L 826.946427 258.121783 
L 831.286728 262.157202 
L 835.62703 263.894596 
L 839.967331 266.753022 
L 844.307632 264.455112 
L 848.647934 267.313424 
L 852.988235 265.57603 
L 857.328537 266.192506 
L 861.668838 252.965446 
L 866.00914 226.007457 
L 870.349441 172.089875 
L 874.689742 114.694294 
L 879.030044 175.508244 
L 883.370345 265.015514 
L 887.710647 282.221918 
L 892.050948 281.661172 
L 896.391249 274.768244 
L 900.731551 271.909474 
L 905.071852 272.470219 
L 909.412154 270.172194 
L 913.752455 271.909474 
L 918.092756 267.87394 
L 922.433058 270.172194 
L 926.773359 266.753022 
L 931.113661 269.050703 
L 935.453962 266.192506 
L 939.794263 267.313424 
L 944.134565 263.894596 
L 948.474866 265.57603 
L 952.815168 262.717603 
L 957.155469 264.455112 
L 961.495771 260.980209 
L 965.836072 262.717603 
L 970.176373 259.298775 
L 974.516675 260.419693 
L 978.856976 258.121783 
L 983.197278 260.980209 
L 987.537579 259.298775 
L 991.87788 261.596685 
L 996.218182 260.419693 
L 996.218182 260.419693 
" style="fill:none;stroke:#1f77b4;stroke-linecap:square;stroke-width:3;"/>
   </g>
   <g id="patch_3">
    <path d="M 144 295.538824 
L 144 103.68 
" style="fill:none;stroke:#000000;stroke-linecap:square;stroke-linejoin:miter;stroke-width:0.8;"/>
   </g>
   <g id="patch_4">
    <path d="M 1036.8 295.538824 
L 1036.8 103.68 
" style="fill:none;stroke:#000000;stroke-linecap:square;stroke-linejoin:miter;stroke-width:0.8;"/>
   </g>
   <g id="patch_5">
    <path d="M 144 295.538824 
L 1036.8 295.538824 
" style="fill:none;stroke:#000000;stroke-linecap:square;stroke-linejoin:miter;stroke-width:0.8;"/>
   </g>
   <g id="patch_6">
    <path d="M 144 103.68 
L 1036.8 103.68 
" style="fill:none;stroke:#000000;stroke-linecap:square;stroke-linejoin:miter;stroke-width:0.8;"/>
   </g>
  </g>
  <g id="axes_2">
   <g id="patch_7">
    <path d="M 144 525.769412 
L 1036.8 525.769412 
L 1036.8 333.910588 
L 144 333.910588 
z
" style="fill:#ffffff;"/>
   </g>
   <g id="matplotlib.axis_3">
    <g id="xtick_9">
     <g id="line2d_12">
      <g>
       <use style="stroke:#000000;stroke-width:0.8;" x="184.581818" xlink:href="#m55673a496e" y="525.769412"/>
      </g>
     </g>
    </g>
    <g id="xtick_10">
     <g id="line2d_13">
      <g>
       <use style="stroke:#000000;stroke-width:0.8;" x="293.089353" xlink:href="#m55673a496e" y="525.769412"/>
      </g>
     </g>
    </g>
    <g id="xtick_11">
     <g id="line2d_14">
      <g>
       <use style="stroke:#000000;stroke-width:0.8;" x="401.596889" xlink:href="#m55673a496e" y="525.769412"/>
      </g>
     </g>
    </g>
    <g id="xtick_12">
     <g id="line2d_15">
      <g>
       <use style="stroke:#000000;stroke-width:0.8;" x="510.104424" xlink:href="#m55673a496e" y="525.769412"/>
      </g>
     </g>
    </g>
    <g id="xtick_13">
     <g id="line2d_16">
      <g>
       <use style="stroke:#000000;stroke-width:0.8;" x="618.611959" xlink:href="#m55673a496e" y="525.769412"/>
      </g>
     </g>
    </g>
    <g id="xtick_14">
     <g id="line2d_17">
      <g>
       <use style="stroke:#000000;stroke-width:0.8;" x="727.119494" xlink:href="#m55673a496e" y="525.769412"/>
      </g>
     </g>
    </g>
    <g id="xtick_15">
     <g id="line2d_18">
      <g>
       <use style="stroke:#000000;stroke-width:0.8;" x="835.62703" xlink:href="#m55673a496e" y="525.769412"/>
      </g>
     </g>
    </g>
    <g id="xtick_16">
     <g id="line2d_19">
      <g>
       <use style="stroke:#000000;stroke-width:0.8;" x="944.134565" xlink:href="#m55673a496e" y="525.769412"/>
      </g>
     </g>
    </g>
   </g>
   <g id="matplotlib.axis_4">
    <g id="ytick_3">
     <g id="line2d_20">
      <g>
       <use style="stroke:#000000;stroke-width:0.8;" x="144" xlink:href="#m4bbf23983a" y="515.76494"/>
      </g>
     </g>
     <g id="text_4">
      <!-- 1 -->
      <g transform="translate(117.9125 527.162596)scale(0.3 -0.3)">
       <use xlink:href="#DejaVuSans-49"/>
      </g>
     </g>
    </g>
    <g id="ytick_4">
     <g id="line2d_21">
      <g>
       <use style="stroke:#000000;stroke-width:0.8;" x="144" xlink:href="#m4bbf23983a" y="422.001877"/>
      </g>
     </g>
     <g id="text_5">
      <!-- 2 -->
      <defs>
       <path d="M 19.1875 8.296875 
L 53.609375 8.296875 
L 53.609375 0 
L 7.328125 0 
L 7.328125 8.296875 
Q 12.9375 14.109375 22.625 23.890625 
Q 32.328125 33.6875 34.8125 36.53125 
Q 39.546875 41.84375 41.421875 45.53125 
Q 43.3125 49.21875 43.3125 52.78125 
Q 43.3125 58.59375 39.234375 62.25 
Q 35.15625 65.921875 28.609375 65.921875 
Q 23.96875 65.921875 18.8125 64.3125 
Q 13.671875 62.703125 7.8125 59.421875 
L 7.8125 69.390625 
Q 13.765625 71.78125 18.9375 73 
Q 24.125 74.21875 28.421875 74.21875 
Q 39.75 74.21875 46.484375 68.546875 
Q 53.21875 62.890625 53.21875 53.421875 
Q 53.21875 48.921875 51.53125 44.890625 
Q 49.859375 40.875 45.40625 35.40625 
Q 44.1875 33.984375 37.640625 27.21875 
Q 31.109375 20.453125 19.1875 8.296875 
z
" id="DejaVuSans-50"/>
      </defs>
      <g transform="translate(117.9125 433.399533)scale(0.3 -0.3)">
       <use xlink:href="#DejaVuSans-50"/>
      </g>
     </g>
    </g>
    <g id="text_6">
     <!-- PPG -->
     <defs>
      <path d="M 19.671875 64.796875 
L 19.671875 37.40625 
L 32.078125 37.40625 
Q 38.96875 37.40625 42.71875 40.96875 
Q 46.484375 44.53125 46.484375 51.125 
Q 46.484375 57.671875 42.71875 61.234375 
Q 38.96875 64.796875 32.078125 64.796875 
z
M 9.8125 72.90625 
L 32.078125 72.90625 
Q 44.34375 72.90625 50.609375 67.359375 
Q 56.890625 61.8125 56.890625 51.125 
Q 56.890625 40.328125 50.609375 34.8125 
Q 44.34375 29.296875 32.078125 29.296875 
L 19.671875 29.296875 
L 19.671875 0 
L 9.8125 0 
z
" id="DejaVuSans-80"/>
     </defs>
     <g transform="translate(105.59375 469.455625)rotate(-90)scale(0.4 -0.4)">
      <use xlink:href="#DejaVuSans-80"/>
      <use x="60.302734" xlink:href="#DejaVuSans-80"/>
      <use x="120.605469" xlink:href="#DejaVuSans-71"/>
     </g>
    </g>
   </g>
   <g id="line2d_22">
    <path clip-path="url(#pcfb2279ff3)" d="M 184.581818 467.28006 
L 188.92212 469.933555 
L 193.262421 472.136987 
L 206.283325 477.819028 
L 210.623627 479.375495 
L 219.304229 481.67269 
L 232.325134 484.97315 
L 241.005737 486.707767 
L 249.686339 487.532882 
L 258.366942 487.992321 
L 262.707244 487.898557 
L 275.728148 486.707767 
L 280.068449 486.248328 
L 288.749052 484.691861 
L 297.429655 482.863481 
L 306.110258 481.485164 
L 314.79086 480.660049 
L 319.131162 480.481899 
L 323.471463 480.566286 
L 327.811765 481.119488 
L 332.152066 482.216516 
L 336.492368 483.772983 
L 340.832669 485.057537 
L 345.17297 485.423213 
L 349.513272 483.688596 
L 353.853573 480.20061 
L 358.193875 473.787216 
L 362.534176 462.601283 
L 366.874477 446.933475 
L 371.214779 427.590155 
L 379.895382 385.978108 
L 384.235683 368.200631 
L 388.575984 354.726879 
L 392.916286 346.203817 
L 397.256587 342.631444 
L 401.596889 343.456559 
L 405.93719 347.488371 
L 410.277491 352.982886 
L 414.617793 359.311893 
L 423.298396 373.151321 
L 427.638697 379.199038 
L 431.978999 384.055965 
L 436.3193 387.628338 
L 440.659601 390.00992 
L 444.999903 391.482 
L 449.340204 392.213352 
L 453.680506 392.672791 
L 458.020807 393.404143 
L 462.361108 394.688696 
L 466.70141 396.892128 
L 471.041711 400.276975 
L 475.382013 404.955752 
L 479.722314 410.909706 
L 484.062615 417.698152 
L 492.743218 432.540845 
L 497.08352 439.601204 
L 501.423821 445.836447 
L 505.764123 450.965287 
L 510.104424 454.903336 
L 514.444725 457.744356 
L 518.785027 459.582112 
L 523.125328 460.866666 
L 540.486534 465.357917 
L 544.826835 467.008147 
L 549.167137 469.024053 
L 553.507438 471.499398 
L 557.847739 474.340419 
L 562.188041 477.453352 
L 566.528342 480.753812 
L 570.868644 483.594833 
L 575.208945 486.070178 
L 579.549246 488.911199 
L 596.910452 500.912871 
L 601.250754 503.669505 
L 605.591055 505.957323 
L 609.931356 507.973229 
L 614.271658 509.717222 
L 618.611959 511.273689 
L 622.952261 512.192567 
L 631.632863 513.195832 
L 640.313466 514.480386 
L 644.653768 514.939825 
L 653.33437 515.211738 
L 657.674672 515.033588 
L 662.014973 514.480386 
L 666.355275 513.655271 
L 675.035877 511.545602 
L 683.71648 509.529696 
L 688.056782 508.892107 
L 692.397083 508.620194 
L 696.737385 508.798344 
L 701.077686 509.16402 
L 714.09859 510.908013 
L 718.438892 511.639365 
L 722.779193 512.652006 
L 727.119494 514.11471 
L 731.459796 515.399264 
L 735.800097 516.406279 
L 740.140399 517.048556 
L 744.4807 516.131553 
L 748.821001 512.192567 
L 753.161303 503.753891 
L 757.501604 490.008226 
L 761.841906 471.039959 
L 766.182207 448.218029 
L 770.522509 423.652107 
L 774.86281 399.911299 
L 779.203111 379.658477 
L 783.543413 364.534495 
L 787.883714 355.458231 
L 792.224016 351.792095 
L 796.564317 352.251534 
L 800.904618 356.377109 
L 805.24492 363.071792 
L 809.585221 371.041652 
L 813.925523 379.292802 
L 818.265824 387.084512 
L 822.606125 393.863582 
L 826.946427 399.27371 
L 831.286728 403.117996 
L 835.62703 405.593341 
L 839.967331 406.971658 
L 844.307632 407.609247 
L 852.988235 407.609247 
L 857.328537 408.340598 
L 861.668838 410.178354 
L 866.00914 413.206901 
L 870.349441 417.510626 
L 874.689742 422.733229 
L 879.030044 428.41527 
L 883.370345 433.094047 
L 892.050948 440.520082 
L 896.391249 443.361103 
L 900.731551 445.283245 
L 905.071852 446.567799 
L 909.412154 447.299151 
L 913.752455 447.571064 
L 922.433058 447.75859 
L 926.773359 448.218029 
L 931.113661 449.315057 
L 935.453962 450.871524 
L 939.794263 452.981193 
L 944.134565 455.550301 
L 952.815168 460.219701 
L 957.155469 462.882572 
L 965.836072 468.742764 
L 970.176373 471.405635 
L 974.516675 473.88098 
L 978.856976 476.168798 
L 983.197278 478.278467 
L 987.537579 480.106847 
L 991.87788 481.578927 
L 996.218182 482.769718 
L 996.218182 482.769718 
" style="fill:none;stroke:#1f77b4;stroke-linecap:square;stroke-width:3;"/>
   </g>
   <g id="patch_8">
    <path d="M 144 525.769412 
L 144 333.910588 
" style="fill:none;stroke:#000000;stroke-linecap:square;stroke-linejoin:miter;stroke-width:0.8;"/>
   </g>
   <g id="patch_9">
    <path d="M 1036.8 525.769412 
L 1036.8 333.910588 
" style="fill:none;stroke:#000000;stroke-linecap:square;stroke-linejoin:miter;stroke-width:0.8;"/>
   </g>
   <g id="patch_10">
    <path d="M 144 525.769412 
L 1036.8 525.769412 
" style="fill:none;stroke:#000000;stroke-linecap:square;stroke-linejoin:miter;stroke-width:0.8;"/>
   </g>
   <g id="patch_11">
    <path d="M 144 333.910588 
L 1036.8 333.910588 
" style="fill:none;stroke:#000000;stroke-linecap:square;stroke-linejoin:miter;stroke-width:0.8;"/>
   </g>
  </g>
  <g id="axes_3">
   <g id="patch_12">
    <path d="M 144 756 
L 1036.8 756 
L 1036.8 564.141176 
L 144 564.141176 
z
" style="fill:#ffffff;"/>
   </g>
   <g id="matplotlib.axis_5">
    <g id="xtick_17">
     <g id="line2d_23">
      <g>
       <use style="stroke:#000000;stroke-width:0.8;" x="184.581818" xlink:href="#m55673a496e" y="756"/>
      </g>
     </g>
     <g id="text_7">
      <!-- 0 -->
      <g transform="translate(175.038068 785.795313)scale(0.3 -0.3)">
       <use xlink:href="#DejaVuSans-48"/>
      </g>
     </g>
    </g>
    <g id="xtick_18">
     <g id="line2d_24">
      <g>
       <use style="stroke:#000000;stroke-width:0.8;" x="293.089353" xlink:href="#m55673a496e" y="756"/>
      </g>
     </g>
     <g id="text_8">
      <!-- 200 -->
      <g transform="translate(264.458103 785.795313)scale(0.3 -0.3)">
       <use xlink:href="#DejaVuSans-50"/>
       <use x="63.623047" xlink:href="#DejaVuSans-48"/>
       <use x="127.246094" xlink:href="#DejaVuSans-48"/>
      </g>
     </g>
    </g>
    <g id="xtick_19">
     <g id="line2d_25">
      <g>
       <use style="stroke:#000000;stroke-width:0.8;" x="401.596889" xlink:href="#m55673a496e" y="756"/>
      </g>
     </g>
     <g id="text_9">
      <!-- 400 -->
      <defs>
       <path d="M 37.796875 64.3125 
L 12.890625 25.390625 
L 37.796875 25.390625 
z
M 35.203125 72.90625 
L 47.609375 72.90625 
L 47.609375 25.390625 
L 58.015625 25.390625 
L 58.015625 17.1875 
L 47.609375 17.1875 
L 47.609375 0 
L 37.796875 0 
L 37.796875 17.1875 
L 4.890625 17.1875 
L 4.890625 26.703125 
z
" id="DejaVuSans-52"/>
      </defs>
      <g transform="translate(372.965639 785.795313)scale(0.3 -0.3)">
       <use xlink:href="#DejaVuSans-52"/>
       <use x="63.623047" xlink:href="#DejaVuSans-48"/>
       <use x="127.246094" xlink:href="#DejaVuSans-48"/>
      </g>
     </g>
    </g>
    <g id="xtick_20">
     <g id="line2d_26">
      <g>
       <use style="stroke:#000000;stroke-width:0.8;" x="510.104424" xlink:href="#m55673a496e" y="756"/>
      </g>
     </g>
     <g id="text_10">
      <!-- 600 -->
      <defs>
       <path d="M 33.015625 40.375 
Q 26.375 40.375 22.484375 35.828125 
Q 18.609375 31.296875 18.609375 23.390625 
Q 18.609375 15.53125 22.484375 10.953125 
Q 26.375 6.390625 33.015625 6.390625 
Q 39.65625 6.390625 43.53125 10.953125 
Q 47.40625 15.53125 47.40625 23.390625 
Q 47.40625 31.296875 43.53125 35.828125 
Q 39.65625 40.375 33.015625 40.375 
z
M 52.59375 71.296875 
L 52.59375 62.3125 
Q 48.875 64.0625 45.09375 64.984375 
Q 41.3125 65.921875 37.59375 65.921875 
Q 27.828125 65.921875 22.671875 59.328125 
Q 17.53125 52.734375 16.796875 39.40625 
Q 19.671875 43.65625 24.015625 45.921875 
Q 28.375 48.1875 33.59375 48.1875 
Q 44.578125 48.1875 50.953125 41.515625 
Q 57.328125 34.859375 57.328125 23.390625 
Q 57.328125 12.15625 50.6875 5.359375 
Q 44.046875 -1.421875 33.015625 -1.421875 
Q 20.359375 -1.421875 13.671875 8.265625 
Q 6.984375 17.96875 6.984375 36.375 
Q 6.984375 53.65625 15.1875 63.9375 
Q 23.390625 74.21875 37.203125 74.21875 
Q 40.921875 74.21875 44.703125 73.484375 
Q 48.484375 72.75 52.59375 71.296875 
z
" id="DejaVuSans-54"/>
      </defs>
      <g transform="translate(481.473174 785.795313)scale(0.3 -0.3)">
       <use xlink:href="#DejaVuSans-54"/>
       <use x="63.623047" xlink:href="#DejaVuSans-48"/>
       <use x="127.246094" xlink:href="#DejaVuSans-48"/>
      </g>
     </g>
    </g>
    <g id="xtick_21">
     <g id="line2d_27">
      <g>
       <use style="stroke:#000000;stroke-width:0.8;" x="618.611959" xlink:href="#m55673a496e" y="756"/>
      </g>
     </g>
     <g id="text_11">
      <!-- 800 -->
      <defs>
       <path d="M 31.78125 34.625 
Q 24.75 34.625 20.71875 30.859375 
Q 16.703125 27.09375 16.703125 20.515625 
Q 16.703125 13.921875 20.71875 10.15625 
Q 24.75 6.390625 31.78125 6.390625 
Q 38.8125 6.390625 42.859375 10.171875 
Q 46.921875 13.96875 46.921875 20.515625 
Q 46.921875 27.09375 42.890625 30.859375 
Q 38.875 34.625 31.78125 34.625 
z
M 21.921875 38.8125 
Q 15.578125 40.375 12.03125 44.71875 
Q 8.5 49.078125 8.5 55.328125 
Q 8.5 64.0625 14.71875 69.140625 
Q 20.953125 74.21875 31.78125 74.21875 
Q 42.671875 74.21875 48.875 69.140625 
Q 55.078125 64.0625 55.078125 55.328125 
Q 55.078125 49.078125 51.53125 44.71875 
Q 48 40.375 41.703125 38.8125 
Q 48.828125 37.15625 52.796875 32.3125 
Q 56.78125 27.484375 56.78125 20.515625 
Q 56.78125 9.90625 50.3125 4.234375 
Q 43.84375 -1.421875 31.78125 -1.421875 
Q 19.734375 -1.421875 13.25 4.234375 
Q 6.78125 9.90625 6.78125 20.515625 
Q 6.78125 27.484375 10.78125 32.3125 
Q 14.796875 37.15625 21.921875 38.8125 
z
M 18.3125 54.390625 
Q 18.3125 48.734375 21.84375 45.5625 
Q 25.390625 42.390625 31.78125 42.390625 
Q 38.140625 42.390625 41.71875 45.5625 
Q 45.3125 48.734375 45.3125 54.390625 
Q 45.3125 60.0625 41.71875 63.234375 
Q 38.140625 66.40625 31.78125 66.40625 
Q 25.390625 66.40625 21.84375 63.234375 
Q 18.3125 60.0625 18.3125 54.390625 
z
" id="DejaVuSans-56"/>
      </defs>
      <g transform="translate(589.980709 785.795313)scale(0.3 -0.3)">
       <use xlink:href="#DejaVuSans-56"/>
       <use x="63.623047" xlink:href="#DejaVuSans-48"/>
       <use x="127.246094" xlink:href="#DejaVuSans-48"/>
      </g>
     </g>
    </g>
    <g id="xtick_22">
     <g id="line2d_28">
      <g>
       <use style="stroke:#000000;stroke-width:0.8;" x="727.119494" xlink:href="#m55673a496e" y="756"/>
      </g>
     </g>
     <g id="text_12">
      <!-- 1000 -->
      <g transform="translate(688.944494 785.795313)scale(0.3 -0.3)">
       <use xlink:href="#DejaVuSans-49"/>
       <use x="63.623047" xlink:href="#DejaVuSans-48"/>
       <use x="127.246094" xlink:href="#DejaVuSans-48"/>
       <use x="190.869141" xlink:href="#DejaVuSans-48"/>
      </g>
     </g>
    </g>
    <g id="xtick_23">
     <g id="line2d_29">
      <g>
       <use style="stroke:#000000;stroke-width:0.8;" x="835.62703" xlink:href="#m55673a496e" y="756"/>
      </g>
     </g>
     <g id="text_13">
      <!-- 1200 -->
      <g transform="translate(797.45203 785.795313)scale(0.3 -0.3)">
       <use xlink:href="#DejaVuSans-49"/>
       <use x="63.623047" xlink:href="#DejaVuSans-50"/>
       <use x="127.246094" xlink:href="#DejaVuSans-48"/>
       <use x="190.869141" xlink:href="#DejaVuSans-48"/>
      </g>
     </g>
    </g>
    <g id="xtick_24">
     <g id="line2d_30">
      <g>
       <use style="stroke:#000000;stroke-width:0.8;" x="944.134565" xlink:href="#m55673a496e" y="756"/>
      </g>
     </g>
     <g id="text_14">
      <!-- 1400 -->
      <g transform="translate(905.959565 785.795313)scale(0.3 -0.3)">
       <use xlink:href="#DejaVuSans-49"/>
       <use x="63.623047" xlink:href="#DejaVuSans-52"/>
       <use x="127.246094" xlink:href="#DejaVuSans-48"/>
       <use x="190.869141" xlink:href="#DejaVuSans-48"/>
      </g>
     </g>
    </g>
    <g id="text_15">
     <!-- time [msec] -->
     <defs>
      <path d="M 18.3125 70.21875 
L 18.3125 54.6875 
L 36.8125 54.6875 
L 36.8125 47.703125 
L 18.3125 47.703125 
L 18.3125 18.015625 
Q 18.3125 11.328125 20.140625 9.421875 
Q 21.96875 7.515625 27.59375 7.515625 
L 36.8125 7.515625 
L 36.8125 0 
L 27.59375 0 
Q 17.1875 0 13.234375 3.875 
Q 9.28125 7.765625 9.28125 18.015625 
L 9.28125 47.703125 
L 2.6875 47.703125 
L 2.6875 54.6875 
L 9.28125 54.6875 
L 9.28125 70.21875 
z
" id="DejaVuSans-116"/>
      <path d="M 9.421875 54.6875 
L 18.40625 54.6875 
L 18.40625 0 
L 9.421875 0 
z
M 9.421875 75.984375 
L 18.40625 75.984375 
L 18.40625 64.59375 
L 9.421875 64.59375 
z
" id="DejaVuSans-105"/>
      <path d="M 52 44.1875 
Q 55.375 50.25 60.0625 53.125 
Q 64.75 56 71.09375 56 
Q 79.640625 56 84.28125 50.015625 
Q 88.921875 44.046875 88.921875 33.015625 
L 88.921875 0 
L 79.890625 0 
L 79.890625 32.71875 
Q 79.890625 40.578125 77.09375 44.375 
Q 74.3125 48.1875 68.609375 48.1875 
Q 61.625 48.1875 57.5625 43.546875 
Q 53.515625 38.921875 53.515625 30.90625 
L 53.515625 0 
L 44.484375 0 
L 44.484375 32.71875 
Q 44.484375 40.625 41.703125 44.40625 
Q 38.921875 48.1875 33.109375 48.1875 
Q 26.21875 48.1875 22.15625 43.53125 
Q 18.109375 38.875 18.109375 30.90625 
L 18.109375 0 
L 9.078125 0 
L 9.078125 54.6875 
L 18.109375 54.6875 
L 18.109375 46.1875 
Q 21.1875 51.21875 25.484375 53.609375 
Q 29.78125 56 35.6875 56 
Q 41.65625 56 45.828125 52.96875 
Q 50 49.953125 52 44.1875 
z
" id="DejaVuSans-109"/>
      <path d="M 56.203125 29.59375 
L 56.203125 25.203125 
L 14.890625 25.203125 
Q 15.484375 15.921875 20.484375 11.0625 
Q 25.484375 6.203125 34.421875 6.203125 
Q 39.59375 6.203125 44.453125 7.46875 
Q 49.3125 8.734375 54.109375 11.28125 
L 54.109375 2.78125 
Q 49.265625 0.734375 44.1875 -0.34375 
Q 39.109375 -1.421875 33.890625 -1.421875 
Q 20.796875 -1.421875 13.15625 6.1875 
Q 5.515625 13.8125 5.515625 26.8125 
Q 5.515625 40.234375 12.765625 48.109375 
Q 20.015625 56 32.328125 56 
Q 43.359375 56 49.78125 48.890625 
Q 56.203125 41.796875 56.203125 29.59375 
z
M 47.21875 32.234375 
Q 47.125 39.59375 43.09375 43.984375 
Q 39.0625 48.390625 32.421875 48.390625 
Q 24.90625 48.390625 20.390625 44.140625 
Q 15.875 39.890625 15.1875 32.171875 
z
" id="DejaVuSans-101"/>
      <path id="DejaVuSans-32"/>
      <path d="M 8.59375 75.984375 
L 29.296875 75.984375 
L 29.296875 69 
L 17.578125 69 
L 17.578125 -6.203125 
L 29.296875 -6.203125 
L 29.296875 -13.1875 
L 8.59375 -13.1875 
z
" id="DejaVuSans-91"/>
      <path d="M 44.28125 53.078125 
L 44.28125 44.578125 
Q 40.484375 46.53125 36.375 47.5 
Q 32.28125 48.484375 27.875 48.484375 
Q 21.1875 48.484375 17.84375 46.4375 
Q 14.5 44.390625 14.5 40.28125 
Q 14.5 37.15625 16.890625 35.375 
Q 19.28125 33.59375 26.515625 31.984375 
L 29.59375 31.296875 
Q 39.15625 29.25 43.1875 25.515625 
Q 47.21875 21.78125 47.21875 15.09375 
Q 47.21875 7.46875 41.1875 3.015625 
Q 35.15625 -1.421875 24.609375 -1.421875 
Q 20.21875 -1.421875 15.453125 -0.5625 
Q 10.6875 0.296875 5.421875 2 
L 5.421875 11.28125 
Q 10.40625 8.6875 15.234375 7.390625 
Q 20.0625 6.109375 24.8125 6.109375 
Q 31.15625 6.109375 34.5625 8.28125 
Q 37.984375 10.453125 37.984375 14.40625 
Q 37.984375 18.0625 35.515625 20.015625 
Q 33.0625 21.96875 24.703125 23.78125 
L 21.578125 24.515625 
Q 13.234375 26.265625 9.515625 29.90625 
Q 5.8125 33.546875 5.8125 39.890625 
Q 5.8125 47.609375 11.28125 51.796875 
Q 16.75 56 26.8125 56 
Q 31.78125 56 36.171875 55.265625 
Q 40.578125 54.546875 44.28125 53.078125 
z
" id="DejaVuSans-115"/>
      <path d="M 48.78125 52.59375 
L 48.78125 44.1875 
Q 44.96875 46.296875 41.140625 47.34375 
Q 37.3125 48.390625 33.40625 48.390625 
Q 24.65625 48.390625 19.8125 42.84375 
Q 14.984375 37.3125 14.984375 27.296875 
Q 14.984375 17.28125 19.8125 11.734375 
Q 24.65625 6.203125 33.40625 6.203125 
Q 37.3125 6.203125 41.140625 7.25 
Q 44.96875 8.296875 48.78125 10.40625 
L 48.78125 2.09375 
Q 45.015625 0.34375 40.984375 -0.53125 
Q 36.96875 -1.421875 32.421875 -1.421875 
Q 20.0625 -1.421875 12.78125 6.34375 
Q 5.515625 14.109375 5.515625 27.296875 
Q 5.515625 40.671875 12.859375 48.328125 
Q 20.21875 56 33.015625 56 
Q 37.15625 56 41.109375 55.140625 
Q 45.0625 54.296875 48.78125 52.59375 
z
" id="DejaVuSans-99"/>
      <path d="M 30.421875 75.984375 
L 30.421875 -13.1875 
L 9.71875 -13.1875 
L 9.71875 -6.203125 
L 21.390625 -6.203125 
L 21.390625 69 
L 9.71875 69 
L 9.71875 75.984375 
z
" id="DejaVuSans-93"/>
     </defs>
     <g transform="translate(470.05 826.428125)scale(0.4 -0.4)">
      <use xlink:href="#DejaVuSans-116"/>
      <use x="39.208984" xlink:href="#DejaVuSans-105"/>
      <use x="66.992188" xlink:href="#DejaVuSans-109"/>
      <use x="164.404297" xlink:href="#DejaVuSans-101"/>
      <use x="225.927734" xlink:href="#DejaVuSans-32"/>
      <use x="257.714844" xlink:href="#DejaVuSans-91"/>
      <use x="296.728516" xlink:href="#DejaVuSans-109"/>
      <use x="394.140625" xlink:href="#DejaVuSans-115"/>
      <use x="446.240234" xlink:href="#DejaVuSans-101"/>
      <use x="507.763672" xlink:href="#DejaVuSans-99"/>
      <use x="562.744141" xlink:href="#DejaVuSans-93"/>
     </g>
    </g>
   </g>
   <g id="matplotlib.axis_6">
    <g id="ytick_5">
     <g id="line2d_31">
      <g>
       <use style="stroke:#000000;stroke-width:0.8;" x="144" xlink:href="#m4bbf23983a" y="726.488799"/>
      </g>
     </g>
     <g id="text_16">
      <!-- 100 -->
      <g transform="translate(79.7375 737.886455)scale(0.3 -0.3)">
       <use xlink:href="#DejaVuSans-49"/>
       <use x="63.623047" xlink:href="#DejaVuSans-48"/>
       <use x="127.246094" xlink:href="#DejaVuSans-48"/>
      </g>
     </g>
    </g>
    <g id="ytick_6">
     <g id="line2d_32">
      <g>
       <use style="stroke:#000000;stroke-width:0.8;" x="144" xlink:href="#m4bbf23983a" y="639.171096"/>
      </g>
     </g>
     <g id="text_17">
      <!-- 150 -->
      <defs>
       <path d="M 10.796875 72.90625 
L 49.515625 72.90625 
L 49.515625 64.59375 
L 19.828125 64.59375 
L 19.828125 46.734375 
Q 21.96875 47.46875 24.109375 47.828125 
Q 26.265625 48.1875 28.421875 48.1875 
Q 40.625 48.1875 47.75 41.5 
Q 54.890625 34.8125 54.890625 23.390625 
Q 54.890625 11.625 47.5625 5.09375 
Q 40.234375 -1.421875 26.90625 -1.421875 
Q 22.3125 -1.421875 17.546875 -0.640625 
Q 12.796875 0.140625 7.71875 1.703125 
L 7.71875 11.625 
Q 12.109375 9.234375 16.796875 8.0625 
Q 21.484375 6.890625 26.703125 6.890625 
Q 35.15625 6.890625 40.078125 11.328125 
Q 45.015625 15.765625 45.015625 23.390625 
Q 45.015625 31 40.078125 35.4375 
Q 35.15625 39.890625 26.703125 39.890625 
Q 22.75 39.890625 18.8125 39.015625 
Q 14.890625 38.140625 10.796875 36.28125 
z
" id="DejaVuSans-53"/>
      </defs>
      <g transform="translate(79.7375 650.568752)scale(0.3 -0.3)">
       <use xlink:href="#DejaVuSans-49"/>
       <use x="63.623047" xlink:href="#DejaVuSans-53"/>
       <use x="127.246094" xlink:href="#DejaVuSans-48"/>
      </g>
     </g>
    </g>
    <g id="text_18">
     <!-- ABP -->
     <defs>
      <path d="M 34.1875 63.1875 
L 20.796875 26.90625 
L 47.609375 26.90625 
z
M 28.609375 72.90625 
L 39.796875 72.90625 
L 67.578125 0 
L 57.328125 0 
L 50.6875 18.703125 
L 17.828125 18.703125 
L 11.1875 0 
L 0.78125 0 
z
" id="DejaVuSans-65"/>
      <path d="M 19.671875 34.8125 
L 19.671875 8.109375 
L 35.5 8.109375 
Q 43.453125 8.109375 47.28125 11.40625 
Q 51.125 14.703125 51.125 21.484375 
Q 51.125 28.328125 47.28125 31.5625 
Q 43.453125 34.8125 35.5 34.8125 
z
M 19.671875 64.796875 
L 19.671875 42.828125 
L 34.28125 42.828125 
Q 41.5 42.828125 45.03125 45.53125 
Q 48.578125 48.25 48.578125 53.8125 
Q 48.578125 59.328125 45.03125 62.0625 
Q 41.5 64.796875 34.28125 64.796875 
z
M 9.8125 72.90625 
L 35.015625 72.90625 
Q 46.296875 72.90625 52.390625 68.21875 
Q 58.5 63.53125 58.5 54.890625 
Q 58.5 48.1875 55.375 44.234375 
Q 52.25 40.28125 46.1875 39.3125 
Q 53.46875 37.75 57.5 32.78125 
Q 61.53125 27.828125 61.53125 20.40625 
Q 61.53125 10.640625 54.890625 5.3125 
Q 48.25 0 35.984375 0 
L 9.8125 0 
z
" id="DejaVuSans-66"/>
     </defs>
     <g transform="translate(67.41875 699.533088)rotate(-90)scale(0.4 -0.4)">
      <use xlink:href="#DejaVuSans-65"/>
      <use x="68.408203" xlink:href="#DejaVuSans-66"/>
      <use x="137.011719" xlink:href="#DejaVuSans-80"/>
     </g>
    </g>
   </g>
   <g id="line2d_33">
    <path clip-path="url(#pc540d5ad6e)" d="M 184.581818 729.672403 
L 193.262421 732.436881 
L 206.283325 736.940728 
L 210.623627 737.656733 
L 214.963928 736.429047 
L 219.304229 731.514806 
L 223.644531 721.075102 
L 227.984832 703.873514 
L 232.325134 680.943885 
L 241.005737 627.522914 
L 245.346038 603.982062 
L 249.686339 586.990036 
L 254.026641 578.380511 
L 258.366942 577.978849 
L 262.707244 584.213334 
L 267.047545 594.55175 
L 275.728148 619.01817 
L 280.068449 630.072591 
L 284.408751 639.590221 
L 288.749052 647.169398 
L 293.089353 652.495777 
L 297.429655 655.76146 
L 301.769956 657.106152 
L 306.110258 656.791808 
L 310.450559 655.150236 
L 319.131162 650.347762 
L 323.471463 648.496627 
L 327.811765 647.780621 
L 332.152066 649.020533 
L 336.492368 652.286215 
L 340.832669 657.507814 
L 345.17297 664.370985 
L 353.853573 679.511875 
L 358.193875 685.973385 
L 362.534176 690.88064 
L 366.874477 694.146322 
L 371.214779 695.787895 
L 375.55508 696.20702 
L 379.895382 695.386233 
L 384.235683 694.059004 
L 388.575984 692.417431 
L 392.916286 691.194984 
L 397.256587 690.164635 
L 401.596889 689.955072 
L 405.93719 690.269416 
L 410.277491 691.282301 
L 414.617793 692.819093 
L 418.958094 694.879791 
L 423.298396 697.115124 
L 431.978999 702.546285 
L 436.3193 705.305524 
L 440.659601 708.274326 
L 449.340204 713.705487 
L 458.020807 718.717524 
L 462.361108 720.865539 
L 466.70141 722.821456 
L 475.382013 725.982357 
L 479.722314 727.217029 
L 488.402917 729.160721 
L 497.08352 730.594478 
L 505.764123 731.310483 
L 514.444725 731.617841 
L 536.146232 731.209194 
L 540.486534 731.310483 
L 549.167137 731.925199 
L 562.188041 733.870638 
L 566.528342 734.687932 
L 575.208945 736.736405 
L 579.549246 738.067127 
L 588.229849 741.341541 
L 596.910452 745.026348 
L 601.250754 746.563139 
L 605.591055 747.279144 
L 609.931356 746.051457 
L 614.271658 741.137217 
L 618.611959 730.185831 
L 622.952261 712.168696 
L 627.292562 687.405395 
L 635.973165 627.924576 
L 640.313466 601.205359 
L 644.653768 581.978 
L 648.994069 572.862032 
L 653.33437 573.368475 
L 657.674672 581.558875 
L 662.014973 594.464432 
L 670.695576 623.733326 
L 675.035877 637.040544 
L 679.376179 648.304528 
L 683.71648 657.106152 
L 688.056782 663.550199 
L 692.397083 667.444568 
L 696.737385 669.068678 
L 701.077686 668.98136 
L 705.417987 667.339787 
L 709.758289 665.191772 
L 714.09859 662.834194 
L 718.438892 661.297402 
L 722.779193 661.087839 
L 727.119494 662.729412 
L 731.459796 666.204657 
L 735.800097 671.426256 
L 744.4807 683.196682 
L 748.821001 688.313499 
L 753.161303 691.910989 
L 757.501604 693.744661 
L 761.841906 694.146322 
L 766.182207 693.342999 
L 770.522509 691.701426 
L 779.203111 687.405395 
L 783.543413 685.763822 
L 787.883714 685.047817 
L 792.224016 685.047817 
L 796.564317 685.763822 
L 800.904618 687.405395 
L 805.24492 689.553411 
L 809.585221 692.103088 
L 813.925523 694.967108 
L 822.606125 701.114275 
L 831.286728 706.842316 
L 835.62703 709.514238 
L 844.307632 714.21193 
L 848.647934 716.167847 
L 852.988235 718.001518 
L 861.668838 720.97032 
L 866.00914 722.297549 
L 874.689742 724.550346 
L 879.030044 725.580695 
L 892.050948 727.933034 
L 900.731551 728.956398 
L 909.412154 729.468079 
L 913.752455 729.468079 
L 922.433058 729.059432 
L 935.453962 727.625676 
L 944.134565 727.217029 
L 952.815168 727.524387 
L 961.495771 728.240392 
L 965.836072 728.855109 
L 970.176373 729.672403 
L 974.516675 730.798801 
L 983.197278 733.56328 
L 991.87788 736.736405 
L 996.218182 737.759768 
L 996.218182 737.759768 
" style="fill:none;stroke:#1f77b4;stroke-linecap:square;stroke-width:3;"/>
   </g>
   <g id="patch_13">
    <path d="M 144 756 
L 144 564.141176 
" style="fill:none;stroke:#000000;stroke-linecap:square;stroke-linejoin:miter;stroke-width:0.8;"/>
   </g>
   <g id="patch_14">
    <path d="M 1036.8 756 
L 1036.8 564.141176 
" style="fill:none;stroke:#000000;stroke-linecap:square;stroke-linejoin:miter;stroke-width:0.8;"/>
   </g>
   <g id="patch_15">
    <path d="M 144 756 
L 1036.8 756 
" style="fill:none;stroke:#000000;stroke-linecap:square;stroke-linejoin:miter;stroke-width:0.8;"/>
   </g>
   <g id="patch_16">
    <path d="M 144 564.141176 
L 1036.8 564.141176 
" style="fill:none;stroke:#000000;stroke-linecap:square;stroke-linejoin:miter;stroke-width:0.8;"/>
   </g>
  </g>
 </g>
 <defs>
  <clipPath id="p3f367c650b">
   <rect height="191.858824" width="892.8" x="144" y="103.68"/>
  </clipPath>
  <clipPath id="pcfb2279ff3">
   <rect height="191.858824" width="892.8" x="144" y="333.910588"/>
  </clipPath>
  <clipPath id="pc540d5ad6e">
   <rect height="191.858824" width="892.8" x="144" y="564.141176"/>
  </clipPath>
 </defs>
</svg>
