<?xml version="1.0" encoding="utf-8" standalone="no"?>
<!DOCTYPE svg PUBLIC "-//W3C//DTD SVG 1.1//EN"
  "http://www.w3.org/Graphics/SVG/1.1/DTD/svg11.dtd">
<svg xmlns:xlink="http://www.w3.org/1999/xlink" width="864pt" height="576pt" viewBox="0 0 864 576" xmlns="http://www.w3.org/2000/svg" version="1.1">
 <metadata>
  <rdf:RDF xmlns:dc="http://purl.org/dc/elements/1.1/" xmlns:cc="http://creativecommons.org/ns#" xmlns:rdf="http://www.w3.org/1999/02/22-rdf-syntax-ns#">
   <cc:Work>
    <dc:type rdf:resource="http://purl.org/dc/dcmitype/StillImage"/>
    <dc:date>2024-10-08T17:06:07.756592</dc:date>
    <dc:format>image/svg+xml</dc:format>
    <dc:creator>
     <cc:Agent>
      <dc:title>Matplotlib v3.9.2, https://matplotlib.org/</dc:title>
     </cc:Agent>
    </dc:creator>
   </cc:Work>
  </rdf:RDF>
 </metadata>
 <defs>
  <style type="text/css">*{stroke-linejoin: round; stroke-linecap: butt}</style>
 </defs>
 <g id="figure_1">
  <g id="patch_1">
   <path d="M 0 576 
L 864 576 
L 864 0 
L 0 0 
z
" style="fill: #ffffff"/>
  </g>
  <g id="axes_1">
   <g id="patch_2">
    <path d="M 108 512.64 
L 777.6 512.64 
L 777.6 69.12 
L 108 69.12 
z
" style="fill: #ffffff"/>
   </g>
   <g id="matplotlib.axis_1">
    <g id="xtick_1">
     <g id="line2d_1">
      <path d="M 138.399295 512.64 
L 138.399295 69.12 
" clip-path="url(#p08116956dd)" style="fill: none; stroke-dasharray: 9.6,2.4,1.5,2.4; stroke-dashoffset: 0; stroke: #808080; stroke-opacity: 0.6; stroke-width: 1.5"/>
     </g>
     <g id="line2d_2">
      <defs>
       <path id="m86151e2e9f" d="M 0 0 
L 0 3.5 
" style="stroke: #000000; stroke-width: 0.8"/>
      </defs>
      <g>
       <use xlink:href="#m86151e2e9f" x="138.399295" y="512.64" style="stroke: #000000; stroke-width: 0.8"/>
      </g>
     </g>
     <g id="text_1">
      <!-- 0 -->
      <g transform="translate(135.218045 527.238438) scale(0.1 -0.1)">
       <defs>
        <path id="DejaVuSans-30" d="M 2034 4250 
Q 1547 4250 1301 3770 
Q 1056 3291 1056 2328 
Q 1056 1369 1301 889 
Q 1547 409 2034 409 
Q 2525 409 2770 889 
Q 3016 1369 3016 2328 
Q 3016 3291 2770 3770 
Q 2525 4250 2034 4250 
z
M 2034 4750 
Q 2819 4750 3233 4129 
Q 3647 3509 3647 2328 
Q 3647 1150 3233 529 
Q 2819 -91 2034 -91 
Q 1250 -91 836 529 
Q 422 1150 422 2328 
Q 422 3509 836 4129 
Q 1250 4750 2034 4750 
z
" transform="scale(0.015625)"/>
       </defs>
       <use xlink:href="#DejaVuSans-30"/>
      </g>
     </g>
    </g>
    <g id="xtick_2">
     <g id="line2d_3">
      <path d="M 246.72487 512.64 
L 246.72487 69.12 
" clip-path="url(#p08116956dd)" style="fill: none; stroke-dasharray: 9.6,2.4,1.5,2.4; stroke-dashoffset: 0; stroke: #808080; stroke-opacity: 0.6; stroke-width: 1.5"/>
     </g>
     <g id="line2d_4">
      <g>
       <use xlink:href="#m86151e2e9f" x="246.72487" y="512.64" style="stroke: #000000; stroke-width: 0.8"/>
      </g>
     </g>
     <g id="text_2">
      <!-- 10 -->
      <g transform="translate(240.36237 527.238438) scale(0.1 -0.1)">
       <defs>
        <path id="DejaVuSans-31" d="M 794 531 
L 1825 531 
L 1825 4091 
L 703 3866 
L 703 4441 
L 1819 4666 
L 2450 4666 
L 2450 531 
L 3481 531 
L 3481 0 
L 794 0 
L 794 531 
z
" transform="scale(0.015625)"/>
       </defs>
       <use xlink:href="#DejaVuSans-31"/>
       <use xlink:href="#DejaVuSans-30" x="63.623047"/>
      </g>
     </g>
    </g>
    <g id="xtick_3">
     <g id="line2d_5">
      <path d="M 355.050445 512.64 
L 355.050445 69.12 
" clip-path="url(#p08116956dd)" style="fill: none; stroke-dasharray: 9.6,2.4,1.5,2.4; stroke-dashoffset: 0; stroke: #808080; stroke-opacity: 0.6; stroke-width: 1.5"/>
     </g>
     <g id="line2d_6">
      <g>
       <use xlink:href="#m86151e2e9f" x="355.050445" y="512.64" style="stroke: #000000; stroke-width: 0.8"/>
      </g>
     </g>
     <g id="text_3">
      <!-- 20 -->
      <g transform="translate(348.687945 527.238438) scale(0.1 -0.1)">
       <defs>
        <path id="DejaVuSans-32" d="M 1228 531 
L 3431 531 
L 3431 0 
L 469 0 
L 469 531 
Q 828 903 1448 1529 
Q 2069 2156 2228 2338 
Q 2531 2678 2651 2914 
Q 2772 3150 2772 3378 
Q 2772 3750 2511 3984 
Q 2250 4219 1831 4219 
Q 1534 4219 1204 4116 
Q 875 4013 500 3803 
L 500 4441 
Q 881 4594 1212 4672 
Q 1544 4750 1819 4750 
Q 2544 4750 2975 4387 
Q 3406 4025 3406 3419 
Q 3406 3131 3298 2873 
Q 3191 2616 2906 2266 
Q 2828 2175 2409 1742 
Q 1991 1309 1228 531 
z
" transform="scale(0.015625)"/>
       </defs>
       <use xlink:href="#DejaVuSans-32"/>
       <use xlink:href="#DejaVuSans-30" x="63.623047"/>
      </g>
     </g>
    </g>
    <g id="xtick_4">
     <g id="line2d_7">
      <path d="M 463.376019 512.64 
L 463.376019 69.12 
" clip-path="url(#p08116956dd)" style="fill: none; stroke-dasharray: 9.6,2.4,1.5,2.4; stroke-dashoffset: 0; stroke: #808080; stroke-opacity: 0.6; stroke-width: 1.5"/>
     </g>
     <g id="line2d_8">
      <g>
       <use xlink:href="#m86151e2e9f" x="463.376019" y="512.64" style="stroke: #000000; stroke-width: 0.8"/>
      </g>
     </g>
     <g id="text_4">
      <!-- 30 -->
      <g transform="translate(457.013519 527.238438) scale(0.1 -0.1)">
       <defs>
        <path id="DejaVuSans-33" d="M 2597 2516 
Q 3050 2419 3304 2112 
Q 3559 1806 3559 1356 
Q 3559 666 3084 287 
Q 2609 -91 1734 -91 
Q 1441 -91 1130 -33 
Q 819 25 488 141 
L 488 750 
Q 750 597 1062 519 
Q 1375 441 1716 441 
Q 2309 441 2620 675 
Q 2931 909 2931 1356 
Q 2931 1769 2642 2001 
Q 2353 2234 1838 2234 
L 1294 2234 
L 1294 2753 
L 1863 2753 
Q 2328 2753 2575 2939 
Q 2822 3125 2822 3475 
Q 2822 3834 2567 4026 
Q 2313 4219 1838 4219 
Q 1578 4219 1281 4162 
Q 984 4106 628 3988 
L 628 4550 
Q 988 4650 1302 4700 
Q 1616 4750 1894 4750 
Q 2613 4750 3031 4423 
Q 3450 4097 3450 3541 
Q 3450 3153 3228 2886 
Q 3006 2619 2597 2516 
z
" transform="scale(0.015625)"/>
       </defs>
       <use xlink:href="#DejaVuSans-33"/>
       <use xlink:href="#DejaVuSans-30" x="63.623047"/>
      </g>
     </g>
    </g>
    <g id="xtick_5">
     <g id="line2d_9">
      <path d="M 571.701594 512.64 
L 571.701594 69.12 
" clip-path="url(#p08116956dd)" style="fill: none; stroke-dasharray: 9.6,2.4,1.5,2.4; stroke-dashoffset: 0; stroke: #808080; stroke-opacity: 0.6; stroke-width: 1.5"/>
     </g>
     <g id="line2d_10">
      <g>
       <use xlink:href="#m86151e2e9f" x="571.701594" y="512.64" style="stroke: #000000; stroke-width: 0.8"/>
      </g>
     </g>
     <g id="text_5">
      <!-- 40 -->
      <g transform="translate(565.339094 527.238438) scale(0.1 -0.1)">
       <defs>
        <path id="DejaVuSans-34" d="M 2419 4116 
L 825 1625 
L 2419 1625 
L 2419 4116 
z
M 2253 4666 
L 3047 4666 
L 3047 1625 
L 3713 1625 
L 3713 1100 
L 3047 1100 
L 3047 0 
L 2419 0 
L 2419 1100 
L 313 1100 
L 313 1709 
L 2253 4666 
z
" transform="scale(0.015625)"/>
       </defs>
       <use xlink:href="#DejaVuSans-34"/>
       <use xlink:href="#DejaVuSans-30" x="63.623047"/>
      </g>
     </g>
    </g>
    <g id="xtick_6">
     <g id="line2d_11">
      <path d="M 680.027169 512.64 
L 680.027169 69.12 
" clip-path="url(#p08116956dd)" style="fill: none; stroke-dasharray: 9.6,2.4,1.5,2.4; stroke-dashoffset: 0; stroke: #808080; stroke-opacity: 0.6; stroke-width: 1.5"/>
     </g>
     <g id="line2d_12">
      <g>
       <use xlink:href="#m86151e2e9f" x="680.027169" y="512.64" style="stroke: #000000; stroke-width: 0.8"/>
      </g>
     </g>
     <g id="text_6">
      <!-- 50 -->
      <g transform="translate(673.664669 527.238438) scale(0.1 -0.1)">
       <defs>
        <path id="DejaVuSans-35" d="M 691 4666 
L 3169 4666 
L 3169 4134 
L 1269 4134 
L 1269 2991 
Q 1406 3038 1543 3061 
Q 1681 3084 1819 3084 
Q 2600 3084 3056 2656 
Q 3513 2228 3513 1497 
Q 3513 744 3044 326 
Q 2575 -91 1722 -91 
Q 1428 -91 1123 -41 
Q 819 9 494 109 
L 494 744 
Q 775 591 1075 516 
Q 1375 441 1709 441 
Q 2250 441 2565 725 
Q 2881 1009 2881 1497 
Q 2881 1984 2565 2268 
Q 2250 2553 1709 2553 
Q 1456 2553 1204 2497 
Q 953 2441 691 2322 
L 691 4666 
z
" transform="scale(0.015625)"/>
       </defs>
       <use xlink:href="#DejaVuSans-35"/>
       <use xlink:href="#DejaVuSans-30" x="63.623047"/>
      </g>
     </g>
    </g>
    <g id="xtick_7">
     <g id="line2d_13">
      <path d="M 116.73418 512.64 
L 116.73418 69.12 
" clip-path="url(#p08116956dd)" style="fill: none; stroke: #f5f5dc; stroke-opacity: 0.8; stroke-linecap: square"/>
     </g>
     <g id="line2d_14">
      <defs>
       <path id="m425ca0fd61" d="M 0 0 
L 0 2 
" style="stroke: #000000; stroke-width: 0.6"/>
      </defs>
      <g>
       <use xlink:href="#m425ca0fd61" x="116.73418" y="512.64" style="stroke: #000000; stroke-width: 0.6"/>
      </g>
     </g>
    </g>
    <g id="xtick_8">
     <g id="line2d_15">
      <path d="M 160.06441 512.64 
L 160.06441 69.12 
" clip-path="url(#p08116956dd)" style="fill: none; stroke: #f5f5dc; stroke-opacity: 0.8; stroke-linecap: square"/>
     </g>
     <g id="line2d_16">
      <g>
       <use xlink:href="#m425ca0fd61" x="160.06441" y="512.64" style="stroke: #000000; stroke-width: 0.6"/>
      </g>
     </g>
    </g>
    <g id="xtick_9">
     <g id="line2d_17">
      <path d="M 181.729525 512.64 
L 181.729525 69.12 
" clip-path="url(#p08116956dd)" style="fill: none; stroke: #f5f5dc; stroke-opacity: 0.8; stroke-linecap: square"/>
     </g>
     <g id="line2d_18">
      <g>
       <use xlink:href="#m425ca0fd61" x="181.729525" y="512.64" style="stroke: #000000; stroke-width: 0.6"/>
      </g>
     </g>
    </g>
    <g id="xtick_10">
     <g id="line2d_19">
      <path d="M 203.39464 512.64 
L 203.39464 69.12 
" clip-path="url(#p08116956dd)" style="fill: none; stroke: #f5f5dc; stroke-opacity: 0.8; stroke-linecap: square"/>
     </g>
     <g id="line2d_20">
      <g>
       <use xlink:href="#m425ca0fd61" x="203.39464" y="512.64" style="stroke: #000000; stroke-width: 0.6"/>
      </g>
     </g>
    </g>
    <g id="xtick_11">
     <g id="line2d_21">
      <path d="M 225.059755 512.64 
L 225.059755 69.12 
" clip-path="url(#p08116956dd)" style="fill: none; stroke: #f5f5dc; stroke-opacity: 0.8; stroke-linecap: square"/>
     </g>
     <g id="line2d_22">
      <g>
       <use xlink:href="#m425ca0fd61" x="225.059755" y="512.64" style="stroke: #000000; stroke-width: 0.6"/>
      </g>
     </g>
    </g>
    <g id="xtick_12">
     <g id="line2d_23">
      <path d="M 268.389985 512.64 
L 268.389985 69.12 
" clip-path="url(#p08116956dd)" style="fill: none; stroke: #f5f5dc; stroke-opacity: 0.8; stroke-linecap: square"/>
     </g>
     <g id="line2d_24">
      <g>
       <use xlink:href="#m425ca0fd61" x="268.389985" y="512.64" style="stroke: #000000; stroke-width: 0.6"/>
      </g>
     </g>
    </g>
    <g id="xtick_13">
     <g id="line2d_25">
      <path d="M 290.0551 512.64 
L 290.0551 69.12 
" clip-path="url(#p08116956dd)" style="fill: none; stroke: #f5f5dc; stroke-opacity: 0.8; stroke-linecap: square"/>
     </g>
     <g id="line2d_26">
      <g>
       <use xlink:href="#m425ca0fd61" x="290.0551" y="512.64" style="stroke: #000000; stroke-width: 0.6"/>
      </g>
     </g>
    </g>
    <g id="xtick_14">
     <g id="line2d_27">
      <path d="M 311.720215 512.64 
L 311.720215 69.12 
" clip-path="url(#p08116956dd)" style="fill: none; stroke: #f5f5dc; stroke-opacity: 0.8; stroke-linecap: square"/>
     </g>
     <g id="line2d_28">
      <g>
       <use xlink:href="#m425ca0fd61" x="311.720215" y="512.64" style="stroke: #000000; stroke-width: 0.6"/>
      </g>
     </g>
    </g>
    <g id="xtick_15">
     <g id="line2d_29">
      <path d="M 333.38533 512.64 
L 333.38533 69.12 
" clip-path="url(#p08116956dd)" style="fill: none; stroke: #f5f5dc; stroke-opacity: 0.8; stroke-linecap: square"/>
     </g>
     <g id="line2d_30">
      <g>
       <use xlink:href="#m425ca0fd61" x="333.38533" y="512.64" style="stroke: #000000; stroke-width: 0.6"/>
      </g>
     </g>
    </g>
    <g id="xtick_16">
     <g id="line2d_31">
      <path d="M 376.71556 512.64 
L 376.71556 69.12 
" clip-path="url(#p08116956dd)" style="fill: none; stroke: #f5f5dc; stroke-opacity: 0.8; stroke-linecap: square"/>
     </g>
     <g id="line2d_32">
      <g>
       <use xlink:href="#m425ca0fd61" x="376.71556" y="512.64" style="stroke: #000000; stroke-width: 0.6"/>
      </g>
     </g>
    </g>
    <g id="xtick_17">
     <g id="line2d_33">
      <path d="M 398.380675 512.64 
L 398.380675 69.12 
" clip-path="url(#p08116956dd)" style="fill: none; stroke: #f5f5dc; stroke-opacity: 0.8; stroke-linecap: square"/>
     </g>
     <g id="line2d_34">
      <g>
       <use xlink:href="#m425ca0fd61" x="398.380675" y="512.64" style="stroke: #000000; stroke-width: 0.6"/>
      </g>
     </g>
    </g>
    <g id="xtick_18">
     <g id="line2d_35">
      <path d="M 420.04579 512.64 
L 420.04579 69.12 
" clip-path="url(#p08116956dd)" style="fill: none; stroke: #f5f5dc; stroke-opacity: 0.8; stroke-linecap: square"/>
     </g>
     <g id="line2d_36">
      <g>
       <use xlink:href="#m425ca0fd61" x="420.04579" y="512.64" style="stroke: #000000; stroke-width: 0.6"/>
      </g>
     </g>
    </g>
    <g id="xtick_19">
     <g id="line2d_37">
      <path d="M 441.710905 512.64 
L 441.710905 69.12 
" clip-path="url(#p08116956dd)" style="fill: none; stroke: #f5f5dc; stroke-opacity: 0.8; stroke-linecap: square"/>
     </g>
     <g id="line2d_38">
      <g>
       <use xlink:href="#m425ca0fd61" x="441.710905" y="512.64" style="stroke: #000000; stroke-width: 0.6"/>
      </g>
     </g>
    </g>
    <g id="xtick_20">
     <g id="line2d_39">
      <path d="M 485.041134 512.64 
L 485.041134 69.12 
" clip-path="url(#p08116956dd)" style="fill: none; stroke: #f5f5dc; stroke-opacity: 0.8; stroke-linecap: square"/>
     </g>
     <g id="line2d_40">
      <g>
       <use xlink:href="#m425ca0fd61" x="485.041134" y="512.64" style="stroke: #000000; stroke-width: 0.6"/>
      </g>
     </g>
    </g>
    <g id="xtick_21">
     <g id="line2d_41">
      <path d="M 506.706249 512.64 
L 506.706249 69.12 
" clip-path="url(#p08116956dd)" style="fill: none; stroke: #f5f5dc; stroke-opacity: 0.8; stroke-linecap: square"/>
     </g>
     <g id="line2d_42">
      <g>
       <use xlink:href="#m425ca0fd61" x="506.706249" y="512.64" style="stroke: #000000; stroke-width: 0.6"/>
      </g>
     </g>
    </g>
    <g id="xtick_22">
     <g id="line2d_43">
      <path d="M 528.371364 512.64 
L 528.371364 69.12 
" clip-path="url(#p08116956dd)" style="fill: none; stroke: #f5f5dc; stroke-opacity: 0.8; stroke-linecap: square"/>
     </g>
     <g id="line2d_44">
      <g>
       <use xlink:href="#m425ca0fd61" x="528.371364" y="512.64" style="stroke: #000000; stroke-width: 0.6"/>
      </g>
     </g>
    </g>
    <g id="xtick_23">
     <g id="line2d_45">
      <path d="M 550.036479 512.64 
L 550.036479 69.12 
" clip-path="url(#p08116956dd)" style="fill: none; stroke: #f5f5dc; stroke-opacity: 0.8; stroke-linecap: square"/>
     </g>
     <g id="line2d_46">
      <g>
       <use xlink:href="#m425ca0fd61" x="550.036479" y="512.64" style="stroke: #000000; stroke-width: 0.6"/>
      </g>
     </g>
    </g>
    <g id="xtick_24">
     <g id="line2d_47">
      <path d="M 593.366709 512.64 
L 593.366709 69.12 
" clip-path="url(#p08116956dd)" style="fill: none; stroke: #f5f5dc; stroke-opacity: 0.8; stroke-linecap: square"/>
     </g>
     <g id="line2d_48">
      <g>
       <use xlink:href="#m425ca0fd61" x="593.366709" y="512.64" style="stroke: #000000; stroke-width: 0.6"/>
      </g>
     </g>
    </g>
    <g id="xtick_25">
     <g id="line2d_49">
      <path d="M 615.031824 512.64 
L 615.031824 69.12 
" clip-path="url(#p08116956dd)" style="fill: none; stroke: #f5f5dc; stroke-opacity: 0.8; stroke-linecap: square"/>
     </g>
     <g id="line2d_50">
      <g>
       <use xlink:href="#m425ca0fd61" x="615.031824" y="512.64" style="stroke: #000000; stroke-width: 0.6"/>
      </g>
     </g>
    </g>
    <g id="xtick_26">
     <g id="line2d_51">
      <path d="M 636.696939 512.64 
L 636.696939 69.12 
" clip-path="url(#p08116956dd)" style="fill: none; stroke: #f5f5dc; stroke-opacity: 0.8; stroke-linecap: square"/>
     </g>
     <g id="line2d_52">
      <g>
       <use xlink:href="#m425ca0fd61" x="636.696939" y="512.64" style="stroke: #000000; stroke-width: 0.6"/>
      </g>
     </g>
    </g>
    <g id="xtick_27">
     <g id="line2d_53">
      <path d="M 658.362054 512.64 
L 658.362054 69.12 
" clip-path="url(#p08116956dd)" style="fill: none; stroke: #f5f5dc; stroke-opacity: 0.8; stroke-linecap: square"/>
     </g>
     <g id="line2d_54">
      <g>
       <use xlink:href="#m425ca0fd61" x="658.362054" y="512.64" style="stroke: #000000; stroke-width: 0.6"/>
      </g>
     </g>
    </g>
    <g id="xtick_28">
     <g id="line2d_55">
      <path d="M 701.692284 512.64 
L 701.692284 69.12 
" clip-path="url(#p08116956dd)" style="fill: none; stroke: #f5f5dc; stroke-opacity: 0.8; stroke-linecap: square"/>
     </g>
     <g id="line2d_56">
      <g>
       <use xlink:href="#m425ca0fd61" x="701.692284" y="512.64" style="stroke: #000000; stroke-width: 0.6"/>
      </g>
     </g>
    </g>
    <g id="xtick_29">
     <g id="line2d_57">
      <path d="M 723.357399 512.64 
L 723.357399 69.12 
" clip-path="url(#p08116956dd)" style="fill: none; stroke: #f5f5dc; stroke-opacity: 0.8; stroke-linecap: square"/>
     </g>
     <g id="line2d_58">
      <g>
       <use xlink:href="#m425ca0fd61" x="723.357399" y="512.64" style="stroke: #000000; stroke-width: 0.6"/>
      </g>
     </g>
    </g>
    <g id="xtick_30">
     <g id="line2d_59">
      <path d="M 745.022514 512.64 
L 745.022514 69.12 
" clip-path="url(#p08116956dd)" style="fill: none; stroke: #f5f5dc; stroke-opacity: 0.8; stroke-linecap: square"/>
     </g>
     <g id="line2d_60">
      <g>
       <use xlink:href="#m425ca0fd61" x="745.022514" y="512.64" style="stroke: #000000; stroke-width: 0.6"/>
      </g>
     </g>
    </g>
    <g id="xtick_31">
     <g id="line2d_61">
      <path d="M 766.687629 512.64 
L 766.687629 69.12 
" clip-path="url(#p08116956dd)" style="fill: none; stroke: #f5f5dc; stroke-opacity: 0.8; stroke-linecap: square"/>
     </g>
     <g id="line2d_62">
      <g>
       <use xlink:href="#m425ca0fd61" x="766.687629" y="512.64" style="stroke: #000000; stroke-width: 0.6"/>
      </g>
     </g>
    </g>
    <g id="text_7">
     <!-- Error (mmHg) -->
     <g transform="translate(408.449219 540.916563) scale(0.1 -0.1)">
      <defs>
       <path id="DejaVuSans-45" d="M 628 4666 
L 3578 4666 
L 3578 4134 
L 1259 4134 
L 1259 2753 
L 3481 2753 
L 3481 2222 
L 1259 2222 
L 1259 531 
L 3634 531 
L 3634 0 
L 628 0 
L 628 4666 
z
" transform="scale(0.015625)"/>
       <path id="DejaVuSans-72" d="M 2631 2963 
Q 2534 3019 2420 3045 
Q 2306 3072 2169 3072 
Q 1681 3072 1420 2755 
Q 1159 2438 1159 1844 
L 1159 0 
L 581 0 
L 581 3500 
L 1159 3500 
L 1159 2956 
Q 1341 3275 1631 3429 
Q 1922 3584 2338 3584 
Q 2397 3584 2469 3576 
Q 2541 3569 2628 3553 
L 2631 2963 
z
" transform="scale(0.015625)"/>
       <path id="DejaVuSans-6f" d="M 1959 3097 
Q 1497 3097 1228 2736 
Q 959 2375 959 1747 
Q 959 1119 1226 758 
Q 1494 397 1959 397 
Q 2419 397 2687 759 
Q 2956 1122 2956 1747 
Q 2956 2369 2687 2733 
Q 2419 3097 1959 3097 
z
M 1959 3584 
Q 2709 3584 3137 3096 
Q 3566 2609 3566 1747 
Q 3566 888 3137 398 
Q 2709 -91 1959 -91 
Q 1206 -91 779 398 
Q 353 888 353 1747 
Q 353 2609 779 3096 
Q 1206 3584 1959 3584 
z
" transform="scale(0.015625)"/>
       <path id="DejaVuSans-20" transform="scale(0.015625)"/>
       <path id="DejaVuSans-28" d="M 1984 4856 
Q 1566 4138 1362 3434 
Q 1159 2731 1159 2009 
Q 1159 1288 1364 580 
Q 1569 -128 1984 -844 
L 1484 -844 
Q 1016 -109 783 600 
Q 550 1309 550 2009 
Q 550 2706 781 3412 
Q 1013 4119 1484 4856 
L 1984 4856 
z
" transform="scale(0.015625)"/>
       <path id="DejaVuSans-6d" d="M 3328 2828 
Q 3544 3216 3844 3400 
Q 4144 3584 4550 3584 
Q 5097 3584 5394 3201 
Q 5691 2819 5691 2113 
L 5691 0 
L 5113 0 
L 5113 2094 
Q 5113 2597 4934 2840 
Q 4756 3084 4391 3084 
Q 3944 3084 3684 2787 
Q 3425 2491 3425 1978 
L 3425 0 
L 2847 0 
L 2847 2094 
Q 2847 2600 2669 2842 
Q 2491 3084 2119 3084 
Q 1678 3084 1418 2786 
Q 1159 2488 1159 1978 
L 1159 0 
L 581 0 
L 581 3500 
L 1159 3500 
L 1159 2956 
Q 1356 3278 1631 3431 
Q 1906 3584 2284 3584 
Q 2666 3584 2933 3390 
Q 3200 3197 3328 2828 
z
" transform="scale(0.015625)"/>
       <path id="DejaVuSans-48" d="M 628 4666 
L 1259 4666 
L 1259 2753 
L 3553 2753 
L 3553 4666 
L 4184 4666 
L 4184 0 
L 3553 0 
L 3553 2222 
L 1259 2222 
L 1259 0 
L 628 0 
L 628 4666 
z
" transform="scale(0.015625)"/>
       <path id="DejaVuSans-67" d="M 2906 1791 
Q 2906 2416 2648 2759 
Q 2391 3103 1925 3103 
Q 1463 3103 1205 2759 
Q 947 2416 947 1791 
Q 947 1169 1205 825 
Q 1463 481 1925 481 
Q 2391 481 2648 825 
Q 2906 1169 2906 1791 
z
M 3481 434 
Q 3481 -459 3084 -895 
Q 2688 -1331 1869 -1331 
Q 1566 -1331 1297 -1286 
Q 1028 -1241 775 -1147 
L 775 -588 
Q 1028 -725 1275 -790 
Q 1522 -856 1778 -856 
Q 2344 -856 2625 -561 
Q 2906 -266 2906 331 
L 2906 616 
Q 2728 306 2450 153 
Q 2172 0 1784 0 
Q 1141 0 747 490 
Q 353 981 353 1791 
Q 353 2603 747 3093 
Q 1141 3584 1784 3584 
Q 2172 3584 2450 3431 
Q 2728 3278 2906 2969 
L 2906 3500 
L 3481 3500 
L 3481 434 
z
" transform="scale(0.015625)"/>
       <path id="DejaVuSans-29" d="M 513 4856 
L 1013 4856 
Q 1481 4119 1714 3412 
Q 1947 2706 1947 2009 
Q 1947 1309 1714 600 
Q 1481 -109 1013 -844 
L 513 -844 
Q 928 -128 1133 580 
Q 1338 1288 1338 2009 
Q 1338 2731 1133 3434 
Q 928 4138 513 4856 
z
" transform="scale(0.015625)"/>
      </defs>
      <use xlink:href="#DejaVuSans-45"/>
      <use xlink:href="#DejaVuSans-72" x="63.183594"/>
      <use xlink:href="#DejaVuSans-72" x="102.546875"/>
      <use xlink:href="#DejaVuSans-6f" x="141.410156"/>
      <use xlink:href="#DejaVuSans-72" x="202.591797"/>
      <use xlink:href="#DejaVuSans-20" x="243.705078"/>
      <use xlink:href="#DejaVuSans-28" x="275.492188"/>
      <use xlink:href="#DejaVuSans-6d" x="314.505859"/>
      <use xlink:href="#DejaVuSans-6d" x="411.917969"/>
      <use xlink:href="#DejaVuSans-48" x="509.330078"/>
      <use xlink:href="#DejaVuSans-67" x="584.525391"/>
      <use xlink:href="#DejaVuSans-29" x="648.001953"/>
     </g>
    </g>
   </g>
   <g id="matplotlib.axis_2">
    <g id="ytick_1">
     <g id="line2d_63">
      <path d="M 108 512.64 
L 777.6 512.64 
" clip-path="url(#p08116956dd)" style="fill: none; stroke-dasharray: 9.6,2.4,1.5,2.4; stroke-dashoffset: 0; stroke: #808080; stroke-opacity: 0.6; stroke-width: 1.5"/>
     </g>
     <g id="line2d_64">
      <defs>
       <path id="mf862b1555c" d="M 0 0 
L -3.5 0 
" style="stroke: #000000; stroke-width: 0.8"/>
      </defs>
      <g>
       <use xlink:href="#mf862b1555c" x="108" y="512.64" style="stroke: #000000; stroke-width: 0.8"/>
      </g>
     </g>
     <g id="text_8">
      <!-- 0.0 -->
      <g transform="translate(85.096875 516.439219) scale(0.1 -0.1)">
       <defs>
        <path id="DejaVuSans-2e" d="M 684 794 
L 1344 794 
L 1344 0 
L 684 0 
L 684 794 
z
" transform="scale(0.015625)"/>
       </defs>
       <use xlink:href="#DejaVuSans-30"/>
       <use xlink:href="#DejaVuSans-2e" x="63.623047"/>
       <use xlink:href="#DejaVuSans-30" x="95.410156"/>
      </g>
     </g>
    </g>
    <g id="ytick_2">
     <g id="line2d_65">
      <path d="M 108 428.16 
L 777.6 428.16 
" clip-path="url(#p08116956dd)" style="fill: none; stroke-dasharray: 9.6,2.4,1.5,2.4; stroke-dashoffset: 0; stroke: #808080; stroke-opacity: 0.6; stroke-width: 1.5"/>
     </g>
     <g id="line2d_66">
      <g>
       <use xlink:href="#mf862b1555c" x="108" y="428.16" style="stroke: #000000; stroke-width: 0.8"/>
      </g>
     </g>
     <g id="text_9">
      <!-- 0.2 -->
      <g transform="translate(85.096875 431.959219) scale(0.1 -0.1)">
       <use xlink:href="#DejaVuSans-30"/>
       <use xlink:href="#DejaVuSans-2e" x="63.623047"/>
       <use xlink:href="#DejaVuSans-32" x="95.410156"/>
      </g>
     </g>
    </g>
    <g id="ytick_3">
     <g id="line2d_67">
      <path d="M 108 343.68 
L 777.6 343.68 
" clip-path="url(#p08116956dd)" style="fill: none; stroke-dasharray: 9.6,2.4,1.5,2.4; stroke-dashoffset: 0; stroke: #808080; stroke-opacity: 0.6; stroke-width: 1.5"/>
     </g>
     <g id="line2d_68">
      <g>
       <use xlink:href="#mf862b1555c" x="108" y="343.68" style="stroke: #000000; stroke-width: 0.8"/>
      </g>
     </g>
     <g id="text_10">
      <!-- 0.4 -->
      <g transform="translate(85.096875 347.479219) scale(0.1 -0.1)">
       <use xlink:href="#DejaVuSans-30"/>
       <use xlink:href="#DejaVuSans-2e" x="63.623047"/>
       <use xlink:href="#DejaVuSans-34" x="95.410156"/>
      </g>
     </g>
    </g>
    <g id="ytick_4">
     <g id="line2d_69">
      <path d="M 108 259.2 
L 777.6 259.2 
" clip-path="url(#p08116956dd)" style="fill: none; stroke-dasharray: 9.6,2.4,1.5,2.4; stroke-dashoffset: 0; stroke: #808080; stroke-opacity: 0.6; stroke-width: 1.5"/>
     </g>
     <g id="line2d_70">
      <g>
       <use xlink:href="#mf862b1555c" x="108" y="259.2" style="stroke: #000000; stroke-width: 0.8"/>
      </g>
     </g>
     <g id="text_11">
      <!-- 0.6 -->
      <g transform="translate(85.096875 262.999219) scale(0.1 -0.1)">
       <defs>
        <path id="DejaVuSans-36" d="M 2113 2584 
Q 1688 2584 1439 2293 
Q 1191 2003 1191 1497 
Q 1191 994 1439 701 
Q 1688 409 2113 409 
Q 2538 409 2786 701 
Q 3034 994 3034 1497 
Q 3034 2003 2786 2293 
Q 2538 2584 2113 2584 
z
M 3366 4563 
L 3366 3988 
Q 3128 4100 2886 4159 
Q 2644 4219 2406 4219 
Q 1781 4219 1451 3797 
Q 1122 3375 1075 2522 
Q 1259 2794 1537 2939 
Q 1816 3084 2150 3084 
Q 2853 3084 3261 2657 
Q 3669 2231 3669 1497 
Q 3669 778 3244 343 
Q 2819 -91 2113 -91 
Q 1303 -91 875 529 
Q 447 1150 447 2328 
Q 447 3434 972 4092 
Q 1497 4750 2381 4750 
Q 2619 4750 2861 4703 
Q 3103 4656 3366 4563 
z
" transform="scale(0.015625)"/>
       </defs>
       <use xlink:href="#DejaVuSans-30"/>
       <use xlink:href="#DejaVuSans-2e" x="63.623047"/>
       <use xlink:href="#DejaVuSans-36" x="95.410156"/>
      </g>
     </g>
    </g>
    <g id="ytick_5">
     <g id="line2d_71">
      <path d="M 108 174.72 
L 777.6 174.72 
" clip-path="url(#p08116956dd)" style="fill: none; stroke-dasharray: 9.6,2.4,1.5,2.4; stroke-dashoffset: 0; stroke: #808080; stroke-opacity: 0.6; stroke-width: 1.5"/>
     </g>
     <g id="line2d_72">
      <g>
       <use xlink:href="#mf862b1555c" x="108" y="174.72" style="stroke: #000000; stroke-width: 0.8"/>
      </g>
     </g>
     <g id="text_12">
      <!-- 0.8 -->
      <g transform="translate(85.096875 178.519219) scale(0.1 -0.1)">
       <defs>
        <path id="DejaVuSans-38" d="M 2034 2216 
Q 1584 2216 1326 1975 
Q 1069 1734 1069 1313 
Q 1069 891 1326 650 
Q 1584 409 2034 409 
Q 2484 409 2743 651 
Q 3003 894 3003 1313 
Q 3003 1734 2745 1975 
Q 2488 2216 2034 2216 
z
M 1403 2484 
Q 997 2584 770 2862 
Q 544 3141 544 3541 
Q 544 4100 942 4425 
Q 1341 4750 2034 4750 
Q 2731 4750 3128 4425 
Q 3525 4100 3525 3541 
Q 3525 3141 3298 2862 
Q 3072 2584 2669 2484 
Q 3125 2378 3379 2068 
Q 3634 1759 3634 1313 
Q 3634 634 3220 271 
Q 2806 -91 2034 -91 
Q 1263 -91 848 271 
Q 434 634 434 1313 
Q 434 1759 690 2068 
Q 947 2378 1403 2484 
z
M 1172 3481 
Q 1172 3119 1398 2916 
Q 1625 2713 2034 2713 
Q 2441 2713 2670 2916 
Q 2900 3119 2900 3481 
Q 2900 3844 2670 4047 
Q 2441 4250 2034 4250 
Q 1625 4250 1398 4047 
Q 1172 3844 1172 3481 
z
" transform="scale(0.015625)"/>
       </defs>
       <use xlink:href="#DejaVuSans-30"/>
       <use xlink:href="#DejaVuSans-2e" x="63.623047"/>
       <use xlink:href="#DejaVuSans-38" x="95.410156"/>
      </g>
     </g>
    </g>
    <g id="ytick_6">
     <g id="line2d_73">
      <path d="M 108 90.24 
L 777.6 90.24 
" clip-path="url(#p08116956dd)" style="fill: none; stroke-dasharray: 9.6,2.4,1.5,2.4; stroke-dashoffset: 0; stroke: #808080; stroke-opacity: 0.6; stroke-width: 1.5"/>
     </g>
     <g id="line2d_74">
      <g>
       <use xlink:href="#mf862b1555c" x="108" y="90.24" style="stroke: #000000; stroke-width: 0.8"/>
      </g>
     </g>
     <g id="text_13">
      <!-- 1.0 -->
      <g transform="translate(85.096875 94.039219) scale(0.1 -0.1)">
       <use xlink:href="#DejaVuSans-31"/>
       <use xlink:href="#DejaVuSans-2e" x="63.623047"/>
       <use xlink:href="#DejaVuSans-30" x="95.410156"/>
      </g>
     </g>
    </g>
    <g id="ytick_7">
     <g id="line2d_75">
      <path d="M 108 491.52 
L 777.6 491.52 
" clip-path="url(#p08116956dd)" style="fill: none; stroke: #f5f5dc; stroke-opacity: 0.8; stroke-linecap: square"/>
     </g>
     <g id="line2d_76">
      <defs>
       <path id="md3a80bda29" d="M 0 0 
L -2 0 
" style="stroke: #000000; stroke-width: 0.6"/>
      </defs>
      <g>
       <use xlink:href="#md3a80bda29" x="108" y="491.52" style="stroke: #000000; stroke-width: 0.6"/>
      </g>
     </g>
    </g>
    <g id="ytick_8">
     <g id="line2d_77">
      <path d="M 108 470.4 
L 777.6 470.4 
" clip-path="url(#p08116956dd)" style="fill: none; stroke: #f5f5dc; stroke-opacity: 0.8; stroke-linecap: square"/>
     </g>
     <g id="line2d_78">
      <g>
       <use xlink:href="#md3a80bda29" x="108" y="470.4" style="stroke: #000000; stroke-width: 0.6"/>
      </g>
     </g>
    </g>
    <g id="ytick_9">
     <g id="line2d_79">
      <path d="M 108 449.28 
L 777.6 449.28 
" clip-path="url(#p08116956dd)" style="fill: none; stroke: #f5f5dc; stroke-opacity: 0.8; stroke-linecap: square"/>
     </g>
     <g id="line2d_80">
      <g>
       <use xlink:href="#md3a80bda29" x="108" y="449.28" style="stroke: #000000; stroke-width: 0.6"/>
      </g>
     </g>
    </g>
    <g id="ytick_10">
     <g id="line2d_81">
      <path d="M 108 407.04 
L 777.6 407.04 
" clip-path="url(#p08116956dd)" style="fill: none; stroke: #f5f5dc; stroke-opacity: 0.8; stroke-linecap: square"/>
     </g>
     <g id="line2d_82">
      <g>
       <use xlink:href="#md3a80bda29" x="108" y="407.04" style="stroke: #000000; stroke-width: 0.6"/>
      </g>
     </g>
    </g>
    <g id="ytick_11">
     <g id="line2d_83">
      <path d="M 108 385.92 
L 777.6 385.92 
" clip-path="url(#p08116956dd)" style="fill: none; stroke: #f5f5dc; stroke-opacity: 0.8; stroke-linecap: square"/>
     </g>
     <g id="line2d_84">
      <g>
       <use xlink:href="#md3a80bda29" x="108" y="385.92" style="stroke: #000000; stroke-width: 0.6"/>
      </g>
     </g>
    </g>
    <g id="ytick_12">
     <g id="line2d_85">
      <path d="M 108 364.8 
L 777.6 364.8 
" clip-path="url(#p08116956dd)" style="fill: none; stroke: #f5f5dc; stroke-opacity: 0.8; stroke-linecap: square"/>
     </g>
     <g id="line2d_86">
      <g>
       <use xlink:href="#md3a80bda29" x="108" y="364.8" style="stroke: #000000; stroke-width: 0.6"/>
      </g>
     </g>
    </g>
    <g id="ytick_13">
     <g id="line2d_87">
      <path d="M 108 322.56 
L 777.6 322.56 
" clip-path="url(#p08116956dd)" style="fill: none; stroke: #f5f5dc; stroke-opacity: 0.8; stroke-linecap: square"/>
     </g>
     <g id="line2d_88">
      <g>
       <use xlink:href="#md3a80bda29" x="108" y="322.56" style="stroke: #000000; stroke-width: 0.6"/>
      </g>
     </g>
    </g>
    <g id="ytick_14">
     <g id="line2d_89">
      <path d="M 108 301.44 
L 777.6 301.44 
" clip-path="url(#p08116956dd)" style="fill: none; stroke: #f5f5dc; stroke-opacity: 0.8; stroke-linecap: square"/>
     </g>
     <g id="line2d_90">
      <g>
       <use xlink:href="#md3a80bda29" x="108" y="301.44" style="stroke: #000000; stroke-width: 0.6"/>
      </g>
     </g>
    </g>
    <g id="ytick_15">
     <g id="line2d_91">
      <path d="M 108 280.32 
L 777.6 280.32 
" clip-path="url(#p08116956dd)" style="fill: none; stroke: #f5f5dc; stroke-opacity: 0.8; stroke-linecap: square"/>
     </g>
     <g id="line2d_92">
      <g>
       <use xlink:href="#md3a80bda29" x="108" y="280.32" style="stroke: #000000; stroke-width: 0.6"/>
      </g>
     </g>
    </g>
    <g id="ytick_16">
     <g id="line2d_93">
      <path d="M 108 238.08 
L 777.6 238.08 
" clip-path="url(#p08116956dd)" style="fill: none; stroke: #f5f5dc; stroke-opacity: 0.8; stroke-linecap: square"/>
     </g>
     <g id="line2d_94">
      <g>
       <use xlink:href="#md3a80bda29" x="108" y="238.08" style="stroke: #000000; stroke-width: 0.6"/>
      </g>
     </g>
    </g>
    <g id="ytick_17">
     <g id="line2d_95">
      <path d="M 108 216.96 
L 777.6 216.96 
" clip-path="url(#p08116956dd)" style="fill: none; stroke: #f5f5dc; stroke-opacity: 0.8; stroke-linecap: square"/>
     </g>
     <g id="line2d_96">
      <g>
       <use xlink:href="#md3a80bda29" x="108" y="216.96" style="stroke: #000000; stroke-width: 0.6"/>
      </g>
     </g>
    </g>
    <g id="ytick_18">
     <g id="line2d_97">
      <path d="M 108 195.84 
L 777.6 195.84 
" clip-path="url(#p08116956dd)" style="fill: none; stroke: #f5f5dc; stroke-opacity: 0.8; stroke-linecap: square"/>
     </g>
     <g id="line2d_98">
      <g>
       <use xlink:href="#md3a80bda29" x="108" y="195.84" style="stroke: #000000; stroke-width: 0.6"/>
      </g>
     </g>
    </g>
    <g id="ytick_19">
     <g id="line2d_99">
      <path d="M 108 153.6 
L 777.6 153.6 
" clip-path="url(#p08116956dd)" style="fill: none; stroke: #f5f5dc; stroke-opacity: 0.8; stroke-linecap: square"/>
     </g>
     <g id="line2d_100">
      <g>
       <use xlink:href="#md3a80bda29" x="108" y="153.6" style="stroke: #000000; stroke-width: 0.6"/>
      </g>
     </g>
    </g>
    <g id="ytick_20">
     <g id="line2d_101">
      <path d="M 108 132.48 
L 777.6 132.48 
" clip-path="url(#p08116956dd)" style="fill: none; stroke: #f5f5dc; stroke-opacity: 0.8; stroke-linecap: square"/>
     </g>
     <g id="line2d_102">
      <g>
       <use xlink:href="#md3a80bda29" x="108" y="132.48" style="stroke: #000000; stroke-width: 0.6"/>
      </g>
     </g>
    </g>
    <g id="ytick_21">
     <g id="line2d_103">
      <path d="M 108 111.36 
L 777.6 111.36 
" clip-path="url(#p08116956dd)" style="fill: none; stroke: #f5f5dc; stroke-opacity: 0.8; stroke-linecap: square"/>
     </g>
     <g id="line2d_104">
      <g>
       <use xlink:href="#md3a80bda29" x="108" y="111.36" style="stroke: #000000; stroke-width: 0.6"/>
      </g>
     </g>
    </g>
    <g id="ytick_22">
     <g id="line2d_105">
      <path d="M 108 69.12 
L 777.6 69.12 
" clip-path="url(#p08116956dd)" style="fill: none; stroke: #f5f5dc; stroke-opacity: 0.8; stroke-linecap: square"/>
     </g>
     <g id="line2d_106">
      <g>
       <use xlink:href="#md3a80bda29" x="108" y="69.12" style="stroke: #000000; stroke-width: 0.6"/>
      </g>
     </g>
    </g>
    <g id="text_14">
     <!-- Imperical CDF -->
     <g transform="translate(79.017187 325.929219) rotate(-90) scale(0.1 -0.1)">
      <defs>
       <path id="DejaVuSans-49" d="M 628 4666 
L 1259 4666 
L 1259 0 
L 628 0 
L 628 4666 
z
" transform="scale(0.015625)"/>
       <path id="DejaVuSans-70" d="M 1159 525 
L 1159 -1331 
L 581 -1331 
L 581 3500 
L 1159 3500 
L 1159 2969 
Q 1341 3281 1617 3432 
Q 1894 3584 2278 3584 
Q 2916 3584 3314 3078 
Q 3713 2572 3713 1747 
Q 3713 922 3314 415 
Q 2916 -91 2278 -91 
Q 1894 -91 1617 61 
Q 1341 213 1159 525 
z
M 3116 1747 
Q 3116 2381 2855 2742 
Q 2594 3103 2138 3103 
Q 1681 3103 1420 2742 
Q 1159 2381 1159 1747 
Q 1159 1113 1420 752 
Q 1681 391 2138 391 
Q 2594 391 2855 752 
Q 3116 1113 3116 1747 
z
" transform="scale(0.015625)"/>
       <path id="DejaVuSans-65" d="M 3597 1894 
L 3597 1613 
L 953 1613 
Q 991 1019 1311 708 
Q 1631 397 2203 397 
Q 2534 397 2845 478 
Q 3156 559 3463 722 
L 3463 178 
Q 3153 47 2828 -22 
Q 2503 -91 2169 -91 
Q 1331 -91 842 396 
Q 353 884 353 1716 
Q 353 2575 817 3079 
Q 1281 3584 2069 3584 
Q 2775 3584 3186 3129 
Q 3597 2675 3597 1894 
z
M 3022 2063 
Q 3016 2534 2758 2815 
Q 2500 3097 2075 3097 
Q 1594 3097 1305 2825 
Q 1016 2553 972 2059 
L 3022 2063 
z
" transform="scale(0.015625)"/>
       <path id="DejaVuSans-69" d="M 603 3500 
L 1178 3500 
L 1178 0 
L 603 0 
L 603 3500 
z
M 603 4863 
L 1178 4863 
L 1178 4134 
L 603 4134 
L 603 4863 
z
" transform="scale(0.015625)"/>
       <path id="DejaVuSans-63" d="M 3122 3366 
L 3122 2828 
Q 2878 2963 2633 3030 
Q 2388 3097 2138 3097 
Q 1578 3097 1268 2742 
Q 959 2388 959 1747 
Q 959 1106 1268 751 
Q 1578 397 2138 397 
Q 2388 397 2633 464 
Q 2878 531 3122 666 
L 3122 134 
Q 2881 22 2623 -34 
Q 2366 -91 2075 -91 
Q 1284 -91 818 406 
Q 353 903 353 1747 
Q 353 2603 823 3093 
Q 1294 3584 2113 3584 
Q 2378 3584 2631 3529 
Q 2884 3475 3122 3366 
z
" transform="scale(0.015625)"/>
       <path id="DejaVuSans-61" d="M 2194 1759 
Q 1497 1759 1228 1600 
Q 959 1441 959 1056 
Q 959 750 1161 570 
Q 1363 391 1709 391 
Q 2188 391 2477 730 
Q 2766 1069 2766 1631 
L 2766 1759 
L 2194 1759 
z
M 3341 1997 
L 3341 0 
L 2766 0 
L 2766 531 
Q 2569 213 2275 61 
Q 1981 -91 1556 -91 
Q 1019 -91 701 211 
Q 384 513 384 1019 
Q 384 1609 779 1909 
Q 1175 2209 1959 2209 
L 2766 2209 
L 2766 2266 
Q 2766 2663 2505 2880 
Q 2244 3097 1772 3097 
Q 1472 3097 1187 3025 
Q 903 2953 641 2809 
L 641 3341 
Q 956 3463 1253 3523 
Q 1550 3584 1831 3584 
Q 2591 3584 2966 3190 
Q 3341 2797 3341 1997 
z
" transform="scale(0.015625)"/>
       <path id="DejaVuSans-6c" d="M 603 4863 
L 1178 4863 
L 1178 0 
L 603 0 
L 603 4863 
z
" transform="scale(0.015625)"/>
       <path id="DejaVuSans-43" d="M 4122 4306 
L 4122 3641 
Q 3803 3938 3442 4084 
Q 3081 4231 2675 4231 
Q 1875 4231 1450 3742 
Q 1025 3253 1025 2328 
Q 1025 1406 1450 917 
Q 1875 428 2675 428 
Q 3081 428 3442 575 
Q 3803 722 4122 1019 
L 4122 359 
Q 3791 134 3420 21 
Q 3050 -91 2638 -91 
Q 1578 -91 968 557 
Q 359 1206 359 2328 
Q 359 3453 968 4101 
Q 1578 4750 2638 4750 
Q 3056 4750 3426 4639 
Q 3797 4528 4122 4306 
z
" transform="scale(0.015625)"/>
       <path id="DejaVuSans-44" d="M 1259 4147 
L 1259 519 
L 2022 519 
Q 2988 519 3436 956 
Q 3884 1394 3884 2338 
Q 3884 3275 3436 3711 
Q 2988 4147 2022 4147 
L 1259 4147 
z
M 628 4666 
L 1925 4666 
Q 3281 4666 3915 4102 
Q 4550 3538 4550 2338 
Q 4550 1131 3912 565 
Q 3275 0 1925 0 
L 628 0 
L 628 4666 
z
" transform="scale(0.015625)"/>
       <path id="DejaVuSans-46" d="M 628 4666 
L 3309 4666 
L 3309 4134 
L 1259 4134 
L 1259 2759 
L 3109 2759 
L 3109 2228 
L 1259 2228 
L 1259 0 
L 628 0 
L 628 4666 
z
" transform="scale(0.015625)"/>
      </defs>
      <use xlink:href="#DejaVuSans-49"/>
      <use xlink:href="#DejaVuSans-6d" x="29.492188"/>
      <use xlink:href="#DejaVuSans-70" x="126.904297"/>
      <use xlink:href="#DejaVuSans-65" x="190.380859"/>
      <use xlink:href="#DejaVuSans-72" x="251.904297"/>
      <use xlink:href="#DejaVuSans-69" x="293.017578"/>
      <use xlink:href="#DejaVuSans-63" x="320.800781"/>
      <use xlink:href="#DejaVuSans-61" x="375.78125"/>
      <use xlink:href="#DejaVuSans-6c" x="437.060547"/>
      <use xlink:href="#DejaVuSans-20" x="464.84375"/>
      <use xlink:href="#DejaVuSans-43" x="496.630859"/>
      <use xlink:href="#DejaVuSans-44" x="566.455078"/>
      <use xlink:href="#DejaVuSans-46" x="643.457031"/>
     </g>
    </g>
   </g>
   <g id="patch_3">
    <path d="M 138.436364 512.64 
L 138.436364 510.225366 
L 139.653818 510.225366 
L 139.653818 507.810732 
L 140.871273 507.810732 
L 140.871273 505.275366 
L 142.088727 505.275366 
L 142.088727 502.096098 
L 143.306182 502.096098 
L 143.306182 499.23878 
L 144.523636 499.23878 
L 144.523636 496.703415 
L 145.741091 496.703415 
L 145.741091 493.725366 
L 146.958545 493.725366 
L 146.958545 490.747317 
L 148.176 490.747317 
L 148.176 488.010732 
L 149.393455 488.010732 
L 149.393455 485.274146 
L 150.610909 485.274146 
L 150.610909 482.819268 
L 151.828364 482.819268 
L 151.828364 479.881463 
L 153.045818 479.881463 
L 153.045818 476.943659 
L 154.263273 476.943659 
L 154.263273 473.844878 
L 155.480727 473.844878 
L 155.480727 470.504634 
L 156.698182 470.504634 
L 156.698182 468.130244 
L 157.915636 468.130244 
L 157.915636 465.433902 
L 159.133091 465.433902 
L 159.133091 462.616829 
L 160.350545 462.616829 
L 160.350545 459.920488 
L 161.568 459.920488 
L 161.568 457.143659 
L 162.785455 457.143659 
L 162.785455 453.521707 
L 164.002909 453.521707 
L 164.002909 450.986341 
L 165.220364 450.986341 
L 165.220364 448.410732 
L 166.437818 448.410732 
L 166.437818 445.754634 
L 167.655273 445.754634 
L 167.655273 443.34 
L 168.872727 443.34 
L 168.872727 439.83878 
L 170.090182 439.83878 
L 170.090182 437.142439 
L 171.307636 437.142439 
L 171.307636 434.36561 
L 172.525091 434.36561 
L 172.525091 431.508293 
L 173.742545 431.508293 
L 173.742545 429.013171 
L 174.96 429.013171 
L 174.96 426.276585 
L 176.177455 426.276585 
L 176.177455 423.298537 
L 177.394909 423.298537 
L 177.394909 420.763171 
L 178.612364 420.763171 
L 178.612364 417.583902 
L 179.829818 417.583902 
L 179.829818 414.887561 
L 181.047273 414.887561 
L 181.047273 411.507073 
L 182.264727 411.507073 
L 182.264727 408.971707 
L 183.482182 408.971707 
L 183.482182 406.11439 
L 184.699636 406.11439 
L 184.699636 403.337561 
L 185.917091 403.337561 
L 185.917091 400.480244 
L 187.134545 400.480244 
L 187.134545 397.622927 
L 188.352 397.622927 
L 188.352 394.161951 
L 189.569455 394.161951 
L 189.569455 391.908293 
L 190.786909 391.908293 
L 190.786909 389.131463 
L 192.004364 389.131463 
L 192.004364 386.435122 
L 193.221818 386.435122 
L 193.221818 383.416829 
L 194.439273 383.416829 
L 194.439273 380.197317 
L 195.656727 380.197317 
L 195.656727 376.937561 
L 196.874182 376.937561 
L 196.874182 374.442439 
L 198.091636 374.442439 
L 198.091636 372.108293 
L 199.309091 372.108293 
L 199.309091 369.613171 
L 200.526545 369.613171 
L 200.526545 366.554634 
L 201.744 366.554634 
L 201.744 363.898537 
L 202.961455 363.898537 
L 202.961455 360.598537 
L 204.178909 360.598537 
L 204.178909 357.660732 
L 205.396364 357.660732 
L 205.396364 354.843659 
L 206.613818 354.843659 
L 206.613818 351.422927 
L 207.831273 351.422927 
L 207.831273 348.927805 
L 209.048727 348.927805 
L 209.048727 346.19122 
L 210.266182 346.19122 
L 210.266182 343.333902 
L 211.483636 343.333902 
L 211.483636 340.677805 
L 212.701091 340.677805 
L 212.701091 337.981463 
L 213.918545 337.981463 
L 213.918545 335.16439 
L 215.136 335.16439 
L 215.136 332.307073 
L 216.353455 332.307073 
L 216.353455 330.21439 
L 217.570909 330.21439 
L 217.570909 327.437561 
L 218.788364 327.437561 
L 218.788364 324.097317 
L 220.005818 324.097317 
L 220.005818 321.03878 
L 221.223273 321.03878 
L 221.223273 317.859512 
L 222.440727 317.859512 
L 222.440727 315.686341 
L 223.658182 315.686341 
L 223.658182 312.386341 
L 224.875636 312.386341 
L 224.875636 308.683902 
L 226.093091 308.683902 
L 226.093091 305.866829 
L 227.310545 305.866829 
L 227.310545 303.452195 
L 228.528 303.452195 
L 228.528 300.635122 
L 229.745455 300.635122 
L 229.745455 297.657073 
L 230.962909 297.657073 
L 230.962909 295.604634 
L 232.180364 295.604634 
L 232.180364 292.868049 
L 233.397818 292.868049 
L 233.397818 290.654634 
L 234.615273 290.654634 
L 234.615273 287.475366 
L 235.832727 287.475366 
L 235.832727 285.020488 
L 237.050182 285.020488 
L 237.050182 283.008293 
L 238.267636 283.008293 
L 238.267636 280.996098 
L 239.485091 280.996098 
L 239.485091 278.420488 
L 240.702545 278.420488 
L 240.702545 275.724146 
L 241.92 275.724146 
L 241.92 273.711951 
L 243.137455 273.711951 
L 243.137455 271.94122 
L 244.354909 271.94122 
L 244.354909 269.244878 
L 245.572364 269.244878 
L 245.572364 266.749756 
L 246.789818 266.749756 
L 246.789818 264.254634 
L 248.007273 264.254634 
L 248.007273 262.202195 
L 249.224727 262.202195 
L 249.224727 259.747317 
L 250.442182 259.747317 
L 250.442182 256.970488 
L 251.659636 256.970488 
L 251.659636 254.475366 
L 252.877091 254.475366 
L 252.877091 251.94 
L 254.094545 251.94 
L 254.094545 249.847317 
L 255.312 249.847317 
L 255.312 248.116829 
L 256.529455 248.116829 
L 256.529455 245.702195 
L 257.746909 245.702195 
L 257.746909 242.522927 
L 258.964364 242.522927 
L 258.964364 240.752195 
L 260.181818 240.752195 
L 260.181818 238.780244 
L 261.399273 238.780244 
L 261.399273 236.204634 
L 262.616727 236.204634 
L 262.616727 233.870488 
L 263.834182 233.870488 
L 263.834182 231.576585 
L 265.051636 231.576585 
L 265.051636 229.363171 
L 266.269091 229.363171 
L 266.269091 227.310732 
L 267.486545 227.310732 
L 267.486545 224.855854 
L 268.704 224.855854 
L 268.704 222.883902 
L 269.921455 222.883902 
L 269.921455 220.630244 
L 271.138909 220.630244 
L 271.138909 218.779024 
L 272.356364 218.779024 
L 272.356364 216.605854 
L 273.573818 216.605854 
L 273.573818 215.036341 
L 274.791273 215.036341 
L 274.791273 213.225366 
L 276.008727 213.225366 
L 276.008727 210.971707 
L 277.226182 210.971707 
L 277.226182 208.758293 
L 278.443636 208.758293 
L 278.443636 207.027805 
L 279.661091 207.027805 
L 279.661091 204.653415 
L 280.878545 204.653415 
L 280.878545 203.043659 
L 282.096 203.043659 
L 282.096 201.031463 
L 283.313455 201.031463 
L 283.313455 199.260732 
L 284.530909 199.260732 
L 284.530909 197.329024 
L 285.748364 197.329024 
L 285.748364 195.357073 
L 286.965818 195.357073 
L 286.965818 193.425366 
L 288.183273 193.425366 
L 288.183273 191.855854 
L 289.400727 191.855854 
L 289.400727 190.89 
L 290.618182 190.89 
L 290.618182 189.360732 
L 291.835636 189.360732 
L 291.835636 188.032683 
L 293.053091 188.032683 
L 293.053091 185.94 
L 294.270545 185.94 
L 294.270545 183.968049 
L 295.488 183.968049 
L 295.488 182.277805 
L 296.705455 182.277805 
L 296.705455 179.702195 
L 297.922909 179.702195 
L 297.922909 178.213171 
L 299.140364 178.213171 
L 299.140364 176.804634 
L 300.357818 176.804634 
L 300.357818 175.194878 
L 301.575273 175.194878 
L 301.575273 173.504634 
L 302.792727 173.504634 
L 302.792727 171.81439 
L 304.010182 171.81439 
L 304.010182 170.285122 
L 305.227636 170.285122 
L 305.227636 168.796098 
L 306.445091 168.796098 
L 306.445091 166.86439 
L 307.662545 166.86439 
L 307.662545 165.254634 
L 308.88 165.254634 
L 308.88 163.363171 
L 310.097455 163.363171 
L 310.097455 161.954634 
L 311.314909 161.954634 
L 311.314909 160.666829 
L 312.532364 160.666829 
L 312.532364 159.499756 
L 313.749818 159.499756 
L 313.749818 157.769268 
L 314.967273 157.769268 
L 314.967273 156.682683 
L 316.184727 156.682683 
L 316.184727 155.354634 
L 317.402182 155.354634 
L 317.402182 153.744878 
L 318.619636 153.744878 
L 318.619636 152.094878 
L 319.837091 152.094878 
L 319.837091 150.766829 
L 321.054545 150.766829 
L 321.054545 149.237561 
L 322.272 149.237561 
L 322.272 148.231463 
L 323.489455 148.231463 
L 323.489455 147.06439 
L 324.706909 147.06439 
L 324.706909 145.696098 
L 325.924364 145.696098 
L 325.924364 144.448537 
L 327.141818 144.448537 
L 327.141818 143.482683 
L 328.359273 143.482683 
L 328.359273 142.476585 
L 329.576727 142.476585 
L 329.576727 141.510732 
L 330.794182 141.510732 
L 330.794182 140.544878 
L 332.011636 140.544878 
L 332.011636 139.458293 
L 333.229091 139.458293 
L 333.229091 138.452195 
L 334.446545 138.452195 
L 334.446545 137.36561 
L 335.664 137.36561 
L 335.664 136.681463 
L 336.881455 136.681463 
L 336.881455 135.796098 
L 338.098909 135.796098 
L 338.098909 134.99122 
L 339.316364 134.99122 
L 339.316364 134.146098 
L 340.533818 134.146098 
L 340.533818 133.34122 
L 341.751273 133.34122 
L 341.751273 132.41561 
L 342.968727 132.41561 
L 342.968727 131.570488 
L 344.186182 131.570488 
L 344.186182 130.76561 
L 345.403636 130.76561 
L 345.403636 129.920488 
L 346.621091 129.920488 
L 346.621091 129.397317 
L 347.838545 129.397317 
L 347.838545 128.91439 
L 349.056 128.91439 
L 349.056 128.230244 
L 350.273455 128.230244 
L 350.273455 127.505854 
L 351.490909 127.505854 
L 351.490909 126.781463 
L 352.708364 126.781463 
L 352.708364 126.298537 
L 353.925818 126.298537 
L 353.925818 125.453415 
L 355.143273 125.453415 
L 355.143273 124.930244 
L 356.360727 124.930244 
L 356.360727 124.487561 
L 357.578182 124.487561 
L 357.578182 123.682683 
L 358.795636 123.682683 
L 358.795636 123.360732 
L 360.013091 123.360732 
L 360.013091 122.636341 
L 361.230545 122.636341 
L 361.230545 121.992439 
L 362.448 121.992439 
L 362.448 121.469268 
L 363.665455 121.469268 
L 363.665455 120.905854 
L 364.882909 120.905854 
L 364.882909 120.503415 
L 366.100364 120.503415 
L 366.100364 120.261951 
L 367.317818 120.261951 
L 367.317818 119.819268 
L 368.535273 119.819268 
L 368.535273 119.618049 
L 369.752727 119.618049 
L 369.752727 119.135122 
L 370.970182 119.135122 
L 370.970182 118.732683 
L 372.187636 118.732683 
L 372.187636 118.49122 
L 373.405091 118.49122 
L 373.405091 118.169268 
L 374.622545 118.169268 
L 374.622545 117.927805 
L 375.84 117.927805 
L 375.84 117.525366 
L 377.057455 117.525366 
L 377.057455 117.122927 
L 378.274909 117.122927 
L 378.274909 116.599756 
L 379.492364 116.599756 
L 379.492364 116.318049 
L 380.709818 116.318049 
L 380.709818 116.076585 
L 381.927273 116.076585 
L 381.927273 115.91561 
L 383.144727 115.91561 
L 383.144727 115.311951 
L 384.362182 115.311951 
L 384.362182 114.99 
L 385.579636 114.99 
L 385.579636 114.78878 
L 386.797091 114.78878 
L 386.797091 114.386341 
L 388.014545 114.386341 
L 388.014545 113.983902 
L 389.232 113.983902 
L 389.232 113.661951 
L 390.449455 113.661951 
L 390.449455 113.420488 
L 391.666909 113.420488 
L 391.666909 113.219268 
L 392.884364 113.219268 
L 392.884364 112.776585 
L 394.101818 112.776585 
L 394.101818 112.61561 
L 395.319273 112.61561 
L 395.319273 112.293659 
L 396.536727 112.293659 
L 396.536727 112.011951 
L 397.754182 112.011951 
L 397.754182 111.69 
L 398.971636 111.69 
L 398.971636 111.086341 
L 400.189091 111.086341 
L 400.189091 110.844878 
L 401.406545 110.844878 
L 401.406545 110.643659 
L 402.624 110.643659 
L 402.624 110.24122 
L 403.841455 110.24122 
L 403.841455 109.83878 
L 405.058909 109.83878 
L 405.058909 109.396098 
L 406.276364 109.396098 
L 406.276364 109.154634 
L 407.493818 109.154634 
L 407.493818 108.832683 
L 408.711273 108.832683 
L 408.711273 108.550976 
L 409.928727 108.550976 
L 409.928727 108.349756 
L 411.146182 108.349756 
L 411.146182 107.866829 
L 412.363636 107.866829 
L 412.363636 107.66561 
L 413.581091 107.66561 
L 413.581091 107.383902 
L 414.798545 107.383902 
L 414.798545 107.021707 
L 416.016 107.021707 
L 416.016 106.820488 
L 417.233455 106.820488 
L 417.233455 106.53878 
L 418.450909 106.53878 
L 418.450909 106.377805 
L 419.668364 106.377805 
L 419.668364 106.096098 
L 420.885818 106.096098 
L 420.885818 105.653415 
L 422.103273 105.653415 
L 422.103273 105.29122 
L 423.320727 105.29122 
L 423.320727 105.049756 
L 424.538182 105.049756 
L 424.538182 104.647317 
L 425.755636 104.647317 
L 425.755636 104.36561 
L 426.973091 104.36561 
L 426.973091 104.043659 
L 428.190545 104.043659 
L 428.190545 103.681463 
L 429.408 103.681463 
L 429.408 103.44 
L 430.625455 103.44 
L 430.625455 102.997317 
L 431.842909 102.997317 
L 431.842909 102.755854 
L 433.060364 102.755854 
L 433.060364 102.554634 
L 434.277818 102.554634 
L 434.277818 102.232683 
L 435.495273 102.232683 
L 435.495273 102.031463 
L 436.712727 102.031463 
L 436.712727 101.830244 
L 437.930182 101.830244 
L 437.930182 101.709512 
L 439.147636 101.709512 
L 439.147636 101.58878 
L 440.365091 101.58878 
L 440.365091 101.427805 
L 441.582545 101.427805 
L 441.582545 101.226585 
L 442.8 101.226585 
L 442.8 100.86439 
L 444.017455 100.86439 
L 444.017455 100.542439 
L 446.452364 100.461951 
L 446.452364 100.34122 
L 447.669818 100.34122 
L 447.669818 100.019268 
L 448.887273 100.019268 
L 448.887273 99.858293 
L 450.104727 99.858293 
L 450.104727 99.657073 
L 451.322182 99.657073 
L 451.322182 99.496098 
L 452.539636 99.496098 
L 452.539636 99.375366 
L 453.757091 99.375366 
L 453.757091 99.174146 
L 454.974545 99.174146 
L 454.974545 98.972927 
L 456.192 98.972927 
L 456.192 98.811951 
L 458.626909 98.731463 
L 458.626909 98.530244 
L 459.844364 98.530244 
L 459.844364 98.369268 
L 462.279273 98.28878 
L 462.279273 97.966829 
L 464.714182 97.886341 
L 464.714182 97.644878 
L 465.931636 97.644878 
L 465.931636 97.443659 
L 468.366545 97.403415 
L 468.366545 97.242439 
L 469.584 97.242439 
L 469.584 97.04122 
L 470.801455 97.04122 
L 470.801455 96.799756 
L 473.236364 96.719268 
L 473.236364 96.679024 
L 474.453818 96.679024 
L 474.453818 96.558293 
L 475.671273 96.558293 
L 475.671273 96.316829 
L 476.888727 96.316829 
L 476.888727 96.196098 
L 479.323636 96.155854 
L 479.323636 95.994878 
L 481.758545 95.954634 
L 481.758545 95.672927 
L 484.193455 95.592439 
L 484.193455 95.39122 
L 485.410909 95.39122 
L 485.410909 95.270488 
L 487.845818 95.19 
L 487.845818 95.069268 
L 490.280727 95.029024 
L 490.280727 94.948537 
L 491.498182 94.948537 
L 491.498182 94.827805 
L 495.150545 94.747317 
L 495.150545 94.626585 
L 498.802909 94.546098 
L 498.802909 94.505854 
L 501.237818 94.425366 
L 501.237818 94.304634 
L 504.890182 94.224146 
L 504.890182 94.183902 
L 506.107636 94.183902 
L 506.107636 93.982683 
L 507.325091 93.982683 
L 507.325091 93.861951 
L 509.76 93.781463 
L 509.76 93.580244 
L 512.194909 93.580244 
L 512.194909 93.459512 
L 513.412364 93.459512 
L 513.412364 93.258293 
L 517.064727 93.177805 
L 517.064727 93.057073 
L 519.499636 92.976585 
L 519.499636 92.855854 
L 521.934545 92.775366 
L 521.934545 92.694878 
L 526.804364 92.61439 
L 526.804364 92.493659 
L 529.239273 92.493659 
L 529.239273 92.372927 
L 531.674182 92.292439 
L 531.674182 92.171707 
L 532.891636 92.171707 
L 532.891636 92.050976 
L 534.109091 92.050976 
L 534.109091 91.930244 
L 536.544 91.930244 
L 536.544 91.809512 
L 549.936 91.729024 
L 549.936 91.608293 
L 551.153455 91.608293 
L 551.153455 91.487561 
L 554.805818 91.447317 
L 554.805818 91.366829 
L 562.110545 91.286341 
L 562.110545 91.246098 
L 566.980364 91.16561 
L 566.980364 91.125366 
L 573.067636 91.044878 
L 573.067636 91.004634 
L 582.807273 90.924146 
L 582.807273 90.883902 
L 597.416727 90.803415 
L 597.416727 90.763171 
L 631.505455 90.682683 
L 631.505455 90.642439 
L 637.592727 90.561951 
L 637.592727 90.521707 
L 668.029091 90.44122 
L 668.029091 90.400976 
L 703.335273 90.320488 
L 703.335273 90.280244 
L 747.163636 90.24 
L 747.163636 512.64 
L 747.163636 512.64 
" clip-path="url(#p08116956dd)" style="fill: none; stroke: #1f77b4; stroke-linejoin: miter"/>
   </g>
   <g id="patch_4">
    <path d="M 108 512.64 
L 108 69.12 
" style="fill: none; stroke: #000000; stroke-width: 0.8; stroke-linejoin: miter; stroke-linecap: square"/>
   </g>
   <g id="patch_5">
    <path d="M 777.6 512.64 
L 777.6 69.12 
" style="fill: none; stroke: #000000; stroke-width: 0.8; stroke-linejoin: miter; stroke-linecap: square"/>
   </g>
   <g id="patch_6">
    <path d="M 108 512.64 
L 777.6 512.64 
" style="fill: none; stroke: #000000; stroke-width: 0.8; stroke-linejoin: miter; stroke-linecap: square"/>
   </g>
   <g id="patch_7">
    <path d="M 108 69.12 
L 777.6 69.12 
" style="fill: none; stroke: #000000; stroke-width: 0.8; stroke-linejoin: miter; stroke-linecap: square"/>
   </g>
   <g id="text_15">
    <!-- CDF of MAP Estimation Error Using LR on ESP -->
    <g transform="translate(307.030313 63.12) scale(0.12 -0.12)">
     <defs>
      <path id="DejaVuSans-66" d="M 2375 4863 
L 2375 4384 
L 1825 4384 
Q 1516 4384 1395 4259 
Q 1275 4134 1275 3809 
L 1275 3500 
L 2222 3500 
L 2222 3053 
L 1275 3053 
L 1275 0 
L 697 0 
L 697 3053 
L 147 3053 
L 147 3500 
L 697 3500 
L 697 3744 
Q 697 4328 969 4595 
Q 1241 4863 1831 4863 
L 2375 4863 
z
" transform="scale(0.015625)"/>
      <path id="DejaVuSans-4d" d="M 628 4666 
L 1569 4666 
L 2759 1491 
L 3956 4666 
L 4897 4666 
L 4897 0 
L 4281 0 
L 4281 4097 
L 3078 897 
L 2444 897 
L 1241 4097 
L 1241 0 
L 628 0 
L 628 4666 
z
" transform="scale(0.015625)"/>
      <path id="DejaVuSans-41" d="M 2188 4044 
L 1331 1722 
L 3047 1722 
L 2188 4044 
z
M 1831 4666 
L 2547 4666 
L 4325 0 
L 3669 0 
L 3244 1197 
L 1141 1197 
L 716 0 
L 50 0 
L 1831 4666 
z
" transform="scale(0.015625)"/>
      <path id="DejaVuSans-50" d="M 1259 4147 
L 1259 2394 
L 2053 2394 
Q 2494 2394 2734 2622 
Q 2975 2850 2975 3272 
Q 2975 3691 2734 3919 
Q 2494 4147 2053 4147 
L 1259 4147 
z
M 628 4666 
L 2053 4666 
Q 2838 4666 3239 4311 
Q 3641 3956 3641 3272 
Q 3641 2581 3239 2228 
Q 2838 1875 2053 1875 
L 1259 1875 
L 1259 0 
L 628 0 
L 628 4666 
z
" transform="scale(0.015625)"/>
      <path id="DejaVuSans-73" d="M 2834 3397 
L 2834 2853 
Q 2591 2978 2328 3040 
Q 2066 3103 1784 3103 
Q 1356 3103 1142 2972 
Q 928 2841 928 2578 
Q 928 2378 1081 2264 
Q 1234 2150 1697 2047 
L 1894 2003 
Q 2506 1872 2764 1633 
Q 3022 1394 3022 966 
Q 3022 478 2636 193 
Q 2250 -91 1575 -91 
Q 1294 -91 989 -36 
Q 684 19 347 128 
L 347 722 
Q 666 556 975 473 
Q 1284 391 1588 391 
Q 1994 391 2212 530 
Q 2431 669 2431 922 
Q 2431 1156 2273 1281 
Q 2116 1406 1581 1522 
L 1381 1569 
Q 847 1681 609 1914 
Q 372 2147 372 2553 
Q 372 3047 722 3315 
Q 1072 3584 1716 3584 
Q 2034 3584 2315 3537 
Q 2597 3491 2834 3397 
z
" transform="scale(0.015625)"/>
      <path id="DejaVuSans-74" d="M 1172 4494 
L 1172 3500 
L 2356 3500 
L 2356 3053 
L 1172 3053 
L 1172 1153 
Q 1172 725 1289 603 
Q 1406 481 1766 481 
L 2356 481 
L 2356 0 
L 1766 0 
Q 1100 0 847 248 
Q 594 497 594 1153 
L 594 3053 
L 172 3053 
L 172 3500 
L 594 3500 
L 594 4494 
L 1172 4494 
z
" transform="scale(0.015625)"/>
      <path id="DejaVuSans-6e" d="M 3513 2113 
L 3513 0 
L 2938 0 
L 2938 2094 
Q 2938 2591 2744 2837 
Q 2550 3084 2163 3084 
Q 1697 3084 1428 2787 
Q 1159 2491 1159 1978 
L 1159 0 
L 581 0 
L 581 3500 
L 1159 3500 
L 1159 2956 
Q 1366 3272 1645 3428 
Q 1925 3584 2291 3584 
Q 2894 3584 3203 3211 
Q 3513 2838 3513 2113 
z
" transform="scale(0.015625)"/>
      <path id="DejaVuSans-55" d="M 556 4666 
L 1191 4666 
L 1191 1831 
Q 1191 1081 1462 751 
Q 1734 422 2344 422 
Q 2950 422 3222 751 
Q 3494 1081 3494 1831 
L 3494 4666 
L 4128 4666 
L 4128 1753 
Q 4128 841 3676 375 
Q 3225 -91 2344 -91 
Q 1459 -91 1007 375 
Q 556 841 556 1753 
L 556 4666 
z
" transform="scale(0.015625)"/>
      <path id="DejaVuSans-4c" d="M 628 4666 
L 1259 4666 
L 1259 531 
L 3531 531 
L 3531 0 
L 628 0 
L 628 4666 
z
" transform="scale(0.015625)"/>
      <path id="DejaVuSans-52" d="M 2841 2188 
Q 3044 2119 3236 1894 
Q 3428 1669 3622 1275 
L 4263 0 
L 3584 0 
L 2988 1197 
Q 2756 1666 2539 1819 
Q 2322 1972 1947 1972 
L 1259 1972 
L 1259 0 
L 628 0 
L 628 4666 
L 2053 4666 
Q 2853 4666 3247 4331 
Q 3641 3997 3641 3322 
Q 3641 2881 3436 2590 
Q 3231 2300 2841 2188 
z
M 1259 4147 
L 1259 2491 
L 2053 2491 
Q 2509 2491 2742 2702 
Q 2975 2913 2975 3322 
Q 2975 3731 2742 3939 
Q 2509 4147 2053 4147 
L 1259 4147 
z
" transform="scale(0.015625)"/>
      <path id="DejaVuSans-53" d="M 3425 4513 
L 3425 3897 
Q 3066 4069 2747 4153 
Q 2428 4238 2131 4238 
Q 1616 4238 1336 4038 
Q 1056 3838 1056 3469 
Q 1056 3159 1242 3001 
Q 1428 2844 1947 2747 
L 2328 2669 
Q 3034 2534 3370 2195 
Q 3706 1856 3706 1288 
Q 3706 609 3251 259 
Q 2797 -91 1919 -91 
Q 1588 -91 1214 -16 
Q 841 59 441 206 
L 441 856 
Q 825 641 1194 531 
Q 1563 422 1919 422 
Q 2459 422 2753 634 
Q 3047 847 3047 1241 
Q 3047 1584 2836 1778 
Q 2625 1972 2144 2069 
L 1759 2144 
Q 1053 2284 737 2584 
Q 422 2884 422 3419 
Q 422 4038 858 4394 
Q 1294 4750 2059 4750 
Q 2388 4750 2728 4690 
Q 3069 4631 3425 4513 
z
" transform="scale(0.015625)"/>
     </defs>
     <use xlink:href="#DejaVuSans-43"/>
     <use xlink:href="#DejaVuSans-44" x="69.824219"/>
     <use xlink:href="#DejaVuSans-46" x="146.826172"/>
     <use xlink:href="#DejaVuSans-20" x="204.345703"/>
     <use xlink:href="#DejaVuSans-6f" x="236.132812"/>
     <use xlink:href="#DejaVuSans-66" x="297.314453"/>
     <use xlink:href="#DejaVuSans-20" x="332.519531"/>
     <use xlink:href="#DejaVuSans-4d" x="364.306641"/>
     <use xlink:href="#DejaVuSans-41" x="450.585938"/>
     <use xlink:href="#DejaVuSans-50" x="518.994141"/>
     <use xlink:href="#DejaVuSans-20" x="579.296875"/>
     <use xlink:href="#DejaVuSans-45" x="611.083984"/>
     <use xlink:href="#DejaVuSans-73" x="674.267578"/>
     <use xlink:href="#DejaVuSans-74" x="726.367188"/>
     <use xlink:href="#DejaVuSans-69" x="765.576172"/>
     <use xlink:href="#DejaVuSans-6d" x="793.359375"/>
     <use xlink:href="#DejaVuSans-61" x="890.771484"/>
     <use xlink:href="#DejaVuSans-74" x="952.050781"/>
     <use xlink:href="#DejaVuSans-69" x="991.259766"/>
     <use xlink:href="#DejaVuSans-6f" x="1019.042969"/>
     <use xlink:href="#DejaVuSans-6e" x="1080.224609"/>
     <use xlink:href="#DejaVuSans-20" x="1143.603516"/>
     <use xlink:href="#DejaVuSans-45" x="1175.390625"/>
     <use xlink:href="#DejaVuSans-72" x="1238.574219"/>
     <use xlink:href="#DejaVuSans-72" x="1277.9375"/>
     <use xlink:href="#DejaVuSans-6f" x="1316.800781"/>
     <use xlink:href="#DejaVuSans-72" x="1377.982422"/>
     <use xlink:href="#DejaVuSans-20" x="1419.095703"/>
     <use xlink:href="#DejaVuSans-55" x="1450.882812"/>
     <use xlink:href="#DejaVuSans-73" x="1524.076172"/>
     <use xlink:href="#DejaVuSans-69" x="1576.175781"/>
     <use xlink:href="#DejaVuSans-6e" x="1603.958984"/>
     <use xlink:href="#DejaVuSans-67" x="1667.337891"/>
     <use xlink:href="#DejaVuSans-20" x="1730.814453"/>
     <use xlink:href="#DejaVuSans-4c" x="1762.601562"/>
     <use xlink:href="#DejaVuSans-52" x="1818.314453"/>
     <use xlink:href="#DejaVuSans-20" x="1887.796875"/>
     <use xlink:href="#DejaVuSans-6f" x="1919.583984"/>
     <use xlink:href="#DejaVuSans-6e" x="1980.765625"/>
     <use xlink:href="#DejaVuSans-20" x="2044.144531"/>
     <use xlink:href="#DejaVuSans-45" x="2075.931641"/>
     <use xlink:href="#DejaVuSans-53" x="2139.115234"/>
     <use xlink:href="#DejaVuSans-50" x="2202.591797"/>
    </g>
   </g>
  </g>
 </g>
 <defs>
  <clipPath id="p08116956dd">
   <rect x="108" y="69.12" width="669.6" height="443.52"/>
  </clipPath>
 </defs>
</svg>
