<?xml version="1.0" encoding="utf-8" standalone="no"?>
<!DOCTYPE svg PUBLIC "-//W3C//DTD SVG 1.1//EN"
  "http://www.w3.org/Graphics/SVG/1.1/DTD/svg11.dtd">
<!-- Created with matplotlib (https://matplotlib.org/) -->
<svg height="576pt" version="1.1" viewBox="0 0 864 576" width="864pt" xmlns="http://www.w3.org/2000/svg" xmlns:xlink="http://www.w3.org/1999/xlink">
 <defs>
  <style type="text/css">
*{stroke-linecap:butt;stroke-linejoin:round;}
  </style>
 </defs>
 <g id="figure_1">
  <g id="patch_1">
   <path d="M 0 576 
L 864 576 
L 864 0 
L 0 0 
z
" style="fill:#ffffff;"/>
  </g>
  <g id="axes_1">
   <g id="patch_2">
    <path d="M 108 504 
L 777.6 504 
L 777.6 69.12 
L 108 69.12 
z
" style="fill:#ffffff;"/>
   </g>
   <g id="patch_3">
    <path clip-path="url(#p6bd73d503a)" d="M 138.436364 504 
L 138.436364 501.014414 
L 139.653818 501.014414 
L 139.653818 498.264533 
L 140.871273 498.264533 
L 140.871273 495.78964 
L 142.088727 495.78964 
L 142.088727 493.236178 
L 143.306182 493.236178 
L 143.306182 489.464912 
L 144.523636 489.464912 
L 144.523636 486.597179 
L 145.741091 486.597179 
L 145.741091 483.768729 
L 146.958545 483.768729 
L 146.958545 480.783144 
L 148.176 480.783144 
L 148.176 477.640422 
L 149.393455 477.640422 
L 149.393455 474.851257 
L 150.610909 474.851257 
L 150.610909 472.5335 
L 151.828364 472.5335 
L 151.828364 469.430062 
L 153.045818 469.430062 
L 153.045818 466.405192 
L 154.263273 466.405192 
L 154.263273 463.891015 
L 155.480727 463.891015 
L 155.480727 461.023282 
L 156.698182 461.023282 
L 156.698182 457.841276 
L 157.915636 457.841276 
L 157.915636 455.169962 
L 159.133091 455.169962 
L 159.133091 451.712969 
L 160.350545 451.712969 
L 160.350545 449.080939 
L 161.568 449.080939 
L 161.568 445.781082 
L 162.785455 445.781082 
L 162.785455 443.345472 
L 164.002909 443.345472 
L 164.002909 440.556307 
L 165.220364 440.556307 
L 165.220364 438.23855 
L 166.437818 438.23855 
L 166.437818 435.488668 
L 167.655273 435.488668 
L 167.655273 433.170911 
L 168.872727 433.170911 
L 168.872727 430.774586 
L 170.090182 430.774586 
L 170.090182 428.221124 
L 171.307636 428.221124 
L 171.307636 425.667663 
L 172.525091 425.667663 
L 172.525091 422.917782 
L 173.742545 422.917782 
L 173.742545 420.207184 
L 174.96 420.207184 
L 174.96 417.378735 
L 176.177455 417.378735 
L 176.177455 414.550285 
L 177.394909 414.550285 
L 177.394909 412.271812 
L 178.612364 412.271812 
L 178.612364 409.12909 
L 179.829818 409.12909 
L 179.829818 406.104221 
L 181.047273 406.104221 
L 181.047273 403.236487 
L 182.264727 403.236487 
L 182.264727 400.565174 
L 183.482182 400.565174 
L 183.482182 397.540304 
L 184.699636 397.540304 
L 184.699636 394.986843 
L 185.917091 394.986843 
L 185.917091 392.079825 
L 187.134545 392.079825 
L 187.134545 389.565648 
L 188.352 389.565648 
L 188.352 387.090755 
L 189.569455 387.090755 
L 189.569455 384.772998 
L 190.786909 384.772998 
L 190.786909 382.573093 
L 192.004364 382.573093 
L 192.004364 380.412471 
L 193.221818 380.412471 
L 193.221818 378.291134 
L 194.439273 378.291134 
L 194.439273 375.305549 
L 195.656727 375.305549 
L 195.656727 372.712803 
L 196.874182 372.712803 
L 196.874182 370.120058 
L 198.091636 370.120058 
L 198.091636 368.077289 
L 199.309091 368.077289 
L 199.309091 365.288123 
L 200.526545 365.288123 
L 200.526545 362.81323 
L 201.744 362.81323 
L 201.744 360.259769 
L 202.961455 360.259769 
L 202.961455 357.509887 
L 204.178909 357.509887 
L 204.178909 355.545686 
L 205.396364 355.545686 
L 205.396364 352.481533 
L 206.613818 352.481533 
L 206.613818 349.888787 
L 207.831273 349.888787 
L 207.831273 347.138906 
L 209.048727 347.138906 
L 209.048727 344.585445 
L 210.266182 344.585445 
L 210.266182 341.992699 
L 211.483636 341.992699 
L 211.483636 339.439238 
L 212.701091 339.439238 
L 212.701091 336.885777 
L 213.918545 336.885777 
L 213.918545 334.332315 
L 215.136 334.332315 
L 215.136 332.32883 
L 216.353455 332.32883 
L 216.353455 330.403913 
L 217.570909 330.403913 
L 217.570909 328.243292 
L 218.788364 328.243292 
L 218.788364 326.632647 
L 220.005818 326.632647 
L 220.005818 324.354174 
L 221.223273 324.354174 
L 221.223273 322.272121 
L 222.440727 322.272121 
L 222.440727 319.993648 
L 223.658182 319.993648 
L 223.658182 317.518754 
L 224.875636 317.518754 
L 224.875636 315.554553 
L 226.093091 315.554553 
L 226.093091 313.354648 
L 227.310545 313.354648 
L 227.310545 311.194027 
L 228.528 311.194027 
L 228.528 308.954838 
L 229.745455 308.954838 
L 229.745455 307.187057 
L 230.962909 307.187057 
L 230.962909 304.908584 
L 232.180364 304.908584 
L 232.180364 302.905099 
L 233.397818 302.905099 
L 233.397818 301.215886 
L 234.615273 301.215886 
L 234.615273 299.055265 
L 235.832727 299.055265 
L 235.832727 297.208916 
L 237.050182 297.208916 
L 237.050182 295.244715 
L 238.267636 295.244715 
L 238.267636 293.24123 
L 239.485091 293.24123 
L 239.485091 291.159177 
L 240.702545 291.159177 
L 240.702545 288.684283 
L 241.92 288.684283 
L 241.92 286.445094 
L 243.137455 286.445094 
L 243.137455 284.677313 
L 244.354909 284.677313 
L 244.354909 282.948816 
L 245.572364 282.948816 
L 245.572364 281.22032 
L 246.789818 281.22032 
L 246.789818 279.098982 
L 248.007273 279.098982 
L 248.007273 277.291917 
L 249.224727 277.291917 
L 249.224727 275.759841 
L 250.442182 275.759841 
L 250.442182 274.149196 
L 251.659636 274.149196 
L 251.659636 271.831439 
L 252.877091 271.831439 
L 252.877091 270.220794 
L 254.094545 270.220794 
L 254.094545 268.335161 
L 255.312 268.335161 
L 255.312 266.528096 
L 256.529455 266.528096 
L 256.529455 264.878167 
L 257.746909 264.878167 
L 257.746909 262.835398 
L 258.964364 262.835398 
L 258.964364 261.028333 
L 260.181818 261.028333 
L 260.181818 259.260552 
L 261.399273 259.260552 
L 261.399273 257.374919 
L 262.616727 257.374919 
L 262.616727 255.214298 
L 263.834182 255.214298 
L 263.834182 253.328665 
L 265.051636 253.328665 
L 265.051636 251.600168 
L 266.269091 251.600168 
L 266.269091 249.635967 
L 267.486545 249.635967 
L 267.486545 247.868186 
L 268.704 247.868186 
L 268.704 246.100405 
L 269.921455 246.100405 
L 269.921455 244.175488 
L 271.138909 244.175488 
L 271.138909 242.446991 
L 272.356364 242.446991 
L 272.356364 241.111335 
L 273.573818 241.111335 
L 273.573818 239.618542 
L 274.791273 239.618542 
L 274.791273 238.400737 
L 276.008727 238.400737 
L 276.008727 236.829376 
L 277.226182 236.829376 
L 277.226182 234.983027 
L 278.443636 234.983027 
L 278.443636 232.86169 
L 279.661091 232.86169 
L 279.661091 231.172477 
L 280.878545 231.172477 
L 280.878545 229.404696 
L 282.096 229.404696 
L 282.096 227.440495 
L 283.313455 227.440495 
L 283.313455 226.026271 
L 284.530909 226.026271 
L 284.530909 223.944218 
L 285.748364 223.944218 
L 285.748364 222.529993 
L 286.965818 222.529993 
L 286.965818 220.919348 
L 288.183273 220.919348 
L 288.183273 219.583691 
L 289.400727 219.583691 
L 289.400727 217.698058 
L 290.618182 217.698058 
L 290.618182 216.323118 
L 291.835636 216.323118 
L 291.835636 215.026745 
L 293.053091 215.026745 
L 293.053091 213.61252 
L 294.270545 213.61252 
L 294.270545 212.551852 
L 295.488 212.551852 
L 295.488 211.176911 
L 296.705455 211.176911 
L 296.705455 209.173426 
L 297.922909 209.173426 
L 297.922909 208.152041 
L 299.140364 208.152041 
L 299.140364 206.894953 
L 300.357818 206.894953 
L 300.357818 205.59858 
L 301.575273 205.59858 
L 301.575273 203.948651 
L 302.792727 203.948651 
L 302.792727 202.534426 
L 304.010182 202.534426 
L 304.010182 201.552326 
L 305.227636 201.552326 
L 305.227636 200.255953 
L 306.445091 200.255953 
L 306.445091 198.488172 
L 307.662545 198.488172 
L 307.662545 197.073948 
L 308.88 197.073948 
L 308.88 195.581155 
L 310.097455 195.581155 
L 310.097455 194.402634 
L 311.314909 194.402634 
L 311.314909 192.988409 
L 312.532364 192.988409 
L 312.532364 191.770605 
L 313.749818 191.770605 
L 313.749818 190.906356 
L 314.967273 190.906356 
L 314.967273 189.217143 
L 316.184727 189.217143 
L 316.184727 187.763635 
L 317.402182 187.763635 
L 317.402182 186.506546 
L 318.619636 186.506546 
L 318.619636 185.131605 
L 319.837091 185.131605 
L 319.837091 183.756665 
L 321.054545 183.756665 
L 321.054545 182.853132 
L 322.272 182.853132 
L 322.272 181.713895 
L 323.489455 181.713895 
L 323.489455 180.535375 
L 324.706909 180.535375 
L 324.706909 179.239002 
L 325.924364 179.239002 
L 325.924364 177.981914 
L 327.141818 177.981914 
L 327.141818 176.803393 
L 328.359273 176.803393 
L 328.359273 175.624872 
L 329.576727 175.624872 
L 329.576727 174.367784 
L 330.794182 174.367784 
L 330.794182 173.110695 
L 332.011636 173.110695 
L 332.011636 172.010742 
L 333.229091 172.010742 
L 333.229091 170.950074 
L 334.446545 170.950074 
L 334.446545 169.967973 
L 335.664 169.967973 
L 335.664 169.103725 
L 336.881455 169.103725 
L 336.881455 167.768068 
L 338.098909 167.768068 
L 338.098909 166.550264 
L 339.316364 166.550264 
L 339.316364 165.882435 
L 340.533818 165.882435 
L 340.533818 164.664631 
L 341.751273 164.664631 
L 341.751273 163.643246 
L 342.968727 163.643246 
L 342.968727 162.464725 
L 344.186182 162.464725 
L 344.186182 161.207637 
L 345.403636 161.207637 
L 345.403636 160.26482 
L 346.621091 160.26482 
L 346.621091 159.439856 
L 347.838545 159.439856 
L 347.838545 158.497039 
L 349.056 158.497039 
L 349.056 157.672075 
L 350.273455 157.672075 
L 350.273455 156.572122 
L 351.490909 156.572122 
L 351.490909 155.747158 
L 352.708364 155.747158 
L 352.708364 154.725773 
L 353.925818 154.725773 
L 353.925818 153.822241 
L 355.143273 153.822241 
L 355.143273 152.84014 
L 356.360727 152.84014 
L 356.360727 152.25088 
L 357.578182 152.25088 
L 357.578182 151.700904 
L 358.795636 151.700904 
L 358.795636 150.758087 
L 360.013091 150.758087 
L 360.013091 150.011691 
L 361.230545 150.011691 
L 361.230545 149.265295 
L 362.448 149.265295 
L 362.448 148.361762 
L 363.665455 148.361762 
L 363.665455 147.576082 
L 364.882909 147.576082 
L 364.882909 146.908253 
L 366.100364 146.908253 
L 366.100364 146.161857 
L 367.317818 146.161857 
L 367.317818 145.454745 
L 368.535273 145.454745 
L 368.535273 144.786916 
L 369.752727 144.786916 
L 369.752727 143.765532 
L 370.970182 143.765532 
L 370.970182 142.940567 
L 372.187636 142.940567 
L 372.187636 141.958467 
L 373.405091 141.958467 
L 373.405091 141.01565 
L 374.622545 141.01565 
L 374.622545 140.347822 
L 375.84 140.347822 
L 375.84 139.719278 
L 377.057455 139.719278 
L 377.057455 138.855029 
L 378.274909 138.855029 
L 378.274909 138.265769 
L 379.492364 138.265769 
L 379.492364 137.59794 
L 380.709818 137.59794 
L 380.709818 136.694408 
L 381.927273 136.694408 
L 381.927273 136.065864 
L 383.144727 136.065864 
L 383.144727 135.437319 
L 384.362182 135.437319 
L 384.362182 134.533787 
L 385.579636 134.533787 
L 385.579636 133.944526 
L 386.797091 133.944526 
L 386.797091 133.276698 
L 388.014545 133.276698 
L 388.014545 132.530302 
L 389.232 132.530302 
L 389.232 131.587485 
L 390.449455 131.587485 
L 390.449455 131.076793 
L 391.666909 131.076793 
L 391.666909 130.212545 
L 392.884364 130.212545 
L 392.884364 129.38758 
L 394.101818 129.38758 
L 394.101818 128.837604 
L 395.319273 128.837604 
L 395.319273 128.287628 
L 396.536727 128.287628 
L 396.536727 127.619799 
L 397.754182 127.619799 
L 397.754182 127.109107 
L 398.971636 127.109107 
L 398.971636 126.598415 
L 400.189091 126.598415 
L 400.189091 125.852018 
L 401.406545 125.852018 
L 401.406545 125.341326 
L 402.624 125.341326 
L 402.624 124.712782 
L 403.841455 124.712782 
L 403.841455 124.202089 
L 405.058909 124.202089 
L 405.058909 123.416409 
L 406.276364 123.416409 
L 406.276364 123.062853 
L 407.493818 123.062853 
L 407.493818 122.316456 
L 408.711273 122.316456 
L 408.711273 121.609344 
L 409.928727 121.609344 
L 409.928727 120.862948 
L 411.146182 120.862948 
L 411.146182 120.391539 
L 412.363636 120.391539 
L 412.363636 119.841563 
L 413.581091 119.841563 
L 413.581091 119.252303 
L 414.798545 119.252303 
L 414.798545 118.741611 
L 416.016 118.741611 
L 416.016 118.309486 
L 417.233455 118.309486 
L 417.233455 117.680942 
L 418.450909 117.680942 
L 418.450909 117.288102 
L 419.668364 117.288102 
L 419.668364 116.895262 
L 420.885818 116.895262 
L 420.885818 116.109581 
L 422.103273 116.109581 
L 422.103273 115.756025 
L 423.320727 115.756025 
L 423.320727 115.284617 
L 424.538182 115.284617 
L 424.538182 114.73464 
L 425.755636 114.73464 
L 425.755636 114.184664 
L 426.973091 114.184664 
L 426.973091 113.909676 
L 428.190545 113.909676 
L 428.190545 113.516836 
L 429.408 113.516836 
L 429.408 113.045428 
L 430.625455 113.045428 
L 430.625455 112.809723 
L 431.842909 112.809723 
L 431.842909 112.613303 
L 433.060364 112.613303 
L 433.060364 112.220463 
L 434.277818 112.220463 
L 434.277818 111.591919 
L 435.495273 111.591919 
L 435.495273 111.002659 
L 436.712727 111.002659 
L 436.712727 110.452682 
L 437.930182 110.452682 
L 437.930182 109.902706 
L 439.147636 109.902706 
L 439.147636 109.509866 
L 440.365091 109.509866 
L 440.365091 108.999173 
L 441.582545 108.999173 
L 441.582545 108.567049 
L 442.8 108.567049 
L 442.8 108.056357 
L 444.017455 108.056357 
L 444.017455 107.624233 
L 445.234909 107.624233 
L 445.234909 107.349245 
L 446.452364 107.349245 
L 446.452364 107.192109 
L 447.669818 107.192109 
L 447.669818 106.91712 
L 448.887273 106.91712 
L 448.887273 106.7207 
L 450.104727 106.7207 
L 450.104727 106.367144 
L 451.322182 106.367144 
L 451.322182 105.93502 
L 452.539636 105.93502 
L 452.539636 105.424328 
L 453.757091 105.424328 
L 453.757091 105.227907 
L 454.974545 105.227907 
L 454.974545 105.031487 
L 456.192 105.031487 
L 456.192 104.795783 
L 457.409455 104.795783 
L 457.409455 104.442227 
L 458.626909 104.442227 
L 458.626909 104.127955 
L 459.844364 104.127955 
L 459.844364 103.813683 
L 461.061818 103.813683 
L 461.061818 103.617263 
L 462.279273 103.617263 
L 462.279273 103.499411 
L 463.496727 103.499411 
L 463.496727 103.30299 
L 464.714182 103.30299 
L 464.714182 103.028002 
L 465.931636 103.028002 
L 465.931636 102.792298 
L 467.149091 102.792298 
L 467.149091 102.595878 
L 468.366545 102.595878 
L 468.366545 102.360174 
L 469.584 102.360174 
L 469.584 102.12447 
L 470.801455 102.12447 
L 470.801455 101.849482 
L 472.018909 101.849482 
L 472.018909 101.613778 
L 473.236364 101.613778 
L 473.236364 101.103085 
L 474.453818 101.103085 
L 474.453818 100.945949 
L 475.671273 100.945949 
L 475.671273 100.474541 
L 476.888727 100.474541 
L 476.888727 100.238837 
L 478.106182 100.238837 
L 478.106182 100.120985 
L 479.323636 100.120985 
L 479.323636 99.845997 
L 480.541091 99.845997 
L 480.541091 99.728145 
L 481.758545 99.728145 
L 481.758545 99.374588 
L 482.976 99.374588 
L 482.976 99.060316 
L 484.193455 99.060316 
L 484.193455 98.70676 
L 485.410909 98.70676 
L 485.410909 98.392488 
L 487.845818 98.353204 
L 487.845818 98.1175 
L 489.063273 98.1175 
L 489.063273 97.999648 
L 490.280727 97.999648 
L 490.280727 97.763944 
L 491.498182 97.763944 
L 491.498182 97.567523 
L 492.715636 97.567523 
L 492.715636 97.449671 
L 493.933091 97.449671 
L 493.933091 97.056831 
L 495.150545 97.056831 
L 495.150545 96.860411 
L 497.585455 96.781843 
L 497.585455 96.389003 
L 498.802909 96.389003 
L 498.802909 96.271151 
L 500.020364 96.271151 
L 500.020364 96.114015 
L 501.237818 96.114015 
L 501.237818 95.878311 
L 503.672727 95.799743 
L 503.672727 95.760459 
L 504.890182 95.760459 
L 504.890182 95.642606 
L 507.325091 95.564038 
L 507.325091 95.406902 
L 508.542545 95.406902 
L 508.542545 95.249766 
L 509.76 95.249766 
L 509.76 95.09263 
L 512.194909 95.053346 
L 512.194909 94.856926 
L 513.412364 94.856926 
L 513.412364 94.739074 
L 515.847273 94.660506 
L 515.847273 94.50337 
L 517.064727 94.50337 
L 517.064727 94.385518 
L 519.499636 94.30695 
L 519.499636 94.267666 
L 520.717091 94.267666 
L 520.717091 94.149814 
L 521.934545 94.149814 
L 521.934545 94.031962 
L 524.369455 93.953394 
L 524.369455 93.874826 
L 525.586909 93.874826 
L 525.586909 93.717689 
L 528.021818 93.639121 
L 528.021818 93.599837 
L 529.239273 93.599837 
L 529.239273 93.442701 
L 530.456727 93.442701 
L 530.456727 93.324849 
L 532.891636 93.285565 
L 532.891636 93.089145 
L 534.109091 93.089145 
L 534.109091 92.971293 
L 538.978909 92.892725 
L 538.978909 92.853441 
L 540.196364 92.853441 
L 540.196364 92.735589 
L 542.631273 92.657021 
L 542.631273 92.617737 
L 546.283636 92.539169 
L 546.283636 92.499885 
L 548.718545 92.421317 
L 548.718545 92.382033 
L 551.153455 92.303465 
L 551.153455 92.224897 
L 552.370909 92.224897 
L 552.370909 92.067761 
L 557.240727 92.028477 
L 557.240727 91.949909 
L 560.893091 91.949909 
L 560.893091 91.832056 
L 564.545455 91.753488 
L 564.545455 91.714204 
L 566.980364 91.67492 
L 566.980364 91.517784 
L 573.067636 91.439216 
L 573.067636 91.28208 
L 576.72 91.242796 
L 576.72 91.164228 
L 579.154909 91.08566 
L 579.154909 90.967808 
L 585.242182 90.88924 
L 585.242182 90.849956 
L 591.329455 90.771388 
L 591.329455 90.732104 
L 596.199273 90.653536 
L 596.199273 90.614252 
L 604.721455 90.535684 
L 604.721455 90.4964 
L 608.373818 90.457116 
L 608.373818 90.378548 
L 614.461091 90.29998 
L 614.461091 90.221412 
L 629.070545 90.182128 
L 629.070545 90.10356 
L 649.767273 90.024992 
L 649.767273 89.985708 
L 683.856 89.907139 
L 683.856 89.867855 
L 747.163636 89.828571 
L 747.163636 504 
L 747.163636 504 
" style="fill:none;stroke:#1f77b4;stroke-linejoin:miter;"/>
   </g>
   <g id="matplotlib.axis_1">
    <g id="xtick_1">
     <g id="line2d_1">
      <path clip-path="url(#p6bd73d503a)" d="M 138.423165 504 
L 138.423165 69.12 
" style="fill:none;stroke:#808080;stroke-dasharray:9.6,2.4,1.5,2.4;stroke-dashoffset:0;stroke-opacity:0.6;stroke-width:1.5;"/>
     </g>
     <g id="line2d_2">
      <defs>
       <path d="M 0 0 
L 0 3.5 
" id="md2d22baa54" style="stroke:#000000;stroke-width:0.8;"/>
      </defs>
      <g>
       <use style="stroke:#000000;stroke-width:0.8;" x="138.423165" xlink:href="#md2d22baa54" y="504"/>
      </g>
     </g>
     <g id="text_1">
      <!-- 0 -->
      <defs>
       <path d="M 31.78125 66.40625 
Q 24.171875 66.40625 20.328125 58.90625 
Q 16.5 51.421875 16.5 36.375 
Q 16.5 21.390625 20.328125 13.890625 
Q 24.171875 6.390625 31.78125 6.390625 
Q 39.453125 6.390625 43.28125 13.890625 
Q 47.125 21.390625 47.125 36.375 
Q 47.125 51.421875 43.28125 58.90625 
Q 39.453125 66.40625 31.78125 66.40625 
z
M 31.78125 74.21875 
Q 44.046875 74.21875 50.515625 64.515625 
Q 56.984375 54.828125 56.984375 36.375 
Q 56.984375 17.96875 50.515625 8.265625 
Q 44.046875 -1.421875 31.78125 -1.421875 
Q 19.53125 -1.421875 13.0625 8.265625 
Q 6.59375 17.96875 6.59375 36.375 
Q 6.59375 54.828125 13.0625 64.515625 
Q 19.53125 74.21875 31.78125 74.21875 
z
" id="DejaVuSans-48"/>
      </defs>
      <g transform="translate(135.241915 518.598438)scale(0.1 -0.1)">
       <use xlink:href="#DejaVuSans-48"/>
      </g>
     </g>
    </g>
    <g id="xtick_2">
     <g id="line2d_3">
      <path clip-path="url(#p6bd73d503a)" d="M 220.721761 504 
L 220.721761 69.12 
" style="fill:none;stroke:#808080;stroke-dasharray:9.6,2.4,1.5,2.4;stroke-dashoffset:0;stroke-opacity:0.6;stroke-width:1.5;"/>
     </g>
     <g id="line2d_4">
      <g>
       <use style="stroke:#000000;stroke-width:0.8;" x="220.721761" xlink:href="#md2d22baa54" y="504"/>
      </g>
     </g>
     <g id="text_2">
      <!-- 10 -->
      <defs>
       <path d="M 12.40625 8.296875 
L 28.515625 8.296875 
L 28.515625 63.921875 
L 10.984375 60.40625 
L 10.984375 69.390625 
L 28.421875 72.90625 
L 38.28125 72.90625 
L 38.28125 8.296875 
L 54.390625 8.296875 
L 54.390625 0 
L 12.40625 0 
z
" id="DejaVuSans-49"/>
      </defs>
      <g transform="translate(214.359261 518.598438)scale(0.1 -0.1)">
       <use xlink:href="#DejaVuSans-49"/>
       <use x="63.623047" xlink:href="#DejaVuSans-48"/>
      </g>
     </g>
    </g>
    <g id="xtick_3">
     <g id="line2d_5">
      <path clip-path="url(#p6bd73d503a)" d="M 303.020357 504 
L 303.020357 69.12 
" style="fill:none;stroke:#808080;stroke-dasharray:9.6,2.4,1.5,2.4;stroke-dashoffset:0;stroke-opacity:0.6;stroke-width:1.5;"/>
     </g>
     <g id="line2d_6">
      <g>
       <use style="stroke:#000000;stroke-width:0.8;" x="303.020357" xlink:href="#md2d22baa54" y="504"/>
      </g>
     </g>
     <g id="text_3">
      <!-- 20 -->
      <defs>
       <path d="M 19.1875 8.296875 
L 53.609375 8.296875 
L 53.609375 0 
L 7.328125 0 
L 7.328125 8.296875 
Q 12.9375 14.109375 22.625 23.890625 
Q 32.328125 33.6875 34.8125 36.53125 
Q 39.546875 41.84375 41.421875 45.53125 
Q 43.3125 49.21875 43.3125 52.78125 
Q 43.3125 58.59375 39.234375 62.25 
Q 35.15625 65.921875 28.609375 65.921875 
Q 23.96875 65.921875 18.8125 64.3125 
Q 13.671875 62.703125 7.8125 59.421875 
L 7.8125 69.390625 
Q 13.765625 71.78125 18.9375 73 
Q 24.125 74.21875 28.421875 74.21875 
Q 39.75 74.21875 46.484375 68.546875 
Q 53.21875 62.890625 53.21875 53.421875 
Q 53.21875 48.921875 51.53125 44.890625 
Q 49.859375 40.875 45.40625 35.40625 
Q 44.1875 33.984375 37.640625 27.21875 
Q 31.109375 20.453125 19.1875 8.296875 
z
" id="DejaVuSans-50"/>
      </defs>
      <g transform="translate(296.657857 518.598438)scale(0.1 -0.1)">
       <use xlink:href="#DejaVuSans-50"/>
       <use x="63.623047" xlink:href="#DejaVuSans-48"/>
      </g>
     </g>
    </g>
    <g id="xtick_4">
     <g id="line2d_7">
      <path clip-path="url(#p6bd73d503a)" d="M 385.318954 504 
L 385.318954 69.12 
" style="fill:none;stroke:#808080;stroke-dasharray:9.6,2.4,1.5,2.4;stroke-dashoffset:0;stroke-opacity:0.6;stroke-width:1.5;"/>
     </g>
     <g id="line2d_8">
      <g>
       <use style="stroke:#000000;stroke-width:0.8;" x="385.318954" xlink:href="#md2d22baa54" y="504"/>
      </g>
     </g>
     <g id="text_4">
      <!-- 30 -->
      <defs>
       <path d="M 40.578125 39.3125 
Q 47.65625 37.796875 51.625 33 
Q 55.609375 28.21875 55.609375 21.1875 
Q 55.609375 10.40625 48.1875 4.484375 
Q 40.765625 -1.421875 27.09375 -1.421875 
Q 22.515625 -1.421875 17.65625 -0.515625 
Q 12.796875 0.390625 7.625 2.203125 
L 7.625 11.71875 
Q 11.71875 9.328125 16.59375 8.109375 
Q 21.484375 6.890625 26.8125 6.890625 
Q 36.078125 6.890625 40.9375 10.546875 
Q 45.796875 14.203125 45.796875 21.1875 
Q 45.796875 27.640625 41.28125 31.265625 
Q 36.765625 34.90625 28.71875 34.90625 
L 20.21875 34.90625 
L 20.21875 43.015625 
L 29.109375 43.015625 
Q 36.375 43.015625 40.234375 45.921875 
Q 44.09375 48.828125 44.09375 54.296875 
Q 44.09375 59.90625 40.109375 62.90625 
Q 36.140625 65.921875 28.71875 65.921875 
Q 24.65625 65.921875 20.015625 65.03125 
Q 15.375 64.15625 9.8125 62.3125 
L 9.8125 71.09375 
Q 15.4375 72.65625 20.34375 73.4375 
Q 25.25 74.21875 29.59375 74.21875 
Q 40.828125 74.21875 47.359375 69.109375 
Q 53.90625 64.015625 53.90625 55.328125 
Q 53.90625 49.265625 50.4375 45.09375 
Q 46.96875 40.921875 40.578125 39.3125 
z
" id="DejaVuSans-51"/>
      </defs>
      <g transform="translate(378.956454 518.598438)scale(0.1 -0.1)">
       <use xlink:href="#DejaVuSans-51"/>
       <use x="63.623047" xlink:href="#DejaVuSans-48"/>
      </g>
     </g>
    </g>
    <g id="xtick_5">
     <g id="line2d_9">
      <path clip-path="url(#p6bd73d503a)" d="M 467.61755 504 
L 467.61755 69.12 
" style="fill:none;stroke:#808080;stroke-dasharray:9.6,2.4,1.5,2.4;stroke-dashoffset:0;stroke-opacity:0.6;stroke-width:1.5;"/>
     </g>
     <g id="line2d_10">
      <g>
       <use style="stroke:#000000;stroke-width:0.8;" x="467.61755" xlink:href="#md2d22baa54" y="504"/>
      </g>
     </g>
     <g id="text_5">
      <!-- 40 -->
      <defs>
       <path d="M 37.796875 64.3125 
L 12.890625 25.390625 
L 37.796875 25.390625 
z
M 35.203125 72.90625 
L 47.609375 72.90625 
L 47.609375 25.390625 
L 58.015625 25.390625 
L 58.015625 17.1875 
L 47.609375 17.1875 
L 47.609375 0 
L 37.796875 0 
L 37.796875 17.1875 
L 4.890625 17.1875 
L 4.890625 26.703125 
z
" id="DejaVuSans-52"/>
      </defs>
      <g transform="translate(461.25505 518.598438)scale(0.1 -0.1)">
       <use xlink:href="#DejaVuSans-52"/>
       <use x="63.623047" xlink:href="#DejaVuSans-48"/>
      </g>
     </g>
    </g>
    <g id="xtick_6">
     <g id="line2d_11">
      <path clip-path="url(#p6bd73d503a)" d="M 549.916147 504 
L 549.916147 69.12 
" style="fill:none;stroke:#808080;stroke-dasharray:9.6,2.4,1.5,2.4;stroke-dashoffset:0;stroke-opacity:0.6;stroke-width:1.5;"/>
     </g>
     <g id="line2d_12">
      <g>
       <use style="stroke:#000000;stroke-width:0.8;" x="549.916147" xlink:href="#md2d22baa54" y="504"/>
      </g>
     </g>
     <g id="text_6">
      <!-- 50 -->
      <defs>
       <path d="M 10.796875 72.90625 
L 49.515625 72.90625 
L 49.515625 64.59375 
L 19.828125 64.59375 
L 19.828125 46.734375 
Q 21.96875 47.46875 24.109375 47.828125 
Q 26.265625 48.1875 28.421875 48.1875 
Q 40.625 48.1875 47.75 41.5 
Q 54.890625 34.8125 54.890625 23.390625 
Q 54.890625 11.625 47.5625 5.09375 
Q 40.234375 -1.421875 26.90625 -1.421875 
Q 22.3125 -1.421875 17.546875 -0.640625 
Q 12.796875 0.140625 7.71875 1.703125 
L 7.71875 11.625 
Q 12.109375 9.234375 16.796875 8.0625 
Q 21.484375 6.890625 26.703125 6.890625 
Q 35.15625 6.890625 40.078125 11.328125 
Q 45.015625 15.765625 45.015625 23.390625 
Q 45.015625 31 40.078125 35.4375 
Q 35.15625 39.890625 26.703125 39.890625 
Q 22.75 39.890625 18.8125 39.015625 
Q 14.890625 38.140625 10.796875 36.28125 
z
" id="DejaVuSans-53"/>
      </defs>
      <g transform="translate(543.553647 518.598438)scale(0.1 -0.1)">
       <use xlink:href="#DejaVuSans-53"/>
       <use x="63.623047" xlink:href="#DejaVuSans-48"/>
      </g>
     </g>
    </g>
    <g id="xtick_7">
     <g id="line2d_13">
      <path clip-path="url(#p6bd73d503a)" d="M 632.214743 504 
L 632.214743 69.12 
" style="fill:none;stroke:#808080;stroke-dasharray:9.6,2.4,1.5,2.4;stroke-dashoffset:0;stroke-opacity:0.6;stroke-width:1.5;"/>
     </g>
     <g id="line2d_14">
      <g>
       <use style="stroke:#000000;stroke-width:0.8;" x="632.214743" xlink:href="#md2d22baa54" y="504"/>
      </g>
     </g>
     <g id="text_7">
      <!-- 60 -->
      <defs>
       <path d="M 33.015625 40.375 
Q 26.375 40.375 22.484375 35.828125 
Q 18.609375 31.296875 18.609375 23.390625 
Q 18.609375 15.53125 22.484375 10.953125 
Q 26.375 6.390625 33.015625 6.390625 
Q 39.65625 6.390625 43.53125 10.953125 
Q 47.40625 15.53125 47.40625 23.390625 
Q 47.40625 31.296875 43.53125 35.828125 
Q 39.65625 40.375 33.015625 40.375 
z
M 52.59375 71.296875 
L 52.59375 62.3125 
Q 48.875 64.0625 45.09375 64.984375 
Q 41.3125 65.921875 37.59375 65.921875 
Q 27.828125 65.921875 22.671875 59.328125 
Q 17.53125 52.734375 16.796875 39.40625 
Q 19.671875 43.65625 24.015625 45.921875 
Q 28.375 48.1875 33.59375 48.1875 
Q 44.578125 48.1875 50.953125 41.515625 
Q 57.328125 34.859375 57.328125 23.390625 
Q 57.328125 12.15625 50.6875 5.359375 
Q 44.046875 -1.421875 33.015625 -1.421875 
Q 20.359375 -1.421875 13.671875 8.265625 
Q 6.984375 17.96875 6.984375 36.375 
Q 6.984375 53.65625 15.1875 63.9375 
Q 23.390625 74.21875 37.203125 74.21875 
Q 40.921875 74.21875 44.703125 73.484375 
Q 48.484375 72.75 52.59375 71.296875 
z
" id="DejaVuSans-54"/>
      </defs>
      <g transform="translate(625.852243 518.598438)scale(0.1 -0.1)">
       <use xlink:href="#DejaVuSans-54"/>
       <use x="63.623047" xlink:href="#DejaVuSans-48"/>
      </g>
     </g>
    </g>
    <g id="xtick_8">
     <g id="line2d_15">
      <path clip-path="url(#p6bd73d503a)" d="M 714.513339 504 
L 714.513339 69.12 
" style="fill:none;stroke:#808080;stroke-dasharray:9.6,2.4,1.5,2.4;stroke-dashoffset:0;stroke-opacity:0.6;stroke-width:1.5;"/>
     </g>
     <g id="line2d_16">
      <g>
       <use style="stroke:#000000;stroke-width:0.8;" x="714.513339" xlink:href="#md2d22baa54" y="504"/>
      </g>
     </g>
     <g id="text_8">
      <!-- 70 -->
      <defs>
       <path d="M 8.203125 72.90625 
L 55.078125 72.90625 
L 55.078125 68.703125 
L 28.609375 0 
L 18.3125 0 
L 43.21875 64.59375 
L 8.203125 64.59375 
z
" id="DejaVuSans-55"/>
      </defs>
      <g transform="translate(708.150839 518.598438)scale(0.1 -0.1)">
       <use xlink:href="#DejaVuSans-55"/>
       <use x="63.623047" xlink:href="#DejaVuSans-48"/>
      </g>
     </g>
    </g>
    <g id="xtick_9">
     <g id="line2d_17">
      <path clip-path="url(#p6bd73d503a)" d="M 121.963445 504 
L 121.963445 69.12 
" style="fill:none;stroke:#f5f5dc;stroke-linecap:square;stroke-opacity:0.8;"/>
     </g>
     <g id="line2d_18">
      <defs>
       <path d="M 0 0 
L 0 2 
" id="m44b7450c7b" style="stroke:#000000;stroke-width:0.6;"/>
      </defs>
      <g>
       <use style="stroke:#000000;stroke-width:0.6;" x="121.963445" xlink:href="#m44b7450c7b" y="504"/>
      </g>
     </g>
    </g>
    <g id="xtick_10">
     <g id="line2d_19">
      <path clip-path="url(#p6bd73d503a)" d="M 154.882884 504 
L 154.882884 69.12 
" style="fill:none;stroke:#f5f5dc;stroke-linecap:square;stroke-opacity:0.8;"/>
     </g>
     <g id="line2d_20">
      <g>
       <use style="stroke:#000000;stroke-width:0.6;" x="154.882884" xlink:href="#m44b7450c7b" y="504"/>
      </g>
     </g>
    </g>
    <g id="xtick_11">
     <g id="line2d_21">
      <path clip-path="url(#p6bd73d503a)" d="M 171.342603 504 
L 171.342603 69.12 
" style="fill:none;stroke:#f5f5dc;stroke-linecap:square;stroke-opacity:0.8;"/>
     </g>
     <g id="line2d_22">
      <g>
       <use style="stroke:#000000;stroke-width:0.6;" x="171.342603" xlink:href="#m44b7450c7b" y="504"/>
      </g>
     </g>
    </g>
    <g id="xtick_12">
     <g id="line2d_23">
      <path clip-path="url(#p6bd73d503a)" d="M 187.802322 504 
L 187.802322 69.12 
" style="fill:none;stroke:#f5f5dc;stroke-linecap:square;stroke-opacity:0.8;"/>
     </g>
     <g id="line2d_24">
      <g>
       <use style="stroke:#000000;stroke-width:0.6;" x="187.802322" xlink:href="#m44b7450c7b" y="504"/>
      </g>
     </g>
    </g>
    <g id="xtick_13">
     <g id="line2d_25">
      <path clip-path="url(#p6bd73d503a)" d="M 204.262042 504 
L 204.262042 69.12 
" style="fill:none;stroke:#f5f5dc;stroke-linecap:square;stroke-opacity:0.8;"/>
     </g>
     <g id="line2d_26">
      <g>
       <use style="stroke:#000000;stroke-width:0.6;" x="204.262042" xlink:href="#m44b7450c7b" y="504"/>
      </g>
     </g>
    </g>
    <g id="xtick_14">
     <g id="line2d_27">
      <path clip-path="url(#p6bd73d503a)" d="M 237.18148 504 
L 237.18148 69.12 
" style="fill:none;stroke:#f5f5dc;stroke-linecap:square;stroke-opacity:0.8;"/>
     </g>
     <g id="line2d_28">
      <g>
       <use style="stroke:#000000;stroke-width:0.6;" x="237.18148" xlink:href="#m44b7450c7b" y="504"/>
      </g>
     </g>
    </g>
    <g id="xtick_15">
     <g id="line2d_29">
      <path clip-path="url(#p6bd73d503a)" d="M 253.6412 504 
L 253.6412 69.12 
" style="fill:none;stroke:#f5f5dc;stroke-linecap:square;stroke-opacity:0.8;"/>
     </g>
     <g id="line2d_30">
      <g>
       <use style="stroke:#000000;stroke-width:0.6;" x="253.6412" xlink:href="#m44b7450c7b" y="504"/>
      </g>
     </g>
    </g>
    <g id="xtick_16">
     <g id="line2d_31">
      <path clip-path="url(#p6bd73d503a)" d="M 270.100919 504 
L 270.100919 69.12 
" style="fill:none;stroke:#f5f5dc;stroke-linecap:square;stroke-opacity:0.8;"/>
     </g>
     <g id="line2d_32">
      <g>
       <use style="stroke:#000000;stroke-width:0.6;" x="270.100919" xlink:href="#m44b7450c7b" y="504"/>
      </g>
     </g>
    </g>
    <g id="xtick_17">
     <g id="line2d_33">
      <path clip-path="url(#p6bd73d503a)" d="M 286.560638 504 
L 286.560638 69.12 
" style="fill:none;stroke:#f5f5dc;stroke-linecap:square;stroke-opacity:0.8;"/>
     </g>
     <g id="line2d_34">
      <g>
       <use style="stroke:#000000;stroke-width:0.6;" x="286.560638" xlink:href="#m44b7450c7b" y="504"/>
      </g>
     </g>
    </g>
    <g id="xtick_18">
     <g id="line2d_35">
      <path clip-path="url(#p6bd73d503a)" d="M 319.480077 504 
L 319.480077 69.12 
" style="fill:none;stroke:#f5f5dc;stroke-linecap:square;stroke-opacity:0.8;"/>
     </g>
     <g id="line2d_36">
      <g>
       <use style="stroke:#000000;stroke-width:0.6;" x="319.480077" xlink:href="#m44b7450c7b" y="504"/>
      </g>
     </g>
    </g>
    <g id="xtick_19">
     <g id="line2d_37">
      <path clip-path="url(#p6bd73d503a)" d="M 335.939796 504 
L 335.939796 69.12 
" style="fill:none;stroke:#f5f5dc;stroke-linecap:square;stroke-opacity:0.8;"/>
     </g>
     <g id="line2d_38">
      <g>
       <use style="stroke:#000000;stroke-width:0.6;" x="335.939796" xlink:href="#m44b7450c7b" y="504"/>
      </g>
     </g>
    </g>
    <g id="xtick_20">
     <g id="line2d_39">
      <path clip-path="url(#p6bd73d503a)" d="M 352.399515 504 
L 352.399515 69.12 
" style="fill:none;stroke:#f5f5dc;stroke-linecap:square;stroke-opacity:0.8;"/>
     </g>
     <g id="line2d_40">
      <g>
       <use style="stroke:#000000;stroke-width:0.6;" x="352.399515" xlink:href="#m44b7450c7b" y="504"/>
      </g>
     </g>
    </g>
    <g id="xtick_21">
     <g id="line2d_41">
      <path clip-path="url(#p6bd73d503a)" d="M 368.859235 504 
L 368.859235 69.12 
" style="fill:none;stroke:#f5f5dc;stroke-linecap:square;stroke-opacity:0.8;"/>
     </g>
     <g id="line2d_42">
      <g>
       <use style="stroke:#000000;stroke-width:0.6;" x="368.859235" xlink:href="#m44b7450c7b" y="504"/>
      </g>
     </g>
    </g>
    <g id="xtick_22">
     <g id="line2d_43">
      <path clip-path="url(#p6bd73d503a)" d="M 401.778673 504 
L 401.778673 69.12 
" style="fill:none;stroke:#f5f5dc;stroke-linecap:square;stroke-opacity:0.8;"/>
     </g>
     <g id="line2d_44">
      <g>
       <use style="stroke:#000000;stroke-width:0.6;" x="401.778673" xlink:href="#m44b7450c7b" y="504"/>
      </g>
     </g>
    </g>
    <g id="xtick_23">
     <g id="line2d_45">
      <path clip-path="url(#p6bd73d503a)" d="M 418.238392 504 
L 418.238392 69.12 
" style="fill:none;stroke:#f5f5dc;stroke-linecap:square;stroke-opacity:0.8;"/>
     </g>
     <g id="line2d_46">
      <g>
       <use style="stroke:#000000;stroke-width:0.6;" x="418.238392" xlink:href="#m44b7450c7b" y="504"/>
      </g>
     </g>
    </g>
    <g id="xtick_24">
     <g id="line2d_47">
      <path clip-path="url(#p6bd73d503a)" d="M 434.698112 504 
L 434.698112 69.12 
" style="fill:none;stroke:#f5f5dc;stroke-linecap:square;stroke-opacity:0.8;"/>
     </g>
     <g id="line2d_48">
      <g>
       <use style="stroke:#000000;stroke-width:0.6;" x="434.698112" xlink:href="#m44b7450c7b" y="504"/>
      </g>
     </g>
    </g>
    <g id="xtick_25">
     <g id="line2d_49">
      <path clip-path="url(#p6bd73d503a)" d="M 451.157831 504 
L 451.157831 69.12 
" style="fill:none;stroke:#f5f5dc;stroke-linecap:square;stroke-opacity:0.8;"/>
     </g>
     <g id="line2d_50">
      <g>
       <use style="stroke:#000000;stroke-width:0.6;" x="451.157831" xlink:href="#m44b7450c7b" y="504"/>
      </g>
     </g>
    </g>
    <g id="xtick_26">
     <g id="line2d_51">
      <path clip-path="url(#p6bd73d503a)" d="M 484.077269 504 
L 484.077269 69.12 
" style="fill:none;stroke:#f5f5dc;stroke-linecap:square;stroke-opacity:0.8;"/>
     </g>
     <g id="line2d_52">
      <g>
       <use style="stroke:#000000;stroke-width:0.6;" x="484.077269" xlink:href="#m44b7450c7b" y="504"/>
      </g>
     </g>
    </g>
    <g id="xtick_27">
     <g id="line2d_53">
      <path clip-path="url(#p6bd73d503a)" d="M 500.536989 504 
L 500.536989 69.12 
" style="fill:none;stroke:#f5f5dc;stroke-linecap:square;stroke-opacity:0.8;"/>
     </g>
     <g id="line2d_54">
      <g>
       <use style="stroke:#000000;stroke-width:0.6;" x="500.536989" xlink:href="#m44b7450c7b" y="504"/>
      </g>
     </g>
    </g>
    <g id="xtick_28">
     <g id="line2d_55">
      <path clip-path="url(#p6bd73d503a)" d="M 516.996708 504 
L 516.996708 69.12 
" style="fill:none;stroke:#f5f5dc;stroke-linecap:square;stroke-opacity:0.8;"/>
     </g>
     <g id="line2d_56">
      <g>
       <use style="stroke:#000000;stroke-width:0.6;" x="516.996708" xlink:href="#m44b7450c7b" y="504"/>
      </g>
     </g>
    </g>
    <g id="xtick_29">
     <g id="line2d_57">
      <path clip-path="url(#p6bd73d503a)" d="M 533.456427 504 
L 533.456427 69.12 
" style="fill:none;stroke:#f5f5dc;stroke-linecap:square;stroke-opacity:0.8;"/>
     </g>
     <g id="line2d_58">
      <g>
       <use style="stroke:#000000;stroke-width:0.6;" x="533.456427" xlink:href="#m44b7450c7b" y="504"/>
      </g>
     </g>
    </g>
    <g id="xtick_30">
     <g id="line2d_59">
      <path clip-path="url(#p6bd73d503a)" d="M 566.375866 504 
L 566.375866 69.12 
" style="fill:none;stroke:#f5f5dc;stroke-linecap:square;stroke-opacity:0.8;"/>
     </g>
     <g id="line2d_60">
      <g>
       <use style="stroke:#000000;stroke-width:0.6;" x="566.375866" xlink:href="#m44b7450c7b" y="504"/>
      </g>
     </g>
    </g>
    <g id="xtick_31">
     <g id="line2d_61">
      <path clip-path="url(#p6bd73d503a)" d="M 582.835585 504 
L 582.835585 69.12 
" style="fill:none;stroke:#f5f5dc;stroke-linecap:square;stroke-opacity:0.8;"/>
     </g>
     <g id="line2d_62">
      <g>
       <use style="stroke:#000000;stroke-width:0.6;" x="582.835585" xlink:href="#m44b7450c7b" y="504"/>
      </g>
     </g>
    </g>
    <g id="xtick_32">
     <g id="line2d_63">
      <path clip-path="url(#p6bd73d503a)" d="M 599.295304 504 
L 599.295304 69.12 
" style="fill:none;stroke:#f5f5dc;stroke-linecap:square;stroke-opacity:0.8;"/>
     </g>
     <g id="line2d_64">
      <g>
       <use style="stroke:#000000;stroke-width:0.6;" x="599.295304" xlink:href="#m44b7450c7b" y="504"/>
      </g>
     </g>
    </g>
    <g id="xtick_33">
     <g id="line2d_65">
      <path clip-path="url(#p6bd73d503a)" d="M 615.755024 504 
L 615.755024 69.12 
" style="fill:none;stroke:#f5f5dc;stroke-linecap:square;stroke-opacity:0.8;"/>
     </g>
     <g id="line2d_66">
      <g>
       <use style="stroke:#000000;stroke-width:0.6;" x="615.755024" xlink:href="#m44b7450c7b" y="504"/>
      </g>
     </g>
    </g>
    <g id="xtick_34">
     <g id="line2d_67">
      <path clip-path="url(#p6bd73d503a)" d="M 648.674462 504 
L 648.674462 69.12 
" style="fill:none;stroke:#f5f5dc;stroke-linecap:square;stroke-opacity:0.8;"/>
     </g>
     <g id="line2d_68">
      <g>
       <use style="stroke:#000000;stroke-width:0.6;" x="648.674462" xlink:href="#m44b7450c7b" y="504"/>
      </g>
     </g>
    </g>
    <g id="xtick_35">
     <g id="line2d_69">
      <path clip-path="url(#p6bd73d503a)" d="M 665.134181 504 
L 665.134181 69.12 
" style="fill:none;stroke:#f5f5dc;stroke-linecap:square;stroke-opacity:0.8;"/>
     </g>
     <g id="line2d_70">
      <g>
       <use style="stroke:#000000;stroke-width:0.6;" x="665.134181" xlink:href="#m44b7450c7b" y="504"/>
      </g>
     </g>
    </g>
    <g id="xtick_36">
     <g id="line2d_71">
      <path clip-path="url(#p6bd73d503a)" d="M 681.593901 504 
L 681.593901 69.12 
" style="fill:none;stroke:#f5f5dc;stroke-linecap:square;stroke-opacity:0.8;"/>
     </g>
     <g id="line2d_72">
      <g>
       <use style="stroke:#000000;stroke-width:0.6;" x="681.593901" xlink:href="#m44b7450c7b" y="504"/>
      </g>
     </g>
    </g>
    <g id="xtick_37">
     <g id="line2d_73">
      <path clip-path="url(#p6bd73d503a)" d="M 698.05362 504 
L 698.05362 69.12 
" style="fill:none;stroke:#f5f5dc;stroke-linecap:square;stroke-opacity:0.8;"/>
     </g>
     <g id="line2d_74">
      <g>
       <use style="stroke:#000000;stroke-width:0.6;" x="698.05362" xlink:href="#m44b7450c7b" y="504"/>
      </g>
     </g>
    </g>
    <g id="xtick_38">
     <g id="line2d_75">
      <path clip-path="url(#p6bd73d503a)" d="M 730.973059 504 
L 730.973059 69.12 
" style="fill:none;stroke:#f5f5dc;stroke-linecap:square;stroke-opacity:0.8;"/>
     </g>
     <g id="line2d_76">
      <g>
       <use style="stroke:#000000;stroke-width:0.6;" x="730.973059" xlink:href="#m44b7450c7b" y="504"/>
      </g>
     </g>
    </g>
    <g id="xtick_39">
     <g id="line2d_77">
      <path clip-path="url(#p6bd73d503a)" d="M 747.432778 504 
L 747.432778 69.12 
" style="fill:none;stroke:#f5f5dc;stroke-linecap:square;stroke-opacity:0.8;"/>
     </g>
     <g id="line2d_78">
      <g>
       <use style="stroke:#000000;stroke-width:0.6;" x="747.432778" xlink:href="#m44b7450c7b" y="504"/>
      </g>
     </g>
    </g>
    <g id="xtick_40">
     <g id="line2d_79">
      <path clip-path="url(#p6bd73d503a)" d="M 763.892497 504 
L 763.892497 69.12 
" style="fill:none;stroke:#f5f5dc;stroke-linecap:square;stroke-opacity:0.8;"/>
     </g>
     <g id="line2d_80">
      <g>
       <use style="stroke:#000000;stroke-width:0.6;" x="763.892497" xlink:href="#m44b7450c7b" y="504"/>
      </g>
     </g>
    </g>
    <g id="text_9">
     <!-- Error (mmHg) -->
     <defs>
      <path d="M 9.8125 72.90625 
L 55.90625 72.90625 
L 55.90625 64.59375 
L 19.671875 64.59375 
L 19.671875 43.015625 
L 54.390625 43.015625 
L 54.390625 34.71875 
L 19.671875 34.71875 
L 19.671875 8.296875 
L 56.78125 8.296875 
L 56.78125 0 
L 9.8125 0 
z
" id="DejaVuSans-69"/>
      <path d="M 41.109375 46.296875 
Q 39.59375 47.171875 37.8125 47.578125 
Q 36.03125 48 33.890625 48 
Q 26.265625 48 22.1875 43.046875 
Q 18.109375 38.09375 18.109375 28.8125 
L 18.109375 0 
L 9.078125 0 
L 9.078125 54.6875 
L 18.109375 54.6875 
L 18.109375 46.1875 
Q 20.953125 51.171875 25.484375 53.578125 
Q 30.03125 56 36.53125 56 
Q 37.453125 56 38.578125 55.875 
Q 39.703125 55.765625 41.0625 55.515625 
z
" id="DejaVuSans-114"/>
      <path d="M 30.609375 48.390625 
Q 23.390625 48.390625 19.1875 42.75 
Q 14.984375 37.109375 14.984375 27.296875 
Q 14.984375 17.484375 19.15625 11.84375 
Q 23.34375 6.203125 30.609375 6.203125 
Q 37.796875 6.203125 41.984375 11.859375 
Q 46.1875 17.53125 46.1875 27.296875 
Q 46.1875 37.015625 41.984375 42.703125 
Q 37.796875 48.390625 30.609375 48.390625 
z
M 30.609375 56 
Q 42.328125 56 49.015625 48.375 
Q 55.71875 40.765625 55.71875 27.296875 
Q 55.71875 13.875 49.015625 6.21875 
Q 42.328125 -1.421875 30.609375 -1.421875 
Q 18.84375 -1.421875 12.171875 6.21875 
Q 5.515625 13.875 5.515625 27.296875 
Q 5.515625 40.765625 12.171875 48.375 
Q 18.84375 56 30.609375 56 
z
" id="DejaVuSans-111"/>
      <path id="DejaVuSans-32"/>
      <path d="M 31 75.875 
Q 24.46875 64.65625 21.28125 53.65625 
Q 18.109375 42.671875 18.109375 31.390625 
Q 18.109375 20.125 21.3125 9.0625 
Q 24.515625 -2 31 -13.1875 
L 23.1875 -13.1875 
Q 15.875 -1.703125 12.234375 9.375 
Q 8.59375 20.453125 8.59375 31.390625 
Q 8.59375 42.28125 12.203125 53.3125 
Q 15.828125 64.359375 23.1875 75.875 
z
" id="DejaVuSans-40"/>
      <path d="M 52 44.1875 
Q 55.375 50.25 60.0625 53.125 
Q 64.75 56 71.09375 56 
Q 79.640625 56 84.28125 50.015625 
Q 88.921875 44.046875 88.921875 33.015625 
L 88.921875 0 
L 79.890625 0 
L 79.890625 32.71875 
Q 79.890625 40.578125 77.09375 44.375 
Q 74.3125 48.1875 68.609375 48.1875 
Q 61.625 48.1875 57.5625 43.546875 
Q 53.515625 38.921875 53.515625 30.90625 
L 53.515625 0 
L 44.484375 0 
L 44.484375 32.71875 
Q 44.484375 40.625 41.703125 44.40625 
Q 38.921875 48.1875 33.109375 48.1875 
Q 26.21875 48.1875 22.15625 43.53125 
Q 18.109375 38.875 18.109375 30.90625 
L 18.109375 0 
L 9.078125 0 
L 9.078125 54.6875 
L 18.109375 54.6875 
L 18.109375 46.1875 
Q 21.1875 51.21875 25.484375 53.609375 
Q 29.78125 56 35.6875 56 
Q 41.65625 56 45.828125 52.96875 
Q 50 49.953125 52 44.1875 
z
" id="DejaVuSans-109"/>
      <path d="M 9.8125 72.90625 
L 19.671875 72.90625 
L 19.671875 43.015625 
L 55.515625 43.015625 
L 55.515625 72.90625 
L 65.375 72.90625 
L 65.375 0 
L 55.515625 0 
L 55.515625 34.71875 
L 19.671875 34.71875 
L 19.671875 0 
L 9.8125 0 
z
" id="DejaVuSans-72"/>
      <path d="M 45.40625 27.984375 
Q 45.40625 37.75 41.375 43.109375 
Q 37.359375 48.484375 30.078125 48.484375 
Q 22.859375 48.484375 18.828125 43.109375 
Q 14.796875 37.75 14.796875 27.984375 
Q 14.796875 18.265625 18.828125 12.890625 
Q 22.859375 7.515625 30.078125 7.515625 
Q 37.359375 7.515625 41.375 12.890625 
Q 45.40625 18.265625 45.40625 27.984375 
z
M 54.390625 6.78125 
Q 54.390625 -7.171875 48.1875 -13.984375 
Q 42 -20.796875 29.203125 -20.796875 
Q 24.46875 -20.796875 20.265625 -20.09375 
Q 16.0625 -19.390625 12.109375 -17.921875 
L 12.109375 -9.1875 
Q 16.0625 -11.328125 19.921875 -12.34375 
Q 23.78125 -13.375 27.78125 -13.375 
Q 36.625 -13.375 41.015625 -8.765625 
Q 45.40625 -4.15625 45.40625 5.171875 
L 45.40625 9.625 
Q 42.625 4.78125 38.28125 2.390625 
Q 33.9375 0 27.875 0 
Q 17.828125 0 11.671875 7.65625 
Q 5.515625 15.328125 5.515625 27.984375 
Q 5.515625 40.671875 11.671875 48.328125 
Q 17.828125 56 27.875 56 
Q 33.9375 56 38.28125 53.609375 
Q 42.625 51.21875 45.40625 46.390625 
L 45.40625 54.6875 
L 54.390625 54.6875 
z
" id="DejaVuSans-103"/>
      <path d="M 8.015625 75.875 
L 15.828125 75.875 
Q 23.140625 64.359375 26.78125 53.3125 
Q 30.421875 42.28125 30.421875 31.390625 
Q 30.421875 20.453125 26.78125 9.375 
Q 23.140625 -1.703125 15.828125 -13.1875 
L 8.015625 -13.1875 
Q 14.5 -2 17.703125 9.0625 
Q 20.90625 20.125 20.90625 31.390625 
Q 20.90625 42.671875 17.703125 53.65625 
Q 14.5 64.65625 8.015625 75.875 
z
" id="DejaVuSans-41"/>
     </defs>
     <g transform="translate(408.251563 532.276562)scale(0.1 -0.1)">
      <use xlink:href="#DejaVuSans-69"/>
      <use x="63.183594" xlink:href="#DejaVuSans-114"/>
      <use x="104.28125" xlink:href="#DejaVuSans-114"/>
      <use x="145.363281" xlink:href="#DejaVuSans-111"/>
      <use x="206.544922" xlink:href="#DejaVuSans-114"/>
      <use x="247.658203" xlink:href="#DejaVuSans-32"/>
      <use x="279.445312" xlink:href="#DejaVuSans-40"/>
      <use x="318.458984" xlink:href="#DejaVuSans-109"/>
      <use x="415.871094" xlink:href="#DejaVuSans-109"/>
      <use x="513.283203" xlink:href="#DejaVuSans-72"/>
      <use x="588.478516" xlink:href="#DejaVuSans-103"/>
      <use x="651.955078" xlink:href="#DejaVuSans-41"/>
     </g>
    </g>
   </g>
   <g id="matplotlib.axis_2">
    <g id="ytick_1">
     <g id="line2d_81">
      <path clip-path="url(#p6bd73d503a)" d="M 108 504 
L 777.6 504 
" style="fill:none;stroke:#808080;stroke-dasharray:9.6,2.4,1.5,2.4;stroke-dashoffset:0;stroke-opacity:0.6;stroke-width:1.5;"/>
     </g>
     <g id="line2d_82">
      <defs>
       <path d="M 0 0 
L -3.5 0 
" id="m6ba7bc336d" style="stroke:#000000;stroke-width:0.8;"/>
      </defs>
      <g>
       <use style="stroke:#000000;stroke-width:0.8;" x="108" xlink:href="#m6ba7bc336d" y="504"/>
      </g>
     </g>
     <g id="text_10">
      <!-- 0.0 -->
      <defs>
       <path d="M 10.6875 12.40625 
L 21 12.40625 
L 21 0 
L 10.6875 0 
z
" id="DejaVuSans-46"/>
      </defs>
      <g transform="translate(85.096875 507.799219)scale(0.1 -0.1)">
       <use xlink:href="#DejaVuSans-48"/>
       <use x="63.623047" xlink:href="#DejaVuSans-46"/>
       <use x="95.410156" xlink:href="#DejaVuSans-48"/>
      </g>
     </g>
    </g>
    <g id="ytick_2">
     <g id="line2d_83">
      <path clip-path="url(#p6bd73d503a)" d="M 108 421.165714 
L 777.6 421.165714 
" style="fill:none;stroke:#808080;stroke-dasharray:9.6,2.4,1.5,2.4;stroke-dashoffset:0;stroke-opacity:0.6;stroke-width:1.5;"/>
     </g>
     <g id="line2d_84">
      <g>
       <use style="stroke:#000000;stroke-width:0.8;" x="108" xlink:href="#m6ba7bc336d" y="421.165714"/>
      </g>
     </g>
     <g id="text_11">
      <!-- 0.2 -->
      <g transform="translate(85.096875 424.964933)scale(0.1 -0.1)">
       <use xlink:href="#DejaVuSans-48"/>
       <use x="63.623047" xlink:href="#DejaVuSans-46"/>
       <use x="95.410156" xlink:href="#DejaVuSans-50"/>
      </g>
     </g>
    </g>
    <g id="ytick_3">
     <g id="line2d_85">
      <path clip-path="url(#p6bd73d503a)" d="M 108 338.331429 
L 777.6 338.331429 
" style="fill:none;stroke:#808080;stroke-dasharray:9.6,2.4,1.5,2.4;stroke-dashoffset:0;stroke-opacity:0.6;stroke-width:1.5;"/>
     </g>
     <g id="line2d_86">
      <g>
       <use style="stroke:#000000;stroke-width:0.8;" x="108" xlink:href="#m6ba7bc336d" y="338.331429"/>
      </g>
     </g>
     <g id="text_12">
      <!-- 0.4 -->
      <g transform="translate(85.096875 342.130647)scale(0.1 -0.1)">
       <use xlink:href="#DejaVuSans-48"/>
       <use x="63.623047" xlink:href="#DejaVuSans-46"/>
       <use x="95.410156" xlink:href="#DejaVuSans-52"/>
      </g>
     </g>
    </g>
    <g id="ytick_4">
     <g id="line2d_87">
      <path clip-path="url(#p6bd73d503a)" d="M 108 255.497143 
L 777.6 255.497143 
" style="fill:none;stroke:#808080;stroke-dasharray:9.6,2.4,1.5,2.4;stroke-dashoffset:0;stroke-opacity:0.6;stroke-width:1.5;"/>
     </g>
     <g id="line2d_88">
      <g>
       <use style="stroke:#000000;stroke-width:0.8;" x="108" xlink:href="#m6ba7bc336d" y="255.497143"/>
      </g>
     </g>
     <g id="text_13">
      <!-- 0.6 -->
      <g transform="translate(85.096875 259.296362)scale(0.1 -0.1)">
       <use xlink:href="#DejaVuSans-48"/>
       <use x="63.623047" xlink:href="#DejaVuSans-46"/>
       <use x="95.410156" xlink:href="#DejaVuSans-54"/>
      </g>
     </g>
    </g>
    <g id="ytick_5">
     <g id="line2d_89">
      <path clip-path="url(#p6bd73d503a)" d="M 108 172.662857 
L 777.6 172.662857 
" style="fill:none;stroke:#808080;stroke-dasharray:9.6,2.4,1.5,2.4;stroke-dashoffset:0;stroke-opacity:0.6;stroke-width:1.5;"/>
     </g>
     <g id="line2d_90">
      <g>
       <use style="stroke:#000000;stroke-width:0.8;" x="108" xlink:href="#m6ba7bc336d" y="172.662857"/>
      </g>
     </g>
     <g id="text_14">
      <!-- 0.8 -->
      <defs>
       <path d="M 31.78125 34.625 
Q 24.75 34.625 20.71875 30.859375 
Q 16.703125 27.09375 16.703125 20.515625 
Q 16.703125 13.921875 20.71875 10.15625 
Q 24.75 6.390625 31.78125 6.390625 
Q 38.8125 6.390625 42.859375 10.171875 
Q 46.921875 13.96875 46.921875 20.515625 
Q 46.921875 27.09375 42.890625 30.859375 
Q 38.875 34.625 31.78125 34.625 
z
M 21.921875 38.8125 
Q 15.578125 40.375 12.03125 44.71875 
Q 8.5 49.078125 8.5 55.328125 
Q 8.5 64.0625 14.71875 69.140625 
Q 20.953125 74.21875 31.78125 74.21875 
Q 42.671875 74.21875 48.875 69.140625 
Q 55.078125 64.0625 55.078125 55.328125 
Q 55.078125 49.078125 51.53125 44.71875 
Q 48 40.375 41.703125 38.8125 
Q 48.828125 37.15625 52.796875 32.3125 
Q 56.78125 27.484375 56.78125 20.515625 
Q 56.78125 9.90625 50.3125 4.234375 
Q 43.84375 -1.421875 31.78125 -1.421875 
Q 19.734375 -1.421875 13.25 4.234375 
Q 6.78125 9.90625 6.78125 20.515625 
Q 6.78125 27.484375 10.78125 32.3125 
Q 14.796875 37.15625 21.921875 38.8125 
z
M 18.3125 54.390625 
Q 18.3125 48.734375 21.84375 45.5625 
Q 25.390625 42.390625 31.78125 42.390625 
Q 38.140625 42.390625 41.71875 45.5625 
Q 45.3125 48.734375 45.3125 54.390625 
Q 45.3125 60.0625 41.71875 63.234375 
Q 38.140625 66.40625 31.78125 66.40625 
Q 25.390625 66.40625 21.84375 63.234375 
Q 18.3125 60.0625 18.3125 54.390625 
z
" id="DejaVuSans-56"/>
      </defs>
      <g transform="translate(85.096875 176.462076)scale(0.1 -0.1)">
       <use xlink:href="#DejaVuSans-48"/>
       <use x="63.623047" xlink:href="#DejaVuSans-46"/>
       <use x="95.410156" xlink:href="#DejaVuSans-56"/>
      </g>
     </g>
    </g>
    <g id="ytick_6">
     <g id="line2d_91">
      <path clip-path="url(#p6bd73d503a)" d="M 108 89.828571 
L 777.6 89.828571 
" style="fill:none;stroke:#808080;stroke-dasharray:9.6,2.4,1.5,2.4;stroke-dashoffset:0;stroke-opacity:0.6;stroke-width:1.5;"/>
     </g>
     <g id="line2d_92">
      <g>
       <use style="stroke:#000000;stroke-width:0.8;" x="108" xlink:href="#m6ba7bc336d" y="89.828571"/>
      </g>
     </g>
     <g id="text_15">
      <!-- 1.0 -->
      <g transform="translate(85.096875 93.62779)scale(0.1 -0.1)">
       <use xlink:href="#DejaVuSans-49"/>
       <use x="63.623047" xlink:href="#DejaVuSans-46"/>
       <use x="95.410156" xlink:href="#DejaVuSans-48"/>
      </g>
     </g>
    </g>
    <g id="ytick_7">
     <g id="line2d_93">
      <path clip-path="url(#p6bd73d503a)" d="M 108 483.291429 
L 777.6 483.291429 
" style="fill:none;stroke:#f5f5dc;stroke-linecap:square;stroke-opacity:0.8;"/>
     </g>
     <g id="line2d_94">
      <defs>
       <path d="M 0 0 
L -2 0 
" id="m5f46562d9f" style="stroke:#000000;stroke-width:0.6;"/>
      </defs>
      <g>
       <use style="stroke:#000000;stroke-width:0.6;" x="108" xlink:href="#m5f46562d9f" y="483.291429"/>
      </g>
     </g>
    </g>
    <g id="ytick_8">
     <g id="line2d_95">
      <path clip-path="url(#p6bd73d503a)" d="M 108 462.582857 
L 777.6 462.582857 
" style="fill:none;stroke:#f5f5dc;stroke-linecap:square;stroke-opacity:0.8;"/>
     </g>
     <g id="line2d_96">
      <g>
       <use style="stroke:#000000;stroke-width:0.6;" x="108" xlink:href="#m5f46562d9f" y="462.582857"/>
      </g>
     </g>
    </g>
    <g id="ytick_9">
     <g id="line2d_97">
      <path clip-path="url(#p6bd73d503a)" d="M 108 441.874286 
L 777.6 441.874286 
" style="fill:none;stroke:#f5f5dc;stroke-linecap:square;stroke-opacity:0.8;"/>
     </g>
     <g id="line2d_98">
      <g>
       <use style="stroke:#000000;stroke-width:0.6;" x="108" xlink:href="#m5f46562d9f" y="441.874286"/>
      </g>
     </g>
    </g>
    <g id="ytick_10">
     <g id="line2d_99">
      <path clip-path="url(#p6bd73d503a)" d="M 108 400.457143 
L 777.6 400.457143 
" style="fill:none;stroke:#f5f5dc;stroke-linecap:square;stroke-opacity:0.8;"/>
     </g>
     <g id="line2d_100">
      <g>
       <use style="stroke:#000000;stroke-width:0.6;" x="108" xlink:href="#m5f46562d9f" y="400.457143"/>
      </g>
     </g>
    </g>
    <g id="ytick_11">
     <g id="line2d_101">
      <path clip-path="url(#p6bd73d503a)" d="M 108 379.748571 
L 777.6 379.748571 
" style="fill:none;stroke:#f5f5dc;stroke-linecap:square;stroke-opacity:0.8;"/>
     </g>
     <g id="line2d_102">
      <g>
       <use style="stroke:#000000;stroke-width:0.6;" x="108" xlink:href="#m5f46562d9f" y="379.748571"/>
      </g>
     </g>
    </g>
    <g id="ytick_12">
     <g id="line2d_103">
      <path clip-path="url(#p6bd73d503a)" d="M 108 359.04 
L 777.6 359.04 
" style="fill:none;stroke:#f5f5dc;stroke-linecap:square;stroke-opacity:0.8;"/>
     </g>
     <g id="line2d_104">
      <g>
       <use style="stroke:#000000;stroke-width:0.6;" x="108" xlink:href="#m5f46562d9f" y="359.04"/>
      </g>
     </g>
    </g>
    <g id="ytick_13">
     <g id="line2d_105">
      <path clip-path="url(#p6bd73d503a)" d="M 108 317.622857 
L 777.6 317.622857 
" style="fill:none;stroke:#f5f5dc;stroke-linecap:square;stroke-opacity:0.8;"/>
     </g>
     <g id="line2d_106">
      <g>
       <use style="stroke:#000000;stroke-width:0.6;" x="108" xlink:href="#m5f46562d9f" y="317.622857"/>
      </g>
     </g>
    </g>
    <g id="ytick_14">
     <g id="line2d_107">
      <path clip-path="url(#p6bd73d503a)" d="M 108 296.914286 
L 777.6 296.914286 
" style="fill:none;stroke:#f5f5dc;stroke-linecap:square;stroke-opacity:0.8;"/>
     </g>
     <g id="line2d_108">
      <g>
       <use style="stroke:#000000;stroke-width:0.6;" x="108" xlink:href="#m5f46562d9f" y="296.914286"/>
      </g>
     </g>
    </g>
    <g id="ytick_15">
     <g id="line2d_109">
      <path clip-path="url(#p6bd73d503a)" d="M 108 276.205714 
L 777.6 276.205714 
" style="fill:none;stroke:#f5f5dc;stroke-linecap:square;stroke-opacity:0.8;"/>
     </g>
     <g id="line2d_110">
      <g>
       <use style="stroke:#000000;stroke-width:0.6;" x="108" xlink:href="#m5f46562d9f" y="276.205714"/>
      </g>
     </g>
    </g>
    <g id="ytick_16">
     <g id="line2d_111">
      <path clip-path="url(#p6bd73d503a)" d="M 108 234.788571 
L 777.6 234.788571 
" style="fill:none;stroke:#f5f5dc;stroke-linecap:square;stroke-opacity:0.8;"/>
     </g>
     <g id="line2d_112">
      <g>
       <use style="stroke:#000000;stroke-width:0.6;" x="108" xlink:href="#m5f46562d9f" y="234.788571"/>
      </g>
     </g>
    </g>
    <g id="ytick_17">
     <g id="line2d_113">
      <path clip-path="url(#p6bd73d503a)" d="M 108 214.08 
L 777.6 214.08 
" style="fill:none;stroke:#f5f5dc;stroke-linecap:square;stroke-opacity:0.8;"/>
     </g>
     <g id="line2d_114">
      <g>
       <use style="stroke:#000000;stroke-width:0.6;" x="108" xlink:href="#m5f46562d9f" y="214.08"/>
      </g>
     </g>
    </g>
    <g id="ytick_18">
     <g id="line2d_115">
      <path clip-path="url(#p6bd73d503a)" d="M 108 193.371429 
L 777.6 193.371429 
" style="fill:none;stroke:#f5f5dc;stroke-linecap:square;stroke-opacity:0.8;"/>
     </g>
     <g id="line2d_116">
      <g>
       <use style="stroke:#000000;stroke-width:0.6;" x="108" xlink:href="#m5f46562d9f" y="193.371429"/>
      </g>
     </g>
    </g>
    <g id="ytick_19">
     <g id="line2d_117">
      <path clip-path="url(#p6bd73d503a)" d="M 108 151.954286 
L 777.6 151.954286 
" style="fill:none;stroke:#f5f5dc;stroke-linecap:square;stroke-opacity:0.8;"/>
     </g>
     <g id="line2d_118">
      <g>
       <use style="stroke:#000000;stroke-width:0.6;" x="108" xlink:href="#m5f46562d9f" y="151.954286"/>
      </g>
     </g>
    </g>
    <g id="ytick_20">
     <g id="line2d_119">
      <path clip-path="url(#p6bd73d503a)" d="M 108 131.245714 
L 777.6 131.245714 
" style="fill:none;stroke:#f5f5dc;stroke-linecap:square;stroke-opacity:0.8;"/>
     </g>
     <g id="line2d_120">
      <g>
       <use style="stroke:#000000;stroke-width:0.6;" x="108" xlink:href="#m5f46562d9f" y="131.245714"/>
      </g>
     </g>
    </g>
    <g id="ytick_21">
     <g id="line2d_121">
      <path clip-path="url(#p6bd73d503a)" d="M 108 110.537143 
L 777.6 110.537143 
" style="fill:none;stroke:#f5f5dc;stroke-linecap:square;stroke-opacity:0.8;"/>
     </g>
     <g id="line2d_122">
      <g>
       <use style="stroke:#000000;stroke-width:0.6;" x="108" xlink:href="#m5f46562d9f" y="110.537143"/>
      </g>
     </g>
    </g>
    <g id="text_16">
     <!-- Imperical CDF -->
     <defs>
      <path d="M 9.8125 72.90625 
L 19.671875 72.90625 
L 19.671875 0 
L 9.8125 0 
z
" id="DejaVuSans-73"/>
      <path d="M 18.109375 8.203125 
L 18.109375 -20.796875 
L 9.078125 -20.796875 
L 9.078125 54.6875 
L 18.109375 54.6875 
L 18.109375 46.390625 
Q 20.953125 51.265625 25.265625 53.625 
Q 29.59375 56 35.59375 56 
Q 45.5625 56 51.78125 48.09375 
Q 58.015625 40.1875 58.015625 27.296875 
Q 58.015625 14.40625 51.78125 6.484375 
Q 45.5625 -1.421875 35.59375 -1.421875 
Q 29.59375 -1.421875 25.265625 0.953125 
Q 20.953125 3.328125 18.109375 8.203125 
z
M 48.6875 27.296875 
Q 48.6875 37.203125 44.609375 42.84375 
Q 40.53125 48.484375 33.40625 48.484375 
Q 26.265625 48.484375 22.1875 42.84375 
Q 18.109375 37.203125 18.109375 27.296875 
Q 18.109375 17.390625 22.1875 11.75 
Q 26.265625 6.109375 33.40625 6.109375 
Q 40.53125 6.109375 44.609375 11.75 
Q 48.6875 17.390625 48.6875 27.296875 
z
" id="DejaVuSans-112"/>
      <path d="M 56.203125 29.59375 
L 56.203125 25.203125 
L 14.890625 25.203125 
Q 15.484375 15.921875 20.484375 11.0625 
Q 25.484375 6.203125 34.421875 6.203125 
Q 39.59375 6.203125 44.453125 7.46875 
Q 49.3125 8.734375 54.109375 11.28125 
L 54.109375 2.78125 
Q 49.265625 0.734375 44.1875 -0.34375 
Q 39.109375 -1.421875 33.890625 -1.421875 
Q 20.796875 -1.421875 13.15625 6.1875 
Q 5.515625 13.8125 5.515625 26.8125 
Q 5.515625 40.234375 12.765625 48.109375 
Q 20.015625 56 32.328125 56 
Q 43.359375 56 49.78125 48.890625 
Q 56.203125 41.796875 56.203125 29.59375 
z
M 47.21875 32.234375 
Q 47.125 39.59375 43.09375 43.984375 
Q 39.0625 48.390625 32.421875 48.390625 
Q 24.90625 48.390625 20.390625 44.140625 
Q 15.875 39.890625 15.1875 32.171875 
z
" id="DejaVuSans-101"/>
      <path d="M 9.421875 54.6875 
L 18.40625 54.6875 
L 18.40625 0 
L 9.421875 0 
z
M 9.421875 75.984375 
L 18.40625 75.984375 
L 18.40625 64.59375 
L 9.421875 64.59375 
z
" id="DejaVuSans-105"/>
      <path d="M 48.78125 52.59375 
L 48.78125 44.1875 
Q 44.96875 46.296875 41.140625 47.34375 
Q 37.3125 48.390625 33.40625 48.390625 
Q 24.65625 48.390625 19.8125 42.84375 
Q 14.984375 37.3125 14.984375 27.296875 
Q 14.984375 17.28125 19.8125 11.734375 
Q 24.65625 6.203125 33.40625 6.203125 
Q 37.3125 6.203125 41.140625 7.25 
Q 44.96875 8.296875 48.78125 10.40625 
L 48.78125 2.09375 
Q 45.015625 0.34375 40.984375 -0.53125 
Q 36.96875 -1.421875 32.421875 -1.421875 
Q 20.0625 -1.421875 12.78125 6.34375 
Q 5.515625 14.109375 5.515625 27.296875 
Q 5.515625 40.671875 12.859375 48.328125 
Q 20.21875 56 33.015625 56 
Q 37.15625 56 41.109375 55.140625 
Q 45.0625 54.296875 48.78125 52.59375 
z
" id="DejaVuSans-99"/>
      <path d="M 34.28125 27.484375 
Q 23.390625 27.484375 19.1875 25 
Q 14.984375 22.515625 14.984375 16.5 
Q 14.984375 11.71875 18.140625 8.90625 
Q 21.296875 6.109375 26.703125 6.109375 
Q 34.1875 6.109375 38.703125 11.40625 
Q 43.21875 16.703125 43.21875 25.484375 
L 43.21875 27.484375 
z
M 52.203125 31.203125 
L 52.203125 0 
L 43.21875 0 
L 43.21875 8.296875 
Q 40.140625 3.328125 35.546875 0.953125 
Q 30.953125 -1.421875 24.3125 -1.421875 
Q 15.921875 -1.421875 10.953125 3.296875 
Q 6 8.015625 6 15.921875 
Q 6 25.140625 12.171875 29.828125 
Q 18.359375 34.515625 30.609375 34.515625 
L 43.21875 34.515625 
L 43.21875 35.40625 
Q 43.21875 41.609375 39.140625 45 
Q 35.0625 48.390625 27.6875 48.390625 
Q 23 48.390625 18.546875 47.265625 
Q 14.109375 46.140625 10.015625 43.890625 
L 10.015625 52.203125 
Q 14.9375 54.109375 19.578125 55.046875 
Q 24.21875 56 28.609375 56 
Q 40.484375 56 46.34375 49.84375 
Q 52.203125 43.703125 52.203125 31.203125 
z
" id="DejaVuSans-97"/>
      <path d="M 9.421875 75.984375 
L 18.40625 75.984375 
L 18.40625 0 
L 9.421875 0 
z
" id="DejaVuSans-108"/>
      <path d="M 64.40625 67.28125 
L 64.40625 56.890625 
Q 59.421875 61.53125 53.78125 63.8125 
Q 48.140625 66.109375 41.796875 66.109375 
Q 29.296875 66.109375 22.65625 58.46875 
Q 16.015625 50.828125 16.015625 36.375 
Q 16.015625 21.96875 22.65625 14.328125 
Q 29.296875 6.6875 41.796875 6.6875 
Q 48.140625 6.6875 53.78125 8.984375 
Q 59.421875 11.28125 64.40625 15.921875 
L 64.40625 5.609375 
Q 59.234375 2.09375 53.4375 0.328125 
Q 47.65625 -1.421875 41.21875 -1.421875 
Q 24.65625 -1.421875 15.125 8.703125 
Q 5.609375 18.84375 5.609375 36.375 
Q 5.609375 53.953125 15.125 64.078125 
Q 24.65625 74.21875 41.21875 74.21875 
Q 47.75 74.21875 53.53125 72.484375 
Q 59.328125 70.75 64.40625 67.28125 
z
" id="DejaVuSans-67"/>
      <path d="M 19.671875 64.796875 
L 19.671875 8.109375 
L 31.59375 8.109375 
Q 46.6875 8.109375 53.6875 14.9375 
Q 60.6875 21.78125 60.6875 36.53125 
Q 60.6875 51.171875 53.6875 57.984375 
Q 46.6875 64.796875 31.59375 64.796875 
z
M 9.8125 72.90625 
L 30.078125 72.90625 
Q 51.265625 72.90625 61.171875 64.09375 
Q 71.09375 55.28125 71.09375 36.53125 
Q 71.09375 17.671875 61.125 8.828125 
Q 51.171875 0 30.078125 0 
L 9.8125 0 
z
" id="DejaVuSans-68"/>
      <path d="M 9.8125 72.90625 
L 51.703125 72.90625 
L 51.703125 64.59375 
L 19.671875 64.59375 
L 19.671875 43.109375 
L 48.578125 43.109375 
L 48.578125 34.8125 
L 19.671875 34.8125 
L 19.671875 0 
L 9.8125 0 
z
" id="DejaVuSans-70"/>
     </defs>
     <g transform="translate(79.017187 321.609219)rotate(-90)scale(0.1 -0.1)">
      <use xlink:href="#DejaVuSans-73"/>
      <use x="29.492188" xlink:href="#DejaVuSans-109"/>
      <use x="126.904297" xlink:href="#DejaVuSans-112"/>
      <use x="190.380859" xlink:href="#DejaVuSans-101"/>
      <use x="251.904297" xlink:href="#DejaVuSans-114"/>
      <use x="293.017578" xlink:href="#DejaVuSans-105"/>
      <use x="320.800781" xlink:href="#DejaVuSans-99"/>
      <use x="375.78125" xlink:href="#DejaVuSans-97"/>
      <use x="437.060547" xlink:href="#DejaVuSans-108"/>
      <use x="464.84375" xlink:href="#DejaVuSans-32"/>
      <use x="496.630859" xlink:href="#DejaVuSans-67"/>
      <use x="566.455078" xlink:href="#DejaVuSans-68"/>
      <use x="643.457031" xlink:href="#DejaVuSans-70"/>
     </g>
    </g>
   </g>
   <g id="patch_4">
    <path d="M 108 504 
L 108 69.12 
" style="fill:none;stroke:#000000;stroke-linecap:square;stroke-linejoin:miter;stroke-width:0.8;"/>
   </g>
   <g id="patch_5">
    <path d="M 777.6 504 
L 777.6 69.12 
" style="fill:none;stroke:#000000;stroke-linecap:square;stroke-linejoin:miter;stroke-width:0.8;"/>
   </g>
   <g id="patch_6">
    <path d="M 108 504 
L 777.6 504 
" style="fill:none;stroke:#000000;stroke-linecap:square;stroke-linejoin:miter;stroke-width:0.8;"/>
   </g>
   <g id="patch_7">
    <path d="M 108 69.12 
L 777.6 69.12 
" style="fill:none;stroke:#000000;stroke-linecap:square;stroke-linejoin:miter;stroke-width:0.8;"/>
   </g>
   <g id="text_17">
    <!-- CDF of SBP Estimation Error Using DT -->
    <defs>
     <path d="M 37.109375 75.984375 
L 37.109375 68.5 
L 28.515625 68.5 
Q 23.6875 68.5 21.796875 66.546875 
Q 19.921875 64.59375 19.921875 59.515625 
L 19.921875 54.6875 
L 34.71875 54.6875 
L 34.71875 47.703125 
L 19.921875 47.703125 
L 19.921875 0 
L 10.890625 0 
L 10.890625 47.703125 
L 2.296875 47.703125 
L 2.296875 54.6875 
L 10.890625 54.6875 
L 10.890625 58.5 
Q 10.890625 67.625 15.140625 71.796875 
Q 19.390625 75.984375 28.609375 75.984375 
z
" id="DejaVuSans-102"/>
     <path d="M 53.515625 70.515625 
L 53.515625 60.890625 
Q 47.90625 63.578125 42.921875 64.890625 
Q 37.9375 66.21875 33.296875 66.21875 
Q 25.25 66.21875 20.875 63.09375 
Q 16.5 59.96875 16.5 54.203125 
Q 16.5 49.359375 19.40625 46.890625 
Q 22.3125 44.4375 30.421875 42.921875 
L 36.375 41.703125 
Q 47.40625 39.59375 52.65625 34.296875 
Q 57.90625 29 57.90625 20.125 
Q 57.90625 9.515625 50.796875 4.046875 
Q 43.703125 -1.421875 29.984375 -1.421875 
Q 24.8125 -1.421875 18.96875 -0.25 
Q 13.140625 0.921875 6.890625 3.21875 
L 6.890625 13.375 
Q 12.890625 10.015625 18.65625 8.296875 
Q 24.421875 6.59375 29.984375 6.59375 
Q 38.421875 6.59375 43.015625 9.90625 
Q 47.609375 13.234375 47.609375 19.390625 
Q 47.609375 24.75 44.3125 27.78125 
Q 41.015625 30.8125 33.5 32.328125 
L 27.484375 33.5 
Q 16.453125 35.6875 11.515625 40.375 
Q 6.59375 45.0625 6.59375 53.421875 
Q 6.59375 63.09375 13.40625 68.65625 
Q 20.21875 74.21875 32.171875 74.21875 
Q 37.3125 74.21875 42.625 73.28125 
Q 47.953125 72.359375 53.515625 70.515625 
z
" id="DejaVuSans-83"/>
     <path d="M 19.671875 34.8125 
L 19.671875 8.109375 
L 35.5 8.109375 
Q 43.453125 8.109375 47.28125 11.40625 
Q 51.125 14.703125 51.125 21.484375 
Q 51.125 28.328125 47.28125 31.5625 
Q 43.453125 34.8125 35.5 34.8125 
z
M 19.671875 64.796875 
L 19.671875 42.828125 
L 34.28125 42.828125 
Q 41.5 42.828125 45.03125 45.53125 
Q 48.578125 48.25 48.578125 53.8125 
Q 48.578125 59.328125 45.03125 62.0625 
Q 41.5 64.796875 34.28125 64.796875 
z
M 9.8125 72.90625 
L 35.015625 72.90625 
Q 46.296875 72.90625 52.390625 68.21875 
Q 58.5 63.53125 58.5 54.890625 
Q 58.5 48.1875 55.375 44.234375 
Q 52.25 40.28125 46.1875 39.3125 
Q 53.46875 37.75 57.5 32.78125 
Q 61.53125 27.828125 61.53125 20.40625 
Q 61.53125 10.640625 54.890625 5.3125 
Q 48.25 0 35.984375 0 
L 9.8125 0 
z
" id="DejaVuSans-66"/>
     <path d="M 19.671875 64.796875 
L 19.671875 37.40625 
L 32.078125 37.40625 
Q 38.96875 37.40625 42.71875 40.96875 
Q 46.484375 44.53125 46.484375 51.125 
Q 46.484375 57.671875 42.71875 61.234375 
Q 38.96875 64.796875 32.078125 64.796875 
z
M 9.8125 72.90625 
L 32.078125 72.90625 
Q 44.34375 72.90625 50.609375 67.359375 
Q 56.890625 61.8125 56.890625 51.125 
Q 56.890625 40.328125 50.609375 34.8125 
Q 44.34375 29.296875 32.078125 29.296875 
L 19.671875 29.296875 
L 19.671875 0 
L 9.8125 0 
z
" id="DejaVuSans-80"/>
     <path d="M 44.28125 53.078125 
L 44.28125 44.578125 
Q 40.484375 46.53125 36.375 47.5 
Q 32.28125 48.484375 27.875 48.484375 
Q 21.1875 48.484375 17.84375 46.4375 
Q 14.5 44.390625 14.5 40.28125 
Q 14.5 37.15625 16.890625 35.375 
Q 19.28125 33.59375 26.515625 31.984375 
L 29.59375 31.296875 
Q 39.15625 29.25 43.1875 25.515625 
Q 47.21875 21.78125 47.21875 15.09375 
Q 47.21875 7.46875 41.1875 3.015625 
Q 35.15625 -1.421875 24.609375 -1.421875 
Q 20.21875 -1.421875 15.453125 -0.5625 
Q 10.6875 0.296875 5.421875 2 
L 5.421875 11.28125 
Q 10.40625 8.6875 15.234375 7.390625 
Q 20.0625 6.109375 24.8125 6.109375 
Q 31.15625 6.109375 34.5625 8.28125 
Q 37.984375 10.453125 37.984375 14.40625 
Q 37.984375 18.0625 35.515625 20.015625 
Q 33.0625 21.96875 24.703125 23.78125 
L 21.578125 24.515625 
Q 13.234375 26.265625 9.515625 29.90625 
Q 5.8125 33.546875 5.8125 39.890625 
Q 5.8125 47.609375 11.28125 51.796875 
Q 16.75 56 26.8125 56 
Q 31.78125 56 36.171875 55.265625 
Q 40.578125 54.546875 44.28125 53.078125 
z
" id="DejaVuSans-115"/>
     <path d="M 18.3125 70.21875 
L 18.3125 54.6875 
L 36.8125 54.6875 
L 36.8125 47.703125 
L 18.3125 47.703125 
L 18.3125 18.015625 
Q 18.3125 11.328125 20.140625 9.421875 
Q 21.96875 7.515625 27.59375 7.515625 
L 36.8125 7.515625 
L 36.8125 0 
L 27.59375 0 
Q 17.1875 0 13.234375 3.875 
Q 9.28125 7.765625 9.28125 18.015625 
L 9.28125 47.703125 
L 2.6875 47.703125 
L 2.6875 54.6875 
L 9.28125 54.6875 
L 9.28125 70.21875 
z
" id="DejaVuSans-116"/>
     <path d="M 54.890625 33.015625 
L 54.890625 0 
L 45.90625 0 
L 45.90625 32.71875 
Q 45.90625 40.484375 42.875 44.328125 
Q 39.84375 48.1875 33.796875 48.1875 
Q 26.515625 48.1875 22.3125 43.546875 
Q 18.109375 38.921875 18.109375 30.90625 
L 18.109375 0 
L 9.078125 0 
L 9.078125 54.6875 
L 18.109375 54.6875 
L 18.109375 46.1875 
Q 21.34375 51.125 25.703125 53.5625 
Q 30.078125 56 35.796875 56 
Q 45.21875 56 50.046875 50.171875 
Q 54.890625 44.34375 54.890625 33.015625 
z
" id="DejaVuSans-110"/>
     <path d="M 8.6875 72.90625 
L 18.609375 72.90625 
L 18.609375 28.609375 
Q 18.609375 16.890625 22.84375 11.734375 
Q 27.09375 6.59375 36.625 6.59375 
Q 46.09375 6.59375 50.34375 11.734375 
Q 54.59375 16.890625 54.59375 28.609375 
L 54.59375 72.90625 
L 64.5 72.90625 
L 64.5 27.390625 
Q 64.5 13.140625 57.4375 5.859375 
Q 50.390625 -1.421875 36.625 -1.421875 
Q 22.796875 -1.421875 15.734375 5.859375 
Q 8.6875 13.140625 8.6875 27.390625 
z
" id="DejaVuSans-85"/>
     <path d="M -0.296875 72.90625 
L 61.375 72.90625 
L 61.375 64.59375 
L 35.5 64.59375 
L 35.5 0 
L 25.59375 0 
L 25.59375 64.59375 
L -0.296875 64.59375 
z
" id="DejaVuSans-84"/>
    </defs>
    <g transform="translate(329.881875 63.12)scale(0.12 -0.12)">
     <use xlink:href="#DejaVuSans-67"/>
     <use x="69.824219" xlink:href="#DejaVuSans-68"/>
     <use x="146.826172" xlink:href="#DejaVuSans-70"/>
     <use x="204.345703" xlink:href="#DejaVuSans-32"/>
     <use x="236.132812" xlink:href="#DejaVuSans-111"/>
     <use x="297.314453" xlink:href="#DejaVuSans-102"/>
     <use x="332.519531" xlink:href="#DejaVuSans-32"/>
     <use x="364.306641" xlink:href="#DejaVuSans-83"/>
     <use x="427.783203" xlink:href="#DejaVuSans-66"/>
     <use x="496.386719" xlink:href="#DejaVuSans-80"/>
     <use x="556.689453" xlink:href="#DejaVuSans-32"/>
     <use x="588.476562" xlink:href="#DejaVuSans-69"/>
     <use x="651.660156" xlink:href="#DejaVuSans-115"/>
     <use x="703.759766" xlink:href="#DejaVuSans-116"/>
     <use x="742.96875" xlink:href="#DejaVuSans-105"/>
     <use x="770.751953" xlink:href="#DejaVuSans-109"/>
     <use x="868.164062" xlink:href="#DejaVuSans-97"/>
     <use x="929.443359" xlink:href="#DejaVuSans-116"/>
     <use x="968.652344" xlink:href="#DejaVuSans-105"/>
     <use x="996.435547" xlink:href="#DejaVuSans-111"/>
     <use x="1057.617188" xlink:href="#DejaVuSans-110"/>
     <use x="1120.996094" xlink:href="#DejaVuSans-32"/>
     <use x="1152.783203" xlink:href="#DejaVuSans-69"/>
     <use x="1215.966797" xlink:href="#DejaVuSans-114"/>
     <use x="1257.064453" xlink:href="#DejaVuSans-114"/>
     <use x="1298.146484" xlink:href="#DejaVuSans-111"/>
     <use x="1359.328125" xlink:href="#DejaVuSans-114"/>
     <use x="1400.441406" xlink:href="#DejaVuSans-32"/>
     <use x="1432.228516" xlink:href="#DejaVuSans-85"/>
     <use x="1505.421875" xlink:href="#DejaVuSans-115"/>
     <use x="1557.521484" xlink:href="#DejaVuSans-105"/>
     <use x="1585.304688" xlink:href="#DejaVuSans-110"/>
     <use x="1648.683594" xlink:href="#DejaVuSans-103"/>
     <use x="1712.160156" xlink:href="#DejaVuSans-32"/>
     <use x="1743.947266" xlink:href="#DejaVuSans-68"/>
     <use x="1820.949219" xlink:href="#DejaVuSans-84"/>
    </g>
   </g>
  </g>
 </g>
 <defs>
  <clipPath id="p6bd73d503a">
   <rect height="434.88" width="669.6" x="108" y="69.12"/>
  </clipPath>
 </defs>
</svg>
