<?xml version="1.0" encoding="utf-8" standalone="no"?>
<!DOCTYPE svg PUBLIC "-//W3C//DTD SVG 1.1//EN"
  "http://www.w3.org/Graphics/SVG/1.1/DTD/svg11.dtd">
<!-- Created with matplotlib (https://matplotlib.org/) -->
<svg height="576pt" version="1.1" viewBox="0 0 864 576" width="864pt" xmlns="http://www.w3.org/2000/svg" xmlns:xlink="http://www.w3.org/1999/xlink">
 <defs>
  <style type="text/css">
*{stroke-linecap:butt;stroke-linejoin:round;}
  </style>
 </defs>
 <g id="figure_1">
  <g id="patch_1">
   <path d="M 0 576 
L 864 576 
L 864 0 
L 0 0 
z
" style="fill:#ffffff;"/>
  </g>
  <g id="axes_1">
   <g id="patch_2">
    <path d="M 108 504 
L 777.6 504 
L 777.6 69.12 
L 108 69.12 
z
" style="fill:#ffffff;"/>
   </g>
   <g id="patch_3">
    <path clip-path="url(#p3e77ee7783)" d="M 138.436364 504 
L 138.436364 499.835894 
L 139.653818 499.835894 
L 139.653818 496.614604 
L 140.871273 496.614604 
L 140.871273 493.15761 
L 142.088727 493.15761 
L 142.088727 489.897037 
L 143.306182 489.897037 
L 143.306182 486.675747 
L 144.523636 486.675747 
L 144.523636 482.825913 
L 145.741091 482.825913 
L 145.741091 479.093931 
L 146.958545 479.093931 
L 146.958545 475.047677 
L 148.176 475.047677 
L 148.176 470.922855 
L 149.393455 470.922855 
L 149.393455 467.230157 
L 150.610909 467.230157 
L 150.610909 464.126719 
L 151.828364 464.126719 
L 151.828364 460.080465 
L 153.045818 460.080465 
L 153.045818 456.034211 
L 154.263273 456.034211 
L 154.263273 452.891489 
L 155.480727 452.891489 
L 155.480727 449.513064 
L 156.698182 449.513064 
L 156.698182 446.44891 
L 157.915636 446.44891 
L 157.915636 443.42404 
L 159.133091 443.42404 
L 159.133091 439.80991 
L 160.350545 439.80991 
L 160.350545 436.117213 
L 161.568 436.117213 
L 161.568 432.581651 
L 162.785455 432.581651 
L 162.785455 429.321077 
L 164.002909 429.321077 
L 164.002909 425.314107 
L 165.220364 425.314107 
L 165.220364 422.092817 
L 166.437818 422.092817 
L 166.437818 418.085847 
L 167.655273 418.085847 
L 167.655273 414.707421 
L 168.872727 414.707421 
L 168.872727 410.818303 
L 170.090182 410.818303 
L 170.090182 407.636298 
L 171.307636 407.636298 
L 171.307636 404.611428 
L 172.525091 404.611428 
L 172.525091 400.486606 
L 173.742545 400.486606 
L 173.742545 397.383168 
L 174.96 397.383168 
L 174.96 393.376198 
L 176.177455 393.376198 
L 176.177455 389.997772 
L 177.394909 389.997772 
L 177.394909 386.776483 
L 178.612364 386.776483 
L 178.612364 383.948033 
L 179.829818 383.948033 
L 179.829818 379.666075 
L 181.047273 379.666075 
L 181.047273 375.659105 
L 182.264727 375.659105 
L 182.264727 371.966407 
L 183.482182 371.966407 
L 183.482182 368.352277 
L 184.699636 368.352277 
L 184.699636 364.973851 
L 185.917091 364.973851 
L 185.917091 361.516857 
L 187.134545 361.516857 
L 187.134545 357.470603 
L 188.352 357.470603 
L 188.352 354.092178 
L 189.569455 354.092178 
L 189.569455 350.5959 
L 190.786909 350.5959 
L 190.786909 347.531746 
L 192.004364 347.531746 
L 192.004364 344.781865 
L 193.221818 344.781865 
L 193.221818 341.403439 
L 194.439273 341.403439 
L 194.439273 338.535705 
L 195.656727 338.535705 
L 195.656727 335.15728 
L 196.874182 335.15728 
L 196.874182 331.896706 
L 198.091636 331.896706 
L 198.091636 328.91112 
L 199.309091 328.91112 
L 199.309091 325.454127 
L 200.526545 325.454127 
L 200.526545 321.997133 
L 201.744 321.997133 
L 201.744 318.186583 
L 202.961455 318.186583 
L 202.961455 315.475985 
L 204.178909 315.475985 
L 204.178909 312.136844 
L 205.396364 312.136844 
L 205.396364 308.640566 
L 206.613818 308.640566 
L 206.613818 305.45856 
L 207.831273 305.45856 
L 207.831273 302.472975 
L 209.048727 302.472975 
L 209.048727 299.487389 
L 210.266182 299.487389 
L 210.266182 297.091064 
L 211.483636 297.091064 
L 211.483636 294.144762 
L 212.701091 294.144762 
L 212.701091 291.119893 
L 213.918545 291.119893 
L 213.918545 288.330727 
L 215.136 288.330727 
L 215.136 285.266574 
L 216.353455 285.266574 
L 216.353455 282.870248 
L 217.570909 282.870248 
L 217.570909 279.609675 
L 218.788364 279.609675 
L 218.788364 276.545521 
L 220.005818 276.545521 
L 220.005818 273.324231 
L 221.223273 273.324231 
L 221.223273 270.417214 
L 222.440727 270.417214 
L 222.440727 267.628048 
L 223.658182 267.628048 
L 223.658182 265.388859 
L 224.875636 265.388859 
L 224.875636 262.403274 
L 226.093091 262.403274 
L 226.093091 259.692676 
L 227.310545 259.692676 
L 227.310545 257.139215 
L 228.528 257.139215 
L 228.528 254.153629 
L 229.745455 254.153629 
L 229.745455 251.050192 
L 230.962909 251.050192 
L 230.962909 248.418162 
L 232.180364 248.418162 
L 232.180364 245.786133 
L 233.397818 245.786133 
L 233.397818 243.271956 
L 234.615273 243.271956 
L 234.615273 240.954198 
L 235.832727 240.954198 
L 235.832727 238.518589 
L 237.050182 238.518589 
L 237.050182 236.240116 
L 238.267636 236.240116 
L 238.267636 233.490235 
L 239.485091 233.490235 
L 239.485091 230.936773 
L 240.702545 230.936773 
L 240.702545 228.383312 
L 241.92 228.383312 
L 241.92 226.026271 
L 243.137455 226.026271 
L 243.137455 223.983502 
L 244.354909 223.983502 
L 244.354909 221.62646 
L 245.572364 221.62646 
L 245.572364 219.190851 
L 246.789818 219.190851 
L 246.789818 216.794526 
L 248.007273 216.794526 
L 248.007273 214.555337 
L 249.224727 214.555337 
L 249.224727 212.159011 
L 250.442182 212.159011 
L 250.442182 209.959106 
L 251.659636 209.959106 
L 251.659636 207.562781 
L 252.877091 207.562781 
L 252.877091 205.127172 
L 254.094545 205.127172 
L 254.094545 202.652278 
L 255.312 202.652278 
L 255.312 200.923782 
L 256.529455 200.923782 
L 256.529455 198.920296 
L 257.746909 198.920296 
L 257.746909 197.113232 
L 258.964364 197.113232 
L 258.964364 195.384735 
L 260.181818 195.384735 
L 260.181818 193.57767 
L 261.399273 193.57767 
L 261.399273 191.299196 
L 262.616727 191.299196 
L 262.616727 188.785019 
L 263.834182 188.785019 
L 263.834182 186.93867 
L 265.051636 186.93867 
L 265.051636 184.699481 
L 266.269091 184.699481 
L 266.269091 182.34244 
L 267.486545 182.34244 
L 267.486545 180.849647 
L 268.704 180.849647 
L 268.704 179.081866 
L 269.921455 179.081866 
L 269.921455 177.353369 
L 271.138909 177.353369 
L 271.138909 175.624872 
L 272.356364 175.624872 
L 272.356364 174.289216 
L 273.573818 174.289216 
L 273.573818 173.032127 
L 274.791273 173.032127 
L 274.791273 171.539334 
L 276.008727 171.539334 
L 276.008727 169.496565 
L 277.226182 169.496565 
L 277.226182 168.121624 
L 278.443636 168.121624 
L 278.443636 166.51098 
L 279.661091 166.51098 
L 279.661091 164.939619 
L 280.878545 164.939619 
L 280.878545 163.643246 
L 282.096 163.643246 
L 282.096 162.346873 
L 283.313455 162.346873 
L 283.313455 160.736229 
L 284.530909 160.736229 
L 284.530909 159.439856 
L 285.748364 159.439856 
L 285.748364 157.829211 
L 286.965818 157.829211 
L 286.965818 157.043531 
L 288.183273 157.043531 
L 288.183273 155.432886 
L 289.400727 155.432886 
L 289.400727 153.940093 
L 290.618182 153.940093 
L 290.618182 152.84014 
L 291.835636 152.84014 
L 291.835636 151.4652 
L 293.053091 151.4652 
L 293.053091 149.972407 
L 294.270545 149.972407 
L 294.270545 148.754602 
L 295.488 148.754602 
L 295.488 147.615366 
L 296.705455 147.615366 
L 296.705455 146.279709 
L 297.922909 146.279709 
L 297.922909 144.983336 
L 299.140364 144.983336 
L 299.140364 143.726248 
L 300.357818 143.726248 
L 300.357818 142.037035 
L 301.575273 142.037035 
L 301.575273 140.976366 
L 302.792727 140.976366 
L 302.792727 139.954982 
L 304.010182 139.954982 
L 304.010182 138.737177 
L 305.227636 138.737177 
L 305.227636 137.912213 
L 306.445091 137.912213 
L 306.445091 136.61584 
L 307.662545 136.61584 
L 307.662545 135.358751 
L 308.88 135.358751 
L 308.88 134.298083 
L 310.097455 134.298083 
L 310.097455 133.237414 
L 311.314909 133.237414 
L 311.314909 131.980325 
L 312.532364 131.980325 
L 312.532364 131.155361 
L 313.749818 131.155361 
L 313.749818 130.291113 
L 314.967273 130.291113 
L 314.967273 129.269728 
L 316.184727 129.269728 
L 316.184727 128.444764 
L 317.402182 128.444764 
L 317.402182 127.580515 
L 318.619636 127.580515 
L 318.619636 126.676983 
L 319.837091 126.676983 
L 319.837091 126.127006 
L 321.054545 126.127006 
L 321.054545 125.459178 
L 322.272 125.459178 
L 322.272 124.830634 
L 323.489455 124.830634 
L 323.489455 123.848533 
L 324.706909 123.848533 
L 324.706909 123.180705 
L 325.924364 123.180705 
L 325.924364 122.395024 
L 327.141818 122.395024 
L 327.141818 121.727196 
L 328.359273 121.727196 
L 328.359273 120.862948 
L 329.576727 120.862948 
L 329.576727 119.998699 
L 330.794182 119.998699 
L 330.794182 119.409439 
L 332.011636 119.409439 
L 332.011636 118.34877 
L 333.229091 118.34877 
L 333.229091 117.680942 
L 334.446545 117.680942 
L 334.446545 117.013114 
L 335.664 117.013114 
L 335.664 116.266717 
L 336.881455 116.266717 
L 336.881455 115.441753 
L 338.098909 115.441753 
L 338.098909 114.813208 
L 339.316364 114.813208 
L 339.316364 114.420368 
L 340.533818 114.420368 
L 340.533818 113.595404 
L 341.751273 113.595404 
L 341.751273 112.927576 
L 342.968727 112.927576 
L 342.968727 112.456167 
L 344.186182 112.456167 
L 344.186182 111.631203 
L 345.403636 111.631203 
L 345.403636 111.081227 
L 346.621091 111.081227 
L 346.621091 110.491966 
L 347.838545 110.491966 
L 347.838545 110.020558 
L 349.056 110.020558 
L 349.056 109.431298 
L 350.273455 109.431298 
L 350.273455 108.724185 
L 351.490909 108.724185 
L 351.490909 107.977789 
L 352.708364 107.977789 
L 352.708364 107.270677 
L 353.925818 107.270677 
L 353.925818 106.602848 
L 355.143273 106.602848 
L 355.143273 105.856452 
L 356.360727 105.856452 
L 356.360727 105.227907 
L 357.578182 105.227907 
L 357.578182 104.481511 
L 358.795636 104.481511 
L 358.795636 103.538695 
L 360.013091 103.538695 
L 360.013091 103.145854 
L 361.230545 103.145854 
L 361.230545 102.753014 
L 362.448 102.753014 
L 362.448 102.32089 
L 363.665455 102.32089 
L 363.665455 101.849482 
L 364.882909 101.849482 
L 364.882909 101.260221 
L 366.100364 101.260221 
L 366.100364 100.945949 
L 367.317818 100.945949 
L 367.317818 100.513825 
L 368.535273 100.513825 
L 368.535273 100.042417 
L 369.752727 100.042417 
L 369.752727 99.610293 
L 370.970182 99.610293 
L 370.970182 99.29602 
L 372.187636 99.29602 
L 372.187636 98.70676 
L 373.405091 98.70676 
L 373.405091 98.51034 
L 374.622545 98.51034 
L 374.622545 98.235352 
L 375.84 98.235352 
L 375.84 98.038932 
L 377.057455 98.038932 
L 377.057455 97.763944 
L 378.274909 97.763944 
L 378.274909 97.371103 
L 379.492364 97.371103 
L 379.492364 97.017547 
L 380.709818 97.017547 
L 380.709818 96.742559 
L 381.927273 96.742559 
L 381.927273 96.349719 
L 383.144727 96.349719 
L 383.144727 95.956879 
L 384.362182 95.956879 
L 384.362182 95.760459 
L 385.579636 95.760459 
L 385.579636 95.367618 
L 386.797091 95.367618 
L 386.797091 95.014062 
L 388.014545 95.014062 
L 388.014545 94.778358 
L 389.232 94.778358 
L 389.232 94.542654 
L 391.666909 94.464086 
L 391.666909 94.149814 
L 392.884364 94.149814 
L 392.884364 93.953394 
L 394.101818 93.953394 
L 394.101818 93.717689 
L 396.536727 93.639121 
L 396.536727 93.403417 
L 397.754182 93.403417 
L 397.754182 93.285565 
L 400.189091 93.246281 
L 400.189091 93.010577 
L 402.624 92.932009 
L 402.624 92.774873 
L 403.841455 92.774873 
L 403.841455 92.539169 
L 405.058909 92.539169 
L 405.058909 92.421317 
L 406.276364 92.421317 
L 406.276364 92.224897 
L 407.493818 92.224897 
L 407.493818 92.107045 
L 408.711273 92.107045 
L 408.711273 91.989193 
L 411.146182 91.949909 
L 411.146182 91.714204 
L 412.363636 91.714204 
L 412.363636 91.517784 
L 413.581091 91.517784 
L 413.581091 91.360648 
L 417.233455 91.321364 
L 417.233455 91.242796 
L 420.885818 91.164228 
L 420.885818 91.08566 
L 423.320727 91.046376 
L 423.320727 90.928524 
L 424.538182 90.928524 
L 424.538182 90.810672 
L 426.973091 90.810672 
L 426.973091 90.69282 
L 428.190545 90.69282 
L 428.190545 90.535684 
L 431.842909 90.457116 
L 431.842909 90.417832 
L 433.060364 90.417832 
L 433.060364 90.29998 
L 437.930182 90.260696 
L 437.930182 90.182128 
L 454.974545 90.10356 
L 454.974545 90.064276 
L 462.279273 89.985708 
L 462.279273 89.946423 
L 745.946182 89.867855 
L 745.946182 89.828571 
L 747.163636 89.828571 
L 747.163636 504 
L 747.163636 504 
" style="fill:none;stroke:#1f77b4;stroke-linejoin:miter;"/>
   </g>
   <g id="matplotlib.axis_1">
    <g id="xtick_1">
     <g id="line2d_1">
      <path clip-path="url(#p3e77ee7783)" d="M 138.425064 504 
L 138.425064 69.12 
" style="fill:none;stroke:#808080;stroke-dasharray:9.6,2.4,1.5,2.4;stroke-dashoffset:0;stroke-opacity:0.6;stroke-width:1.5;"/>
     </g>
     <g id="line2d_2">
      <defs>
       <path d="M 0 0 
L 0 3.5 
" id="md9399e4a74" style="stroke:#000000;stroke-width:0.8;"/>
      </defs>
      <g>
       <use style="stroke:#000000;stroke-width:0.8;" x="138.425064" xlink:href="#md9399e4a74" y="504"/>
      </g>
     </g>
     <g id="text_1">
      <!-- 0 -->
      <defs>
       <path d="M 31.78125 66.40625 
Q 24.171875 66.40625 20.328125 58.90625 
Q 16.5 51.421875 16.5 36.375 
Q 16.5 21.390625 20.328125 13.890625 
Q 24.171875 6.390625 31.78125 6.390625 
Q 39.453125 6.390625 43.28125 13.890625 
Q 47.125 21.390625 47.125 36.375 
Q 47.125 51.421875 43.28125 58.90625 
Q 39.453125 66.40625 31.78125 66.40625 
z
M 31.78125 74.21875 
Q 44.046875 74.21875 50.515625 64.515625 
Q 56.984375 54.828125 56.984375 36.375 
Q 56.984375 17.96875 50.515625 8.265625 
Q 44.046875 -1.421875 31.78125 -1.421875 
Q 19.53125 -1.421875 13.0625 8.265625 
Q 6.59375 17.96875 6.59375 36.375 
Q 6.59375 54.828125 13.0625 64.515625 
Q 19.53125 74.21875 31.78125 74.21875 
z
" id="DejaVuSans-48"/>
      </defs>
      <g transform="translate(135.243814 518.598438)scale(0.1 -0.1)">
       <use xlink:href="#DejaVuSans-48"/>
      </g>
     </g>
    </g>
    <g id="xtick_2">
     <g id="line2d_3">
      <path clip-path="url(#p3e77ee7783)" d="M 249.504139 504 
L 249.504139 69.12 
" style="fill:none;stroke:#808080;stroke-dasharray:9.6,2.4,1.5,2.4;stroke-dashoffset:0;stroke-opacity:0.6;stroke-width:1.5;"/>
     </g>
     <g id="line2d_4">
      <g>
       <use style="stroke:#000000;stroke-width:0.8;" x="249.504139" xlink:href="#md9399e4a74" y="504"/>
      </g>
     </g>
     <g id="text_2">
      <!-- 20 -->
      <defs>
       <path d="M 19.1875 8.296875 
L 53.609375 8.296875 
L 53.609375 0 
L 7.328125 0 
L 7.328125 8.296875 
Q 12.9375 14.109375 22.625 23.890625 
Q 32.328125 33.6875 34.8125 36.53125 
Q 39.546875 41.84375 41.421875 45.53125 
Q 43.3125 49.21875 43.3125 52.78125 
Q 43.3125 58.59375 39.234375 62.25 
Q 35.15625 65.921875 28.609375 65.921875 
Q 23.96875 65.921875 18.8125 64.3125 
Q 13.671875 62.703125 7.8125 59.421875 
L 7.8125 69.390625 
Q 13.765625 71.78125 18.9375 73 
Q 24.125 74.21875 28.421875 74.21875 
Q 39.75 74.21875 46.484375 68.546875 
Q 53.21875 62.890625 53.21875 53.421875 
Q 53.21875 48.921875 51.53125 44.890625 
Q 49.859375 40.875 45.40625 35.40625 
Q 44.1875 33.984375 37.640625 27.21875 
Q 31.109375 20.453125 19.1875 8.296875 
z
" id="DejaVuSans-50"/>
      </defs>
      <g transform="translate(243.141639 518.598438)scale(0.1 -0.1)">
       <use xlink:href="#DejaVuSans-50"/>
       <use x="63.623047" xlink:href="#DejaVuSans-48"/>
      </g>
     </g>
    </g>
    <g id="xtick_3">
     <g id="line2d_5">
      <path clip-path="url(#p3e77ee7783)" d="M 360.583215 504 
L 360.583215 69.12 
" style="fill:none;stroke:#808080;stroke-dasharray:9.6,2.4,1.5,2.4;stroke-dashoffset:0;stroke-opacity:0.6;stroke-width:1.5;"/>
     </g>
     <g id="line2d_6">
      <g>
       <use style="stroke:#000000;stroke-width:0.8;" x="360.583215" xlink:href="#md9399e4a74" y="504"/>
      </g>
     </g>
     <g id="text_3">
      <!-- 40 -->
      <defs>
       <path d="M 37.796875 64.3125 
L 12.890625 25.390625 
L 37.796875 25.390625 
z
M 35.203125 72.90625 
L 47.609375 72.90625 
L 47.609375 25.390625 
L 58.015625 25.390625 
L 58.015625 17.1875 
L 47.609375 17.1875 
L 47.609375 0 
L 37.796875 0 
L 37.796875 17.1875 
L 4.890625 17.1875 
L 4.890625 26.703125 
z
" id="DejaVuSans-52"/>
      </defs>
      <g transform="translate(354.220715 518.598438)scale(0.1 -0.1)">
       <use xlink:href="#DejaVuSans-52"/>
       <use x="63.623047" xlink:href="#DejaVuSans-48"/>
      </g>
     </g>
    </g>
    <g id="xtick_4">
     <g id="line2d_7">
      <path clip-path="url(#p3e77ee7783)" d="M 471.66229 504 
L 471.66229 69.12 
" style="fill:none;stroke:#808080;stroke-dasharray:9.6,2.4,1.5,2.4;stroke-dashoffset:0;stroke-opacity:0.6;stroke-width:1.5;"/>
     </g>
     <g id="line2d_8">
      <g>
       <use style="stroke:#000000;stroke-width:0.8;" x="471.66229" xlink:href="#md9399e4a74" y="504"/>
      </g>
     </g>
     <g id="text_4">
      <!-- 60 -->
      <defs>
       <path d="M 33.015625 40.375 
Q 26.375 40.375 22.484375 35.828125 
Q 18.609375 31.296875 18.609375 23.390625 
Q 18.609375 15.53125 22.484375 10.953125 
Q 26.375 6.390625 33.015625 6.390625 
Q 39.65625 6.390625 43.53125 10.953125 
Q 47.40625 15.53125 47.40625 23.390625 
Q 47.40625 31.296875 43.53125 35.828125 
Q 39.65625 40.375 33.015625 40.375 
z
M 52.59375 71.296875 
L 52.59375 62.3125 
Q 48.875 64.0625 45.09375 64.984375 
Q 41.3125 65.921875 37.59375 65.921875 
Q 27.828125 65.921875 22.671875 59.328125 
Q 17.53125 52.734375 16.796875 39.40625 
Q 19.671875 43.65625 24.015625 45.921875 
Q 28.375 48.1875 33.59375 48.1875 
Q 44.578125 48.1875 50.953125 41.515625 
Q 57.328125 34.859375 57.328125 23.390625 
Q 57.328125 12.15625 50.6875 5.359375 
Q 44.046875 -1.421875 33.015625 -1.421875 
Q 20.359375 -1.421875 13.671875 8.265625 
Q 6.984375 17.96875 6.984375 36.375 
Q 6.984375 53.65625 15.1875 63.9375 
Q 23.390625 74.21875 37.203125 74.21875 
Q 40.921875 74.21875 44.703125 73.484375 
Q 48.484375 72.75 52.59375 71.296875 
z
" id="DejaVuSans-54"/>
      </defs>
      <g transform="translate(465.29979 518.598438)scale(0.1 -0.1)">
       <use xlink:href="#DejaVuSans-54"/>
       <use x="63.623047" xlink:href="#DejaVuSans-48"/>
      </g>
     </g>
    </g>
    <g id="xtick_5">
     <g id="line2d_9">
      <path clip-path="url(#p3e77ee7783)" d="M 582.741366 504 
L 582.741366 69.12 
" style="fill:none;stroke:#808080;stroke-dasharray:9.6,2.4,1.5,2.4;stroke-dashoffset:0;stroke-opacity:0.6;stroke-width:1.5;"/>
     </g>
     <g id="line2d_10">
      <g>
       <use style="stroke:#000000;stroke-width:0.8;" x="582.741366" xlink:href="#md9399e4a74" y="504"/>
      </g>
     </g>
     <g id="text_5">
      <!-- 80 -->
      <defs>
       <path d="M 31.78125 34.625 
Q 24.75 34.625 20.71875 30.859375 
Q 16.703125 27.09375 16.703125 20.515625 
Q 16.703125 13.921875 20.71875 10.15625 
Q 24.75 6.390625 31.78125 6.390625 
Q 38.8125 6.390625 42.859375 10.171875 
Q 46.921875 13.96875 46.921875 20.515625 
Q 46.921875 27.09375 42.890625 30.859375 
Q 38.875 34.625 31.78125 34.625 
z
M 21.921875 38.8125 
Q 15.578125 40.375 12.03125 44.71875 
Q 8.5 49.078125 8.5 55.328125 
Q 8.5 64.0625 14.71875 69.140625 
Q 20.953125 74.21875 31.78125 74.21875 
Q 42.671875 74.21875 48.875 69.140625 
Q 55.078125 64.0625 55.078125 55.328125 
Q 55.078125 49.078125 51.53125 44.71875 
Q 48 40.375 41.703125 38.8125 
Q 48.828125 37.15625 52.796875 32.3125 
Q 56.78125 27.484375 56.78125 20.515625 
Q 56.78125 9.90625 50.3125 4.234375 
Q 43.84375 -1.421875 31.78125 -1.421875 
Q 19.734375 -1.421875 13.25 4.234375 
Q 6.78125 9.90625 6.78125 20.515625 
Q 6.78125 27.484375 10.78125 32.3125 
Q 14.796875 37.15625 21.921875 38.8125 
z
M 18.3125 54.390625 
Q 18.3125 48.734375 21.84375 45.5625 
Q 25.390625 42.390625 31.78125 42.390625 
Q 38.140625 42.390625 41.71875 45.5625 
Q 45.3125 48.734375 45.3125 54.390625 
Q 45.3125 60.0625 41.71875 63.234375 
Q 38.140625 66.40625 31.78125 66.40625 
Q 25.390625 66.40625 21.84375 63.234375 
Q 18.3125 60.0625 18.3125 54.390625 
z
" id="DejaVuSans-56"/>
      </defs>
      <g transform="translate(576.378866 518.598438)scale(0.1 -0.1)">
       <use xlink:href="#DejaVuSans-56"/>
       <use x="63.623047" xlink:href="#DejaVuSans-48"/>
      </g>
     </g>
    </g>
    <g id="xtick_6">
     <g id="line2d_11">
      <path clip-path="url(#p3e77ee7783)" d="M 693.820441 504 
L 693.820441 69.12 
" style="fill:none;stroke:#808080;stroke-dasharray:9.6,2.4,1.5,2.4;stroke-dashoffset:0;stroke-opacity:0.6;stroke-width:1.5;"/>
     </g>
     <g id="line2d_12">
      <g>
       <use style="stroke:#000000;stroke-width:0.8;" x="693.820441" xlink:href="#md9399e4a74" y="504"/>
      </g>
     </g>
     <g id="text_6">
      <!-- 100 -->
      <defs>
       <path d="M 12.40625 8.296875 
L 28.515625 8.296875 
L 28.515625 63.921875 
L 10.984375 60.40625 
L 10.984375 69.390625 
L 28.421875 72.90625 
L 38.28125 72.90625 
L 38.28125 8.296875 
L 54.390625 8.296875 
L 54.390625 0 
L 12.40625 0 
z
" id="DejaVuSans-49"/>
      </defs>
      <g transform="translate(684.276691 518.598438)scale(0.1 -0.1)">
       <use xlink:href="#DejaVuSans-49"/>
       <use x="63.623047" xlink:href="#DejaVuSans-48"/>
       <use x="127.246094" xlink:href="#DejaVuSans-48"/>
      </g>
     </g>
    </g>
    <g id="xtick_7">
     <g id="line2d_13">
      <path clip-path="url(#p3e77ee7783)" d="M 110.655295 504 
L 110.655295 69.12 
" style="fill:none;stroke:#f5f5dc;stroke-linecap:square;stroke-opacity:0.8;"/>
     </g>
     <g id="line2d_14">
      <defs>
       <path d="M 0 0 
L 0 2 
" id="me4b55c8e69" style="stroke:#000000;stroke-width:0.6;"/>
      </defs>
      <g>
       <use style="stroke:#000000;stroke-width:0.6;" x="110.655295" xlink:href="#me4b55c8e69" y="504"/>
      </g>
     </g>
    </g>
    <g id="xtick_8">
     <g id="line2d_15">
      <path clip-path="url(#p3e77ee7783)" d="M 166.194833 504 
L 166.194833 69.12 
" style="fill:none;stroke:#f5f5dc;stroke-linecap:square;stroke-opacity:0.8;"/>
     </g>
     <g id="line2d_16">
      <g>
       <use style="stroke:#000000;stroke-width:0.6;" x="166.194833" xlink:href="#me4b55c8e69" y="504"/>
      </g>
     </g>
    </g>
    <g id="xtick_9">
     <g id="line2d_17">
      <path clip-path="url(#p3e77ee7783)" d="M 193.964602 504 
L 193.964602 69.12 
" style="fill:none;stroke:#f5f5dc;stroke-linecap:square;stroke-opacity:0.8;"/>
     </g>
     <g id="line2d_18">
      <g>
       <use style="stroke:#000000;stroke-width:0.6;" x="193.964602" xlink:href="#me4b55c8e69" y="504"/>
      </g>
     </g>
    </g>
    <g id="xtick_10">
     <g id="line2d_19">
      <path clip-path="url(#p3e77ee7783)" d="M 221.73437 504 
L 221.73437 69.12 
" style="fill:none;stroke:#f5f5dc;stroke-linecap:square;stroke-opacity:0.8;"/>
     </g>
     <g id="line2d_20">
      <g>
       <use style="stroke:#000000;stroke-width:0.6;" x="221.73437" xlink:href="#me4b55c8e69" y="504"/>
      </g>
     </g>
    </g>
    <g id="xtick_11">
     <g id="line2d_21">
      <path clip-path="url(#p3e77ee7783)" d="M 277.273908 504 
L 277.273908 69.12 
" style="fill:none;stroke:#f5f5dc;stroke-linecap:square;stroke-opacity:0.8;"/>
     </g>
     <g id="line2d_22">
      <g>
       <use style="stroke:#000000;stroke-width:0.6;" x="277.273908" xlink:href="#me4b55c8e69" y="504"/>
      </g>
     </g>
    </g>
    <g id="xtick_12">
     <g id="line2d_23">
      <path clip-path="url(#p3e77ee7783)" d="M 305.043677 504 
L 305.043677 69.12 
" style="fill:none;stroke:#f5f5dc;stroke-linecap:square;stroke-opacity:0.8;"/>
     </g>
     <g id="line2d_24">
      <g>
       <use style="stroke:#000000;stroke-width:0.6;" x="305.043677" xlink:href="#me4b55c8e69" y="504"/>
      </g>
     </g>
    </g>
    <g id="xtick_13">
     <g id="line2d_25">
      <path clip-path="url(#p3e77ee7783)" d="M 332.813446 504 
L 332.813446 69.12 
" style="fill:none;stroke:#f5f5dc;stroke-linecap:square;stroke-opacity:0.8;"/>
     </g>
     <g id="line2d_26">
      <g>
       <use style="stroke:#000000;stroke-width:0.6;" x="332.813446" xlink:href="#me4b55c8e69" y="504"/>
      </g>
     </g>
    </g>
    <g id="xtick_14">
     <g id="line2d_27">
      <path clip-path="url(#p3e77ee7783)" d="M 388.352984 504 
L 388.352984 69.12 
" style="fill:none;stroke:#f5f5dc;stroke-linecap:square;stroke-opacity:0.8;"/>
     </g>
     <g id="line2d_28">
      <g>
       <use style="stroke:#000000;stroke-width:0.6;" x="388.352984" xlink:href="#me4b55c8e69" y="504"/>
      </g>
     </g>
    </g>
    <g id="xtick_15">
     <g id="line2d_29">
      <path clip-path="url(#p3e77ee7783)" d="M 416.122753 504 
L 416.122753 69.12 
" style="fill:none;stroke:#f5f5dc;stroke-linecap:square;stroke-opacity:0.8;"/>
     </g>
     <g id="line2d_30">
      <g>
       <use style="stroke:#000000;stroke-width:0.6;" x="416.122753" xlink:href="#me4b55c8e69" y="504"/>
      </g>
     </g>
    </g>
    <g id="xtick_16">
     <g id="line2d_31">
      <path clip-path="url(#p3e77ee7783)" d="M 443.892521 504 
L 443.892521 69.12 
" style="fill:none;stroke:#f5f5dc;stroke-linecap:square;stroke-opacity:0.8;"/>
     </g>
     <g id="line2d_32">
      <g>
       <use style="stroke:#000000;stroke-width:0.6;" x="443.892521" xlink:href="#me4b55c8e69" y="504"/>
      </g>
     </g>
    </g>
    <g id="xtick_17">
     <g id="line2d_33">
      <path clip-path="url(#p3e77ee7783)" d="M 499.432059 504 
L 499.432059 69.12 
" style="fill:none;stroke:#f5f5dc;stroke-linecap:square;stroke-opacity:0.8;"/>
     </g>
     <g id="line2d_34">
      <g>
       <use style="stroke:#000000;stroke-width:0.6;" x="499.432059" xlink:href="#me4b55c8e69" y="504"/>
      </g>
     </g>
    </g>
    <g id="xtick_18">
     <g id="line2d_35">
      <path clip-path="url(#p3e77ee7783)" d="M 527.201828 504 
L 527.201828 69.12 
" style="fill:none;stroke:#f5f5dc;stroke-linecap:square;stroke-opacity:0.8;"/>
     </g>
     <g id="line2d_36">
      <g>
       <use style="stroke:#000000;stroke-width:0.6;" x="527.201828" xlink:href="#me4b55c8e69" y="504"/>
      </g>
     </g>
    </g>
    <g id="xtick_19">
     <g id="line2d_37">
      <path clip-path="url(#p3e77ee7783)" d="M 554.971597 504 
L 554.971597 69.12 
" style="fill:none;stroke:#f5f5dc;stroke-linecap:square;stroke-opacity:0.8;"/>
     </g>
     <g id="line2d_38">
      <g>
       <use style="stroke:#000000;stroke-width:0.6;" x="554.971597" xlink:href="#me4b55c8e69" y="504"/>
      </g>
     </g>
    </g>
    <g id="xtick_20">
     <g id="line2d_39">
      <path clip-path="url(#p3e77ee7783)" d="M 610.511135 504 
L 610.511135 69.12 
" style="fill:none;stroke:#f5f5dc;stroke-linecap:square;stroke-opacity:0.8;"/>
     </g>
     <g id="line2d_40">
      <g>
       <use style="stroke:#000000;stroke-width:0.6;" x="610.511135" xlink:href="#me4b55c8e69" y="504"/>
      </g>
     </g>
    </g>
    <g id="xtick_21">
     <g id="line2d_41">
      <path clip-path="url(#p3e77ee7783)" d="M 638.280904 504 
L 638.280904 69.12 
" style="fill:none;stroke:#f5f5dc;stroke-linecap:square;stroke-opacity:0.8;"/>
     </g>
     <g id="line2d_42">
      <g>
       <use style="stroke:#000000;stroke-width:0.6;" x="638.280904" xlink:href="#me4b55c8e69" y="504"/>
      </g>
     </g>
    </g>
    <g id="xtick_22">
     <g id="line2d_43">
      <path clip-path="url(#p3e77ee7783)" d="M 666.050672 504 
L 666.050672 69.12 
" style="fill:none;stroke:#f5f5dc;stroke-linecap:square;stroke-opacity:0.8;"/>
     </g>
     <g id="line2d_44">
      <g>
       <use style="stroke:#000000;stroke-width:0.6;" x="666.050672" xlink:href="#me4b55c8e69" y="504"/>
      </g>
     </g>
    </g>
    <g id="xtick_23">
     <g id="line2d_45">
      <path clip-path="url(#p3e77ee7783)" d="M 721.59021 504 
L 721.59021 69.12 
" style="fill:none;stroke:#f5f5dc;stroke-linecap:square;stroke-opacity:0.8;"/>
     </g>
     <g id="line2d_46">
      <g>
       <use style="stroke:#000000;stroke-width:0.6;" x="721.59021" xlink:href="#me4b55c8e69" y="504"/>
      </g>
     </g>
    </g>
    <g id="xtick_24">
     <g id="line2d_47">
      <path clip-path="url(#p3e77ee7783)" d="M 749.359979 504 
L 749.359979 69.12 
" style="fill:none;stroke:#f5f5dc;stroke-linecap:square;stroke-opacity:0.8;"/>
     </g>
     <g id="line2d_48">
      <g>
       <use style="stroke:#000000;stroke-width:0.6;" x="749.359979" xlink:href="#me4b55c8e69" y="504"/>
      </g>
     </g>
    </g>
    <g id="xtick_25">
     <g id="line2d_49">
      <path clip-path="url(#p3e77ee7783)" d="M 777.129748 504 
L 777.129748 69.12 
" style="fill:none;stroke:#f5f5dc;stroke-linecap:square;stroke-opacity:0.8;"/>
     </g>
     <g id="line2d_50">
      <g>
       <use style="stroke:#000000;stroke-width:0.6;" x="777.129748" xlink:href="#me4b55c8e69" y="504"/>
      </g>
     </g>
    </g>
    <g id="text_7">
     <!-- Error (mmHg) -->
     <defs>
      <path d="M 9.8125 72.90625 
L 55.90625 72.90625 
L 55.90625 64.59375 
L 19.671875 64.59375 
L 19.671875 43.015625 
L 54.390625 43.015625 
L 54.390625 34.71875 
L 19.671875 34.71875 
L 19.671875 8.296875 
L 56.78125 8.296875 
L 56.78125 0 
L 9.8125 0 
z
" id="DejaVuSans-69"/>
      <path d="M 41.109375 46.296875 
Q 39.59375 47.171875 37.8125 47.578125 
Q 36.03125 48 33.890625 48 
Q 26.265625 48 22.1875 43.046875 
Q 18.109375 38.09375 18.109375 28.8125 
L 18.109375 0 
L 9.078125 0 
L 9.078125 54.6875 
L 18.109375 54.6875 
L 18.109375 46.1875 
Q 20.953125 51.171875 25.484375 53.578125 
Q 30.03125 56 36.53125 56 
Q 37.453125 56 38.578125 55.875 
Q 39.703125 55.765625 41.0625 55.515625 
z
" id="DejaVuSans-114"/>
      <path d="M 30.609375 48.390625 
Q 23.390625 48.390625 19.1875 42.75 
Q 14.984375 37.109375 14.984375 27.296875 
Q 14.984375 17.484375 19.15625 11.84375 
Q 23.34375 6.203125 30.609375 6.203125 
Q 37.796875 6.203125 41.984375 11.859375 
Q 46.1875 17.53125 46.1875 27.296875 
Q 46.1875 37.015625 41.984375 42.703125 
Q 37.796875 48.390625 30.609375 48.390625 
z
M 30.609375 56 
Q 42.328125 56 49.015625 48.375 
Q 55.71875 40.765625 55.71875 27.296875 
Q 55.71875 13.875 49.015625 6.21875 
Q 42.328125 -1.421875 30.609375 -1.421875 
Q 18.84375 -1.421875 12.171875 6.21875 
Q 5.515625 13.875 5.515625 27.296875 
Q 5.515625 40.765625 12.171875 48.375 
Q 18.84375 56 30.609375 56 
z
" id="DejaVuSans-111"/>
      <path id="DejaVuSans-32"/>
      <path d="M 31 75.875 
Q 24.46875 64.65625 21.28125 53.65625 
Q 18.109375 42.671875 18.109375 31.390625 
Q 18.109375 20.125 21.3125 9.0625 
Q 24.515625 -2 31 -13.1875 
L 23.1875 -13.1875 
Q 15.875 -1.703125 12.234375 9.375 
Q 8.59375 20.453125 8.59375 31.390625 
Q 8.59375 42.28125 12.203125 53.3125 
Q 15.828125 64.359375 23.1875 75.875 
z
" id="DejaVuSans-40"/>
      <path d="M 52 44.1875 
Q 55.375 50.25 60.0625 53.125 
Q 64.75 56 71.09375 56 
Q 79.640625 56 84.28125 50.015625 
Q 88.921875 44.046875 88.921875 33.015625 
L 88.921875 0 
L 79.890625 0 
L 79.890625 32.71875 
Q 79.890625 40.578125 77.09375 44.375 
Q 74.3125 48.1875 68.609375 48.1875 
Q 61.625 48.1875 57.5625 43.546875 
Q 53.515625 38.921875 53.515625 30.90625 
L 53.515625 0 
L 44.484375 0 
L 44.484375 32.71875 
Q 44.484375 40.625 41.703125 44.40625 
Q 38.921875 48.1875 33.109375 48.1875 
Q 26.21875 48.1875 22.15625 43.53125 
Q 18.109375 38.875 18.109375 30.90625 
L 18.109375 0 
L 9.078125 0 
L 9.078125 54.6875 
L 18.109375 54.6875 
L 18.109375 46.1875 
Q 21.1875 51.21875 25.484375 53.609375 
Q 29.78125 56 35.6875 56 
Q 41.65625 56 45.828125 52.96875 
Q 50 49.953125 52 44.1875 
z
" id="DejaVuSans-109"/>
      <path d="M 9.8125 72.90625 
L 19.671875 72.90625 
L 19.671875 43.015625 
L 55.515625 43.015625 
L 55.515625 72.90625 
L 65.375 72.90625 
L 65.375 0 
L 55.515625 0 
L 55.515625 34.71875 
L 19.671875 34.71875 
L 19.671875 0 
L 9.8125 0 
z
" id="DejaVuSans-72"/>
      <path d="M 45.40625 27.984375 
Q 45.40625 37.75 41.375 43.109375 
Q 37.359375 48.484375 30.078125 48.484375 
Q 22.859375 48.484375 18.828125 43.109375 
Q 14.796875 37.75 14.796875 27.984375 
Q 14.796875 18.265625 18.828125 12.890625 
Q 22.859375 7.515625 30.078125 7.515625 
Q 37.359375 7.515625 41.375 12.890625 
Q 45.40625 18.265625 45.40625 27.984375 
z
M 54.390625 6.78125 
Q 54.390625 -7.171875 48.1875 -13.984375 
Q 42 -20.796875 29.203125 -20.796875 
Q 24.46875 -20.796875 20.265625 -20.09375 
Q 16.0625 -19.390625 12.109375 -17.921875 
L 12.109375 -9.1875 
Q 16.0625 -11.328125 19.921875 -12.34375 
Q 23.78125 -13.375 27.78125 -13.375 
Q 36.625 -13.375 41.015625 -8.765625 
Q 45.40625 -4.15625 45.40625 5.171875 
L 45.40625 9.625 
Q 42.625 4.78125 38.28125 2.390625 
Q 33.9375 0 27.875 0 
Q 17.828125 0 11.671875 7.65625 
Q 5.515625 15.328125 5.515625 27.984375 
Q 5.515625 40.671875 11.671875 48.328125 
Q 17.828125 56 27.875 56 
Q 33.9375 56 38.28125 53.609375 
Q 42.625 51.21875 45.40625 46.390625 
L 45.40625 54.6875 
L 54.390625 54.6875 
z
" id="DejaVuSans-103"/>
      <path d="M 8.015625 75.875 
L 15.828125 75.875 
Q 23.140625 64.359375 26.78125 53.3125 
Q 30.421875 42.28125 30.421875 31.390625 
Q 30.421875 20.453125 26.78125 9.375 
Q 23.140625 -1.703125 15.828125 -13.1875 
L 8.015625 -13.1875 
Q 14.5 -2 17.703125 9.0625 
Q 20.90625 20.125 20.90625 31.390625 
Q 20.90625 42.671875 17.703125 53.65625 
Q 14.5 64.65625 8.015625 75.875 
z
" id="DejaVuSans-41"/>
     </defs>
     <g transform="translate(408.251563 532.276562)scale(0.1 -0.1)">
      <use xlink:href="#DejaVuSans-69"/>
      <use x="63.183594" xlink:href="#DejaVuSans-114"/>
      <use x="104.28125" xlink:href="#DejaVuSans-114"/>
      <use x="145.363281" xlink:href="#DejaVuSans-111"/>
      <use x="206.544922" xlink:href="#DejaVuSans-114"/>
      <use x="247.658203" xlink:href="#DejaVuSans-32"/>
      <use x="279.445312" xlink:href="#DejaVuSans-40"/>
      <use x="318.458984" xlink:href="#DejaVuSans-109"/>
      <use x="415.871094" xlink:href="#DejaVuSans-109"/>
      <use x="513.283203" xlink:href="#DejaVuSans-72"/>
      <use x="588.478516" xlink:href="#DejaVuSans-103"/>
      <use x="651.955078" xlink:href="#DejaVuSans-41"/>
     </g>
    </g>
   </g>
   <g id="matplotlib.axis_2">
    <g id="ytick_1">
     <g id="line2d_51">
      <path clip-path="url(#p3e77ee7783)" d="M 108 504 
L 777.6 504 
" style="fill:none;stroke:#808080;stroke-dasharray:9.6,2.4,1.5,2.4;stroke-dashoffset:0;stroke-opacity:0.6;stroke-width:1.5;"/>
     </g>
     <g id="line2d_52">
      <defs>
       <path d="M 0 0 
L -3.5 0 
" id="m32ea8018e6" style="stroke:#000000;stroke-width:0.8;"/>
      </defs>
      <g>
       <use style="stroke:#000000;stroke-width:0.8;" x="108" xlink:href="#m32ea8018e6" y="504"/>
      </g>
     </g>
     <g id="text_8">
      <!-- 0.0 -->
      <defs>
       <path d="M 10.6875 12.40625 
L 21 12.40625 
L 21 0 
L 10.6875 0 
z
" id="DejaVuSans-46"/>
      </defs>
      <g transform="translate(85.096875 507.799219)scale(0.1 -0.1)">
       <use xlink:href="#DejaVuSans-48"/>
       <use x="63.623047" xlink:href="#DejaVuSans-46"/>
       <use x="95.410156" xlink:href="#DejaVuSans-48"/>
      </g>
     </g>
    </g>
    <g id="ytick_2">
     <g id="line2d_53">
      <path clip-path="url(#p3e77ee7783)" d="M 108 421.165714 
L 777.6 421.165714 
" style="fill:none;stroke:#808080;stroke-dasharray:9.6,2.4,1.5,2.4;stroke-dashoffset:0;stroke-opacity:0.6;stroke-width:1.5;"/>
     </g>
     <g id="line2d_54">
      <g>
       <use style="stroke:#000000;stroke-width:0.8;" x="108" xlink:href="#m32ea8018e6" y="421.165714"/>
      </g>
     </g>
     <g id="text_9">
      <!-- 0.2 -->
      <g transform="translate(85.096875 424.964933)scale(0.1 -0.1)">
       <use xlink:href="#DejaVuSans-48"/>
       <use x="63.623047" xlink:href="#DejaVuSans-46"/>
       <use x="95.410156" xlink:href="#DejaVuSans-50"/>
      </g>
     </g>
    </g>
    <g id="ytick_3">
     <g id="line2d_55">
      <path clip-path="url(#p3e77ee7783)" d="M 108 338.331429 
L 777.6 338.331429 
" style="fill:none;stroke:#808080;stroke-dasharray:9.6,2.4,1.5,2.4;stroke-dashoffset:0;stroke-opacity:0.6;stroke-width:1.5;"/>
     </g>
     <g id="line2d_56">
      <g>
       <use style="stroke:#000000;stroke-width:0.8;" x="108" xlink:href="#m32ea8018e6" y="338.331429"/>
      </g>
     </g>
     <g id="text_10">
      <!-- 0.4 -->
      <g transform="translate(85.096875 342.130647)scale(0.1 -0.1)">
       <use xlink:href="#DejaVuSans-48"/>
       <use x="63.623047" xlink:href="#DejaVuSans-46"/>
       <use x="95.410156" xlink:href="#DejaVuSans-52"/>
      </g>
     </g>
    </g>
    <g id="ytick_4">
     <g id="line2d_57">
      <path clip-path="url(#p3e77ee7783)" d="M 108 255.497143 
L 777.6 255.497143 
" style="fill:none;stroke:#808080;stroke-dasharray:9.6,2.4,1.5,2.4;stroke-dashoffset:0;stroke-opacity:0.6;stroke-width:1.5;"/>
     </g>
     <g id="line2d_58">
      <g>
       <use style="stroke:#000000;stroke-width:0.8;" x="108" xlink:href="#m32ea8018e6" y="255.497143"/>
      </g>
     </g>
     <g id="text_11">
      <!-- 0.6 -->
      <g transform="translate(85.096875 259.296362)scale(0.1 -0.1)">
       <use xlink:href="#DejaVuSans-48"/>
       <use x="63.623047" xlink:href="#DejaVuSans-46"/>
       <use x="95.410156" xlink:href="#DejaVuSans-54"/>
      </g>
     </g>
    </g>
    <g id="ytick_5">
     <g id="line2d_59">
      <path clip-path="url(#p3e77ee7783)" d="M 108 172.662857 
L 777.6 172.662857 
" style="fill:none;stroke:#808080;stroke-dasharray:9.6,2.4,1.5,2.4;stroke-dashoffset:0;stroke-opacity:0.6;stroke-width:1.5;"/>
     </g>
     <g id="line2d_60">
      <g>
       <use style="stroke:#000000;stroke-width:0.8;" x="108" xlink:href="#m32ea8018e6" y="172.662857"/>
      </g>
     </g>
     <g id="text_12">
      <!-- 0.8 -->
      <g transform="translate(85.096875 176.462076)scale(0.1 -0.1)">
       <use xlink:href="#DejaVuSans-48"/>
       <use x="63.623047" xlink:href="#DejaVuSans-46"/>
       <use x="95.410156" xlink:href="#DejaVuSans-56"/>
      </g>
     </g>
    </g>
    <g id="ytick_6">
     <g id="line2d_61">
      <path clip-path="url(#p3e77ee7783)" d="M 108 89.828571 
L 777.6 89.828571 
" style="fill:none;stroke:#808080;stroke-dasharray:9.6,2.4,1.5,2.4;stroke-dashoffset:0;stroke-opacity:0.6;stroke-width:1.5;"/>
     </g>
     <g id="line2d_62">
      <g>
       <use style="stroke:#000000;stroke-width:0.8;" x="108" xlink:href="#m32ea8018e6" y="89.828571"/>
      </g>
     </g>
     <g id="text_13">
      <!-- 1.0 -->
      <g transform="translate(85.096875 93.62779)scale(0.1 -0.1)">
       <use xlink:href="#DejaVuSans-49"/>
       <use x="63.623047" xlink:href="#DejaVuSans-46"/>
       <use x="95.410156" xlink:href="#DejaVuSans-48"/>
      </g>
     </g>
    </g>
    <g id="ytick_7">
     <g id="line2d_63">
      <path clip-path="url(#p3e77ee7783)" d="M 108 483.291429 
L 777.6 483.291429 
" style="fill:none;stroke:#f5f5dc;stroke-linecap:square;stroke-opacity:0.8;"/>
     </g>
     <g id="line2d_64">
      <defs>
       <path d="M 0 0 
L -2 0 
" id="m94ed0ffafb" style="stroke:#000000;stroke-width:0.6;"/>
      </defs>
      <g>
       <use style="stroke:#000000;stroke-width:0.6;" x="108" xlink:href="#m94ed0ffafb" y="483.291429"/>
      </g>
     </g>
    </g>
    <g id="ytick_8">
     <g id="line2d_65">
      <path clip-path="url(#p3e77ee7783)" d="M 108 462.582857 
L 777.6 462.582857 
" style="fill:none;stroke:#f5f5dc;stroke-linecap:square;stroke-opacity:0.8;"/>
     </g>
     <g id="line2d_66">
      <g>
       <use style="stroke:#000000;stroke-width:0.6;" x="108" xlink:href="#m94ed0ffafb" y="462.582857"/>
      </g>
     </g>
    </g>
    <g id="ytick_9">
     <g id="line2d_67">
      <path clip-path="url(#p3e77ee7783)" d="M 108 441.874286 
L 777.6 441.874286 
" style="fill:none;stroke:#f5f5dc;stroke-linecap:square;stroke-opacity:0.8;"/>
     </g>
     <g id="line2d_68">
      <g>
       <use style="stroke:#000000;stroke-width:0.6;" x="108" xlink:href="#m94ed0ffafb" y="441.874286"/>
      </g>
     </g>
    </g>
    <g id="ytick_10">
     <g id="line2d_69">
      <path clip-path="url(#p3e77ee7783)" d="M 108 400.457143 
L 777.6 400.457143 
" style="fill:none;stroke:#f5f5dc;stroke-linecap:square;stroke-opacity:0.8;"/>
     </g>
     <g id="line2d_70">
      <g>
       <use style="stroke:#000000;stroke-width:0.6;" x="108" xlink:href="#m94ed0ffafb" y="400.457143"/>
      </g>
     </g>
    </g>
    <g id="ytick_11">
     <g id="line2d_71">
      <path clip-path="url(#p3e77ee7783)" d="M 108 379.748571 
L 777.6 379.748571 
" style="fill:none;stroke:#f5f5dc;stroke-linecap:square;stroke-opacity:0.8;"/>
     </g>
     <g id="line2d_72">
      <g>
       <use style="stroke:#000000;stroke-width:0.6;" x="108" xlink:href="#m94ed0ffafb" y="379.748571"/>
      </g>
     </g>
    </g>
    <g id="ytick_12">
     <g id="line2d_73">
      <path clip-path="url(#p3e77ee7783)" d="M 108 359.04 
L 777.6 359.04 
" style="fill:none;stroke:#f5f5dc;stroke-linecap:square;stroke-opacity:0.8;"/>
     </g>
     <g id="line2d_74">
      <g>
       <use style="stroke:#000000;stroke-width:0.6;" x="108" xlink:href="#m94ed0ffafb" y="359.04"/>
      </g>
     </g>
    </g>
    <g id="ytick_13">
     <g id="line2d_75">
      <path clip-path="url(#p3e77ee7783)" d="M 108 317.622857 
L 777.6 317.622857 
" style="fill:none;stroke:#f5f5dc;stroke-linecap:square;stroke-opacity:0.8;"/>
     </g>
     <g id="line2d_76">
      <g>
       <use style="stroke:#000000;stroke-width:0.6;" x="108" xlink:href="#m94ed0ffafb" y="317.622857"/>
      </g>
     </g>
    </g>
    <g id="ytick_14">
     <g id="line2d_77">
      <path clip-path="url(#p3e77ee7783)" d="M 108 296.914286 
L 777.6 296.914286 
" style="fill:none;stroke:#f5f5dc;stroke-linecap:square;stroke-opacity:0.8;"/>
     </g>
     <g id="line2d_78">
      <g>
       <use style="stroke:#000000;stroke-width:0.6;" x="108" xlink:href="#m94ed0ffafb" y="296.914286"/>
      </g>
     </g>
    </g>
    <g id="ytick_15">
     <g id="line2d_79">
      <path clip-path="url(#p3e77ee7783)" d="M 108 276.205714 
L 777.6 276.205714 
" style="fill:none;stroke:#f5f5dc;stroke-linecap:square;stroke-opacity:0.8;"/>
     </g>
     <g id="line2d_80">
      <g>
       <use style="stroke:#000000;stroke-width:0.6;" x="108" xlink:href="#m94ed0ffafb" y="276.205714"/>
      </g>
     </g>
    </g>
    <g id="ytick_16">
     <g id="line2d_81">
      <path clip-path="url(#p3e77ee7783)" d="M 108 234.788571 
L 777.6 234.788571 
" style="fill:none;stroke:#f5f5dc;stroke-linecap:square;stroke-opacity:0.8;"/>
     </g>
     <g id="line2d_82">
      <g>
       <use style="stroke:#000000;stroke-width:0.6;" x="108" xlink:href="#m94ed0ffafb" y="234.788571"/>
      </g>
     </g>
    </g>
    <g id="ytick_17">
     <g id="line2d_83">
      <path clip-path="url(#p3e77ee7783)" d="M 108 214.08 
L 777.6 214.08 
" style="fill:none;stroke:#f5f5dc;stroke-linecap:square;stroke-opacity:0.8;"/>
     </g>
     <g id="line2d_84">
      <g>
       <use style="stroke:#000000;stroke-width:0.6;" x="108" xlink:href="#m94ed0ffafb" y="214.08"/>
      </g>
     </g>
    </g>
    <g id="ytick_18">
     <g id="line2d_85">
      <path clip-path="url(#p3e77ee7783)" d="M 108 193.371429 
L 777.6 193.371429 
" style="fill:none;stroke:#f5f5dc;stroke-linecap:square;stroke-opacity:0.8;"/>
     </g>
     <g id="line2d_86">
      <g>
       <use style="stroke:#000000;stroke-width:0.6;" x="108" xlink:href="#m94ed0ffafb" y="193.371429"/>
      </g>
     </g>
    </g>
    <g id="ytick_19">
     <g id="line2d_87">
      <path clip-path="url(#p3e77ee7783)" d="M 108 151.954286 
L 777.6 151.954286 
" style="fill:none;stroke:#f5f5dc;stroke-linecap:square;stroke-opacity:0.8;"/>
     </g>
     <g id="line2d_88">
      <g>
       <use style="stroke:#000000;stroke-width:0.6;" x="108" xlink:href="#m94ed0ffafb" y="151.954286"/>
      </g>
     </g>
    </g>
    <g id="ytick_20">
     <g id="line2d_89">
      <path clip-path="url(#p3e77ee7783)" d="M 108 131.245714 
L 777.6 131.245714 
" style="fill:none;stroke:#f5f5dc;stroke-linecap:square;stroke-opacity:0.8;"/>
     </g>
     <g id="line2d_90">
      <g>
       <use style="stroke:#000000;stroke-width:0.6;" x="108" xlink:href="#m94ed0ffafb" y="131.245714"/>
      </g>
     </g>
    </g>
    <g id="ytick_21">
     <g id="line2d_91">
      <path clip-path="url(#p3e77ee7783)" d="M 108 110.537143 
L 777.6 110.537143 
" style="fill:none;stroke:#f5f5dc;stroke-linecap:square;stroke-opacity:0.8;"/>
     </g>
     <g id="line2d_92">
      <g>
       <use style="stroke:#000000;stroke-width:0.6;" x="108" xlink:href="#m94ed0ffafb" y="110.537143"/>
      </g>
     </g>
    </g>
    <g id="text_14">
     <!-- Imperical CDF -->
     <defs>
      <path d="M 9.8125 72.90625 
L 19.671875 72.90625 
L 19.671875 0 
L 9.8125 0 
z
" id="DejaVuSans-73"/>
      <path d="M 18.109375 8.203125 
L 18.109375 -20.796875 
L 9.078125 -20.796875 
L 9.078125 54.6875 
L 18.109375 54.6875 
L 18.109375 46.390625 
Q 20.953125 51.265625 25.265625 53.625 
Q 29.59375 56 35.59375 56 
Q 45.5625 56 51.78125 48.09375 
Q 58.015625 40.1875 58.015625 27.296875 
Q 58.015625 14.40625 51.78125 6.484375 
Q 45.5625 -1.421875 35.59375 -1.421875 
Q 29.59375 -1.421875 25.265625 0.953125 
Q 20.953125 3.328125 18.109375 8.203125 
z
M 48.6875 27.296875 
Q 48.6875 37.203125 44.609375 42.84375 
Q 40.53125 48.484375 33.40625 48.484375 
Q 26.265625 48.484375 22.1875 42.84375 
Q 18.109375 37.203125 18.109375 27.296875 
Q 18.109375 17.390625 22.1875 11.75 
Q 26.265625 6.109375 33.40625 6.109375 
Q 40.53125 6.109375 44.609375 11.75 
Q 48.6875 17.390625 48.6875 27.296875 
z
" id="DejaVuSans-112"/>
      <path d="M 56.203125 29.59375 
L 56.203125 25.203125 
L 14.890625 25.203125 
Q 15.484375 15.921875 20.484375 11.0625 
Q 25.484375 6.203125 34.421875 6.203125 
Q 39.59375 6.203125 44.453125 7.46875 
Q 49.3125 8.734375 54.109375 11.28125 
L 54.109375 2.78125 
Q 49.265625 0.734375 44.1875 -0.34375 
Q 39.109375 -1.421875 33.890625 -1.421875 
Q 20.796875 -1.421875 13.15625 6.1875 
Q 5.515625 13.8125 5.515625 26.8125 
Q 5.515625 40.234375 12.765625 48.109375 
Q 20.015625 56 32.328125 56 
Q 43.359375 56 49.78125 48.890625 
Q 56.203125 41.796875 56.203125 29.59375 
z
M 47.21875 32.234375 
Q 47.125 39.59375 43.09375 43.984375 
Q 39.0625 48.390625 32.421875 48.390625 
Q 24.90625 48.390625 20.390625 44.140625 
Q 15.875 39.890625 15.1875 32.171875 
z
" id="DejaVuSans-101"/>
      <path d="M 9.421875 54.6875 
L 18.40625 54.6875 
L 18.40625 0 
L 9.421875 0 
z
M 9.421875 75.984375 
L 18.40625 75.984375 
L 18.40625 64.59375 
L 9.421875 64.59375 
z
" id="DejaVuSans-105"/>
      <path d="M 48.78125 52.59375 
L 48.78125 44.1875 
Q 44.96875 46.296875 41.140625 47.34375 
Q 37.3125 48.390625 33.40625 48.390625 
Q 24.65625 48.390625 19.8125 42.84375 
Q 14.984375 37.3125 14.984375 27.296875 
Q 14.984375 17.28125 19.8125 11.734375 
Q 24.65625 6.203125 33.40625 6.203125 
Q 37.3125 6.203125 41.140625 7.25 
Q 44.96875 8.296875 48.78125 10.40625 
L 48.78125 2.09375 
Q 45.015625 0.34375 40.984375 -0.53125 
Q 36.96875 -1.421875 32.421875 -1.421875 
Q 20.0625 -1.421875 12.78125 6.34375 
Q 5.515625 14.109375 5.515625 27.296875 
Q 5.515625 40.671875 12.859375 48.328125 
Q 20.21875 56 33.015625 56 
Q 37.15625 56 41.109375 55.140625 
Q 45.0625 54.296875 48.78125 52.59375 
z
" id="DejaVuSans-99"/>
      <path d="M 34.28125 27.484375 
Q 23.390625 27.484375 19.1875 25 
Q 14.984375 22.515625 14.984375 16.5 
Q 14.984375 11.71875 18.140625 8.90625 
Q 21.296875 6.109375 26.703125 6.109375 
Q 34.1875 6.109375 38.703125 11.40625 
Q 43.21875 16.703125 43.21875 25.484375 
L 43.21875 27.484375 
z
M 52.203125 31.203125 
L 52.203125 0 
L 43.21875 0 
L 43.21875 8.296875 
Q 40.140625 3.328125 35.546875 0.953125 
Q 30.953125 -1.421875 24.3125 -1.421875 
Q 15.921875 -1.421875 10.953125 3.296875 
Q 6 8.015625 6 15.921875 
Q 6 25.140625 12.171875 29.828125 
Q 18.359375 34.515625 30.609375 34.515625 
L 43.21875 34.515625 
L 43.21875 35.40625 
Q 43.21875 41.609375 39.140625 45 
Q 35.0625 48.390625 27.6875 48.390625 
Q 23 48.390625 18.546875 47.265625 
Q 14.109375 46.140625 10.015625 43.890625 
L 10.015625 52.203125 
Q 14.9375 54.109375 19.578125 55.046875 
Q 24.21875 56 28.609375 56 
Q 40.484375 56 46.34375 49.84375 
Q 52.203125 43.703125 52.203125 31.203125 
z
" id="DejaVuSans-97"/>
      <path d="M 9.421875 75.984375 
L 18.40625 75.984375 
L 18.40625 0 
L 9.421875 0 
z
" id="DejaVuSans-108"/>
      <path d="M 64.40625 67.28125 
L 64.40625 56.890625 
Q 59.421875 61.53125 53.78125 63.8125 
Q 48.140625 66.109375 41.796875 66.109375 
Q 29.296875 66.109375 22.65625 58.46875 
Q 16.015625 50.828125 16.015625 36.375 
Q 16.015625 21.96875 22.65625 14.328125 
Q 29.296875 6.6875 41.796875 6.6875 
Q 48.140625 6.6875 53.78125 8.984375 
Q 59.421875 11.28125 64.40625 15.921875 
L 64.40625 5.609375 
Q 59.234375 2.09375 53.4375 0.328125 
Q 47.65625 -1.421875 41.21875 -1.421875 
Q 24.65625 -1.421875 15.125 8.703125 
Q 5.609375 18.84375 5.609375 36.375 
Q 5.609375 53.953125 15.125 64.078125 
Q 24.65625 74.21875 41.21875 74.21875 
Q 47.75 74.21875 53.53125 72.484375 
Q 59.328125 70.75 64.40625 67.28125 
z
" id="DejaVuSans-67"/>
      <path d="M 19.671875 64.796875 
L 19.671875 8.109375 
L 31.59375 8.109375 
Q 46.6875 8.109375 53.6875 14.9375 
Q 60.6875 21.78125 60.6875 36.53125 
Q 60.6875 51.171875 53.6875 57.984375 
Q 46.6875 64.796875 31.59375 64.796875 
z
M 9.8125 72.90625 
L 30.078125 72.90625 
Q 51.265625 72.90625 61.171875 64.09375 
Q 71.09375 55.28125 71.09375 36.53125 
Q 71.09375 17.671875 61.125 8.828125 
Q 51.171875 0 30.078125 0 
L 9.8125 0 
z
" id="DejaVuSans-68"/>
      <path d="M 9.8125 72.90625 
L 51.703125 72.90625 
L 51.703125 64.59375 
L 19.671875 64.59375 
L 19.671875 43.109375 
L 48.578125 43.109375 
L 48.578125 34.8125 
L 19.671875 34.8125 
L 19.671875 0 
L 9.8125 0 
z
" id="DejaVuSans-70"/>
     </defs>
     <g transform="translate(79.017187 321.609219)rotate(-90)scale(0.1 -0.1)">
      <use xlink:href="#DejaVuSans-73"/>
      <use x="29.492188" xlink:href="#DejaVuSans-109"/>
      <use x="126.904297" xlink:href="#DejaVuSans-112"/>
      <use x="190.380859" xlink:href="#DejaVuSans-101"/>
      <use x="251.904297" xlink:href="#DejaVuSans-114"/>
      <use x="293.017578" xlink:href="#DejaVuSans-105"/>
      <use x="320.800781" xlink:href="#DejaVuSans-99"/>
      <use x="375.78125" xlink:href="#DejaVuSans-97"/>
      <use x="437.060547" xlink:href="#DejaVuSans-108"/>
      <use x="464.84375" xlink:href="#DejaVuSans-32"/>
      <use x="496.630859" xlink:href="#DejaVuSans-67"/>
      <use x="566.455078" xlink:href="#DejaVuSans-68"/>
      <use x="643.457031" xlink:href="#DejaVuSans-70"/>
     </g>
    </g>
   </g>
   <g id="patch_4">
    <path d="M 108 504 
L 108 69.12 
" style="fill:none;stroke:#000000;stroke-linecap:square;stroke-linejoin:miter;stroke-width:0.8;"/>
   </g>
   <g id="patch_5">
    <path d="M 777.6 504 
L 777.6 69.12 
" style="fill:none;stroke:#000000;stroke-linecap:square;stroke-linejoin:miter;stroke-width:0.8;"/>
   </g>
   <g id="patch_6">
    <path d="M 108 504 
L 777.6 504 
" style="fill:none;stroke:#000000;stroke-linecap:square;stroke-linejoin:miter;stroke-width:0.8;"/>
   </g>
   <g id="patch_7">
    <path d="M 108 69.12 
L 777.6 69.12 
" style="fill:none;stroke:#000000;stroke-linecap:square;stroke-linejoin:miter;stroke-width:0.8;"/>
   </g>
   <g id="text_15">
    <!-- CDF of SBP Estimation Error Using PR -->
    <defs>
     <path d="M 37.109375 75.984375 
L 37.109375 68.5 
L 28.515625 68.5 
Q 23.6875 68.5 21.796875 66.546875 
Q 19.921875 64.59375 19.921875 59.515625 
L 19.921875 54.6875 
L 34.71875 54.6875 
L 34.71875 47.703125 
L 19.921875 47.703125 
L 19.921875 0 
L 10.890625 0 
L 10.890625 47.703125 
L 2.296875 47.703125 
L 2.296875 54.6875 
L 10.890625 54.6875 
L 10.890625 58.5 
Q 10.890625 67.625 15.140625 71.796875 
Q 19.390625 75.984375 28.609375 75.984375 
z
" id="DejaVuSans-102"/>
     <path d="M 53.515625 70.515625 
L 53.515625 60.890625 
Q 47.90625 63.578125 42.921875 64.890625 
Q 37.9375 66.21875 33.296875 66.21875 
Q 25.25 66.21875 20.875 63.09375 
Q 16.5 59.96875 16.5 54.203125 
Q 16.5 49.359375 19.40625 46.890625 
Q 22.3125 44.4375 30.421875 42.921875 
L 36.375 41.703125 
Q 47.40625 39.59375 52.65625 34.296875 
Q 57.90625 29 57.90625 20.125 
Q 57.90625 9.515625 50.796875 4.046875 
Q 43.703125 -1.421875 29.984375 -1.421875 
Q 24.8125 -1.421875 18.96875 -0.25 
Q 13.140625 0.921875 6.890625 3.21875 
L 6.890625 13.375 
Q 12.890625 10.015625 18.65625 8.296875 
Q 24.421875 6.59375 29.984375 6.59375 
Q 38.421875 6.59375 43.015625 9.90625 
Q 47.609375 13.234375 47.609375 19.390625 
Q 47.609375 24.75 44.3125 27.78125 
Q 41.015625 30.8125 33.5 32.328125 
L 27.484375 33.5 
Q 16.453125 35.6875 11.515625 40.375 
Q 6.59375 45.0625 6.59375 53.421875 
Q 6.59375 63.09375 13.40625 68.65625 
Q 20.21875 74.21875 32.171875 74.21875 
Q 37.3125 74.21875 42.625 73.28125 
Q 47.953125 72.359375 53.515625 70.515625 
z
" id="DejaVuSans-83"/>
     <path d="M 19.671875 34.8125 
L 19.671875 8.109375 
L 35.5 8.109375 
Q 43.453125 8.109375 47.28125 11.40625 
Q 51.125 14.703125 51.125 21.484375 
Q 51.125 28.328125 47.28125 31.5625 
Q 43.453125 34.8125 35.5 34.8125 
z
M 19.671875 64.796875 
L 19.671875 42.828125 
L 34.28125 42.828125 
Q 41.5 42.828125 45.03125 45.53125 
Q 48.578125 48.25 48.578125 53.8125 
Q 48.578125 59.328125 45.03125 62.0625 
Q 41.5 64.796875 34.28125 64.796875 
z
M 9.8125 72.90625 
L 35.015625 72.90625 
Q 46.296875 72.90625 52.390625 68.21875 
Q 58.5 63.53125 58.5 54.890625 
Q 58.5 48.1875 55.375 44.234375 
Q 52.25 40.28125 46.1875 39.3125 
Q 53.46875 37.75 57.5 32.78125 
Q 61.53125 27.828125 61.53125 20.40625 
Q 61.53125 10.640625 54.890625 5.3125 
Q 48.25 0 35.984375 0 
L 9.8125 0 
z
" id="DejaVuSans-66"/>
     <path d="M 19.671875 64.796875 
L 19.671875 37.40625 
L 32.078125 37.40625 
Q 38.96875 37.40625 42.71875 40.96875 
Q 46.484375 44.53125 46.484375 51.125 
Q 46.484375 57.671875 42.71875 61.234375 
Q 38.96875 64.796875 32.078125 64.796875 
z
M 9.8125 72.90625 
L 32.078125 72.90625 
Q 44.34375 72.90625 50.609375 67.359375 
Q 56.890625 61.8125 56.890625 51.125 
Q 56.890625 40.328125 50.609375 34.8125 
Q 44.34375 29.296875 32.078125 29.296875 
L 19.671875 29.296875 
L 19.671875 0 
L 9.8125 0 
z
" id="DejaVuSans-80"/>
     <path d="M 44.28125 53.078125 
L 44.28125 44.578125 
Q 40.484375 46.53125 36.375 47.5 
Q 32.28125 48.484375 27.875 48.484375 
Q 21.1875 48.484375 17.84375 46.4375 
Q 14.5 44.390625 14.5 40.28125 
Q 14.5 37.15625 16.890625 35.375 
Q 19.28125 33.59375 26.515625 31.984375 
L 29.59375 31.296875 
Q 39.15625 29.25 43.1875 25.515625 
Q 47.21875 21.78125 47.21875 15.09375 
Q 47.21875 7.46875 41.1875 3.015625 
Q 35.15625 -1.421875 24.609375 -1.421875 
Q 20.21875 -1.421875 15.453125 -0.5625 
Q 10.6875 0.296875 5.421875 2 
L 5.421875 11.28125 
Q 10.40625 8.6875 15.234375 7.390625 
Q 20.0625 6.109375 24.8125 6.109375 
Q 31.15625 6.109375 34.5625 8.28125 
Q 37.984375 10.453125 37.984375 14.40625 
Q 37.984375 18.0625 35.515625 20.015625 
Q 33.0625 21.96875 24.703125 23.78125 
L 21.578125 24.515625 
Q 13.234375 26.265625 9.515625 29.90625 
Q 5.8125 33.546875 5.8125 39.890625 
Q 5.8125 47.609375 11.28125 51.796875 
Q 16.75 56 26.8125 56 
Q 31.78125 56 36.171875 55.265625 
Q 40.578125 54.546875 44.28125 53.078125 
z
" id="DejaVuSans-115"/>
     <path d="M 18.3125 70.21875 
L 18.3125 54.6875 
L 36.8125 54.6875 
L 36.8125 47.703125 
L 18.3125 47.703125 
L 18.3125 18.015625 
Q 18.3125 11.328125 20.140625 9.421875 
Q 21.96875 7.515625 27.59375 7.515625 
L 36.8125 7.515625 
L 36.8125 0 
L 27.59375 0 
Q 17.1875 0 13.234375 3.875 
Q 9.28125 7.765625 9.28125 18.015625 
L 9.28125 47.703125 
L 2.6875 47.703125 
L 2.6875 54.6875 
L 9.28125 54.6875 
L 9.28125 70.21875 
z
" id="DejaVuSans-116"/>
     <path d="M 54.890625 33.015625 
L 54.890625 0 
L 45.90625 0 
L 45.90625 32.71875 
Q 45.90625 40.484375 42.875 44.328125 
Q 39.84375 48.1875 33.796875 48.1875 
Q 26.515625 48.1875 22.3125 43.546875 
Q 18.109375 38.921875 18.109375 30.90625 
L 18.109375 0 
L 9.078125 0 
L 9.078125 54.6875 
L 18.109375 54.6875 
L 18.109375 46.1875 
Q 21.34375 51.125 25.703125 53.5625 
Q 30.078125 56 35.796875 56 
Q 45.21875 56 50.046875 50.171875 
Q 54.890625 44.34375 54.890625 33.015625 
z
" id="DejaVuSans-110"/>
     <path d="M 8.6875 72.90625 
L 18.609375 72.90625 
L 18.609375 28.609375 
Q 18.609375 16.890625 22.84375 11.734375 
Q 27.09375 6.59375 36.625 6.59375 
Q 46.09375 6.59375 50.34375 11.734375 
Q 54.59375 16.890625 54.59375 28.609375 
L 54.59375 72.90625 
L 64.5 72.90625 
L 64.5 27.390625 
Q 64.5 13.140625 57.4375 5.859375 
Q 50.390625 -1.421875 36.625 -1.421875 
Q 22.796875 -1.421875 15.734375 5.859375 
Q 8.6875 13.140625 8.6875 27.390625 
z
" id="DejaVuSans-85"/>
     <path d="M 44.390625 34.1875 
Q 47.5625 33.109375 50.5625 29.59375 
Q 53.5625 26.078125 56.59375 19.921875 
L 66.609375 0 
L 56 0 
L 46.6875 18.703125 
Q 43.0625 26.03125 39.671875 28.421875 
Q 36.28125 30.8125 30.421875 30.8125 
L 19.671875 30.8125 
L 19.671875 0 
L 9.8125 0 
L 9.8125 72.90625 
L 32.078125 72.90625 
Q 44.578125 72.90625 50.734375 67.671875 
Q 56.890625 62.453125 56.890625 51.90625 
Q 56.890625 45.015625 53.6875 40.46875 
Q 50.484375 35.9375 44.390625 34.1875 
z
M 19.671875 64.796875 
L 19.671875 38.921875 
L 32.078125 38.921875 
Q 39.203125 38.921875 42.84375 42.21875 
Q 46.484375 45.515625 46.484375 51.90625 
Q 46.484375 58.296875 42.84375 61.546875 
Q 39.203125 64.796875 32.078125 64.796875 
z
" id="DejaVuSans-82"/>
    </defs>
    <g transform="translate(330.379688 63.12)scale(0.12 -0.12)">
     <use xlink:href="#DejaVuSans-67"/>
     <use x="69.824219" xlink:href="#DejaVuSans-68"/>
     <use x="146.826172" xlink:href="#DejaVuSans-70"/>
     <use x="204.345703" xlink:href="#DejaVuSans-32"/>
     <use x="236.132812" xlink:href="#DejaVuSans-111"/>
     <use x="297.314453" xlink:href="#DejaVuSans-102"/>
     <use x="332.519531" xlink:href="#DejaVuSans-32"/>
     <use x="364.306641" xlink:href="#DejaVuSans-83"/>
     <use x="427.783203" xlink:href="#DejaVuSans-66"/>
     <use x="496.386719" xlink:href="#DejaVuSans-80"/>
     <use x="556.689453" xlink:href="#DejaVuSans-32"/>
     <use x="588.476562" xlink:href="#DejaVuSans-69"/>
     <use x="651.660156" xlink:href="#DejaVuSans-115"/>
     <use x="703.759766" xlink:href="#DejaVuSans-116"/>
     <use x="742.96875" xlink:href="#DejaVuSans-105"/>
     <use x="770.751953" xlink:href="#DejaVuSans-109"/>
     <use x="868.164062" xlink:href="#DejaVuSans-97"/>
     <use x="929.443359" xlink:href="#DejaVuSans-116"/>
     <use x="968.652344" xlink:href="#DejaVuSans-105"/>
     <use x="996.435547" xlink:href="#DejaVuSans-111"/>
     <use x="1057.617188" xlink:href="#DejaVuSans-110"/>
     <use x="1120.996094" xlink:href="#DejaVuSans-32"/>
     <use x="1152.783203" xlink:href="#DejaVuSans-69"/>
     <use x="1215.966797" xlink:href="#DejaVuSans-114"/>
     <use x="1257.064453" xlink:href="#DejaVuSans-114"/>
     <use x="1298.146484" xlink:href="#DejaVuSans-111"/>
     <use x="1359.328125" xlink:href="#DejaVuSans-114"/>
     <use x="1400.441406" xlink:href="#DejaVuSans-32"/>
     <use x="1432.228516" xlink:href="#DejaVuSans-85"/>
     <use x="1505.421875" xlink:href="#DejaVuSans-115"/>
     <use x="1557.521484" xlink:href="#DejaVuSans-105"/>
     <use x="1585.304688" xlink:href="#DejaVuSans-110"/>
     <use x="1648.683594" xlink:href="#DejaVuSans-103"/>
     <use x="1712.160156" xlink:href="#DejaVuSans-32"/>
     <use x="1743.947266" xlink:href="#DejaVuSans-80"/>
     <use x="1804.25" xlink:href="#DejaVuSans-82"/>
    </g>
   </g>
  </g>
 </g>
 <defs>
  <clipPath id="p3e77ee7783">
   <rect height="434.88" width="669.6" x="108" y="69.12"/>
  </clipPath>
 </defs>
</svg>
